<svg width="42" height="41" viewBox="0 0 42 41" fill="none" xmlns="http://www.w3.org/2000/svg">
<g clip-path="url(#clip0_93_1981)">
<rect x="0.210938" width="41" height="41" rx="20.5" fill="black"/>
<path d="M18.1562 24.3407L24.8246 20.5L18.1562 16.6594V24.3407Z" fill="white"/>
<path d="M20.7109 0C9.39083 0 0.210938 9.17989 0.210938 20.5C0.210938 31.8201 9.39083 41 20.7109 41C32.031 41 41.2109 31.8201 41.2109 20.5C41.2109 9.17989 32.031 0 20.7109 0ZM33.5203 20.521C33.5203 20.521 33.5203 24.6785 32.9929 26.6832C32.6973 27.7805 31.8321 28.6458 30.7348 28.941C28.73 29.4688 20.7109 29.4688 20.7109 29.4688C20.7109 29.4688 12.7128 29.4688 10.6871 28.9201C9.58978 28.6248 8.72456 27.7593 8.42896 26.6619C7.90125 24.6785 7.90125 20.5 7.90125 20.5C7.90125 20.5 7.90125 16.3428 8.42896 14.3381C8.72424 13.2407 9.61073 12.3542 10.6871 12.059C12.6919 11.5312 20.7109 11.5312 20.7109 11.5312C20.7109 11.5312 28.73 11.5312 30.7348 12.0799C31.8321 12.3752 32.6973 13.2407 32.9929 14.3381C33.5416 16.3428 33.5203 20.521 33.5203 20.521Z" fill="white"/>
</g>
<defs>
<clipPath id="clip0_93_1981">
<rect x="0.210938" width="41" height="41" rx="20.5" fill="white"/>
</clipPath>
</defs>
</svg>
