<svg width="27" height="27" viewBox="0 0 27 27" fill="none" xmlns="http://www.w3.org/2000/svg">
<path d="M26.4766 5.42595C26.4749 5.42595 26.4731 5.42595 26.4714 5.42595H24.6972V4.81886C24.7068 4.57857 24.5513 4.36262 24.3204 4.2955C23.0887 3.97272 21.8203 3.81087 20.547 3.81401C18.4536 3.81401 15.6013 4.28503 13.4921 6.4308C11.3987 4.2641 8.52549 3.81401 6.43729 3.81401C5.16397 3.81087 3.89561 3.97272 2.66389 4.2955C2.43296 4.36262 2.27752 4.57857 2.28707 4.81886V5.42072H0.523357C0.234333 5.42072 0 5.65505 0 5.94407V22.6601C0 22.9491 0.234333 23.1835 0.523357 23.1835C0.613244 23.1832 0.70156 23.1598 0.779802 23.1154C0.832138 23.0893 6.06571 20.2265 13.3718 22.0687H13.4503H13.4974C13.5391 22.0737 13.5813 22.0737 13.623 22.0687C20.95 20.2108 26.1836 23.0683 26.215 23.1154C26.3769 23.2089 26.5764 23.2089 26.7383 23.1154C26.8993 23.0225 26.9989 22.8512 27 22.6653V5.94931C27 5.66028 26.7657 5.42595 26.4766 5.42595ZM1.04671 21.828V6.47266H2.29754V19.5985C2.29427 19.8875 2.52592 20.1244 2.81494 20.1277C2.8432 20.128 2.87146 20.1261 2.8994 20.1218C3.98209 19.9565 5.07519 19.869 6.17038 19.8601C7.68746 19.8338 9.1982 20.062 10.6399 20.5353C7.38424 20.1416 4.08199 20.5866 1.04671 21.828ZM6.17038 18.8187C5.21846 18.8208 4.26765 18.882 3.32332 19.0018V5.23231C4.34229 5.0053 5.38286 4.88944 6.42683 4.88689C8.38418 4.88689 11.0847 5.33698 12.9583 7.45134L12.974 20.4882C11.8854 19.7764 9.76061 18.8187 6.17038 18.8187ZM14.0207 7.45134C15.8944 5.35791 18.5949 4.88689 20.5522 4.88689C21.5961 4.88997 22.6367 5.00576 23.6557 5.23231V19.0018C22.7167 18.8809 21.7711 18.8179 20.8244 18.8134C17.2551 18.8134 15.125 19.7712 14.0207 20.4829V7.45134ZM25.9481 21.828C22.9063 20.5832 19.5965 20.1381 16.334 20.5353C17.7824 20.0603 19.3004 19.8321 20.8244 19.8601C21.9264 19.8663 23.0266 19.952 24.1163 20.1166C24.4021 20.16 24.6689 19.9634 24.7123 19.6777C24.7165 19.6498 24.7185 19.6215 24.7182 19.5932V6.47266H25.969L25.9481 21.828Z" fill="#F7A600"/>
</svg>
