<svg width="26" height="26" viewBox="0 0 26 26" fill="none" xmlns="http://www.w3.org/2000/svg">
<g clip-path="url(#clip0_93_3129)">
<path d="M24.0654 4H19.0357V3C19.0357 1.346 17.6817 0 16.0178 0H9.9821C8.31826 0 6.96424 1.346 6.96424 3V4H1.93448C0.270638 4 -1.08337 5.346 -1.08337 7V23C-1.08337 24.654 0.270638 26 1.93448 26H24.0654C25.7293 26 27.0833 24.654 27.0833 23V7C27.0833 5.346 25.7293 4 24.0654 4ZM8.97615 3C8.97615 2.449 9.42782 2 9.9821 2H16.0178C16.5721 2 17.0238 2.449 17.0238 3V4H8.97615V3ZM7.9702 6H23.8622L20.8082 10.555C20.6211 10.834 20.3082 11 19.9712 11H16.8387C16.4222 9.839 15.3157 9 14.0059 9H11.994C10.6843 9 9.57771 9.839 9.16124 11H6.02871C5.69171 11 5.37886 10.833 5.19176 10.555L2.13769 6H7.9702ZM15.0119 12C15.0119 12.551 14.5602 13 14.0059 13H11.994C11.4397 13 10.9881 12.551 10.9881 12C10.9881 11.449 11.4397 11 11.994 11H14.0059C14.5602 11 15.0119 11.449 15.0119 12ZM25.0714 23C25.0714 23.551 24.6197 24 24.0654 24H1.93448C1.3802 24 0.928531 23.551 0.928531 23V7.803L3.51785 11.664C4.07917 12.5 5.01773 13 6.02871 13H9.16124C9.57771 14.161 10.6843 15 11.994 15H14.0059C15.3157 15 16.4222 14.161 16.8387 13H19.9712C20.9822 13 21.9207 12.5 22.4821 11.664L25.0714 7.803V23Z" fill="#F7A600"/>
</g>
<defs>
<clipPath id="clip0_93_3129">
<rect width="26" height="26" fill="white"/>
</clipPath>
</defs>
</svg>
