<svg width="37" height="37" viewBox="0 0 37 37" fill="none" xmlns="http://www.w3.org/2000/svg">
<path d="M2.35794 20.4115H2.42192C2.52293 20.4032 2.62131 20.3751 2.71145 20.3288C2.80158 20.2825 2.8817 20.2188 2.94721 20.1415C3.01272 20.0642 3.06234 19.9747 3.09323 19.8782C3.12412 19.7817 3.13568 19.68 3.12723 19.579C3.09794 19.2213 3.08329 18.8644 3.08329 18.4998C3.08798 14.4125 4.71374 10.494 7.60391 7.60379C10.4941 4.71362 14.4126 3.08786 18.5 3.08317C18.8646 3.08317 19.2215 3.09782 19.5791 3.12711C19.68 3.13541 19.7816 3.12375 19.878 3.0928C19.9745 3.06184 20.0638 3.0122 20.1411 2.94671C20.2183 2.88121 20.2819 2.80115 20.3282 2.71108C20.3745 2.62102 20.4026 2.52272 20.4109 2.4218C20.4192 2.32087 20.4075 2.2193 20.3765 2.12288C20.3456 2.02647 20.2959 1.93709 20.2305 1.85986C20.165 1.78262 20.0849 1.71905 19.9948 1.67276C19.9048 1.62646 19.8065 1.59837 19.7055 1.59007C19.3055 1.55769 18.9062 1.5415 18.5 1.5415C14.0039 1.5466 9.69344 3.33492 6.51424 6.51412C3.33504 9.69332 1.54673 14.0038 1.54163 18.4998C1.54163 18.9061 1.55781 19.3054 1.59019 19.7039C1.60605 19.8966 1.69379 20.0764 1.83601 20.2075C1.97823 20.3386 2.16453 20.4114 2.35794 20.4115Z" fill="#F7A600"/>
<path d="M34.5781 16.5905C34.4771 16.5987 34.3788 16.6268 34.2887 16.6731C34.1986 16.7194 34.1186 16.7829 34.0531 16.8602C33.9876 16.9374 33.9379 17.0268 33.907 17.1232C33.8761 17.2197 33.8644 17.3213 33.8728 17.4222C33.902 17.7783 33.9167 18.1352 33.9167 18.5014C33.9116 22.5884 32.2857 26.5066 29.3955 29.3964C26.5054 32.2862 22.5871 33.9118 18.5 33.9165C18.1354 33.9165 17.7785 33.9018 17.4209 33.8725C17.2164 33.8558 17.0137 33.9209 16.8573 34.0536C16.7009 34.1863 16.6036 34.3757 16.5868 34.5802C16.5701 34.7846 16.6352 34.9873 16.7679 35.1437C16.9006 35.3002 17.09 35.3975 17.2944 35.4142C17.693 35.4458 18.0923 35.462 18.4985 35.462C22.9955 35.4573 27.3069 33.6686 30.4866 30.4886C33.6662 27.3085 35.4543 22.9968 35.4584 18.4998C35.4584 18.0936 35.4422 17.6943 35.4098 17.2958C35.4022 17.1946 35.3746 17.0959 35.3286 17.0055C35.2825 16.915 35.2189 16.8347 35.1415 16.769C35.0642 16.7034 34.9745 16.6538 34.8777 16.6232C34.781 16.5925 34.6791 16.5814 34.5781 16.5905Z" fill="#F7A600"/>
<path d="M18.5 32.3749C20.4693 32.3714 22.4155 31.9506 24.2103 31.1401C26.005 30.3296 27.6076 29.1479 28.9124 27.6728C28.9323 27.6511 28.9506 27.6279 28.9671 27.6035C30.4998 25.8495 31.5636 23.736 32.0592 21.46C32.5548 19.1841 32.4661 16.8197 31.8015 14.5872C32.7563 14.0761 33.5783 13.3485 34.2015 12.4628C34.8247 11.577 35.2319 10.5577 35.3905 9.48628C35.549 8.41491 35.4545 7.32129 35.1145 6.29299C34.7746 5.2647 34.1986 4.33028 33.4326 3.56455C32.6667 2.79882 31.7322 2.22304 30.7038 1.88333C29.6754 1.54361 28.5818 1.44938 27.5104 1.60819C26.4391 1.767 25.4198 2.17443 24.5342 2.79787C23.6486 3.42131 22.9213 4.24344 22.4104 5.19843C19.2666 4.26157 15.8915 4.47779 12.8929 5.80816C10.4325 6.89408 8.34097 8.67202 6.873 10.9254C5.40502 13.1789 4.62398 15.8105 4.62498 18.4999C4.62633 19.8243 4.81951 21.1414 5.19848 22.4104C4.24397 22.9216 3.42238 23.6492 2.79946 24.5349C2.17654 25.4205 1.76958 26.4397 1.61116 27.5109C1.45273 28.582 1.54724 29.6754 1.88711 30.7035C2.22699 31.7316 2.80279 32.6658 3.56845 33.4315C4.3341 34.1971 5.26835 34.7729 6.29643 35.1128C7.32451 35.4527 8.41787 35.5472 9.48902 35.3888C10.5602 35.2303 11.5794 34.8234 12.4651 34.2005C13.3507 33.5775 14.0783 32.7559 14.5895 31.8014C15.8585 32.1805 17.1756 32.3736 18.5 32.3749ZM30.8333 18.4999C30.8318 21.0008 30.0682 23.4418 28.6441 25.4976L28.083 23.6213C27.9686 23.2636 27.7713 22.9379 27.5072 22.6709L26.2461 21.4175C26.1354 21.309 26.0583 21.1709 26.0241 21.0198L25.5917 18.7998C25.4994 18.3524 25.2777 17.942 24.9542 17.6196L24.309 16.9829C24.1825 16.8561 24.1034 16.6896 24.0849 16.5115C24.0664 16.3333 24.1096 16.1541 24.2072 16.004C24.2897 15.8822 24.4054 15.7866 24.5404 15.7284C24.6755 15.6702 24.8244 15.6519 24.9696 15.6756L27.205 16.0541C27.7261 16.1379 28.2602 16.0405 28.7181 15.7781L29.4828 15.3418C29.781 15.3007 30.0761 15.24 30.3662 15.1599C30.6758 16.2462 30.833 17.3703 30.8333 18.4999ZM28.5208 9.05722C28.254 9.05722 27.9932 8.9781 27.7714 8.82988C27.5495 8.68165 27.3766 8.47097 27.2745 8.22448C27.1724 7.97799 27.1457 7.70677 27.1978 7.44509C27.2498 7.18342 27.3783 6.94306 27.567 6.7544C27.7556 6.56575 27.996 6.43727 28.2576 6.38522C28.5193 6.33317 28.7906 6.35989 29.037 6.46199C29.2835 6.56409 29.4942 6.73699 29.6424 6.95882C29.7907 7.18066 29.8698 7.44146 29.8698 7.70826C29.8694 8.0659 29.7271 8.40878 29.4742 8.66167C29.2213 8.91456 28.8785 9.05681 28.5208 9.05722ZM28.5208 10.7916C29.1828 10.7948 29.8261 11.011 30.3557 11.4081C30.8853 11.8053 31.2731 12.3624 31.4615 12.9969C30.5877 13.5697 29.5656 13.8749 28.5208 13.8749C27.476 13.8749 26.4539 13.5697 25.5801 12.9969C25.7686 12.3624 26.1563 11.8053 26.6859 11.4081C27.2155 11.011 27.8588 10.7948 28.5208 10.7916ZM28.5208 3.08326C29.5436 3.08365 30.5453 3.37473 31.409 3.92259C32.2727 4.47045 32.9629 5.25251 33.3992 6.17762C33.8354 7.10274 33.9998 8.13279 33.873 9.14772C33.7463 10.1627 33.3337 11.1207 32.6833 11.9101C32.2381 10.9742 31.4924 10.2144 30.5651 9.75174C30.9697 9.34762 31.2453 8.83257 31.3572 8.27174C31.469 7.71092 31.412 7.12953 31.1933 6.60113C30.9746 6.07272 30.6041 5.62106 30.1287 5.30327C29.6532 4.98549 29.0942 4.81586 28.5224 4.81586C27.9505 4.81586 27.3915 4.98549 26.916 5.30327C26.4406 5.62106 26.0701 6.07272 25.8514 6.60113C25.6327 7.12953 25.5757 7.71092 25.6875 8.27174C25.7994 8.83257 26.075 9.34762 26.4797 9.75174C25.5523 10.2144 24.8066 10.9742 24.3614 11.9101C23.7112 11.1209 23.2986 10.1631 23.1718 9.14848C23.0449 8.13383 23.209 7.10402 23.6449 6.17902C24.0808 5.25402 24.7705 4.47192 25.6338 3.92383C26.497 3.37574 27.4983 3.08423 28.5208 3.08326ZM21.8392 6.63835C21.4533 8.01511 21.5057 9.47789 21.9892 10.8235C22.4727 12.1691 23.3632 13.3307 24.5372 14.147C24.2108 14.1909 23.8975 14.3039 23.6183 14.4786C23.3392 14.6533 23.1005 14.8856 22.9184 15.1599C22.6276 15.6057 22.4986 16.1378 22.5529 16.6672C22.6072 17.1967 22.8415 17.6915 23.2167 18.069L23.8688 18.7134C23.9757 18.8185 24.0496 18.9524 24.0816 19.0989L24.514 21.3189C24.6074 21.7648 24.8283 22.174 25.15 22.4967L26.4203 23.7601C26.5074 23.8489 26.5731 23.9565 26.6122 24.0746L27.4709 26.9467C26.3177 28.1694 24.9275 29.1446 23.3852 29.8128C21.843 30.481 20.1808 30.8282 18.5 30.8333C17.3703 30.8327 16.2463 30.6753 15.16 30.3654C15.2933 29.8812 15.3732 29.3839 15.3981 28.8823C15.5966 28.9412 15.8024 28.9716 16.0094 28.9725C16.4437 28.9726 16.8677 28.8397 17.2243 28.5917L17.6575 28.3026C17.962 28.1039 18.212 27.8322 18.3848 27.5121C18.5575 27.1921 18.6474 26.834 18.6464 26.4703V24.0885C18.6448 24.0013 18.6607 23.9147 18.6931 23.8338C18.7256 23.7529 18.7739 23.6794 18.8353 23.6175L20.1866 22.277C20.5155 21.9501 20.7326 21.5276 20.8068 21.0699C20.881 20.6122 20.8085 20.1427 20.5997 19.7286L19.9545 18.4475C19.8025 18.1488 19.5848 17.8885 19.3178 17.6859L17.6035 16.3956C17.3545 16.2111 17.0699 16.0804 16.7678 16.0118C16.4656 15.9432 16.1525 15.9382 15.8483 15.997L14.312 16.3108C14.1742 16.338 14.0314 16.3215 13.9033 16.2638C13.7752 16.206 13.6683 16.1098 13.5975 15.9886L13.5559 15.9369C13.4832 15.8266 13.4441 15.6975 13.4433 15.5654C13.4446 15.3924 13.5128 15.2266 13.6337 15.1029C13.8387 14.8978 14.001 14.6541 14.1112 14.3859C14.2215 14.1177 14.2774 13.8303 14.2758 13.5404V12.8543C14.2783 12.6787 14.3501 12.5111 14.4755 12.388L15.6703 11.1847C15.9222 10.9423 16.1107 10.6415 16.2191 10.3091L16.3948 9.76947C16.5483 9.32325 16.5526 8.83926 16.4072 8.39037C16.2618 7.94147 15.9745 7.55196 15.5885 7.28045L14.8347 6.74087C17.1113 6.0351 19.5429 5.99951 21.8392 6.63835ZM13.1334 7.40918L14.6959 8.5292C14.8109 8.61212 14.8957 8.7303 14.9375 8.86581C14.9792 9.00131 14.9756 9.14673 14.9272 9.27999L14.7514 9.81957C14.7201 9.91703 14.6644 10.0049 14.5895 10.0747L13.3801 11.2911C13.1746 11.4945 13.0114 11.7367 12.9 12.0035C12.7886 12.2704 12.7312 12.5567 12.7311 12.8459V13.5319C12.7326 13.6194 12.7166 13.7063 12.6839 13.7875C12.6511 13.8687 12.6025 13.9424 12.5407 14.0044C12.1305 14.4181 11.8998 14.9767 11.8986 15.5592C11.9014 16.0081 12.0383 16.4459 12.2917 16.8164L12.3287 16.8611C12.5683 17.2314 12.9137 17.5209 13.3201 17.6922C13.7265 17.8635 14.175 17.9086 14.6073 17.8216L16.1489 17.5063C16.2408 17.4888 16.3354 17.4906 16.4265 17.5115C16.5177 17.5325 16.6035 17.5722 16.6785 17.6281L18.3952 18.9193C18.4727 18.9806 18.5358 19.0583 18.5802 19.1467L19.2215 20.4208C19.2837 20.5449 19.305 20.6855 19.2824 20.8224C19.2599 20.9594 19.1946 21.0856 19.0958 21.1832L17.7446 22.526C17.5397 22.7311 17.3776 22.9748 17.2675 23.243C17.1574 23.5112 17.1016 23.7986 17.1032 24.0885V26.4703C17.1035 26.5789 17.0765 26.6858 17.0247 26.7812C16.9728 26.8766 16.8978 26.9573 16.8065 27.0161L16.3555 27.3167C16.2495 27.3906 16.1231 27.4296 15.9939 27.4282C15.8647 27.4269 15.7392 27.3852 15.6348 27.309L15.2563 27.0569C15.1714 26.6617 15.0517 26.2748 14.8986 25.9007V24.8824C14.901 24.5206 14.8131 24.1639 14.6428 23.8447C14.4725 23.5254 14.2253 23.2536 13.9235 23.054L13.3161 22.6493C13.2264 22.5885 13.1529 22.5066 13.1022 22.4108C13.0515 22.315 13.0252 22.2081 13.0255 22.0997V19.7178C13.0266 19.4291 12.9705 19.143 12.8602 18.8761C12.75 18.6092 12.588 18.3669 12.3834 18.1631L11.1655 16.9452C10.9257 16.7041 10.6334 16.5218 10.3114 16.4125L9.43036 16.1165C9.33353 16.0854 9.24574 16.0311 9.17456 15.9585C9.10338 15.8858 9.05096 15.7969 9.02182 15.6995L8.81138 15.0828C8.72291 14.8062 8.57966 14.5502 8.39015 14.3301C8.20064 14.11 7.96875 13.9303 7.70832 13.8017L7.21884 13.5573C8.40059 10.8731 10.4965 8.69528 13.1334 7.41149V7.40918ZM6.16665 18.4999C6.16859 17.3187 6.34071 16.144 6.67771 15.0119L7.01688 15.1807C7.09559 15.2189 7.16567 15.2728 7.2228 15.3391C7.27993 15.4054 7.32291 15.4826 7.34911 15.5661L7.56032 16.1828C7.66487 16.5086 7.8451 16.8051 8.08627 17.0479C8.32744 17.2906 8.62268 17.4728 8.94782 17.5796L9.82117 17.8732C9.91669 17.9069 10.0034 17.9617 10.0748 18.0336L11.2927 19.2515C11.3535 19.3121 11.4017 19.3842 11.4344 19.4636C11.4671 19.543 11.4836 19.6281 11.4831 19.714V22.0959C11.4831 22.1606 11.5008 22.2215 11.5062 22.2855C9.99324 21.5374 8.25649 21.3772 6.63223 21.8361C6.32348 20.7509 6.1668 19.6282 6.16665 18.4999ZM5.53842 33.0386C5.72402 32.4023 6.11098 31.8434 6.64122 31.4458C7.17145 31.0481 7.81636 30.8332 8.47915 30.8332C9.14194 30.8332 9.78685 31.0481 10.3171 31.4458C10.8473 31.8434 11.2343 32.4023 11.4199 33.0386C10.5461 33.6114 9.52397 33.9165 8.47915 33.9165C7.43433 33.9165 6.41225 33.6114 5.53842 33.0386ZM8.47915 28.5485C8.21235 28.5485 7.95154 28.4694 7.72971 28.3212C7.50787 28.1729 7.33497 27.9623 7.23287 27.7158C7.13078 27.4693 7.10406 27.1981 7.15611 26.9364C7.20816 26.6747 7.33664 26.4344 7.52529 26.2457C7.71395 26.057 7.95431 25.9286 8.21598 25.8765C8.47765 25.8245 8.74888 25.8512 8.99537 25.9533C9.24186 26.0554 9.45254 26.2283 9.60077 26.4501C9.74899 26.6719 9.82811 26.9328 9.82811 27.1996C9.8277 27.5572 9.68545 27.9001 9.43256 28.153C9.17967 28.4059 8.83679 28.5481 8.47915 28.5485ZM12.6416 31.9517C12.1303 30.8657 11.2189 30.0194 10.0979 29.5899C10.6099 29.2429 10.9971 28.7408 11.2025 28.1574C11.408 27.574 11.4209 26.9401 11.2394 26.3489C11.0579 25.7576 10.6916 25.2401 10.1942 24.8725C9.69676 24.5049 9.09457 24.3065 8.47607 24.3065C7.85756 24.3065 7.25537 24.5049 6.75797 24.8725C6.26057 25.2401 5.89421 25.7576 5.71271 26.3489C5.5312 26.9401 5.54414 27.574 5.74961 28.1574C5.95508 28.7408 6.34225 29.2429 6.85423 29.5899C5.73558 30.0207 4.82649 30.8668 4.31665 31.9517C3.66553 31.1624 3.25229 30.2041 3.12514 29.1888C2.99798 28.1735 3.16216 27.1429 3.59851 26.2173C4.03485 25.2918 4.72539 24.5094 5.58955 23.9614C6.45372 23.4134 7.45589 23.1225 8.47915 23.1225C9.50241 23.1225 10.5046 23.4134 11.3687 23.9614C12.2329 24.5094 12.9234 25.2918 13.3598 26.2173C13.7961 27.1429 13.9603 28.1735 13.8332 29.1888C13.706 30.2041 13.2928 31.1624 12.6416 31.9517Z" fill="#F7A600"/>
</svg>
