<svg width="41" height="41" viewBox="0 0 41 41" fill="none" xmlns="http://www.w3.org/2000/svg">
<path d="M34.9237 7.06054L33.154 5.077L34.6226 1.88349C34.6907 1.73534 34.6795 1.56317 34.5922 1.42624C34.5049 1.2885 34.3544 1.20442 34.1918 1.20282C31.9664 1.1764 31.0471 1.93313 30.2359 2.60018C29.0764 3.55392 27.9809 4.45479 22.2321 2.74352C22.2313 2.74352 22.2297 2.74272 22.2289 2.74272C22.2281 2.74272 22.2265 2.74192 22.2257 2.74192C22.1825 2.72911 22.136 2.7219 22.0888 2.7219C22.088 2.7219 22.0872 2.7219 22.0864 2.7219C21.8213 2.7235 21.6067 2.93892 21.6083 3.20477L21.6596 14.4349C21.6123 14.4309 21.5643 14.4277 21.5154 14.4277H7.47613C6.63771 14.4277 5.95544 15.11 5.95544 15.9484V25.2591C5.95544 26.1103 6.64812 26.8022 7.49855 26.8022C7.70435 26.8022 7.90134 26.7606 8.08072 26.6869V33.9556C8.08072 35.0639 8.9824 35.9655 10.0907 35.9655C10.7025 35.9655 11.2518 35.6901 11.6202 35.2576C11.9789 35.6789 12.5082 35.9503 13.1 35.9647C14.5382 38.2694 18.2122 39.7989 22.3907 39.7989C24.9964 39.7989 27.4532 39.2071 29.3086 38.1332C31.2465 37.0114 32.314 35.4907 32.314 33.8523C32.314 32.3588 31.4059 30.9366 29.7579 29.8484C28.1963 28.817 26.0615 28.1467 23.748 27.9593C23.4837 27.9369 23.2515 28.1347 23.2307 28.3998C23.2091 28.664 23.4061 28.8962 23.6711 28.9171C28.0506 29.271 31.3538 31.3931 31.3538 33.8515C31.3538 35.1327 30.4569 36.3579 28.8282 37.3012C27.1153 38.2926 24.8299 38.8379 22.3907 38.8379C18.7655 38.8379 15.4783 37.5807 14.101 35.7253C14.7312 35.3858 15.1604 34.7195 15.1604 33.9548V30.931C16.5121 29.902 18.5309 29.1837 20.7459 28.9515C21.0101 28.9235 21.2015 28.6872 21.1735 28.4238C21.1455 28.1595 20.9092 27.9681 20.6458 27.9962C18.5213 28.2188 16.6138 28.8386 15.1604 29.7619V24.4623V17.6164H21.5146C21.5683 17.6164 21.6211 17.6132 21.6732 17.6084L21.7444 33.3926C21.7461 33.6569 21.9607 33.8707 22.2249 33.8707H22.2273C22.4924 33.8699 22.707 33.6537 22.7054 33.3878L22.6317 17.1576C22.9256 16.8685 23.109 16.4665 23.109 16.0221C23.109 15.5728 22.9216 15.1668 22.6213 14.877L22.5949 8.98962C25.0493 9.69911 26.7101 9.96337 27.9097 9.96337C29.6129 9.96337 30.3873 9.42925 31.1865 8.87831C31.96 8.34419 32.6911 7.8397 34.5594 7.86212C34.7499 7.86692 34.9237 7.75401 35.0022 7.58104C35.0807 7.40647 35.0502 7.20307 34.9237 7.06054ZM10.0907 35.0038C9.51171 35.0038 9.04166 34.5329 9.04166 33.9548V24.942H11.1405V33.9548C11.1405 34.5337 10.6696 35.0038 10.0907 35.0038ZM13.1505 35.0038C12.5715 35.0038 12.1014 34.5329 12.1014 33.9548V24.942H14.2003V30.6932V30.694V33.9548C14.2003 34.5337 13.7294 35.0038 13.1505 35.0038ZM14.6808 16.6539C14.4157 16.6539 14.2003 16.8693 14.2003 17.1344V23.9802H9.04246V17.1344C9.04246 16.8693 8.82705 16.6539 8.56199 16.6539C8.29693 16.6539 8.08152 16.8693 8.08152 17.1344V24.4607V25.2575C8.08152 25.5786 7.82046 25.8397 7.49935 25.8397C7.17824 25.8397 6.91718 25.5786 6.91718 25.2575V15.9476C6.91718 15.6385 7.16863 15.3879 7.47693 15.3879H21.5154C21.6444 15.3879 21.7637 15.4263 21.8638 15.4928C21.8694 15.4968 21.875 15.5008 21.8806 15.5048C22.0423 15.6193 22.1488 15.8083 22.1488 16.0213C22.1488 16.2327 22.0439 16.4201 21.8846 16.5354C21.8782 16.5394 21.8726 16.5442 21.867 16.5482C21.7661 16.6155 21.646 16.6547 21.5154 16.6547H14.6808V16.6539ZM30.6411 8.08634C29.4528 8.90634 28.3285 9.68069 22.5909 7.98624L22.5725 3.84059C24.6801 4.43237 26.1896 4.6614 27.3155 4.6614C29.2414 4.6614 30.0526 3.99434 30.8469 3.34171C31.4868 2.81559 32.0961 2.31431 33.4246 2.19099L32.1506 4.96169C32.0705 5.13546 32.1018 5.33966 32.2283 5.4822L33.5336 6.94522C32.0721 7.09897 31.3194 7.61868 30.6411 8.08634ZM11.621 13.6734C13.4524 13.6734 14.9426 12.1831 14.9426 10.3517C14.9426 8.52036 13.4524 7.03011 11.621 7.03011C9.78958 7.03011 8.29933 8.52036 8.29933 10.3517C8.29933 12.1831 9.78958 13.6734 11.621 13.6734ZM11.621 7.99024C12.923 7.99024 13.9817 9.04968 13.9817 10.3509C13.9817 11.6522 12.9222 12.7116 11.621 12.7116C10.3197 12.7116 9.26027 11.6522 9.26027 10.3509C9.26027 9.04968 10.3189 7.99024 11.621 7.99024ZM16.7292 33.8515C16.7292 35.5187 19.3221 36.9265 22.3907 36.9265C25.4593 36.9265 28.0522 35.5179 28.0522 33.8515C28.0522 32.4405 26.204 31.1801 23.6575 30.8557C23.3941 30.8221 23.2083 30.5819 23.2419 30.3184C23.2755 30.055 23.5158 29.8692 23.7792 29.9028C26.8614 30.296 29.0139 31.92 29.0139 33.8523C29.0139 36.1153 26.1047 37.8882 22.3915 37.8882C18.6783 37.8882 15.769 36.1153 15.769 33.8523C15.769 32.0025 17.7213 30.4369 20.6274 29.9581C20.8892 29.9148 21.1367 30.0918 21.1799 30.3537C21.2231 30.6155 21.0462 30.863 20.7843 30.9062C18.3964 31.2994 16.7292 32.511 16.7292 33.8515ZM24.7514 33.8515C24.7514 33.4735 24.2829 33.0739 23.5846 32.8585C23.3308 32.78 23.1891 32.511 23.2675 32.2579C23.346 32.0041 23.6151 31.8623 23.8681 31.9408C25.0052 32.2923 25.7115 33.0243 25.7115 33.8515C25.7115 35.043 24.2525 35.9767 22.3899 35.9767C20.5273 35.9767 19.0682 35.043 19.0682 33.8515C19.0682 33.13 19.6136 32.4677 20.5265 32.0809C20.7707 31.9768 21.0526 32.0914 21.1567 32.3356C21.2608 32.5798 21.1463 32.8617 20.902 32.9658C20.3639 33.194 20.03 33.5328 20.03 33.8515C20.03 34.4008 21.0398 35.0158 22.3907 35.0158C23.7416 35.0158 24.7514 34.4016 24.7514 33.8515Z" fill="#F7A600"/>
</svg>
