<svg width="39" height="39" viewBox="0 0 39 39" fill="none" xmlns="http://www.w3.org/2000/svg">
<g clip-path="url(#clip0_93_3546)">
<path d="M6.38774 5.81161L10.7485 6.98009V12.528C10.7485 12.7152 10.8468 12.8887 11.0073 12.9851C13.4932 14.4773 16.4267 15.2661 19.4908 15.2661C22.5549 15.2661 25.4884 14.4773 27.9744 12.9851C28.135 12.8887 28.2331 12.7152 28.2331 12.528V6.98009L31.2588 6.16939V9.15251C30.4492 9.38476 29.8548 10.1312 29.8548 11.0145C29.8548 11.5614 30.0831 12.0558 30.4488 12.4084L30.2757 12.7804C30.0559 13.2528 29.9535 13.7154 29.9535 14.2364V16.439C29.9535 17.1543 30.5354 17.7362 31.2508 17.7362H32.4318C33.1471 17.7362 33.7291 17.1543 33.7291 16.439V14.2364C33.7291 13.7154 33.6267 13.2528 33.4069 12.7804L33.2021 12.3405C33.5285 11.9936 33.7291 11.5272 33.7291 11.0145C33.7291 10.1312 33.1347 9.38468 32.3251 9.15251V5.88367L32.5937 5.81169C33.0765 5.68235 33.4009 5.25967 33.4009 4.75991C33.4009 4.26014 33.0765 3.83754 32.5937 3.70805L20.3119 0.417044C19.7517 0.26691 19.2298 0.26691 18.6695 0.417044L6.38774 3.70797C5.90512 3.83739 5.5807 4.26007 5.5807 4.75983C5.5807 5.25959 5.90504 5.68227 6.38774 5.81161ZM32.6628 16.4388C32.6628 16.564 32.557 16.6697 32.4319 16.6697H31.2509C31.1257 16.6697 31.02 16.564 31.02 16.4388V14.2362C31.02 13.8664 31.0865 13.5655 31.2425 13.2302L31.3917 12.9097C31.521 12.937 31.6548 12.9515 31.792 12.9515C31.9609 12.9515 32.1248 12.9296 32.2812 12.8888L32.4401 13.2303C32.5961 13.5656 32.6627 13.8664 32.6627 14.2363V16.4389L32.6628 16.4388ZM32.6628 11.0144C32.6628 11.4946 32.2722 11.8852 31.792 11.8852C31.3118 11.8852 30.9212 11.4946 30.9212 11.0144C30.9212 10.5342 31.3118 10.1436 31.792 10.1436C32.2722 10.1436 32.6628 10.5342 32.6628 11.0144ZM27.1667 12.2225C24.9025 13.517 22.2555 14.1997 19.4908 14.1997C16.7262 14.1997 14.0792 13.517 11.8149 12.2225V7.26581L18.6695 9.10254C18.9497 9.17765 19.2203 9.2152 19.4908 9.2152C19.7614 9.2152 20.0319 9.17765 20.312 9.10254L27.1667 7.26581V12.2225ZM6.66379 4.73797L18.9455 1.44704C19.3226 1.34604 19.6589 1.34596 20.0359 1.44704L32.3177 4.73797C32.331 4.74155 32.3345 4.74604 32.3345 4.75976C32.3345 4.77347 32.3311 4.77796 32.3178 4.78154L20.0359 8.07247C19.6589 8.17355 19.3226 8.17347 18.9455 8.07247L6.66371 4.78154C6.65046 4.77796 6.64703 4.77354 6.64703 4.75976C6.64703 4.74597 6.65046 4.74155 6.66379 4.73797ZM38.6433 32.5839C38.643 32.58 38.6428 32.5762 38.6425 32.5723C38.5658 31.5741 38.3025 31.0981 37.5993 30.6857C37.1476 30.4208 36.4443 30.2286 35.6975 30.0375L34.7883 29.8139C34.9213 29.6812 35.0457 29.5336 35.1585 29.3701C35.8543 28.362 35.9785 26.9686 35.4606 25.9816C35.0085 25.1203 34.1487 24.6459 33.0394 24.6459C32.6303 24.6459 32.2554 24.7109 31.9221 24.8356C31.9155 24.3384 31.8995 23.8586 31.8735 23.3865C31.8733 23.3826 31.873 23.3788 31.8727 23.3749C31.796 22.3767 31.5328 21.9006 30.8295 21.4884C30.3778 21.2235 29.6745 21.0312 28.9278 20.8402L28.0186 20.6165C28.1515 20.4838 28.2759 20.3362 28.3888 20.1727C29.0846 19.1646 29.2088 17.7712 28.6908 16.7842C28.2387 15.923 27.379 15.4486 26.2697 15.4486C25.1605 15.4486 24.3007 15.923 23.8486 16.7842C23.3307 17.7712 23.4549 19.1646 24.1506 20.1727C24.2635 20.3362 24.3879 20.4838 24.5208 20.6165L23.6068 20.8413C22.8649 21.0311 22.1616 21.2234 21.7099 21.4882C21.0066 21.9005 20.7434 22.3766 20.6666 23.3749C20.6664 23.3788 20.6661 23.3826 20.6659 23.3864C20.6399 23.8586 20.6238 24.3383 20.6173 24.8355C20.2839 24.7108 19.909 24.6459 19.4999 24.6459C19.0777 24.6459 18.6919 24.715 18.3506 24.8477C18.3441 24.3458 18.3281 23.862 18.3019 23.3864C18.3017 23.3826 18.3015 23.3787 18.3012 23.3749C18.2244 22.3766 17.9611 21.9006 17.2579 21.4883C16.8062 21.2235 16.1029 21.0311 15.3562 20.8401L14.447 20.6165C14.58 20.4838 14.7043 20.3361 14.8172 20.1726C15.513 19.1645 15.6372 17.7711 15.1192 16.7842C14.6672 15.9228 13.8073 15.4485 12.6981 15.4485C11.5889 15.4485 10.7291 15.9229 10.2771 16.7842C9.75903 17.7711 9.88327 19.1645 10.5791 20.1726C10.692 20.3361 10.8164 20.4838 10.9492 20.6165L10.0352 20.8412C9.29332 21.031 8.59002 21.2233 8.13832 21.4882C7.43503 21.9004 7.17178 22.3765 7.09507 23.3748C7.09477 23.3787 7.09454 23.3825 7.09431 23.3863C7.06849 23.855 7.05249 24.331 7.04587 24.8245C6.72046 24.7073 6.35674 24.6458 5.96042 24.6458C4.8512 24.6458 3.99137 25.1202 3.53929 25.9815C3.02133 26.9684 3.14549 28.3618 3.84132 29.37C3.9542 29.5335 4.07859 29.6811 4.21143 29.8138L3.29752 30.0387C2.55553 30.2285 1.85216 30.4208 1.40054 30.6856C0.697321 31.0979 0.434072 31.574 0.357366 32.5722C0.357138 32.5761 0.356833 32.5799 0.356605 32.5838C0.267636 34.1992 0.30915 35.6846 0.36148 36.9245C0.40345 37.9174 1.21476 38.6953 2.20857 38.6953H9.71219C10.7061 38.6953 11.5174 37.9175 11.5593 36.9245C11.6116 35.6846 11.6531 34.1993 11.5642 32.5838C11.5639 32.5799 11.5637 32.576 11.5634 32.5722C11.4866 31.574 11.2234 31.098 10.5202 30.6857C10.0686 30.4208 9.36522 30.2286 8.61851 30.0375L7.70932 29.8139C7.84224 29.6812 7.96663 29.5336 8.07944 29.3701C8.09437 29.3484 8.10755 29.3256 8.12202 29.3036C8.37507 29.4297 8.65629 29.498 8.94628 29.498H16.4499C16.7611 29.498 17.0589 29.4213 17.323 29.2798C17.3423 29.3099 17.3605 29.3407 17.3808 29.3701C17.4937 29.5337 17.6181 29.6813 17.7509 29.814L16.837 30.0388C16.095 30.2287 15.3916 30.421 14.94 30.6858C14.2368 31.0981 13.9735 31.5742 13.8968 32.5724C13.8965 32.5762 13.8963 32.5801 13.8961 32.584C13.8071 34.1994 13.8486 35.6848 13.901 36.9247C13.9429 37.9176 14.7542 38.6955 15.748 38.6955H23.2517C24.2455 38.6955 25.0568 37.9177 25.0988 36.9247C25.1511 35.6848 25.1926 34.1994 25.1036 32.584C25.1034 32.5801 25.1032 32.5762 25.1029 32.5724C25.0261 31.5742 24.7629 31.0982 24.0597 30.6858C23.608 30.4209 22.9046 30.2287 22.1579 30.0376L21.2488 29.814C21.3817 29.6813 21.5061 29.5337 21.6189 29.3702C21.6365 29.3447 21.6521 29.3179 21.669 29.2919C21.9277 29.4257 22.2173 29.4981 22.5178 29.4981H30.0214C30.3219 29.4981 30.6115 29.4257 30.8702 29.2919C30.8871 29.3179 30.9027 29.3447 30.9203 29.3702C31.0332 29.5337 31.1576 29.6814 31.2905 29.8141L30.3765 30.0389C29.6346 30.2287 28.9312 30.421 28.4796 30.6858C27.7763 31.0982 27.5131 31.5742 27.4364 32.5725C27.4361 32.5763 27.4359 32.5802 27.4356 32.584C27.3467 34.1995 27.3882 35.6849 27.4405 36.9248C27.4824 37.9178 28.2937 38.6955 29.2876 38.6955H36.7912C37.785 38.6955 38.5963 37.9178 38.6383 36.9248C38.6906 35.685 38.7321 34.1998 38.6432 32.584L38.6433 32.5839ZM34.5163 26.4773C34.8525 27.1178 34.7535 28.0797 34.2809 28.7644C33.9527 29.24 33.5194 29.504 33.058 29.5106C33.0455 29.5106 33.0329 29.5106 33.0203 29.5106C32.5599 29.5041 32.1264 29.2401 31.798 28.7644C31.3253 28.0797 31.2264 27.1178 31.5625 26.4773C31.8289 25.9697 32.3258 25.7124 33.0394 25.7124C33.7531 25.7124 34.25 25.9697 34.5163 26.4773ZM24.7928 17.2799C25.0592 16.7724 25.5561 16.5151 26.2697 16.5151C26.9834 16.5151 27.4803 16.7724 27.7466 17.2799C28.0828 17.9205 27.9838 18.8823 27.5112 19.567C27.183 20.0427 26.7497 20.3066 26.2883 20.3132C26.2758 20.3132 26.2632 20.3132 26.2506 20.3132C25.7901 20.3068 25.3566 20.0427 25.0283 19.567C24.5556 18.8822 24.4567 17.9204 24.7928 17.2799ZM20.9769 26.4773C21.3131 27.1179 21.2141 28.0797 20.7414 28.7644C20.4132 29.24 19.9799 29.504 19.5185 29.5106C19.506 29.5106 19.4934 29.5106 19.4808 29.5106C19.0204 29.5042 18.5868 29.2401 18.2585 28.7644C17.7859 28.0797 17.6869 27.1178 18.0231 26.4773C18.2894 25.9697 18.7863 25.7124 19.5 25.7124C20.2136 25.7124 20.7105 25.9697 20.9769 26.4773ZM11.2214 17.2799C11.4878 16.7724 11.9846 16.5151 12.6982 16.5151C13.4118 16.5151 13.9087 16.7724 14.1751 17.2799C14.5113 17.9204 14.4123 18.8823 13.9396 19.567C13.6114 20.0426 13.1782 20.3066 12.7168 20.3132C12.7043 20.3132 12.6917 20.3132 12.6792 20.3132C12.2187 20.3068 11.7852 20.0427 11.4568 19.567C10.9842 18.8822 10.8852 17.9204 11.2215 17.2798L11.2214 17.2799ZM4.4836 26.4773C4.74997 25.9697 5.24692 25.7124 5.96049 25.7124C6.67407 25.7124 7.17102 25.9697 7.43739 26.4773C7.77361 27.1179 7.67459 28.0797 7.20194 28.7644C6.87364 29.24 6.44243 29.5043 5.97885 29.5106C5.96636 29.5106 5.95387 29.5106 5.94145 29.5106C5.48099 29.5042 5.04742 29.2401 4.71912 28.7644C4.24647 28.0797 4.14753 27.1178 4.48367 26.4772L4.4836 26.4773ZM6.76898 30.681L8.35907 31.072C8.8618 31.2006 9.62147 31.395 9.98092 31.6058C10.2987 31.7921 10.4421 31.906 10.4998 32.6484C10.5858 34.2161 10.5451 35.667 10.4939 36.8798C10.4762 37.3 10.1329 37.6291 9.71226 37.6291H9.58026V34.7244C9.58026 34.4299 9.34153 34.1912 9.04705 34.1912C8.75257 34.1912 8.51385 34.4299 8.51385 34.7244V37.6291H3.40721V34.7244C3.40721 34.4299 3.16849 34.1912 2.87401 34.1912C2.57953 34.1912 2.34081 34.4299 2.34081 34.7244V37.6291H2.2088C1.78826 37.6291 1.44487 37.3 1.42712 36.8798C1.37594 35.6671 1.33518 34.2162 1.42126 32.6487C1.479 31.9061 1.62235 31.7922 1.94014 31.6058C2.2996 31.3951 3.05934 31.2007 3.55719 31.0733L5.15193 30.681C5.42881 30.6129 5.68688 30.5787 5.9445 30.5774C5.94884 30.5774 5.9531 30.5778 5.95745 30.5778H5.9624C5.96697 30.5778 5.97146 30.5774 5.97596 30.5774C6.2338 30.5787 6.49194 30.6129 6.76898 30.6811V30.681ZM16.45 28.4318H16.318V25.527C16.318 25.2325 16.0792 24.9938 15.7848 24.9938C15.4903 24.9938 15.2516 25.2325 15.2516 25.527V28.4318H10.1448V25.527C10.1448 25.2325 9.90612 24.9938 9.61164 24.9938C9.31716 24.9938 9.07844 25.2325 9.07844 25.527V28.4318H8.94643C8.81054 28.4318 8.67937 28.3958 8.56374 28.3308C8.78997 27.5269 8.73696 26.6588 8.38162 25.9818C8.30324 25.8324 8.21175 25.6954 8.10961 25.5698C8.10565 24.8248 8.12164 24.1293 8.15889 23.4513C8.21663 22.7087 8.35998 22.5947 8.67777 22.4084C9.03738 22.1976 9.79697 22.0032 10.2948 21.8759L11.8897 21.4837C12.1664 21.4156 12.4245 21.3814 12.6822 21.38C12.6865 21.38 12.6908 21.3805 12.6952 21.3805H12.7001C12.7047 21.3805 12.7092 21.38 12.7137 21.38C12.9717 21.3814 13.2299 21.4157 13.5068 21.4837L15.0969 21.8747C15.5995 22.0033 16.3592 22.1977 16.7187 22.4086C17.0364 22.5948 17.1798 22.7087 17.2376 23.4512C17.2761 24.1537 17.292 24.8763 17.2863 25.6529C17.2101 25.7555 17.1404 25.8648 17.0789 25.982C16.7285 26.6496 16.673 27.5028 16.8884 28.2973C16.7608 28.384 16.6097 28.432 16.4501 28.432L16.45 28.4318ZM20.3085 30.681L21.8985 31.072C22.4012 31.2006 23.1609 31.395 23.5203 31.6058C23.8381 31.7921 23.9815 31.906 24.0392 32.6484C24.1252 34.2161 24.0845 35.667 24.0333 36.8798C24.0156 37.3 23.6723 37.6291 23.2517 37.6291H23.1197V34.7243C23.1197 34.4298 22.8809 34.1911 22.5865 34.1911C22.292 34.1911 22.0532 34.4298 22.0532 34.7243V37.6291H16.9465V34.7243C16.9465 34.4298 16.7078 34.1911 16.4133 34.1911C16.1189 34.1911 15.8801 34.4298 15.8801 34.7243V37.6291H15.7481C15.3276 37.6291 14.9842 37.2999 14.9664 36.8798C14.9153 35.667 14.8745 34.216 14.9606 32.6484C15.0183 31.906 15.1617 31.7921 15.4795 31.6058C15.8389 31.395 16.5987 31.2006 17.0965 31.0733L18.6913 30.681C18.9682 30.6129 19.2262 30.5787 19.4839 30.5773C19.4882 30.5773 19.4926 30.5778 19.4969 30.5778H19.5019C19.5064 30.5778 19.5109 30.5773 19.5154 30.5773C19.7733 30.5786 20.0315 30.6129 20.3085 30.681H20.3085ZM30.0214 28.4318H29.8894V25.527C29.8894 25.2325 29.6507 24.9938 29.3562 24.9938C29.0617 24.9938 28.823 25.2325 28.823 25.527V28.4318H23.7163V25.527C23.7163 25.2325 23.4776 24.9938 23.1831 24.9938C22.8886 24.9938 22.6499 25.2325 22.6499 25.527V28.4318H22.5179C22.3704 28.4318 22.2289 28.3907 22.107 28.3154C22.3282 27.5158 22.2741 26.6544 21.9211 25.9818C21.8512 25.8485 21.7703 25.7256 21.6814 25.6112C21.6766 24.851 21.6925 24.142 21.7304 23.4513C21.7881 22.7087 21.9315 22.5948 22.2492 22.4085C22.6088 22.1976 23.3684 22.0033 23.8663 21.876L25.4612 21.4837C25.7379 21.4157 25.996 21.3815 26.2537 21.3801C26.258 21.3801 26.2624 21.3805 26.2667 21.3805H26.2716C26.2762 21.3805 26.2807 21.3801 26.2852 21.3801C26.5431 21.3814 26.8013 21.4157 27.0782 21.4837L28.6683 21.8747C29.171 22.0033 29.9306 22.1977 30.2902 22.4086C30.608 22.5949 30.7514 22.7087 30.8091 23.4514C30.8471 24.1421 30.863 24.8511 30.8581 25.6113C30.7692 25.7257 30.6884 25.8485 30.6184 25.9818C30.2653 26.6545 30.2112 27.5158 30.4325 28.3155C30.3106 28.3908 30.1691 28.4318 30.0216 28.4318L30.0214 28.4318ZM37.5728 36.8798C37.5551 37.3 37.2118 37.6291 36.7911 37.6291H36.6591V34.7243C36.6591 34.4298 36.4204 34.1911 36.1259 34.1911C35.8314 34.1911 35.5927 34.4298 35.5927 34.7243V37.6291H30.486V34.7243C30.486 34.4298 30.2473 34.1911 29.9528 34.1911C29.6583 34.1911 29.4196 34.4298 29.4196 34.7243V37.6291H29.2876C28.8671 37.6291 28.5237 37.2999 28.5059 36.8798C28.4547 35.667 28.414 34.216 28.5001 32.6484C28.5578 31.906 28.7011 31.7921 29.0189 31.6058C29.3784 31.3949 30.1381 31.2006 30.636 31.0733L32.2308 30.681C32.5077 30.6129 32.7657 30.5787 33.0233 30.5773C33.0276 30.5773 33.032 30.5778 33.0363 30.5778H33.0413C33.0458 30.5778 33.0503 30.5773 33.0548 30.5773C33.3127 30.5786 33.5709 30.6129 33.8479 30.681L35.4379 31.072C35.9407 31.2006 36.7003 31.395 37.0598 31.6058C37.3776 31.7921 37.5209 31.906 37.5787 32.6486C37.6647 34.2165 37.624 35.6673 37.5728 36.8798Z" fill="#F7A600"/>
</g>
<defs>
<clipPath id="clip0_93_3546">
<rect width="39" height="39" fill="white"/>
</clipPath>
</defs>
</svg>
