<svg width="33" height="34" viewBox="0 0 33 34" fill="none" xmlns="http://www.w3.org/2000/svg">
<g clip-path="url(#clip0_93_3757)">
<path d="M15.2274 23.0607C15.4794 22.801 15.4794 22.3808 15.2274 22.1212C14.9751 21.8623 14.5665 21.8623 14.3139 22.1212C14.0622 22.3808 14.0622 22.801 14.3139 23.0607C14.5665 23.3196 14.9751 23.3196 15.2274 23.0607Z" fill="#F7A600"/>
<path d="M12.1699 7.30261C12.1699 11.3293 15.3557 14.6055 19.2716 14.6055C23.1875 14.6055 26.3733 11.3293 26.3733 7.30261C26.3733 3.27596 23.1875 0 19.2716 0C15.3557 0 12.1699 3.27596 12.1699 7.30261ZM25.0822 7.30261C25.0822 10.5972 22.4756 13.2776 19.2716 13.2776C16.0676 13.2776 13.461 10.5972 13.461 7.30261C13.461 4.00824 16.0676 1.32787 19.2716 1.32787C22.4756 1.32787 25.0822 4.00824 25.0822 7.30261Z" fill="#F7A600"/>
<path d="M7.46874 33.8037C7.71898 34.0631 8.12639 34.0659 8.37991 33.8091L11.51 30.6382C12.0418 30.0914 12.2035 29.2818 11.9696 28.5781L12.6429 27.9104C13.0054 27.5503 13.4827 27.3519 13.9872 27.3519H22.5699C24.0926 27.3519 25.5318 26.7506 26.6228 25.6588C26.6677 25.6139 26.282 26.0811 32.4781 18.4662C33.3971 17.3482 33.2596 15.6693 32.1713 14.7233C31.0899 13.7861 29.4698 13.9207 28.5483 15.0195L24.7386 19.0459C24.2576 18.4371 23.524 18.0576 22.7314 18.0576H15.5321C14.5076 17.6169 13.4206 17.3938 12.2991 17.3938C9.19018 17.3938 6.47558 18.8703 5.01876 21.6386C4.40501 21.519 3.7577 21.71 3.29202 22.1888L0.220726 25.3563C-0.0300229 25.615 -0.0305274 26.0334 0.219717 26.2928L7.46874 33.8037ZM12.2988 18.7214C13.2877 18.7214 14.2438 18.9261 15.1411 19.3297C15.2228 19.3665 15.3108 19.3855 15.3999 19.3855H22.7314C23.4314 19.3855 24.0227 19.9725 24.0227 20.7131C24.0227 21.4454 23.4435 22.041 22.7314 22.041H17.4639C17.1074 22.041 16.8184 22.3382 16.8184 22.7048C16.8184 23.0715 17.1074 23.3686 17.4639 23.3686H22.7314C24.1554 23.3686 25.3138 22.1774 25.3138 20.7131C25.3138 20.5964 25.3057 20.4807 25.2911 20.366C28.9764 16.4706 29.4961 15.9233 29.5183 15.896C29.9784 15.3375 30.7952 15.2667 31.3386 15.7378C31.8825 16.2107 31.9513 17.0501 31.49 17.6117L25.6993 24.7301C24.8537 25.5649 23.7435 26.0243 22.5699 26.0243H13.9872C13.1462 26.0243 12.35 26.355 11.7461 26.955L11.1974 27.4995L6.13957 22.2988C7.32167 20.0184 9.53981 18.7214 12.2988 18.7214ZM4.20572 23.1271C4.41863 22.9081 4.74556 22.8687 5.00514 23.0337C5.11689 23.1037 4.79601 22.8033 10.597 28.7602C10.8551 29.0255 10.8412 29.4484 10.6006 29.6958L7.93215 32.399L1.58849 25.8261L4.20572 23.1271Z" fill="#F7A600"/>
<path d="M18.4969 3.31958V4.09752C17.7454 4.37145 17.2056 5.10944 17.2056 5.97505C17.2056 7.07309 18.0744 7.96672 19.1424 7.96672C19.4984 7.96672 19.788 8.26451 19.788 8.63053C19.788 8.99654 19.4984 9.29433 19.1424 9.29433C18.8667 9.29433 18.5688 9.11612 18.3042 8.79213C18.0746 8.51146 17.6675 8.47541 17.3945 8.7112C17.1216 8.94725 17.0863 9.36592 17.3158 9.64659C17.6609 10.0686 18.0668 10.3628 18.4969 10.5112V11.286C18.4969 11.6528 18.786 11.9498 19.1424 11.9498C19.4989 11.9498 19.788 11.6528 19.788 11.286V10.5081C20.5395 10.2339 21.0793 9.49588 21.0793 8.63053C21.0793 7.53223 20.2105 6.63886 19.1424 6.63886C18.7865 6.63886 18.4969 6.34107 18.4969 5.97505C18.4969 5.60904 18.7865 5.31099 19.1424 5.31099C19.3713 5.31099 19.6127 5.43109 19.8407 5.65807C20.097 5.91306 20.5057 5.90605 20.7537 5.64276C21.0016 5.37921 20.9948 4.95899 20.7388 4.704C20.4111 4.37793 20.0831 4.1935 19.788 4.09285V3.31958C19.788 2.95279 19.4989 2.65552 19.1424 2.65552C18.786 2.65552 18.4969 2.95279 18.4969 3.31958Z" fill="#F7A600"/>
</g>
<defs>
<clipPath id="clip0_93_3757">
<rect width="33" height="34" fill="white"/>
</clipPath>
</defs>
</svg>
