<svg width="44" height="44" viewBox="0 0 44 44" fill="none" xmlns="http://www.w3.org/2000/svg">
<path d="M29.7928 11.2268C28.5662 10.1208 27.1174 9.28964 25.5434 8.78897C23.9695 8.28829 22.3068 8.12966 20.6666 8.3237C18.1909 8.60645 15.8706 9.67347 14.0445 11.3689C12.2184 13.0643 10.9824 15.2992 10.517 17.7471C10.0516 20.195 10.3811 22.7276 11.4576 24.9748C12.534 27.2221 14.3008 29.0662 16.5 30.2378V37.1249C16.5004 37.4895 16.6453 37.839 16.9031 38.0968C17.1609 38.3546 17.5104 38.4996 17.875 38.4999H19.25V39.8749C19.2504 40.2395 19.3953 40.589 19.6531 40.8468C19.9109 41.1046 20.2604 41.2496 20.625 41.2499H23.375C23.7396 41.2496 24.0891 41.1046 24.3469 40.8468C24.6046 40.589 24.7496 40.2395 24.75 39.8749V38.4999H26.125C26.4896 38.4996 26.8391 38.3546 27.0969 38.0968C27.3546 37.839 27.4996 37.4895 27.5 37.1249V30.2382C29.1593 29.3544 30.5807 28.0831 31.6434 26.5322C32.706 24.9813 33.3784 23.1968 33.6035 21.3303C33.8286 19.4639 33.5997 17.5706 32.9363 15.8116C32.2728 14.0526 31.1944 12.4797 29.7928 11.2268ZM26.125 32.9999V34.3749H17.875V32.9999H26.125ZM23.376 39.8749H20.625V38.4999H23.3753L23.376 39.8749ZM24.0625 37.1249H17.875V35.7499H26.125V37.1249H24.0625ZM26.511 29.1996C26.3952 29.256 26.2977 29.3438 26.2294 29.453C26.1611 29.5622 26.125 29.6884 26.125 29.8172V31.6249H22.6875V28.4721L24.5486 26.611C24.6738 26.4813 24.7431 26.3077 24.7415 26.1274C24.74 25.9471 24.6677 25.7747 24.5402 25.6472C24.4127 25.5198 24.2403 25.4475 24.06 25.4459C23.8798 25.4443 23.7061 25.5136 23.5764 25.6389L22 27.2152L20.4236 25.6389C20.2939 25.5136 20.1202 25.4443 19.94 25.4459C19.7597 25.4475 19.5873 25.5198 19.4598 25.6472C19.3323 25.7747 19.26 25.9471 19.2585 26.1274C19.2569 26.3077 19.3262 26.4813 19.4514 26.611L21.3125 28.4721V31.6249H17.875V29.8172C17.875 29.6884 17.8389 29.5622 17.7706 29.453C17.7023 29.3438 17.6047 29.256 17.489 29.1996C15.482 28.2249 13.8456 26.6252 12.8256 24.6409C11.8056 22.6567 11.4571 20.395 11.8324 18.1957C12.2078 15.9964 13.2867 13.9783 14.9071 12.4447C16.5275 10.911 18.6018 9.94462 20.8184 9.69072C21.2154 9.64637 21.6146 9.62406 22.0141 9.6239C24.5483 9.61633 26.9946 10.553 28.8757 12.2512C30.1367 13.3782 31.1008 14.7984 31.6829 16.3863C32.2651 17.9741 32.4474 19.6809 32.2137 21.356C31.98 23.031 31.3375 24.6227 30.3429 25.9906C29.3484 27.3585 28.0323 28.4607 26.511 29.1996Z" fill="#F7A600"/>
<path d="M22 6.875C22.1823 6.875 22.3572 6.80257 22.4861 6.67364C22.6151 6.5447 22.6875 6.36984 22.6875 6.1875V3.4375C22.6875 3.25516 22.6151 3.0803 22.4861 2.95136C22.3572 2.82243 22.1823 2.75 22 2.75C21.8177 2.75 21.6428 2.82243 21.5139 2.95136C21.3849 3.0803 21.3125 3.25516 21.3125 3.4375V6.1875C21.3125 6.36984 21.3849 6.5447 21.5139 6.67364C21.6428 6.80257 21.8177 6.875 22 6.875Z" fill="#F7A600"/>
<path d="M11.7913 10.7009C11.8547 10.7666 11.9305 10.8189 12.0144 10.855C12.0983 10.891 12.1885 10.91 12.2798 10.9108C12.3711 10.9115 12.4616 10.8942 12.5461 10.8596C12.6306 10.825 12.7074 10.774 12.7719 10.7094C12.8365 10.6449 12.8875 10.5681 12.9221 10.4836C12.9566 10.3991 12.974 10.3086 12.9733 10.2173C12.9725 10.126 12.9535 10.0358 12.9175 9.95193C12.8814 9.86805 12.8291 9.79219 12.7634 9.72877L10.8187 7.7841C10.7553 7.71844 10.6794 7.66607 10.5956 7.63003C10.5117 7.594 10.4215 7.57504 10.3302 7.57424C10.2389 7.57345 10.1484 7.59085 10.0639 7.62541C9.97939 7.65998 9.90263 7.71103 9.83808 7.77558C9.77353 7.84013 9.72248 7.91689 9.68791 8.00139C9.65335 8.08588 9.63595 8.17641 9.63674 8.26769C9.63754 8.35898 9.6565 8.44919 9.69253 8.53307C9.72857 8.61695 9.78094 8.69281 9.8466 8.75623L11.7913 10.7009Z" fill="#F7A600"/>
<path d="M8.25 19.25H5.5C5.31766 19.25 5.1428 19.3224 5.01386 19.4514C4.88493 19.5803 4.8125 19.7552 4.8125 19.9375C4.8125 20.1198 4.88493 20.2947 5.01386 20.4236C5.1428 20.5526 5.31766 20.625 5.5 20.625H8.25C8.43234 20.625 8.6072 20.5526 8.73614 20.4236C8.86507 20.2947 8.9375 20.1198 8.9375 19.9375C8.9375 19.7552 8.86507 19.5803 8.73614 19.4514C8.6072 19.3224 8.43234 19.25 8.25 19.25Z" fill="#F7A600"/>
<path d="M11.7913 29.1742L9.8466 31.1189C9.78094 31.1823 9.72857 31.2581 9.69253 31.342C9.6565 31.4259 9.63754 31.5161 9.63674 31.6074C9.63595 31.6987 9.65335 31.7892 9.68791 31.8737C9.72248 31.9582 9.77353 32.0349 9.83808 32.0995C9.90263 32.164 9.97939 32.2151 10.0639 32.2497C10.1484 32.2842 10.2389 32.3016 10.3302 32.3008C10.4215 32.3 10.5117 32.2811 10.5956 32.245C10.6794 32.209 10.7553 32.1566 10.8187 32.091L12.7634 30.1463C12.8886 30.0166 12.9579 29.843 12.9564 29.6627C12.9548 29.4825 12.8825 29.31 12.755 29.1826C12.6275 29.0551 12.4551 28.9828 12.2749 28.9812C12.0946 28.9797 11.9209 29.049 11.7913 29.1742Z" fill="#F7A600"/>
<path d="M33.1813 7.7841L31.2366 9.72877C31.171 9.79219 31.1186 9.86805 31.0826 9.95193C31.0465 10.0358 31.0276 10.126 31.0268 10.2173C31.026 10.3086 31.0434 10.3991 31.0779 10.4836C31.1125 10.5681 31.1635 10.6449 31.2281 10.7094C31.2927 10.774 31.3694 10.825 31.4539 10.8596C31.5384 10.8942 31.6289 10.9115 31.7202 10.9108C31.8115 10.91 31.9017 10.891 31.9856 10.855C32.0695 10.8189 32.1453 10.7666 32.2087 10.7009L34.1534 8.75623C34.2191 8.69281 34.2714 8.61695 34.3075 8.53307C34.3435 8.44919 34.3625 8.35898 34.3633 8.26769C34.3641 8.17641 34.3467 8.08588 34.3121 8.00139C34.2775 7.91689 34.2265 7.84013 34.1619 7.77558C34.0974 7.71103 34.0206 7.65998 33.9361 7.62541C33.8516 7.59085 33.7611 7.57345 33.6698 7.57424C33.5785 7.57504 33.4883 7.594 33.4044 7.63003C33.3206 7.66607 33.2447 7.71844 33.1813 7.7841Z" fill="#F7A600"/>
<path d="M32.2088 29.1742C32.0791 29.049 31.9055 28.9797 31.7252 28.9812C31.545 28.9828 31.3725 29.0551 31.2451 29.1826C31.1176 29.31 31.0453 29.4825 31.0437 29.6627C31.0422 29.843 31.1115 30.0166 31.2367 30.1463L33.1814 32.091C33.311 32.2162 33.4847 32.2855 33.6649 32.2839C33.8452 32.2824 34.0176 32.2101 34.1451 32.0826C34.2726 31.9551 34.3449 31.7827 34.3464 31.6024C34.348 31.4222 34.2787 31.2485 34.1535 31.1189L32.2088 29.1742Z" fill="#F7A600"/>
<path d="M38.5 19.25H35.75C35.5677 19.25 35.3928 19.3224 35.2639 19.4514C35.1349 19.5803 35.0625 19.7552 35.0625 19.9375C35.0625 20.1198 35.1349 20.2947 35.2639 20.4236C35.3928 20.5526 35.5677 20.625 35.75 20.625H38.5C38.6823 20.625 38.8572 20.5526 38.9861 20.4236C39.1151 20.2947 39.1875 20.1198 39.1875 19.9375C39.1875 19.7552 39.1151 19.5803 38.9861 19.4514C38.8572 19.3224 38.6823 19.25 38.5 19.25Z" fill="#F7A600"/>
</svg>
