<svg width="32" height="32" viewBox="0 0 32 32" fill="none" xmlns="http://www.w3.org/2000/svg">
<path d="M28.8 15.2959H3.19996C2.90663 15.2959 2.66663 15.5359 2.66663 15.8292C2.66663 19.7226 4.34129 23.2266 7.01329 25.6692C9.38663 27.8399 12.544 29.1626 16 29.1626C19.456 29.1626 22.6133 27.8399 24.9813 25.6746C24.9813 25.6746 24.9866 25.6746 24.9866 25.6692C27.6533 23.2319 29.3333 19.7226 29.3333 15.8292C29.3333 15.5359 29.0933 15.2959 28.8 15.2959ZM16.5333 22.5652C17.808 22.6186 19.0666 22.8692 20.2666 23.3172C19.3706 25.9039 18.032 27.6906 16.5333 28.0372V22.5652ZM15.4666 21.4826C14.0693 21.5359 12.7093 21.8026 11.4133 22.2826C10.9226 20.5386 10.624 18.5119 10.5813 16.3626H15.4666V21.4826ZM15.4666 22.5652V28.0372C13.9733 27.6906 12.6346 25.9039 11.7333 23.3172C12.9333 22.8692 14.192 22.6186 15.4666 22.5652ZM13.0293 27.7332C11.248 27.2852 9.61596 26.4532 8.23463 25.3226C9.00263 24.6932 9.83996 24.1599 10.736 23.7386C11.328 25.4132 12.112 26.7839 13.0293 27.7332ZM21.264 23.7332C22.16 24.1599 22.9973 24.6879 23.7653 25.3172C22.384 26.4479 20.7573 27.2852 18.9706 27.7279C19.888 26.7839 20.672 25.4132 21.264 23.7332ZM20.5866 22.2826C19.2906 21.8026 17.9306 21.5359 16.5333 21.4826V16.3679H21.424C21.3813 18.5119 21.0773 20.5386 20.5866 22.2826ZM3.74929 16.3626H9.51463C9.55729 18.6932 9.87729 20.8532 10.4106 22.7092C9.33863 23.2052 8.34129 23.8399 7.43463 24.5972C5.26929 22.4852 3.88796 19.5839 3.74929 16.3626ZM24.5653 24.5972C23.6586 23.8346 22.6613 23.1999 21.5893 22.7092C22.1226 20.8532 22.4426 18.6932 22.4853 16.3626H28.2506C28.112 19.5839 26.7306 22.4852 24.5653 24.5972Z" fill="#F7A600"/>
<path d="M26.5226 8.76274C27.0933 8.25607 27.4666 7.5254 27.4666 6.70407C27.4666 5.18407 26.2293 3.95207 24.7146 3.95207C23.2 3.95207 21.9626 5.1894 21.9626 6.70407C21.9626 7.5254 22.3306 8.25607 22.9066 8.76274C21.9466 9.1734 21.1573 9.89874 20.656 10.8054C20.1013 9.64274 19.1306 8.72007 17.9306 8.23474C18.6133 7.67474 19.0453 6.82674 19.0453 5.88274C19.0453 4.20274 17.68 2.8374 16 2.8374C14.32 2.8374 12.9546 4.20274 12.9546 5.88274C12.9546 6.83207 13.392 7.68007 14.0693 8.23474C12.8693 8.72007 11.8986 9.64274 11.344 10.8054C10.848 9.89874 10.0533 9.1734 9.09329 8.76274C9.66396 8.25607 10.0373 7.5254 10.0373 6.70407C10.0373 5.18407 8.79996 3.95207 7.28529 3.95207C5.77063 3.95207 4.53329 5.18407 4.53329 6.70407C4.53329 7.5254 4.90129 8.25607 5.47729 8.76274C3.82396 9.46674 2.66663 11.1041 2.66663 13.0134C2.66663 13.3067 2.90663 13.5467 3.19996 13.5467H11.376H20.6186H28.8C29.0933 13.5467 29.3333 13.3067 29.3333 13.0134C29.3333 11.1041 28.176 9.46674 26.5226 8.76274ZM23.024 6.70407C23.024 5.77074 23.7813 5.01874 24.7093 5.01874C25.6373 5.01874 26.3946 5.77607 26.3946 6.70407C26.3946 7.63207 25.6373 8.3894 24.7093 8.3894C23.7813 8.3894 23.024 7.63207 23.024 6.70407ZM14.0213 5.88274C14.0213 4.79474 14.9066 3.90407 16 3.90407C17.0933 3.90407 17.9786 4.7894 17.9786 5.88274C17.9786 6.97607 17.0933 7.8614 16 7.8614C14.9066 7.8614 14.0213 6.97074 14.0213 5.88274ZM5.59996 6.70407C5.59996 5.77074 6.35729 5.01874 7.28529 5.01874C8.21329 5.01874 8.97063 5.77607 8.97063 6.70407C8.97063 7.63207 8.21329 8.3894 7.28529 8.3894C6.35729 8.3894 5.59996 7.63207 5.59996 6.70407ZM3.77596 12.4801C4.03196 10.7734 5.50929 9.45607 7.29063 9.45607C9.07196 9.45607 10.5493 10.7681 10.8053 12.4801H3.77596ZM11.9466 12.4801C12.208 10.4747 13.9253 8.92274 16 8.92274C18.0746 8.92274 19.792 10.4747 20.0533 12.4801H11.9466ZM21.1946 12.4801C21.4506 10.7734 22.928 9.45607 24.7093 9.45607C26.4906 9.45607 27.968 10.7681 28.224 12.4801H21.1946Z" fill="#F7A600"/>
</svg>
