<svg width="37" height="37" viewBox="0 0 37 37" fill="none" xmlns="http://www.w3.org/2000/svg">
<g clip-path="url(#clip0_93_3782)">
<path d="M36.3833 32.8549V18.5002C36.3816 18.4048 36.3573 18.3112 36.3124 18.227H36.3186L34.809 15.2084C34.4982 14.5791 33.8563 14.1815 33.1545 14.1835H28.9833V13.5668C28.9833 13.4033 28.9183 13.2465 28.8027 13.1309L25.464 9.79222C25.2421 9.57261 24.9676 9.41358 24.6667 9.33034V5.17093L25.9 4.83978V6.33334V6.33766C25.8993 6.97091 26.2158 7.56242 26.743 7.91324C26.9263 8.03552 27.1609 8.05071 27.3584 7.9531C27.556 7.8555 27.6864 7.65992 27.7007 7.44004C27.7149 7.22016 27.6108 7.00938 27.4275 6.88711C27.2435 6.76487 27.133 6.55855 27.1333 6.33766V6.33334V4.45436C27.565 4.20504 27.8041 3.72039 27.7394 3.22613C27.6746 2.73187 27.3187 2.32519 26.8373 2.19551L18.817 0.042108C18.6093 -0.013385 18.3907 -0.013385 18.183 0.042108L10.1627 2.19551C9.6233 2.34276 9.24916 2.83273 9.24916 3.39184C9.24916 3.95095 9.6233 4.44092 10.1627 4.58817L12.3333 5.17093V9.25017H12.2945C11.7462 9.25043 11.2265 9.49448 10.8761 9.91617L8.16282 13.1722C8.06933 13.2825 8.0176 13.4222 8.01667 13.5668V14.1835H3.84553C3.14422 14.1811 2.50253 14.5776 2.19102 15.2059L0.681417 18.2245H0.687583C0.642291 18.3094 0.617975 18.4039 0.616667 18.5002V32.8549C0.236337 33.0735 0.00132275 33.4782 0 33.9168V35.1502C0 35.8313 0.552182 36.3835 1.23333 36.3835H9.42143C9.63999 36.7638 10.0447 36.9989 10.4833 37.0002H26.5167C26.9553 36.9989 27.36 36.7638 27.5786 36.3835H35.7667C36.4478 36.3835 37 35.8313 37 35.1502V33.9168C36.9987 33.4782 36.7637 33.0735 36.3833 32.8549ZM27.1333 32.6835H26.5167V19.1168H35.15V32.6835H27.1333ZM20.35 32.6835H16.65V25.9002H20.35V32.6835ZM20.9667 24.6668H16.0333C15.6928 24.6668 15.4167 24.9429 15.4167 25.2835V32.6835H11.7167V19.1168H25.2833V32.6835H21.5833V25.2835C21.5833 24.9429 21.3072 24.6668 20.9667 24.6668ZM27.75 14.1835V15.4168H9.25V14.1835H27.75ZM26.5167 16.6502V17.8835H10.4833V16.6502H26.5167ZM33.1545 15.4168C33.3882 15.4161 33.6021 15.5484 33.7058 15.7579L34.7689 17.8835H27.75V16.6502C28.4312 16.6502 28.9833 16.098 28.9833 15.4168H33.1545ZM18.5 1.23351L26.5253 3.39184H26.5173L18.5031 5.55017L10.4833 3.38691L18.5 1.23351ZM13.5667 5.50207L18.183 6.74158C18.3906 6.79747 18.6094 6.79747 18.817 6.74158L23.4333 5.50207V9.25017H13.5667V5.50207ZM11.8209 10.7055C11.938 10.5649 12.1115 10.4836 12.2945 10.4835H24.1555C24.3192 10.4834 24.4763 10.5484 24.5921 10.6642L26.878 12.9502H9.94992L11.8209 10.7055ZM3.29423 15.7579C3.39794 15.5484 3.61178 15.4161 3.84553 15.4168H8.01667C8.01667 16.098 8.56885 16.6502 9.25 16.6502V17.8835H2.2311L3.29423 15.7579ZM1.23333 33.9168H9.25V35.1502H1.23333V33.9168ZM9.86667 32.6835H1.85V19.1168H10.4833V32.6835H9.86667ZM10.4833 35.7668V33.9168H26.5167V35.7668H10.4833ZM35.7667 35.1502H27.75V33.9168H35.7667V35.1502Z" fill="#F7A600"/>
<path d="M16.65 20.3499C16.3094 20.3499 16.0333 20.6259 16.0333 20.9665V22.1999C16.0333 22.5404 16.3094 22.8165 16.65 22.8165C16.9906 22.8165 17.2667 22.5404 17.2667 22.1999V20.9665C17.2667 20.6259 16.9906 20.3499 16.65 20.3499Z" fill="#F7A600"/>
<path d="M8.01669 20.9666C7.67612 20.9666 7.40002 21.2426 7.40002 21.5832V22.8166C7.40002 23.1571 7.67612 23.4332 8.01669 23.4332C8.35727 23.4332 8.63336 23.1571 8.63336 22.8166V21.5832C8.63336 21.2426 8.35727 20.9666 8.01669 20.9666Z" fill="#F7A600"/>
<path d="M4.31662 20.9666C3.97604 20.9666 3.69995 21.2426 3.69995 21.5832V22.8166C3.69995 23.1571 3.97604 23.4332 4.31662 23.4332C4.65719 23.4332 4.93328 23.1571 4.93328 22.8166V21.5832C4.93328 21.2426 4.65719 20.9666 4.31662 20.9666Z" fill="#F7A600"/>
<path d="M8.01669 24.6665C7.67612 24.6665 7.40002 24.9426 7.40002 25.2832V26.5165C7.40002 26.8571 7.67612 27.1332 8.01669 27.1332C8.35727 27.1332 8.63336 26.8571 8.63336 26.5165V25.2832C8.63336 24.9426 8.35727 24.6665 8.01669 24.6665Z" fill="#F7A600"/>
<path d="M4.31662 24.6665C3.97604 24.6665 3.69995 24.9426 3.69995 25.2832V26.5165C3.69995 26.8571 3.97604 27.1332 4.31662 27.1332C4.65719 27.1332 4.93328 26.8571 4.93328 26.5165V25.2832C4.93328 24.9426 4.65719 24.6665 4.31662 24.6665Z" fill="#F7A600"/>
<path d="M8.01669 28.3667C7.67612 28.3667 7.40002 28.6428 7.40002 28.9834V30.2167C7.40002 30.5573 7.67612 30.8334 8.01669 30.8334C8.35727 30.8334 8.63336 30.5573 8.63336 30.2167V28.9834C8.63336 28.6428 8.35727 28.3667 8.01669 28.3667Z" fill="#F7A600"/>
<path d="M4.31662 28.3667C3.97604 28.3667 3.69995 28.6428 3.69995 28.9834V30.2167C3.69995 30.5573 3.97604 30.8334 4.31662 30.8334C4.65719 30.8334 4.93328 30.5573 4.93328 30.2167V28.9834C4.93328 28.6428 4.65719 28.3667 4.31662 28.3667Z" fill="#F7A600"/>
<path d="M32.6833 20.9666C32.3427 20.9666 32.0667 21.2426 32.0667 21.5832V22.8166C32.0667 23.1571 32.3427 23.4332 32.6833 23.4332C33.0239 23.4332 33.3 23.1571 33.3 22.8166V21.5832C33.3 21.2426 33.0239 20.9666 32.6833 20.9666Z" fill="#F7A600"/>
<path d="M28.9834 20.9666C28.6428 20.9666 28.3667 21.2426 28.3667 21.5832V22.8166C28.3667 23.1571 28.6428 23.4332 28.9834 23.4332C29.3239 23.4332 29.6 23.1571 29.6 22.8166V21.5832C29.6 21.2426 29.3239 20.9666 28.9834 20.9666Z" fill="#F7A600"/>
<path d="M32.6833 24.6665C32.3427 24.6665 32.0667 24.9426 32.0667 25.2832V26.5165C32.0667 26.8571 32.3427 27.1332 32.6833 27.1332C33.0239 27.1332 33.3 26.8571 33.3 26.5165V25.2832C33.3 24.9426 33.0239 24.6665 32.6833 24.6665Z" fill="#F7A600"/>
<path d="M28.9834 24.6665C28.6428 24.6665 28.3667 24.9426 28.3667 25.2832V26.5165C28.3667 26.8571 28.6428 27.1332 28.9834 27.1332C29.3239 27.1332 29.6 26.8571 29.6 26.5165V25.2832C29.6 24.9426 29.3239 24.6665 28.9834 24.6665Z" fill="#F7A600"/>
<path d="M32.6833 28.3667C32.3427 28.3667 32.0667 28.6428 32.0667 28.9834V30.2167C32.0667 30.5573 32.3427 30.8334 32.6833 30.8334C33.0239 30.8334 33.3 30.5573 33.3 30.2167V28.9834C33.3 28.6428 33.0239 28.3667 32.6833 28.3667Z" fill="#F7A600"/>
<path d="M28.9834 28.3667C28.6428 28.3667 28.3667 28.6428 28.3667 28.9834V30.2167C28.3667 30.5573 28.6428 30.8334 28.9834 30.8334C29.3239 30.8334 29.6 30.5573 29.6 30.2167V28.9834C29.6 28.6428 29.3239 28.3667 28.9834 28.3667Z" fill="#F7A600"/>
<path d="M20.3499 20.3499C20.0094 20.3499 19.7333 20.6259 19.7333 20.9665V22.1999C19.7333 22.5404 20.0094 22.8165 20.3499 22.8165C20.6905 22.8165 20.9666 22.5404 20.9666 22.1999V20.9665C20.9666 20.6259 20.6905 20.3499 20.3499 20.3499Z" fill="#F7A600"/>
</g>
<defs>
<clipPath id="clip0_93_3782">
<rect width="37" height="37" fill="white"/>
</clipPath>
</defs>
</svg>
