<svg width="35" height="35" viewBox="0 0 35 35" fill="none" xmlns="http://www.w3.org/2000/svg">
<g clip-path="url(#clip0_93_3762)">
<path fill-rule="evenodd" clip-rule="evenodd" d="M8.90326 2.32153C7.15438 2.32153 5.7345 3.74141 5.7345 5.4903C5.7345 7.23884 7.15438 8.65872 8.90326 8.65872C10.6518 8.65872 12.0717 7.23884 12.0717 5.4903C12.0717 3.74141 10.6518 2.32153 8.90326 2.32153ZM8.90326 3.4268C10.0417 3.4268 10.9664 4.35152 10.9664 5.4903C10.9664 6.62874 10.0417 7.55346 8.90326 7.55346C7.76448 7.55346 6.83976 6.62874 6.83976 5.4903C6.83976 4.35152 7.76448 3.4268 8.90326 3.4268Z" fill="#F7A600"/>
<path fill-rule="evenodd" clip-rule="evenodd" d="M3.77703 14.353C4.38453 12.0908 6.45064 10.4241 8.90325 10.4241C11.1948 10.4241 13.1489 11.8798 13.891 13.916C13.9956 14.2026 14.3128 14.3504 14.5994 14.2461C14.8861 14.1418 15.0338 13.8243 14.9295 13.5376C14.0328 11.0773 11.6716 9.31885 8.90325 9.31885C5.94005 9.31885 3.44363 11.3334 2.70973 14.0663C2.6305 14.361 2.80555 14.6643 3.10023 14.7435C3.39462 14.8227 3.6982 14.6477 3.77703 14.353Z" fill="#F7A600"/>
<path fill-rule="evenodd" clip-rule="evenodd" d="M7.39787 11.5806L7.17387 12.7434C7.14069 12.9132 7.1897 13.089 7.30575 13.2179L8.37969 14.4108C8.48435 14.5273 8.63391 14.5936 8.79047 14.5936C8.94703 14.5936 9.09624 14.5272 9.20091 14.4108L10.1768 13.327C10.2896 13.2017 10.3389 13.0319 10.3113 12.8661L9.90423 10.4337C9.85378 10.1328 9.56858 9.9294 9.2676 9.97985C8.96697 10.0303 8.7636 10.3155 8.81405 10.6161L9.17692 12.7854L8.79047 13.215L8.31115 12.6826L8.48319 11.7903C8.54104 11.4908 8.34467 11.2008 8.04513 11.143C7.74566 11.0851 7.45572 11.2815 7.39787 11.5806Z" fill="#F7A600"/>
<path fill-rule="evenodd" clip-rule="evenodd" d="M10.9639 19.8885H2.25075C2.14869 19.8885 2.06651 19.806 2.06651 19.7043V16.2496C2.06651 15.9449 1.81858 15.697 1.51391 15.697C1.20888 15.697 0.961304 15.9449 0.961304 16.2496V19.7043C0.961304 20.4165 1.53864 20.9937 2.25075 20.9937H10.9639C11.269 20.9937 11.5165 20.7462 11.5165 20.4411C11.5165 20.1361 11.2689 19.8885 10.9639 19.8885Z" fill="#F7A600"/>
<path fill-rule="evenodd" clip-rule="evenodd" d="M14.2107 14.7625C14.2608 14.778 14.3142 14.7861 14.3695 14.7861C14.6745 14.7861 14.9221 14.5381 14.9221 14.2335C14.9221 14.2268 14.9221 14.2206 14.9221 14.2143C14.9232 14.067 14.8654 13.9255 14.7619 13.8208C14.658 13.7162 14.5169 13.6572 14.3695 13.6572H1.28944C0.94755 13.6572 0.619641 13.7932 0.37761 14.0348C0.135926 14.2769 0 14.6048 0 14.9467V15.5129C0 15.8552 0.135926 16.1831 0.37761 16.4247C0.619294 16.6668 0.94755 16.8024 1.28944 16.8024H15.1064C15.4114 16.8024 15.659 16.5548 15.659 16.2498C15.659 15.9451 15.4114 15.6972 15.1064 15.6972H1.28944C1.24044 15.6972 1.19363 15.678 1.15901 15.6433C1.12474 15.6087 1.10521 15.5619 1.10521 15.5129V14.9467C1.10521 14.8981 1.12474 14.8513 1.15901 14.8166C1.19363 14.782 1.24044 14.7625 1.28944 14.7625H14.2107Z" fill="#F7A600"/>
<path fill-rule="evenodd" clip-rule="evenodd" d="M26.0968 2.32153C24.3482 2.32153 22.9283 3.74141 22.9283 5.4903C22.9283 7.23884 24.3482 8.65872 26.0968 8.65872C27.8457 8.65872 29.2655 7.23884 29.2655 5.4903C29.2655 3.74141 27.8457 2.32153 26.0968 2.32153ZM26.0968 3.4268C27.2355 3.4268 28.1603 4.35152 28.1603 5.4903C28.1603 6.62874 27.2355 7.55346 26.0968 7.55346C24.9583 7.55346 24.0336 6.62874 24.0336 5.4903C24.0336 4.35152 24.9583 3.4268 26.0968 3.4268Z" fill="#F7A600"/>
<path fill-rule="evenodd" clip-rule="evenodd" d="M21.1091 13.9162C21.851 11.8799 23.8051 10.4243 26.0968 10.4243C28.5493 10.4243 30.6154 12.0911 31.223 14.3531C31.3018 14.6479 31.6054 14.8229 31.8998 14.7437C32.1945 14.6645 32.3695 14.3613 32.2903 14.0666C31.5564 11.3336 29.06 9.31909 26.0968 9.31909C23.3285 9.31909 20.9673 11.0776 20.0705 13.5379C19.9663 13.8245 20.114 14.1421 20.4006 14.2463C20.6872 14.3506 21.0044 14.2028 21.1091 13.9162Z" fill="#F7A600"/>
<path fill-rule="evenodd" clip-rule="evenodd" d="M24.5556 11.6626L24.3659 12.7535C24.3368 12.9204 24.3858 13.0917 24.4996 13.2181L25.5736 14.411C25.6782 14.5274 25.8278 14.5937 25.9843 14.5937C26.1409 14.5937 26.2901 14.5274 26.3948 14.411L27.3707 13.3271C27.4816 13.2041 27.5313 13.0379 27.5063 12.8743L27.0992 10.1915C27.0536 9.89008 26.7717 9.68232 26.4699 9.72797C26.1685 9.77368 25.9608 10.0559 26.0064 10.3573L26.3745 12.7818L25.9843 13.2151L25.5006 12.6783L25.6447 11.8523C25.697 11.5517 25.4955 11.2655 25.1949 11.2131C24.8946 11.1608 24.6079 11.362 24.5556 11.6626Z" fill="#F7A600"/>
<path fill-rule="evenodd" clip-rule="evenodd" d="M32.9335 16.2496V19.7043C32.9335 19.8059 32.8513 19.8885 32.7493 19.8885C30.9661 19.8885 26.8538 19.8885 23.9812 19.8885C23.6765 19.8885 23.4286 20.1361 23.4286 20.4411C23.4286 20.7462 23.6765 20.9937 23.9812 20.9937H32.7493C33.4614 20.9937 34.0387 20.4164 34.0387 19.7043V16.2496C34.0387 15.9449 33.7911 15.697 33.4861 15.697C33.1814 15.697 32.9335 15.9449 32.9335 16.2496Z" fill="#F7A600"/>
<path fill-rule="evenodd" clip-rule="evenodd" d="M20.7892 14.7625H33.7105C33.7595 14.7625 33.8063 14.782 33.8409 14.8166C33.8752 14.8513 33.8947 14.8981 33.8947 14.9467V15.5129C33.8947 15.5619 33.8752 15.6087 33.8409 15.6433C33.8063 15.678 33.7595 15.6972 33.7105 15.6972H22.2264C21.9214 15.6972 21.6738 15.9451 21.6738 16.2498C21.6738 16.5548 21.9214 16.8024 22.2264 16.8024H33.7105C34.0523 16.8024 34.3806 16.6668 34.6223 16.4247C34.864 16.1831 34.9999 15.8552 34.9999 15.5129C34.9999 15.3287 34.9999 15.1313 34.9999 14.9467C34.9999 14.6048 34.864 14.2769 34.6223 14.0348C34.3803 13.7932 34.0523 13.6572 33.7105 13.6572C30.8489 13.6572 20.6304 13.6572 20.6304 13.6572C20.483 13.6572 20.3419 13.7162 20.238 13.8208C20.1345 13.9254 20.0767 14.0669 20.0778 14.2143V14.2334C20.0778 14.5381 20.3254 14.786 20.6304 14.786C20.6857 14.7861 20.7391 14.778 20.7892 14.7625Z" fill="#F7A600"/>
<path fill-rule="evenodd" clip-rule="evenodd" d="M17.5 10.5498C15.4671 10.5498 13.8169 12.2003 13.8169 14.2333C13.8169 16.2659 15.4671 17.9164 17.5 17.9164C19.5329 17.9164 21.1831 16.2659 21.1831 14.2333C21.1831 12.2003 19.533 10.5498 17.5 10.5498ZM17.5 11.6551C18.9228 11.6551 20.0779 12.8104 20.0779 14.2333C20.0779 15.6557 18.9228 16.8111 17.5 16.8111C16.0772 16.8111 14.9222 15.6557 14.9222 14.2333C14.9222 12.8104 16.0772 11.6551 17.5 11.6551Z" fill="#F7A600"/>
<path fill-rule="evenodd" clip-rule="evenodd" d="M11.2604 24.8118C11.9999 22.0582 14.5151 20.0293 17.5 20.0293C20.4849 20.0293 23.0001 22.0582 23.7396 24.8118C23.8188 25.1065 24.122 25.2815 24.4167 25.2023C24.7111 25.1231 24.8861 24.8199 24.8069 24.5252C23.9411 21.3004 20.9959 18.9241 17.5 18.9241C14.0041 18.9241 11.0589 21.3004 10.1931 24.5252C10.1139 24.8199 10.289 25.1231 10.5833 25.2023C10.878 25.2815 11.1813 25.1065 11.2604 24.8118Z" fill="#F7A600"/>
<path fill-rule="evenodd" clip-rule="evenodd" d="M19.078 24.2381L18.591 21.3272C18.5405 21.0266 18.2553 20.8232 17.9543 20.8736C17.6537 20.9238 17.4503 21.2089 17.5008 21.5099L17.9878 24.4208C18.0383 24.7215 18.3235 24.9248 18.6241 24.8744C18.9251 24.8242 19.1285 24.5391 19.078 24.2381ZM15.7195 23.1498L15.5371 24.094C15.4792 24.3936 15.6756 24.6835 15.9751 24.7413C16.2747 24.7992 16.5646 24.6028 16.6225 24.3033L16.8045 23.3594C16.8623 23.0598 16.6663 22.7699 16.3668 22.7121C16.0673 22.6543 15.7773 22.8502 15.7195 23.1498Z" fill="#F7A600"/>
<path fill-rule="evenodd" clip-rule="evenodd" d="M19.2382 20.0847L18.5677 20.8683C18.5309 20.9114 18.4763 20.9354 18.4195 20.9328C18.3628 20.9303 18.3105 20.9019 18.2777 20.8554L17.756 20.1234C17.5789 19.8751 17.2336 19.8169 16.9853 19.9941C16.7366 20.1709 16.6787 20.5161 16.8556 20.7648C16.8556 20.7648 17.1146 21.1281 17.3776 21.4968C17.6079 21.8203 17.9741 22.0193 18.3705 22.0369C18.767 22.0546 19.1497 21.8885 19.4077 21.5867L20.0778 20.8031C20.2764 20.5713 20.2491 20.2225 20.0174 20.0239C19.7857 19.8257 19.4364 19.8529 19.2382 20.0847Z" fill="#F7A600"/>
<path fill-rule="evenodd" clip-rule="evenodd" d="M14.5342 20.8031L15.2044 21.5867C15.4626 21.8885 15.845 22.0546 16.2415 22.0369C16.6379 22.0193 17.0041 21.8203 17.2344 21.4968C17.4975 21.1281 17.7564 20.7648 17.7564 20.7648C17.9333 20.5161 17.8754 20.1709 17.6267 19.9941C17.3784 19.8169 17.0332 19.8751 16.856 20.1234L16.3344 20.8554C16.3016 20.9019 16.2492 20.9302 16.1925 20.9328C16.1358 20.9354 16.0813 20.9114 16.0444 20.8683L15.3739 20.0847C15.1756 19.8529 14.8267 19.8257 14.5947 20.0239C14.3629 20.2225 14.3356 20.5713 14.5342 20.8031Z" fill="#F7A600"/>
<path fill-rule="evenodd" clip-rule="evenodd" d="M8.10413 29.2527V31.3892C8.10413 31.7311 8.2397 32.059 8.48174 32.301C8.72342 32.5427 9.05133 32.6787 9.39357 32.6787H25.6063C25.9485 32.6787 26.2764 32.5427 26.5181 32.301C26.7602 32.059 26.8957 31.7311 26.8957 31.3892C26.8957 29.9951 26.8957 27.11 26.8957 27.11C26.8957 26.8049 26.6482 26.5574 26.3431 26.5574C26.0385 26.5574 25.7905 26.805 25.7905 27.11V31.3892C25.7905 31.4379 25.7713 31.4846 25.7367 31.5192C25.7021 31.5539 25.6553 31.5734 25.6063 31.5734C22.7293 31.5734 12.2705 31.5734 9.39357 31.5734C9.34456 31.5734 9.29775 31.5539 9.26313 31.5192C9.22852 31.4846 9.20933 31.4378 9.20933 31.3892V29.2527C9.20933 28.9476 8.96141 28.7001 8.65673 28.7001C8.3517 28.7001 8.10413 28.9477 8.10413 29.2527Z" fill="#F7A600"/>
<path fill-rule="evenodd" clip-rule="evenodd" d="M28.046 25.4054C28.046 25.0635 27.9105 24.7356 27.6684 24.4936C27.4267 24.2519 27.0988 24.116 26.7566 24.116C23.618 24.116 11.382 24.116 8.24342 24.116C7.90118 24.116 7.57327 24.2519 7.33159 24.4936C7.08956 24.7356 6.95398 25.0635 6.95398 25.4054V26.3732C6.95398 26.7151 7.08956 27.0431 7.33159 27.2851C7.57327 27.5268 7.90118 27.6627 8.24342 27.6627H26.7566C27.0988 27.6627 27.4267 27.5268 27.6684 27.2851C27.9105 27.0431 28.046 26.7151 28.046 26.3732V25.4054ZM26.9408 25.4054V26.3732C26.9408 26.4223 26.9216 26.4691 26.887 26.5033C26.8524 26.5379 26.8055 26.5574 26.7565 26.5574H8.24342C8.19442 26.5574 8.14761 26.5379 8.11299 26.5033C8.07837 26.469 8.05918 26.4223 8.05918 26.3732V25.4054C8.05918 25.3568 8.07831 25.3097 8.11299 25.2754C8.14761 25.2408 8.19442 25.2212 8.24342 25.2212H26.7566C26.8056 25.2212 26.8524 25.2408 26.887 25.2754C26.9216 25.3096 26.9408 25.3568 26.9408 25.4054Z" fill="#F7A600"/>
</g>
<defs>
<clipPath id="clip0_93_3762">
<rect width="35" height="35" fill="white"/>
</clipPath>
</defs>
</svg>
