<svg width="72" height="72" viewBox="0 0 72 72" fill="none" xmlns="http://www.w3.org/2000/svg">
<path d="M71.9225 0H0V72H71.9225V0Z" fill="#F7A70D"/>
<path d="M52.2513 31.7899C47.3963 30.5417 46.2025 29.9441 46.2025 28.0983V28.0186C46.2025 26.6907 47.4361 25.562 49.7973 25.562C52.4355 25.7361 54.9598 26.7034 57.0399 28.3373L60.25 23.6763C57.2934 21.313 53.6068 20.0546 49.8238 20.1175C44.0933 20.1175 40.0077 23.4771 40.0077 28.5764V28.656C40.0077 34.2333 43.6556 35.8003 49.2932 37.2344C53.989 38.4428 54.9441 39.2396 54.9441 40.8065V40.8862C54.9441 42.5328 53.4186 43.542 50.9646 43.542C47.8453 43.4975 44.8571 42.2791 42.5944 40.1293L42.4617 40.0231C42.4617 40.0231 42.0771 39.6778 41.8118 39.4122C41.7046 39.3107 41.6069 39.1995 41.5199 39.0802C41.0067 41.0278 40.1486 42.8673 38.9863 44.5114C39.2118 44.7239 39.4506 44.9098 39.6894 45.109C42.8694 47.6233 46.8062 48.9853 50.8585 48.9733C56.9073 48.9733 61.1521 45.8526 61.1521 40.2754V40.1957C61.1388 35.3089 57.9419 33.2639 52.2513 31.7899Z" fill="white"/>
<path d="M45.8841 53.4749L30.7754 41.1651C29.1169 42.6382 26.9638 43.4299 24.7471 43.3816C22.5304 43.3333 20.4138 42.4486 18.8209 40.9046C17.228 39.3607 16.2764 37.2714 16.1566 35.0551C16.0369 32.8387 16.7578 30.6589 18.175 28.9519C19.5923 27.245 21.6012 26.1369 23.7998 25.8495C25.9983 25.5621 28.2242 26.1166 30.0317 27.4021C31.8392 28.6875 33.0951 30.609 33.5478 32.7818C34.0006 34.9546 33.6168 37.2185 32.4733 39.1201L36.8772 42.7719C38.5416 40.365 39.4303 37.5059 39.4241 34.5786C39.4242 31.4097 38.3892 28.3277 36.477 25.8024C34.5648 23.2771 31.8802 21.4469 28.8325 20.5909C25.7847 19.7349 22.5409 19.8999 19.5955 21.0609C16.6502 22.2219 14.1648 24.3151 12.5182 27.0215C10.8717 29.7279 10.1542 32.8991 10.4752 36.0516C10.7963 39.2041 12.1382 42.1651 14.2964 44.4832C16.4546 46.8014 19.3108 48.3495 22.4296 48.8916C25.5484 49.4337 28.7587 48.9401 31.5713 47.486L45.4464 54.0592L45.8841 53.4749Z" fill="white"/>
</svg>
