<svg width="225" height="72" viewBox="0 0 225 72" fill="none" xmlns="http://www.w3.org/2000/svg">
<g clip-path="url(#clip0_1_469)">
<path d="M71.9225 0H0V72H71.9225V0Z" fill="#F7A70D"/>
<path d="M52.2513 31.7899C47.3963 30.5417 46.2025 29.9441 46.2025 28.0983V28.0186C46.2025 26.6907 47.4361 25.562 49.7973 25.562C52.4355 25.7361 54.9598 26.7034 57.0399 28.3373L60.25 23.6763C57.2934 21.313 53.6068 20.0546 49.8238 20.1175C44.0933 20.1175 40.0077 23.4771 40.0077 28.5764V28.656C40.0077 34.2333 43.6556 35.8003 49.2932 37.2344C53.989 38.4428 54.9441 39.2396 54.9441 40.8065V40.8862C54.9441 42.5328 53.4186 43.542 50.9646 43.542C47.8453 43.4975 44.8571 42.2791 42.5944 40.1293L42.4617 40.0231C42.4617 40.0231 42.0771 39.6778 41.8118 39.4122C41.7046 39.3107 41.6069 39.1995 41.5199 39.0802C41.0067 41.0278 40.1486 42.8673 38.9863 44.5114C39.2118 44.7239 39.4506 44.9098 39.6894 45.109C42.8694 47.6233 46.8062 48.9853 50.8585 48.9733C56.9073 48.9733 61.1521 45.8526 61.1521 40.2754V40.1957C61.1388 35.3089 57.9419 33.2639 52.2513 31.7899Z" fill="white"/>
<path d="M45.8841 53.4749L30.7754 41.1651C29.1169 42.6382 26.9638 43.4299 24.7471 43.3816C22.5304 43.3333 20.4138 42.4486 18.8209 40.9046C17.228 39.3607 16.2764 37.2714 16.1566 35.0551C16.0369 32.8387 16.7578 30.6589 18.175 28.9519C19.5923 27.245 21.6012 26.1369 23.7998 25.8495C25.9983 25.5621 28.2242 26.1166 30.0317 27.4021C31.8392 28.6875 33.0951 30.609 33.5478 32.7818C34.0006 34.9546 33.6168 37.2185 32.4733 39.1201L36.8772 42.7719C38.5416 40.365 39.4303 37.5059 39.4241 34.5786C39.4242 31.4097 38.3892 28.3277 36.477 25.8024C34.5648 23.2771 31.8802 21.4469 28.8325 20.5909C25.7847 19.7349 22.5409 19.8999 19.5955 21.0609C16.6502 22.2219 14.1648 24.3151 12.5182 27.0215C10.8717 29.7279 10.1542 32.8991 10.4752 36.0516C10.7963 39.2041 12.1382 42.1651 14.2964 44.4832C16.4546 46.8014 19.3108 48.3495 22.4296 48.8916C25.5484 49.4337 28.7587 48.9401 31.5713 47.486L45.4464 54.0592L45.8841 53.4749Z" fill="white"/>
<path d="M83.9277 23.9961H89.2337V48.0049H83.9277V23.9961Z" fill="black"/>
<path d="M92.4707 34.8711H103.083V39.8375H92.4707V34.8711Z" fill="black"/>
<path d="M105.203 36.0667V36.0003C105.191 34.3516 105.509 32.7171 106.138 31.1936C106.768 29.6701 107.696 28.2885 108.869 27.1307C110.042 25.973 111.434 25.0626 112.965 24.4534C114.495 23.8442 116.132 23.5486 117.779 23.5842C121.228 23.4048 124.609 24.5873 127.197 26.8775L123.867 30.8612C122.183 29.2553 119.932 28.3817 117.606 28.4311C115.705 28.514 113.913 29.3468 112.624 30.7476C111.334 32.1485 110.65 34.0035 110.722 35.9073V35.9737C110.663 36.959 110.808 37.9458 111.148 38.8725C111.487 39.7992 112.014 40.6459 112.695 41.3599C113.375 42.0738 114.196 42.6397 115.105 43.0221C116.014 43.4046 116.992 43.5954 117.978 43.5827C119.745 43.6365 121.484 43.135 122.952 42.1486V38.7358H117.646V34.181H128.059V44.6052C125.214 47.076 121.571 48.4301 117.805 48.4164C110.35 48.4164 105.203 43.1711 105.203 36.0667Z" fill="black"/>
<path d="M140.064 23.8223H144.932L155.199 48.0037H149.694L147.506 42.6124H137.358L135.169 48.0037H129.797L140.064 23.8223ZM145.609 37.9514L142.425 30.1697L139.281 37.9514H145.609Z" fill="black"/>
<path d="M156.129 37.7135V23.9961H161.435V37.5807C161.435 41.4848 163.385 43.5033 166.608 43.5033C169.832 43.5033 171.782 41.5512 171.782 37.7534V23.9961H177.088V37.5409C177.088 44.8179 173.015 48.3768 166.582 48.3768C160.148 48.3768 156.129 44.7781 156.129 37.7135Z" fill="black"/>
<path d="M180.098 36.0655V35.9991C180.085 34.3516 180.403 32.7182 181.031 31.1956C181.66 29.673 182.588 28.292 183.759 27.1344C184.93 25.9769 186.321 25.0661 187.85 24.4562C189.379 23.8462 191.014 23.5493 192.66 23.5831C196.11 23.3993 199.493 24.5824 202.078 26.8763L198.762 30.8601C197.077 29.2541 194.826 28.3805 192.501 28.43C190.598 28.5094 188.805 29.3411 187.514 30.7428C186.223 32.1444 185.541 34.0014 185.616 35.9062V35.9726C185.558 36.9579 185.703 37.9447 186.042 38.8714C186.382 39.7981 186.908 40.6448 187.589 41.3587C188.27 42.0727 189.09 42.6385 189.999 43.021C190.908 43.4034 191.886 43.5943 192.872 43.5816C194.635 43.6371 196.371 43.1353 197.833 42.1474V38.7347H192.527V34.1799H202.954V44.6041C200.114 47.075 196.475 48.4293 192.713 48.4152C185.232 48.4152 180.098 43.1699 180.098 36.0655Z" fill="black"/>
<path d="M206.748 23.9961H224.828V28.6969H211.988V33.5704H223.289V38.258H211.988V43.3041H225.001V48.0049H206.748V23.9961Z" fill="black"/>
</g>
<defs>
<clipPath id="clip0_1_469">
<rect width="225" height="72" fill="white"/>
</clipPath>
</defs>
</svg>
