<svg width="8" height="8" viewBox="0 0 8 8" fill="none" xmlns="http://www.w3.org/2000/svg">
<path d="M4.09271 7.82761C3.988 7.82822 3.88549 7.79764 3.79824 7.73975C3.71099 7.68187 3.64295 7.59932 3.6028 7.50262C3.56265 7.40592 3.5522 7.29945 3.5728 7.19679C3.59339 7.09413 3.64409 6.99993 3.71844 6.9262L6.51229 4.13761L3.71844 1.34903C3.63208 1.24819 3.58695 1.11847 3.59208 0.985801C3.5972 0.853131 3.6522 0.727282 3.74608 0.6334C3.83996 0.539519 3.96581 0.484521 4.09848 0.479397C4.23115 0.474273 4.36086 0.519399 4.46171 0.605759L7.62456 3.76861C7.72274 3.86738 7.77785 4.00099 7.77785 4.14025C7.77785 4.27951 7.72274 4.41312 7.62456 4.51189L4.46171 7.67474C4.36352 7.77213 4.231 7.82703 4.09271 7.82761Z" fill="black"/>
<path d="M0.930599 7.82844C0.825896 7.82905 0.723383 7.79847 0.63613 7.74058C0.548878 7.6827 0.480839 7.60015 0.440688 7.50345C0.400537 7.40675 0.390094 7.30028 0.410689 7.19762C0.431284 7.09496 0.481985 7.00076 0.556328 6.92703L3.35018 4.13844L0.556328 1.34986C0.457065 1.2506 0.401299 1.11597 0.401299 0.975589C0.401299 0.83521 0.457065 0.70058 0.556328 0.601317C0.655591 0.502054 0.79022 0.446289 0.930599 0.446289C1.07098 0.446289 1.20561 0.502054 1.30487 0.601317L4.46773 3.76417C4.56591 3.86294 4.62102 3.99655 4.62102 4.13581C4.62102 4.27507 4.56591 4.40868 4.46773 4.50744L1.30487 7.6703C1.25605 7.72011 1.19783 7.75973 1.13358 7.78688C1.06934 7.81403 1.00034 7.82815 0.930599 7.82844Z" fill="black"/>
</svg>
