<svg width="8" height="9" viewBox="0 0 8 9" fill="none" xmlns="http://www.w3.org/2000/svg">
<path d="M3.91692 8.051C3.81299 8.05165 3.71124 8.01878 3.62463 7.95658C3.53802 7.89438 3.47048 7.80566 3.43063 7.70174C3.39077 7.59782 3.3804 7.48341 3.40085 7.37309C3.42129 7.26276 3.47162 7.16153 3.54541 7.08229L6.31867 4.08554L3.54541 1.08878C3.45969 0.980412 3.4149 0.841011 3.41998 0.698438C3.42507 0.555865 3.47966 0.420621 3.57285 0.319731C3.66604 0.218842 3.79096 0.159738 3.92265 0.154231C4.05434 0.148724 4.1831 0.197219 4.2832 0.290026L7.42274 3.68899C7.5202 3.79513 7.5749 3.93871 7.5749 4.08837C7.5749 4.23803 7.5202 4.38161 7.42274 4.48775L4.2832 7.88671C4.18574 7.99137 4.05419 8.05037 3.91692 8.051Z" fill="black"/>
<path d="M0.776299 8.05189C0.672368 8.05255 0.570611 8.01968 0.484001 7.95747C0.397392 7.89527 0.329855 7.80656 0.29 7.70264C0.250146 7.59872 0.239779 7.4843 0.260222 7.37398C0.280666 7.26366 0.330993 7.16242 0.404787 7.08319L3.17804 4.08643L0.404787 1.08968C0.306256 0.983003 0.250902 0.838323 0.250902 0.687465C0.250902 0.536606 0.306256 0.391927 0.404787 0.285254C0.503318 0.178581 0.636955 0.118652 0.776299 0.118652C0.915643 0.118652 1.04928 0.178581 1.14781 0.285254L4.28735 3.68422C4.3848 3.79036 4.43951 3.93394 4.43951 4.0836C4.43951 4.23326 4.3848 4.37684 4.28735 4.48298L1.14781 7.88194C1.09935 7.93547 1.04156 7.97805 0.977787 8.00723C0.914015 8.0364 0.84553 8.05158 0.776299 8.05189Z" fill="black"/>
</svg>
