<svg width="8" height="8" viewBox="0 0 8 8" fill="none" xmlns="http://www.w3.org/2000/svg">
<path d="M3.67745 7.38542C3.58108 7.38603 3.48673 7.35555 3.40642 7.29788C3.32612 7.2402 3.2635 7.15794 3.22654 7.06159C3.18959 6.96523 3.17998 6.85914 3.19893 6.75685C3.21789 6.65455 3.26455 6.56069 3.33298 6.48722L5.90439 3.70857L3.33298 0.929915C3.25349 0.829431 3.21196 0.700176 3.21667 0.56798C3.22139 0.435783 3.27201 0.310382 3.35842 0.216835C3.44482 0.123288 3.56065 0.0684862 3.68276 0.06338C3.80487 0.0582738 3.92426 0.10324 4.01707 0.189292L6.92811 3.34088C7.01847 3.4393 7.0692 3.57243 7.0692 3.71119C7.0692 3.84996 7.01847 3.98309 6.92811 4.0815L4.01707 7.23309C3.9267 7.33013 3.80473 7.38484 3.67745 7.38542Z" fill="black"/>
<path d="M0.767292 7.38625C0.670925 7.38686 0.576573 7.35638 0.496268 7.29871C0.415962 7.24103 0.35334 7.15878 0.316386 7.06242C0.279432 6.96606 0.26982 6.85997 0.288775 6.75768C0.307731 6.65539 0.354395 6.56152 0.422819 6.48805L2.99424 3.7094L0.422819 0.930748C0.331459 0.831839 0.280133 0.697689 0.280133 0.55781C0.280133 0.417931 0.331459 0.283781 0.422819 0.184872C0.514179 0.0859622 0.638089 0.0303955 0.767292 0.0303955C0.896494 0.0303955 1.02041 0.0859622 1.11177 0.184872L4.02281 3.33646C4.11317 3.43488 4.16389 3.56801 4.16389 3.70677C4.16389 3.84554 4.11317 3.97867 4.02281 4.07709L1.11177 7.22867C1.06683 7.27831 1.01325 7.31779 0.954116 7.34484C0.894985 7.37189 0.831484 7.38597 0.767292 7.38625Z" fill="black"/>
</svg>
