<svg width="14" height="14" viewBox="0 0 14 14" fill="none" xmlns="http://www.w3.org/2000/svg">
<path d="M7.00803 14.0092C6.80935 14.0103 6.61483 13.9523 6.44927 13.8425C6.28371 13.7326 6.1546 13.576 6.07842 13.3925C6.00223 13.209 5.98241 13.007 6.02149 12.8122C6.06057 12.6174 6.15678 12.4386 6.29784 12.2987L11.5992 7.00737L6.29784 1.71601C6.13398 1.52466 6.04835 1.27852 6.05807 1.02678C6.0678 0.775034 6.17215 0.536234 6.3503 0.358093C6.52844 0.179953 6.76724 0.0755941 7.01898 0.0658705C7.27072 0.0561468 7.51686 0.141775 7.70821 0.305643L13.7098 6.30719C13.896 6.4946 14.0006 6.74811 14.0006 7.01237C14.0006 7.27662 13.896 7.53014 13.7098 7.71755L7.70821 13.7191C7.5219 13.9039 7.27043 14.0081 7.00803 14.0092Z" fill="black"/>
<path d="M1.00607 14.0092C0.807399 14.0103 0.61288 13.9523 0.447317 13.8424C0.281755 13.7326 0.152651 13.576 0.0764645 13.3925C0.000278187 13.209 -0.0195384 13.007 0.0195413 12.8122C0.058621 12.6174 0.154826 12.4386 0.295892 12.2987L5.59726 7.00736L0.295892 1.716C0.10754 1.52765 0.00172447 1.27219 0.00172447 1.00581C0.00172447 0.739445 0.10754 0.483984 0.295892 0.295632C0.484244 0.10728 0.739704 0.00146485 1.00607 0.00146484C1.27244 0.00146484 1.5279 0.10728 1.71626 0.295632L7.7178 6.29718C7.9041 6.48459 8.00867 6.7381 8.00867 7.00236C8.00867 7.26661 7.9041 7.52013 7.7178 7.70754L1.71626 13.7091C1.62362 13.8036 1.51315 13.8788 1.39124 13.9303C1.26933 13.9818 1.13842 14.0086 1.00607 14.0092Z" fill="black"/>
</svg>
