<svg width="8" height="8" viewBox="0 0 8 8" fill="none" xmlns="http://www.w3.org/2000/svg">
<path d="M3.83565 7.38524C3.73928 7.38585 3.64493 7.35537 3.56463 7.29769C3.48432 7.24002 3.4217 7.15776 3.38475 7.0614C3.34779 6.96505 3.33818 6.85896 3.35713 6.75666C3.37609 6.65437 3.42275 6.5605 3.49118 6.48704L6.0626 3.70838L3.49118 0.929732C3.41169 0.829248 3.37016 0.699993 3.37488 0.567797C3.37959 0.4356 3.43021 0.310199 3.51662 0.216652C3.60303 0.123105 3.71886 0.0683031 3.84096 0.0631969C3.96307 0.0580907 4.08246 0.103057 4.17527 0.189109L7.08631 3.3407C7.17668 3.43911 7.2274 3.57224 7.2274 3.71101C7.2274 3.84978 7.17668 3.98291 7.08631 4.08132L4.17527 7.23291C4.0849 7.32995 3.96293 7.38466 3.83565 7.38524Z" fill="black"/>
<path d="M0.925495 7.38607C0.829128 7.38668 0.734777 7.3562 0.654471 7.29853C0.574165 7.24085 0.511543 7.15859 0.474589 7.06224C0.437635 6.96588 0.428023 6.85979 0.446978 6.7575C0.465934 6.6552 0.512598 6.56134 0.581022 6.48787L3.15244 3.70922L0.581022 0.930565C0.489662 0.831655 0.438336 0.697506 0.438336 0.557627C0.438336 0.417748 0.489662 0.283598 0.581022 0.184688C0.672382 0.0857791 0.796293 0.0302124 0.925495 0.0302124C1.0547 0.0302124 1.17861 0.0857791 1.26997 0.184688L4.18101 3.33628C4.27137 3.43469 4.32209 3.56782 4.32209 3.70659C4.32209 3.84536 4.27137 3.97849 4.18101 4.0769L1.26997 7.22849C1.22503 7.27812 1.17145 7.31761 1.11232 7.34466C1.05319 7.37171 0.989687 7.38578 0.925495 7.38607Z" fill="black"/>
</svg>
