<svg width="8" height="8" viewBox="0 0 8 8" fill="none" xmlns="http://www.w3.org/2000/svg">
<path d="M4.09271 7.82761C3.988 7.82822 3.88549 7.79764 3.79824 7.73975C3.71099 7.68187 3.64295 7.59932 3.6028 7.50262C3.56265 7.40592 3.5522 7.29945 3.5728 7.19679C3.59339 7.09413 3.64409 6.99993 3.71844 6.9262L6.51229 4.13761L3.71844 1.34903C3.63208 1.24819 3.58695 1.11847 3.59208 0.985801C3.5972 0.853131 3.6522 0.727282 3.74608 0.6334C3.83996 0.539519 3.96581 0.484521 4.09848 0.479397C4.23115 0.474273 4.36086 0.519399 4.46171 0.605759L7.62456 3.76861C7.72274 3.86738 7.77785 4.00099 7.77785 4.14025C7.77785 4.27951 7.72274 4.41312 7.62456 4.51189L4.46171 7.67474C4.36352 7.77213 4.231 7.82703 4.09271 7.82761Z" fill="black"/>
<path d="M0.930599 7.8282C0.825896 7.82881 0.723383 7.79822 0.63613 7.74034C0.548878 7.68246 0.480839 7.59991 0.440688 7.50321C0.400537 7.4065 0.390094 7.30004 0.410689 7.19738C0.431284 7.09472 0.481985 7.00052 0.556328 6.92678L3.35018 4.1382L0.556328 1.34962C0.457065 1.25035 0.401299 1.11572 0.401299 0.975344C0.401299 0.834966 0.457065 0.700336 0.556328 0.601073C0.655591 0.50181 0.79022 0.446045 0.930599 0.446045C1.07098 0.446045 1.20561 0.50181 1.30487 0.601073L4.46773 3.76393C4.56591 3.8627 4.62102 3.9963 4.62102 4.13556C4.62102 4.27483 4.56591 4.40843 4.46773 4.5072L1.30487 7.67006C1.25605 7.71986 1.19783 7.75949 1.13358 7.78664C1.06934 7.81378 1.00034 7.82791 0.930599 7.8282Z" fill="black"/>
</svg>
