<svg width="10" height="10" viewBox="0 0 10 10" fill="none" xmlns="http://www.w3.org/2000/svg">
<path d="M5.06098 9.20636C4.94287 9.20705 4.82723 9.17255 4.72881 9.10726C4.63039 9.04197 4.55364 8.94884 4.50835 8.83976C4.46306 8.73068 4.45128 8.61059 4.47451 8.49478C4.49774 8.37898 4.55493 8.27272 4.63879 8.18955L7.79031 5.04397L4.63879 1.8984C4.54138 1.78465 4.49047 1.63832 4.49625 1.48867C4.50203 1.33902 4.56407 1.19705 4.66997 1.09115C4.77587 0.985255 4.91783 0.923216 5.06748 0.917436C5.21714 0.911655 5.36346 0.962559 5.47721 1.05997L9.04498 4.62774C9.15573 4.73915 9.21789 4.88986 9.21789 5.04695C9.21789 5.20404 9.15573 5.35475 9.04498 5.46616L5.47721 9.03392C5.36646 9.14377 5.21697 9.2057 5.06098 9.20636Z" fill="black"/>
<path d="M1.49262 9.20709C1.37451 9.20778 1.25887 9.17328 1.16045 9.10799C1.06203 9.0427 0.985278 8.94957 0.939987 8.84049C0.894697 8.73141 0.882916 8.61132 0.906148 8.49551C0.92938 8.37971 0.986571 8.27345 1.07043 8.19028L4.22195 5.0447L1.07043 1.89913C0.958461 1.78716 0.895556 1.63529 0.895556 1.47694C0.895556 1.31859 0.958461 1.16673 1.07043 1.05476C1.1824 0.942787 1.33427 0.879883 1.49262 0.879883C1.65097 0.879883 1.80283 0.942787 1.9148 1.05476L5.48256 4.62252C5.59331 4.73393 5.65548 4.88464 5.65548 5.04173C5.65548 5.19882 5.59331 5.34953 5.48256 5.46094L1.9148 9.0287C1.85973 9.08489 1.79406 9.12959 1.72159 9.16021C1.64912 9.19083 1.57129 9.20677 1.49262 9.20709Z" fill="black"/>
</svg>
