<svg width="8" height="9" viewBox="0 0 8 9" fill="none" xmlns="http://www.w3.org/2000/svg">
<path d="M3.91692 8.05088C3.81299 8.05153 3.71124 8.01866 3.62463 7.95646C3.53802 7.89426 3.47048 7.80554 3.43063 7.70162C3.39077 7.5977 3.3804 7.48329 3.40085 7.37296C3.42129 7.26264 3.47162 7.16141 3.54541 7.08217L6.31867 4.08542L3.54541 1.08866C3.45969 0.98029 3.4149 0.840889 3.41998 0.698316C3.42507 0.555743 3.47966 0.420498 3.57285 0.319609C3.66604 0.218719 3.79096 0.159616 3.92265 0.154109C4.05434 0.148602 4.1831 0.197097 4.2832 0.289904L7.42274 3.68887C7.5202 3.79501 7.5749 3.93859 7.5749 4.08825C7.5749 4.23791 7.5202 4.38149 7.42274 4.48763L4.2832 7.88659C4.18574 7.99125 4.05419 8.05025 3.91692 8.05088Z" fill="black"/>
<path d="M0.776299 8.05177C0.672368 8.05242 0.570611 8.01955 0.484001 7.95735C0.397392 7.89515 0.329855 7.80643 0.29 7.70251C0.250146 7.59859 0.239779 7.48418 0.260222 7.37386C0.280666 7.26353 0.330993 7.1623 0.404787 7.08306L3.17804 4.08631L0.404787 1.08955C0.306256 0.982881 0.250902 0.838201 0.250902 0.687343C0.250902 0.536484 0.306256 0.391805 0.404787 0.285132C0.503318 0.178459 0.636955 0.11853 0.776299 0.11853C0.915643 0.11853 1.04928 0.178459 1.14781 0.285132L4.28735 3.6841C4.3848 3.79024 4.43951 3.93382 4.43951 4.08348C4.43951 4.23314 4.3848 4.37671 4.28735 4.48285L1.14781 7.88182C1.09935 7.93535 1.04156 7.97793 0.977787 8.0071C0.914015 8.03628 0.84553 8.05146 0.776299 8.05177Z" fill="black"/>
</svg>
