<svg width="8" height="9" viewBox="0 0 8 9" fill="none" xmlns="http://www.w3.org/2000/svg">
<path d="M4.1845 8.051C4.08057 8.05165 3.97881 8.01878 3.8922 7.95658C3.8056 7.89438 3.73806 7.80566 3.6982 7.70174C3.65835 7.59782 3.64798 7.48341 3.66843 7.37309C3.68887 7.26276 3.7392 7.16153 3.81299 7.08229L6.58625 4.08554L3.81299 1.08878C3.72727 0.980412 3.68247 0.841011 3.68756 0.698438C3.69265 0.555865 3.74724 0.420621 3.84043 0.319731C3.93362 0.218842 4.05854 0.159738 4.19023 0.154231C4.32192 0.148724 4.45068 0.197219 4.55078 0.290026L7.69032 3.68899C7.78777 3.79513 7.84248 3.93871 7.84248 4.08837C7.84248 4.23803 7.78777 4.38161 7.69032 4.48775L4.55078 7.88671C4.45332 7.99137 4.32177 8.05037 4.1845 8.051Z" fill="black"/>
<path d="M1.04583 8.05189C0.941899 8.05255 0.840142 8.01968 0.753533 7.95747C0.666923 7.89527 0.599386 7.80656 0.559531 7.70264C0.519677 7.59872 0.50931 7.4843 0.529754 7.37398C0.550197 7.26366 0.600524 7.16242 0.674319 7.08319L3.44758 4.08643L0.674319 1.08968C0.575788 0.983003 0.520433 0.838323 0.520433 0.687465C0.520433 0.536606 0.575788 0.391927 0.674319 0.285254C0.77285 0.178581 0.906486 0.118652 1.04583 0.118652C1.18517 0.118652 1.31881 0.178581 1.41734 0.285254L4.55688 3.68422C4.65433 3.79036 4.70904 3.93394 4.70904 4.0836C4.70904 4.23326 4.65433 4.37684 4.55688 4.48298L1.41734 7.88194C1.36888 7.93547 1.31109 7.97805 1.24732 8.00723C1.18355 8.0364 1.11506 8.05158 1.04583 8.05189Z" fill="black"/>
</svg>
