<svg width="10" height="11" viewBox="0 0 10 11" fill="none" xmlns="http://www.w3.org/2000/svg">
<path d="M5.05381 10.9619C4.92169 10.9627 4.79233 10.921 4.68223 10.8419C4.57213 10.7628 4.48628 10.65 4.43561 10.5179C4.38495 10.3858 4.37177 10.2404 4.39776 10.1001C4.42375 9.95989 4.48773 9.8312 4.58153 9.73047L8.10695 5.92094L4.58153 2.11141C4.47256 1.97365 4.41562 1.79644 4.42209 1.61519C4.42855 1.43395 4.49795 1.26203 4.61641 1.13378C4.73488 1.00552 4.89368 0.930389 5.06109 0.923389C5.2285 0.916388 5.39218 0.978036 5.51943 1.09601L9.51046 5.41684C9.63435 5.55177 9.70389 5.73429 9.70389 5.92454C9.70389 6.11479 9.63435 6.29731 9.51046 6.43224L5.51943 10.7531C5.39553 10.8861 5.22831 10.9611 5.05381 10.9619Z" fill="black"/>
<path d="M1.06162 10.9628C0.9295 10.9636 0.800144 10.9219 0.690045 10.8428C0.579946 10.7637 0.494091 10.6509 0.443427 10.5188C0.392763 10.3867 0.379585 10.2413 0.405573 10.101C0.431561 9.96079 0.495538 9.8321 0.589347 9.73137L4.11476 5.92184L0.589347 2.11231C0.464092 1.97671 0.393725 1.79279 0.393725 1.60101C0.393725 1.40924 0.464092 1.22532 0.589347 1.08972C0.714601 0.954112 0.884483 0.87793 1.06162 0.87793C1.23876 0.87793 1.40864 0.954112 1.53389 1.08972L5.52493 5.41055C5.64882 5.54547 5.71836 5.72799 5.71836 5.91824C5.71836 6.10849 5.64882 6.29101 5.52493 6.42594L1.53389 10.7468C1.47229 10.8148 1.39882 10.8689 1.31775 10.906C1.23669 10.9431 1.14963 10.9624 1.06162 10.9628Z" fill="black"/>
</svg>
