<svg width="10" height="11" viewBox="0 0 10 11" fill="none" xmlns="http://www.w3.org/2000/svg">
<path d="M4.66513 10.6206C4.53302 10.6214 4.40366 10.5796 4.29356 10.5006C4.18346 10.4215 4.09761 10.3087 4.04694 10.1766C3.99628 10.0445 3.9831 9.89907 4.00909 9.75882C4.03508 9.61858 4.09905 9.48989 4.19286 9.38916L7.71828 5.57963L4.19286 1.7701C4.08389 1.63234 4.02695 1.45513 4.03341 1.27389C4.03988 1.09264 4.10928 0.920719 4.22774 0.792467C4.34621 0.664214 4.50501 0.589081 4.67242 0.58208C4.83982 0.575079 5.00351 0.636728 5.13076 0.754705L9.12179 5.07553C9.24568 5.21046 9.31522 5.39298 9.31522 5.58323C9.31522 5.77348 9.24568 5.956 9.12179 6.09093L5.13076 10.4118C5.00686 10.5448 4.83964 10.6198 4.66513 10.6206Z" fill="black"/>
<path d="M0.672947 10.6215C0.540828 10.6223 0.411472 10.5806 0.301373 10.5015C0.191274 10.4224 0.105419 10.3096 0.0547553 10.1775C0.00409124 10.0454 -0.00908682 9.89997 0.0169013 9.75973C0.0428893 9.61948 0.106866 9.49079 0.200675 9.39007L3.72609 5.58053L0.200675 1.771C0.0754203 1.6354 0.00505303 1.45148 0.00505303 1.25971C0.00505303 1.06793 0.0754203 0.884012 0.200675 0.748408C0.325929 0.612803 0.495811 0.536621 0.672947 0.536621C0.850084 0.536621 1.01997 0.612803 1.14522 0.748408L5.13626 5.06924C5.26015 5.20416 5.32968 5.38668 5.32968 5.57693C5.32968 5.76718 5.26015 5.9497 5.13626 6.08463L1.14522 10.4055C1.08362 10.4735 1.01015 10.5276 0.929083 10.5647C0.848014 10.6018 0.760955 10.6211 0.672947 10.6215Z" fill="black"/>
</svg>
