<svg width="26" height="26" viewBox="0 0 26 26" fill="none" xmlns="http://www.w3.org/2000/svg">
<path d="M13 0C5.83245 0 0 5.83245 0 13C0 20.1675 5.83245 26 13 26C20.1675 26 26 20.1675 26 13C26 5.83245 20.1675 0 13 0ZM18.7174 13.96L15.2516 18.0414C14.9591 18.3865 14.5405 18.5646 14.1213 18.5646C13.7826 18.5646 13.4407 18.4483 13.1612 18.2117C12.5372 17.6832 12.4605 16.7466 12.9902 16.1219L14.3826 14.4833H8.41165C7.59265 14.4833 6.929 13.8196 6.929 13.0006C6.929 12.1816 7.59265 11.518 8.41165 11.518H14.3826L12.9902 9.87935C12.4605 9.2547 12.5372 8.31935 13.1612 7.7883C13.7852 7.25855 14.7212 7.33525 15.2516 7.9599L18.7174 12.0412C19.188 12.5937 19.188 13.4062 18.7174 13.96Z" fill="#F7A600"/>
</svg>
