<svg width="28" height="28" viewBox="0 0 28 28" fill="none" xmlns="http://www.w3.org/2000/svg">
<path d="M9.1248 14.4373C8.9239 14.4369 8.72925 14.3674 8.57355 14.2404L3.8223 10.316C3.73297 10.2433 3.6589 10.1535 3.60433 10.0521C3.54977 9.95057 3.51578 9.83931 3.50433 9.72465C3.49288 9.61 3.50419 9.49421 3.5376 9.38394C3.57102 9.27367 3.62589 9.17108 3.69906 9.08207C3.77223 8.99305 3.86225 8.91937 3.96398 8.86524C4.0657 8.81112 4.17711 8.77761 4.29181 8.76666C4.40651 8.7557 4.52225 8.76751 4.63238 8.80141C4.74251 8.8353 4.84486 8.89061 4.93355 8.96416L9.6848 12.871C9.8631 13.0187 9.97564 13.2309 9.99778 13.4613C10.0199 13.6917 9.94985 13.9215 9.80293 14.1004C9.72234 14.2038 9.61956 14.2877 9.50219 14.346C9.38482 14.4043 9.25585 14.4355 9.1248 14.4373Z" fill="#222222"/>
<path d="M4.37376 10.5C4.19291 10.5006 4.01634 10.4451 3.86833 10.3412C3.72032 10.2373 3.60814 10.09 3.54723 9.91976C3.48631 9.74948 3.47965 9.56452 3.52816 9.3903C3.57668 9.21608 3.67798 9.06118 3.81813 8.94689L8.57376 5.06189C8.75316 4.91572 8.98315 4.84657 9.21342 4.86957C9.44368 4.89257 9.65546 5.00584 9.8024 5.18461C9.94935 5.36337 10.0195 5.59307 9.99749 5.82343C9.97549 6.05379 9.86313 6.26605 9.68501 6.41377L4.93376 10.3163C4.77396 10.4404 4.57606 10.5054 4.37376 10.5Z" fill="#222222"/>
<path d="M17.3119 23.1395H4.375C4.14294 23.1395 3.92038 23.0473 3.75628 22.8832C3.59219 22.7191 3.5 22.4965 3.5 22.2645C3.5 22.0324 3.59219 21.8098 3.75628 21.6457C3.92038 21.4816 4.14294 21.3895 4.375 21.3895H17.3119C18.7269 21.3493 20.0705 20.759 21.0571 19.7439C22.0438 18.7289 22.5958 17.3691 22.5958 15.9535C22.5958 14.5379 22.0438 13.1782 21.0571 12.1631C20.0705 11.148 18.7269 10.5577 17.3119 10.5176H4.375C4.14294 10.5176 3.92038 10.4254 3.75628 10.2613C3.59219 10.0972 3.5 9.87464 3.5 9.64258C3.5 9.41051 3.59219 9.18795 3.75628 9.02386C3.92038 8.85976 4.14294 8.76758 4.375 8.76758H17.3119C19.187 8.81385 20.9698 9.59125 22.2796 10.9338C23.5895 12.2764 24.3227 14.0778 24.3227 15.9535C24.3227 17.8292 23.5895 19.6306 22.2796 20.9732C20.9698 22.3158 19.187 23.0932 17.3119 23.1395Z" fill="#222222"/>
</svg>
