<svg width="14" height="14" viewBox="0 0 14 14" fill="none" xmlns="http://www.w3.org/2000/svg">
<path d="M7.00583 14.0095C6.80715 14.0107 6.61264 13.9527 6.44707 13.8428C6.28151 13.733 6.15241 13.5764 6.07622 13.3929C6.00003 13.2094 5.98022 13.0074 6.0193 12.8126C6.05838 12.6178 6.15458 12.439 6.29565 12.2991L11.597 7.00775L6.29565 1.71639C6.13178 1.52504 6.04615 1.2789 6.05588 1.02716C6.0656 0.775416 6.16996 0.536615 6.3481 0.358475C6.52624 0.180334 6.76504 0.0759756 7.01678 0.066252C7.26852 0.0565283 7.51466 0.142156 7.70601 0.306025L13.7076 6.30757C13.8939 6.49498 13.9984 6.7485 13.9984 7.01275C13.9984 7.277 13.8939 7.53052 13.7076 7.71793L7.70601 13.7195C7.5197 13.9043 7.26824 14.0084 7.00583 14.0095Z" fill="black"/>
<path d="M1.00583 14.0092C0.807155 14.0104 0.612636 13.9524 0.447073 13.8425C0.281511 13.7327 0.152407 13.576 0.0762204 13.3926C3.40462e-05 13.2091 -0.0197825 13.007 0.0192972 12.8122C0.0583769 12.6174 0.154582 12.4387 0.295648 12.2988L5.59701 7.00743L0.295648 1.71607C0.107296 1.52772 0.00148033 1.27226 0.00148033 1.00589C0.00148033 0.739521 0.107296 0.484061 0.295648 0.295709C0.484 0.107356 0.73946 0.00154114 1.00583 0.00154114C1.2722 0.00154114 1.52766 0.107356 1.71601 0.295709L7.71756 6.29725C7.90385 6.48466 8.00842 6.73818 8.00842 7.00243C8.00842 7.26669 7.90385 7.5202 7.71756 7.70761L1.71601 13.7092C1.62337 13.8037 1.5129 13.8789 1.39099 13.9304C1.26909 13.9819 1.13817 14.0087 1.00583 14.0092Z" fill="black"/>
</svg>
