<svg width="272" height="78" viewBox="0 0 272 78" fill="none" xmlns="http://www.w3.org/2000/svg">
<rect width="271.344" height="77.2576" fill="#F7A600"/>
<path d="M53.1039 50V30.874H61.3007C62.5575 30.874 63.6505 31.1017 64.5794 31.5571C65.5084 32.0125 66.2279 32.65 66.7379 33.4697C67.2662 34.2894 67.5303 35.2548 67.5303 36.3659C67.5303 37.6228 67.1569 38.7066 66.4101 39.6173C65.6814 40.5099 64.6978 41.1383 63.4592 41.5026L67.7489 50H65.4264L61.328 41.7758H55.2077V50H53.1039ZM55.2077 39.9999H61.1641C62.4574 39.9999 63.4865 39.672 64.2516 39.0162C65.0348 38.3605 65.4264 37.4771 65.4264 36.3659C65.4264 35.273 65.0348 34.3987 64.2516 33.7429C63.4865 33.0872 62.4574 32.7593 61.1641 32.7593H55.2077V39.9999ZM75.9254 50.2459C74.6139 50.2459 73.4208 49.9362 72.3461 49.3169C71.2897 48.6794 70.4427 47.8233 69.8051 46.7486C69.1858 45.6739 68.8762 44.4717 68.8762 43.142C68.8762 41.8305 69.1767 40.6465 69.7778 39.59C70.3789 38.5153 71.1895 37.6683 72.2095 37.049C73.2296 36.4115 74.368 36.0927 75.6249 36.0927C76.8453 36.0927 77.9382 36.4115 78.9036 37.049C79.8872 37.6683 80.6614 38.5153 81.2261 39.59C81.8089 40.6465 82.1004 41.8305 82.1004 43.142V43.7704H70.8707C70.98 44.6629 71.2623 45.4644 71.7177 46.1748C72.1913 46.8852 72.8015 47.4499 73.5484 47.8688C74.2952 48.2696 75.1149 48.4699 76.0074 48.4699C76.7178 48.4699 77.41 48.3606 78.0839 48.142C78.7579 47.9235 79.3226 47.6138 79.7779 47.2131L81.0348 48.5519C80.2698 49.1166 79.4683 49.5446 78.6304 49.8361C77.8107 50.1093 76.9091 50.2459 75.9254 50.2459ZM70.9254 42.1584H80.0785C79.9692 41.3387 79.696 40.6101 79.2588 39.9725C78.8399 39.3168 78.3116 38.8068 77.6741 38.4425C77.0366 38.0599 76.3353 37.8687 75.5702 37.8687C74.787 37.8687 74.0675 38.0508 73.4117 38.4151C72.756 38.7794 72.2095 39.2895 71.7724 39.9452C71.3352 40.5827 71.0529 41.3205 70.9254 42.1584ZM91.5938 55.8471C90.6466 55.8471 89.7085 55.7196 88.7795 55.4646C87.8506 55.2278 87.0035 54.8817 86.2385 54.4263L87.1128 52.8416C87.9325 53.2787 88.6885 53.5975 89.3806 53.7979C90.091 53.9982 90.8014 54.0984 91.5118 54.0984C92.8051 54.0984 93.7887 53.7888 94.4627 53.1694C95.1366 52.5501 95.4736 51.6394 95.4736 50.4372V48.5246C94.2168 49.5811 92.7687 50.1093 91.1293 50.1093C89.8724 50.1093 88.7249 49.7996 87.6866 49.1803C86.6484 48.561 85.8196 47.7231 85.2002 46.6666C84.5991 45.5919 84.2986 44.3988 84.2986 43.0873C84.2986 41.7758 84.5991 40.5919 85.2002 39.5354C85.8196 38.4607 86.6484 37.6137 87.6866 36.9943C88.7249 36.375 89.8907 36.0654 91.1839 36.0654C91.9672 36.0654 92.7231 36.202 93.4517 36.4752C94.1986 36.7484 94.8816 37.1492 95.5009 37.6774V36.3113H97.4955V50.4098C97.4955 52.1585 96.9855 53.4973 95.9654 54.4263C94.9454 55.3735 93.4882 55.8471 91.5938 55.8471ZM91.2932 48.3333C92.1676 48.3333 92.969 48.1694 93.6976 47.8415C94.4262 47.5136 95.0182 47.0491 95.4736 46.448V39.7266C95.0182 39.1437 94.4171 38.6884 93.6703 38.3605C92.9417 38.0326 92.1493 37.8687 91.2932 37.8687C90.346 37.8687 89.4899 38.0964 88.7249 38.5517C87.9781 39.0071 87.3861 39.6356 86.9489 40.437C86.5117 41.2203 86.2932 42.1037 86.2932 43.0873C86.2932 44.071 86.5117 44.9635 86.9489 45.765C87.4043 46.5482 88.0054 47.1766 88.7522 47.6502C89.5172 48.1056 90.3643 48.3333 91.2932 48.3333ZM100.936 50V36.3113H102.958V50H100.936ZM101.947 33.6883C101.583 33.6883 101.264 33.5517 100.991 33.2784C100.718 33.0052 100.581 32.6865 100.581 32.3222C100.581 31.9396 100.718 31.6209 100.991 31.3659C101.264 31.0926 101.583 30.956 101.947 30.956C102.33 30.956 102.649 31.0926 102.904 31.3659C103.177 31.6209 103.314 31.9396 103.314 32.3222C103.314 32.6865 103.177 33.0052 102.904 33.2784C102.649 33.5517 102.33 33.6883 101.947 33.6883ZM110.778 50.2732C109.649 50.2732 108.583 50.0911 107.581 49.7268C106.598 49.3443 105.742 48.816 105.013 48.142L106.242 46.8306C106.88 47.4134 107.581 47.8688 108.346 48.1967C109.111 48.5064 109.895 48.6612 110.696 48.6612C111.789 48.6612 112.681 48.4335 113.374 47.9781C114.066 47.5227 114.412 46.9307 114.412 46.2021C114.412 45.601 114.202 45.1365 113.784 44.8087C113.383 44.4626 112.745 44.2258 111.871 44.0983L109.494 43.7704C108.128 43.57 107.108 43.1602 106.434 42.5409C105.778 41.9216 105.45 41.0837 105.45 40.0272C105.45 39.2621 105.669 38.5791 106.106 37.978C106.543 37.3769 107.144 36.9033 107.909 36.5572C108.692 36.2111 109.585 36.0381 110.587 36.0381C111.589 36.0381 112.527 36.1838 113.401 36.4752C114.275 36.7667 115.131 37.222 115.969 37.8414L114.904 39.2075C114.139 38.6793 113.392 38.2967 112.663 38.0599C111.953 37.8049 111.224 37.6774 110.477 37.6774C109.53 37.6774 108.765 37.8869 108.182 38.3058C107.599 38.7248 107.308 39.2712 107.308 39.9452C107.308 40.5645 107.508 41.0381 107.909 41.366C108.31 41.6757 108.956 41.8942 109.849 42.0217L112.226 42.3496C113.592 42.5318 114.612 42.9325 115.286 43.5518C115.978 44.1711 116.325 45.0181 116.325 46.0928C116.325 46.8761 116.079 47.5865 115.587 48.224C115.095 48.8616 114.43 49.3625 113.592 49.7268C112.773 50.0911 111.834 50.2732 110.778 50.2732ZM123.716 50.2732C122.532 50.2732 121.621 49.9909 120.984 49.4262C120.346 48.8616 120.027 48.0419 120.027 46.9672V38.0326H117.077V36.3113H120.027V32.8413L122.022 32.3222V36.3113H126.148V38.0326H122.022V46.448C122.022 47.1766 122.186 47.7049 122.514 48.0328C122.842 48.3424 123.379 48.4972 124.126 48.4972C124.508 48.4972 124.845 48.4699 125.137 48.4153C125.446 48.3606 125.774 48.2696 126.12 48.142V49.918C125.774 50.0455 125.383 50.1366 124.946 50.1913C124.527 50.2459 124.117 50.2732 123.716 50.2732ZM134.467 50.2459C133.155 50.2459 131.962 49.9362 130.887 49.3169C129.831 48.6794 128.984 47.8233 128.346 46.7486C127.727 45.6739 127.417 44.4717 127.417 43.142C127.417 41.8305 127.718 40.6465 128.319 39.59C128.92 38.5153 129.731 37.6683 130.751 37.049C131.771 36.4115 132.909 36.0927 134.166 36.0927C135.387 36.0927 136.479 36.4115 137.445 37.049C138.428 37.6683 139.203 38.5153 139.767 39.59C140.35 40.6465 140.642 41.8305 140.642 43.142V43.7704H129.412C129.521 44.6629 129.804 45.4644 130.259 46.1748C130.733 46.8852 131.343 47.4499 132.09 47.8688C132.836 48.2696 133.656 48.4699 134.549 48.4699C135.259 48.4699 135.951 48.3606 136.625 48.142C137.299 47.9235 137.864 47.6138 138.319 47.2131L139.576 48.5519C138.811 49.1166 138.01 49.5446 137.172 49.8361C136.352 50.1093 135.45 50.2459 134.467 50.2459ZM129.467 42.1584H138.62C138.51 41.3387 138.237 40.6101 137.8 39.9725C137.381 39.3168 136.853 38.8068 136.215 38.4425C135.578 38.0599 134.877 37.8687 134.111 37.8687C133.328 37.8687 132.609 38.0508 131.953 38.4151C131.297 38.7794 130.751 39.2895 130.314 39.9452C129.876 40.5827 129.594 41.3205 129.467 42.1584ZM143.468 50V36.3113H145.49V38.2512C145.909 37.5408 146.437 36.9943 147.075 36.6118C147.731 36.2111 148.477 36.0107 149.315 36.0107C149.789 36.0107 150.217 36.0745 150.599 36.202V38.0599C150.363 37.9689 150.126 37.9051 149.889 37.8687C149.652 37.8322 149.416 37.814 149.179 37.814C148.341 37.814 147.603 38.0599 146.966 38.5517C146.346 39.0253 145.854 39.7175 145.49 40.6283V50H143.468ZM159.166 50V30.874H161.27L172.773 46.3934V30.874H174.768V50H172.91L161.161 34.0708V50H159.166ZM184.949 50.2732C183.655 50.2732 182.471 49.9636 181.397 49.3443C180.34 48.7067 179.502 47.8506 178.883 46.7759C178.264 45.7012 177.954 44.499 177.954 43.1693C177.954 41.8396 178.264 40.6374 178.883 39.5627C179.502 38.488 180.34 37.641 181.397 37.0217C182.471 36.3841 183.655 36.0654 184.949 36.0654C186.26 36.0654 187.444 36.3841 188.5 37.0217C189.557 37.641 190.395 38.488 191.014 39.5627C191.633 40.6374 191.943 41.8396 191.943 43.1693C191.943 44.499 191.633 45.7012 191.014 46.7759C190.395 47.8506 189.557 48.7067 188.5 49.3443C187.444 49.9636 186.26 50.2732 184.949 50.2732ZM184.949 48.4699C185.877 48.4699 186.715 48.2331 187.462 47.7595C188.227 47.2859 188.828 46.6484 189.266 45.8469C189.721 45.0455 189.949 44.1529 189.949 43.1693C189.949 42.1675 189.721 41.2749 189.266 40.4917C188.828 39.6902 188.227 39.0527 187.462 38.5791C186.715 38.1055 185.877 37.8687 184.949 37.8687C184.02 37.8687 183.173 38.1055 182.407 38.5791C181.661 39.0527 181.06 39.6902 180.604 40.4917C180.167 41.2749 179.948 42.1675 179.948 43.1693C179.948 44.1529 180.167 45.0455 180.604 45.8469C181.06 46.6484 181.661 47.2859 182.407 47.7595C183.173 48.2331 184.02 48.4699 184.949 48.4699ZM196.999 50L193.146 36.3113H195.141L198.092 47.2404L201.507 36.3113H203.31L206.698 47.2404L209.676 36.3113H211.589L207.709 50H205.769L202.381 39.0436L198.966 50H196.999Z" fill="black"/>
</svg>
