<svg width="10" height="11" viewBox="0 0 10 11" fill="none" xmlns="http://www.w3.org/2000/svg">
<g clip-path="url(#clip0_93_1425)">
<path d="M8.25673 1.32983H7.42956V2.157C7.42956 2.32243 7.2917 2.43272 7.15384 2.43272C7.01598 2.43272 6.87812 2.32243 6.87812 2.157V1.32983H2.46658V2.157C2.46658 2.32243 2.32872 2.43272 2.19086 2.43272C2.05299 2.43272 1.91513 2.32243 1.91513 2.157V1.32983H1.08797C0.674387 1.32983 0.371094 1.68827 0.371094 2.157V3.1496H9.19418V2.157C9.19418 1.68827 8.69788 1.32983 8.25673 1.32983ZM0.371094 3.72861V8.77431C0.371094 9.27061 0.674387 9.60148 1.11554 9.60148H8.2843C8.72545 9.60148 9.22175 9.24304 9.22175 8.77431V3.72861H0.371094ZM2.82501 8.36073H2.16328C2.05299 8.36073 1.94271 8.27801 1.94271 8.14015V7.45085C1.94271 7.34056 2.02542 7.23027 2.16328 7.23027H2.85259C2.96287 7.23027 3.07316 7.31299 3.07316 7.45085V8.14015C3.04559 8.27801 2.96287 8.36073 2.82501 8.36073ZM2.82501 5.87924H2.16328C2.05299 5.87924 1.94271 5.79652 1.94271 5.65866V4.96936C1.94271 4.85907 2.02542 4.74878 2.16328 4.74878H2.85259C2.96287 4.74878 3.07316 4.8315 3.07316 4.96936V5.65866C3.04559 5.79652 2.96287 5.87924 2.82501 5.87924ZM5.03079 8.36073H4.34148C4.23119 8.36073 4.1209 8.27801 4.1209 8.14015V7.45085C4.1209 7.34056 4.20362 7.23027 4.34148 7.23027H5.03079C5.14107 7.23027 5.25136 7.31299 5.25136 7.45085V8.14015C5.25136 8.27801 5.16865 8.36073 5.03079 8.36073ZM5.03079 5.87924H4.34148C4.23119 5.87924 4.1209 5.79652 4.1209 5.65866V4.96936C4.1209 4.85907 4.20362 4.74878 4.34148 4.74878H5.03079C5.14107 4.74878 5.25136 4.8315 5.25136 4.96936V5.65866C5.25136 5.79652 5.16865 5.87924 5.03079 5.87924ZM7.23656 8.36073H6.54725C6.43696 8.36073 6.32668 8.27801 6.32668 8.14015V7.45085C6.32668 7.34056 6.40939 7.23027 6.54725 7.23027H7.23656C7.34685 7.23027 7.45713 7.31299 7.45713 7.45085V8.14015C7.45713 8.27801 7.37442 8.36073 7.23656 8.36073ZM7.23656 5.87924H6.54725C6.43696 5.87924 6.32668 5.79652 6.32668 5.65866V4.96936C6.32668 4.85907 6.40939 4.74878 6.54725 4.74878H7.23656C7.34685 4.74878 7.45713 4.8315 7.45713 4.96936V5.65866C7.45713 5.79652 7.37442 5.87924 7.23656 5.87924Z" fill="black"/>
</g>
<defs>
<clipPath id="clip0_93_1425">
<rect width="9.37453" height="9.37453" fill="white" transform="translate(0.0976562 0.77832)"/>
</clipPath>
</defs>
</svg>
