<svg width="10" height="10" viewBox="0 0 10 10" fill="none" xmlns="http://www.w3.org/2000/svg">
<g clip-path="url(#clip0_93_1864)">
<path d="M8.05586 1.36102H7.28889V2.12799C7.28889 2.28138 7.16107 2.38364 7.03324 2.38364C6.90541 2.38364 6.77759 2.28138 6.77759 2.12799V1.36102H2.68711V2.12799C2.68711 2.28138 2.55929 2.38364 2.43146 2.38364C2.30363 2.38364 2.17581 2.28138 2.17581 2.12799V1.36102H1.40884C1.02536 1.36102 0.744141 1.69337 0.744141 2.12799V3.04834H8.92508V2.12799C8.92508 1.69337 8.4649 1.36102 8.05586 1.36102ZM0.744141 3.58522V8.26369C0.744141 8.72387 1.02536 9.03066 1.43441 9.03066H8.08142C8.49047 9.03066 8.95065 8.69831 8.95065 8.26369V3.58522H0.744141ZM3.01946 7.88021H2.40589C2.30363 7.88021 2.20137 7.80352 2.20137 7.67569V7.03655C2.20137 6.93429 2.27807 6.83203 2.40589 6.83203H3.04503C3.14729 6.83203 3.24955 6.90872 3.24955 7.03655V7.67569C3.22399 7.80352 3.14729 7.88021 3.01946 7.88021ZM3.01946 5.57932H2.40589C2.30363 5.57932 2.20137 5.50263 2.20137 5.3748V4.73566C2.20137 4.6334 2.27807 4.53114 2.40589 4.53114H3.04503C3.14729 4.53114 3.24955 4.60783 3.24955 4.73566V5.3748C3.22399 5.50263 3.14729 5.57932 3.01946 5.57932ZM5.0647 7.88021H4.42556C4.3233 7.88021 4.22104 7.80352 4.22104 7.67569V7.03655C4.22104 6.93429 4.29774 6.83203 4.42556 6.83203H5.0647C5.16696 6.83203 5.26922 6.90872 5.26922 7.03655V7.67569C5.26922 7.80352 5.19253 7.88021 5.0647 7.88021ZM5.0647 5.57932H4.42556C4.3233 5.57932 4.22104 5.50263 4.22104 5.3748V4.73566C4.22104 4.6334 4.29774 4.53114 4.42556 4.53114H5.0647C5.16696 4.53114 5.26922 4.60783 5.26922 4.73566V5.3748C5.26922 5.50263 5.19253 5.57932 5.0647 5.57932ZM7.10994 7.88021H6.4708C6.36854 7.88021 6.26628 7.80352 6.26628 7.67569V7.03655C6.26628 6.93429 6.34297 6.83203 6.4708 6.83203H7.10994C7.2122 6.83203 7.31446 6.90872 7.31446 7.03655V7.67569C7.31446 7.80352 7.23776 7.88021 7.10994 7.88021ZM7.10994 5.57932H6.4708C6.36854 5.57932 6.26628 5.50263 6.26628 5.3748V4.73566C6.26628 4.6334 6.34297 4.53114 6.4708 4.53114H7.10994C7.2122 4.53114 7.31446 4.60783 7.31446 4.73566V5.3748C7.31446 5.50263 7.23776 5.57932 7.10994 5.57932Z" fill="black"/>
</g>
<defs>
<clipPath id="clip0_93_1864">
<rect width="8.69225" height="8.69225" fill="black" transform="translate(0.490234 0.849792)"/>
</clipPath>
</defs>
</svg>
