<svg width="12" height="13" viewBox="0 0 12 13" fill="none" xmlns="http://www.w3.org/2000/svg">
<g clip-path="url(#clip0_93_1680)">
<path d="M10.4658 1.6499H9.41426V2.70141C9.41426 2.91171 9.23901 3.05191 9.06376 3.05191C8.88851 3.05191 8.71326 2.91171 8.71326 2.70141V1.6499H3.10522V2.70141C3.10522 2.91171 2.92997 3.05191 2.75472 3.05191C2.57947 3.05191 2.40422 2.91171 2.40422 2.70141V1.6499H1.35271C0.826959 1.6499 0.441406 2.10556 0.441406 2.70141V3.96322H11.6575V2.70141C11.6575 2.10556 11.0266 1.6499 10.4658 1.6499ZM0.441406 4.69927V11.1135C0.441406 11.7444 0.826959 12.165 1.38776 12.165H10.5008C11.0616 12.165 11.6925 11.7093 11.6925 11.1135V4.69927H0.441406ZM3.56088 10.5877H2.71967C2.57947 10.5877 2.43927 10.4826 2.43927 10.3073V9.43105C2.43927 9.29085 2.54442 9.15065 2.71967 9.15065H3.59593C3.73613 9.15065 3.87633 9.2558 3.87633 9.43105V10.3073C3.84128 10.4826 3.73613 10.5877 3.56088 10.5877ZM3.56088 7.43319H2.71967C2.57947 7.43319 2.43927 7.32804 2.43927 7.15279V6.27653C2.43927 6.13633 2.54442 5.99613 2.71967 5.99613H3.59593C3.73613 5.99613 3.87633 6.10128 3.87633 6.27653V7.15279C3.84128 7.32804 3.73613 7.43319 3.56088 7.43319ZM6.36489 10.5877H5.48864C5.34844 10.5877 5.20824 10.4826 5.20824 10.3073V9.43105C5.20824 9.29085 5.31339 9.15065 5.48864 9.15065H6.36489C6.50509 9.15065 6.64529 9.2558 6.64529 9.43105V10.3073C6.64529 10.4826 6.54014 10.5877 6.36489 10.5877ZM6.36489 7.43319H5.48864C5.34844 7.43319 5.20824 7.32804 5.20824 7.15279V6.27653C5.20824 6.13633 5.31339 5.99613 5.48864 5.99613H6.36489C6.50509 5.99613 6.64529 6.10128 6.64529 6.27653V7.15279C6.64529 7.32804 6.54014 7.43319 6.36489 7.43319ZM9.16891 10.5877H8.29265C8.15245 10.5877 8.01225 10.4826 8.01225 10.3073V9.43105C8.01225 9.29085 8.1174 9.15065 8.29265 9.15065H9.16891C9.30911 9.15065 9.44931 9.2558 9.44931 9.43105V10.3073C9.44931 10.4826 9.34416 10.5877 9.16891 10.5877ZM9.16891 7.43319H8.29265C8.15245 7.43319 8.01225 7.32804 8.01225 7.15279V6.27653C8.01225 6.13633 8.1174 5.99613 8.29265 5.99613H9.16891C9.30911 5.99613 9.44931 6.10128 9.44931 6.27653V7.15279C9.44931 7.32804 9.34416 7.43319 9.16891 7.43319Z" fill="black"/>
</g>
<defs>
<clipPath id="clip0_93_1680">
<rect width="11.9171" height="11.9171" fill="white" transform="translate(0.0898438 0.94873)"/>
</clipPath>
</defs>
</svg>
