<svg width="10" height="10" viewBox="0 0 10 10" fill="none" xmlns="http://www.w3.org/2000/svg">
<g clip-path="url(#clip0_93_1908)">
<path d="M7.93867 1.36108H7.17171V2.12805C7.17171 2.28144 7.04388 2.3837 6.91605 2.3837C6.78822 2.3837 6.6604 2.28144 6.6604 2.12805V1.36108H2.56993V2.12805C2.56993 2.28144 2.4421 2.3837 2.31427 2.3837C2.18645 2.3837 2.05862 2.28144 2.05862 2.12805V1.36108H1.29165C0.908173 1.36108 0.626953 1.69343 0.626953 2.12805V3.0484H8.80789V2.12805C8.80789 1.69343 8.34772 1.36108 7.93867 1.36108ZM0.626953 3.58528V8.26375C0.626953 8.72393 0.908173 9.03072 1.31722 9.03072H7.96424C8.37328 9.03072 8.83346 8.69837 8.83346 8.26375V3.58528H0.626953ZM2.90228 7.88027H2.28871C2.18645 7.88027 2.08418 7.80358 2.08418 7.67575V7.03661C2.08418 6.93435 2.16088 6.83209 2.28871 6.83209H2.92784C3.0301 6.83209 3.13237 6.90879 3.13237 7.03661V7.67575C3.1068 7.80358 3.0301 7.88027 2.90228 7.88027ZM2.90228 5.57938H2.28871C2.18645 5.57938 2.08418 5.50269 2.08418 5.37486V4.73572C2.08418 4.63346 2.16088 4.5312 2.28871 4.5312H2.92784C3.0301 4.5312 3.13237 4.6079 3.13237 4.73572V5.37486C3.1068 5.50269 3.0301 5.57938 2.90228 5.57938ZM4.94751 7.88027H4.30838C4.20612 7.88027 4.10385 7.80358 4.10385 7.67575V7.03661C4.10385 6.93435 4.18055 6.83209 4.30838 6.83209H4.94751C5.04977 6.83209 5.15204 6.90879 5.15204 7.03661V7.67575C5.15204 7.80358 5.07534 7.88027 4.94751 7.88027ZM4.94751 5.57938H4.30838C4.20612 5.57938 4.10385 5.50269 4.10385 5.37486V4.73572C4.10385 4.63346 4.18055 4.5312 4.30838 4.5312H4.94751C5.04977 4.5312 5.15204 4.6079 5.15204 4.73572V5.37486C5.15204 5.50269 5.07534 5.57938 4.94751 5.57938ZM6.99275 7.88027H6.35361C6.25135 7.88027 6.14909 7.80358 6.14909 7.67575V7.03661C6.14909 6.93435 6.22578 6.83209 6.35361 6.83209H6.99275C7.09501 6.83209 7.19727 6.90879 7.19727 7.03661V7.67575C7.19727 7.80358 7.12058 7.88027 6.99275 7.88027ZM6.99275 5.57938H6.35361C6.25135 5.57938 6.14909 5.50269 6.14909 5.37486V4.73572C6.14909 4.63346 6.22578 4.5312 6.35361 4.5312H6.99275C7.09501 4.5312 7.19727 4.6079 7.19727 4.73572V5.37486C7.19727 5.50269 7.12058 5.57938 6.99275 5.57938Z" fill="black"/>
</g>
<defs>
<clipPath id="clip0_93_1908">
<rect width="8.69225" height="8.69225" fill="white" transform="translate(0.371094 0.849854)"/>
</clipPath>
</defs>
</svg>
