<svg width="10" height="11" viewBox="0 0 10 11" fill="none" xmlns="http://www.w3.org/2000/svg">
<g clip-path="url(#clip0_93_1491)">
<path d="M8.25673 1.32959H7.42956V2.15675C7.42956 2.32219 7.2917 2.43248 7.15384 2.43248C7.01598 2.43248 6.87812 2.32219 6.87812 2.15675V1.32959H2.46658V2.15675C2.46658 2.32219 2.32872 2.43248 2.19086 2.43248C2.05299 2.43248 1.91513 2.32219 1.91513 2.15675V1.32959H1.08797C0.674387 1.32959 0.371094 1.68803 0.371094 2.15675V3.14935H9.19418V2.15675C9.19418 1.68803 8.69788 1.32959 8.25673 1.32959ZM0.371094 3.72837V8.77407C0.371094 9.27037 0.674387 9.60123 1.11554 9.60123H8.2843C8.72545 9.60123 9.22175 9.24279 9.22175 8.77407V3.72837H0.371094ZM2.82501 8.36049H2.16328C2.05299 8.36049 1.94271 8.27777 1.94271 8.13991V7.45061C1.94271 7.34032 2.02542 7.23003 2.16328 7.23003H2.85259C2.96287 7.23003 3.07316 7.31275 3.07316 7.45061V8.13991C3.04559 8.27777 2.96287 8.36049 2.82501 8.36049ZM2.82501 5.87899H2.16328C2.05299 5.87899 1.94271 5.79628 1.94271 5.65842V4.96911C1.94271 4.85882 2.02542 4.74854 2.16328 4.74854H2.85259C2.96287 4.74854 3.07316 4.83125 3.07316 4.96911V5.65842C3.04559 5.79628 2.96287 5.87899 2.82501 5.87899ZM5.03079 8.36049H4.34148C4.23119 8.36049 4.1209 8.27777 4.1209 8.13991V7.45061C4.1209 7.34032 4.20362 7.23003 4.34148 7.23003H5.03079C5.14107 7.23003 5.25136 7.31275 5.25136 7.45061V8.13991C5.25136 8.27777 5.16865 8.36049 5.03079 8.36049ZM5.03079 5.87899H4.34148C4.23119 5.87899 4.1209 5.79628 4.1209 5.65842V4.96911C4.1209 4.85882 4.20362 4.74854 4.34148 4.74854H5.03079C5.14107 4.74854 5.25136 4.83125 5.25136 4.96911V5.65842C5.25136 5.79628 5.16865 5.87899 5.03079 5.87899ZM7.23656 8.36049H6.54725C6.43696 8.36049 6.32668 8.27777 6.32668 8.13991V7.45061C6.32668 7.34032 6.40939 7.23003 6.54725 7.23003H7.23656C7.34685 7.23003 7.45713 7.31275 7.45713 7.45061V8.13991C7.45713 8.27777 7.37442 8.36049 7.23656 8.36049ZM7.23656 5.87899H6.54725C6.43696 5.87899 6.32668 5.79628 6.32668 5.65842V4.96911C6.32668 4.85882 6.40939 4.74854 6.54725 4.74854H7.23656C7.34685 4.74854 7.45713 4.83125 7.45713 4.96911V5.65842C7.45713 5.79628 7.37442 5.87899 7.23656 5.87899Z" fill="black"/>
</g>
<defs>
<clipPath id="clip0_93_1491">
<rect width="9.37453" height="9.37453" fill="white" transform="translate(0.0976562 0.778076)"/>
</clipPath>
</defs>
</svg>
