<svg width="9" height="10" viewBox="0 0 9 10" fill="none" xmlns="http://www.w3.org/2000/svg">
<g clip-path="url(#clip0_93_1886)">
<path d="M7.78242 1.36139H7.01546V2.12835C7.01546 2.28175 6.88763 2.38401 6.7598 2.38401C6.63197 2.38401 6.50415 2.28175 6.50415 2.12835V1.36139H2.41368V2.12835C2.41368 2.28175 2.28585 2.38401 2.15802 2.38401C2.0302 2.38401 1.90237 2.28175 1.90237 2.12835V1.36139H1.1354C0.751923 1.36139 0.470703 1.69374 0.470703 2.12835V3.04871H8.65164V2.12835C8.65164 1.69374 8.19147 1.36139 7.78242 1.36139ZM0.470703 3.58558V8.26406C0.470703 8.72424 0.751923 9.03102 1.16097 9.03102H7.80799C8.21703 9.03102 8.67721 8.69867 8.67721 8.26406V3.58558H0.470703ZM2.74603 7.88058H2.13246C2.0302 7.88058 1.92793 7.80388 1.92793 7.67605V7.03692C1.92793 6.93466 2.00463 6.83239 2.13246 6.83239H2.77159C2.87385 6.83239 2.97612 6.90909 2.97612 7.03692V7.67605C2.95055 7.80388 2.87385 7.88058 2.74603 7.88058ZM2.74603 5.57969H2.13246C2.0302 5.57969 1.92793 5.50299 1.92793 5.37516V4.73603C1.92793 4.63377 2.00463 4.5315 2.13246 4.5315H2.77159C2.87385 4.5315 2.97612 4.6082 2.97612 4.73603V5.37516C2.95055 5.50299 2.87385 5.57969 2.74603 5.57969ZM4.79126 7.88058H4.15213C4.04987 7.88058 3.9476 7.80388 3.9476 7.67605V7.03692C3.9476 6.93466 4.0243 6.83239 4.15213 6.83239H4.79126C4.89352 6.83239 4.99579 6.90909 4.99579 7.03692V7.67605C4.99579 7.80388 4.91909 7.88058 4.79126 7.88058ZM4.79126 5.57969H4.15213C4.04987 5.57969 3.9476 5.50299 3.9476 5.37516V4.73603C3.9476 4.63377 4.0243 4.5315 4.15213 4.5315H4.79126C4.89352 4.5315 4.99579 4.6082 4.99579 4.73603V5.37516C4.99579 5.50299 4.91909 5.57969 4.79126 5.57969ZM6.8365 7.88058H6.19736C6.0951 7.88058 5.99284 7.80388 5.99284 7.67605V7.03692C5.99284 6.93466 6.06953 6.83239 6.19736 6.83239H6.8365C6.93876 6.83239 7.04102 6.90909 7.04102 7.03692V7.67605C7.04102 7.80388 6.96433 7.88058 6.8365 7.88058ZM6.8365 5.57969H6.19736C6.0951 5.57969 5.99284 5.50299 5.99284 5.37516V4.73603C5.99284 4.63377 6.06953 4.5315 6.19736 4.5315H6.8365C6.93876 4.5315 7.04102 4.6082 7.04102 4.73603V5.37516C7.04102 5.50299 6.96433 5.57969 6.8365 5.57969Z" fill="black"/>
</g>
<defs>
<clipPath id="clip0_93_1886">
<rect width="8.69225" height="8.69225" fill="white" transform="translate(0.214844 0.849976)"/>
</clipPath>
</defs>
</svg>
