<svg width="13" height="13" viewBox="0 0 13 13" fill="none" xmlns="http://www.w3.org/2000/svg">
<g clip-path="url(#clip0_93_1695)">
<path d="M11.0771 1.40381H10.0256V2.45532C10.0256 2.66562 9.85034 2.80582 9.67509 2.80582C9.49984 2.80582 9.32459 2.66562 9.32459 2.45532V1.40381H3.71655V2.45532C3.71655 2.66562 3.5413 2.80582 3.36605 2.80582C3.1908 2.80582 3.01555 2.66562 3.01555 2.45532V1.40381H1.96404C1.43829 1.40381 1.05273 1.85946 1.05273 2.45532V3.71712H12.2688V2.45532C12.2688 1.85946 11.6379 1.40381 11.0771 1.40381ZM1.05273 4.45318V10.8674C1.05273 11.4983 1.43829 11.9189 1.99909 11.9189H11.1121C11.6729 11.9189 12.3039 11.4632 12.3039 10.8674V4.45318H1.05273ZM4.1722 10.3416H3.331C3.1908 10.3416 3.0506 10.2365 3.0506 10.0612V9.18496C3.0506 9.04476 3.15575 8.90455 3.331 8.90455H4.20725C4.34745 8.90455 4.48766 9.00971 4.48766 9.18496V10.0612C4.45261 10.2365 4.34745 10.3416 4.1722 10.3416ZM4.1722 7.18709H3.331C3.1908 7.18709 3.0506 7.08194 3.0506 6.90669V6.03044C3.0506 5.89024 3.15575 5.75004 3.331 5.75004H4.20725C4.34745 5.75004 4.48766 5.85519 4.48766 6.03044V6.90669C4.45261 7.08194 4.34745 7.18709 4.1722 7.18709ZM6.97622 10.3416H6.09997C5.95976 10.3416 5.81956 10.2365 5.81956 10.0612V9.18496C5.81956 9.04476 5.92471 8.90455 6.09997 8.90455H6.97622C7.11642 8.90455 7.25662 9.00971 7.25662 9.18496V10.0612C7.25662 10.2365 7.15147 10.3416 6.97622 10.3416ZM6.97622 7.18709H6.09997C5.95976 7.18709 5.81956 7.08194 5.81956 6.90669V6.03044C5.81956 5.89024 5.92471 5.75004 6.09997 5.75004H6.97622C7.11642 5.75004 7.25662 5.85519 7.25662 6.03044V6.90669C7.25662 7.08194 7.15147 7.18709 6.97622 7.18709ZM9.78024 10.3416H8.90398C8.76378 10.3416 8.62358 10.2365 8.62358 10.0612V9.18496C8.62358 9.04476 8.72873 8.90455 8.90398 8.90455H9.78024C9.92044 8.90455 10.0606 9.00971 10.0606 9.18496V10.0612C10.0606 10.2365 9.95549 10.3416 9.78024 10.3416ZM9.78024 7.18709H8.90398C8.76378 7.18709 8.62358 7.08194 8.62358 6.90669V6.03044C8.62358 5.89024 8.72873 5.75004 8.90398 5.75004H9.78024C9.92044 5.75004 10.0606 5.85519 10.0606 6.03044V6.90669C10.0606 7.08194 9.95549 7.18709 9.78024 7.18709Z" fill="black"/>
</g>
<defs>
<clipPath id="clip0_93_1695">
<rect width="11.9171" height="11.9171" fill="white" transform="translate(0.701172 0.702637)"/>
</clipPath>
</defs>
</svg>
