<svg width="19" height="18" viewBox="0 0 19 18" fill="none" xmlns="http://www.w3.org/2000/svg">
<path d="M16.9284 0H15.1526V1.8C15.1526 2.16 14.8567 2.4 14.5607 2.4C14.2648 2.4 13.9688 2.16 13.9688 1.8V0H4.49844V1.8C4.49844 2.16 4.20249 2.4 3.90654 2.4C3.61059 2.4 3.31464 2.16 3.31464 1.8V0H1.53894C0.65109 0 0 0.78 0 1.8V3.96H18.9408V1.8C18.9408 0.78 17.8754 0 16.9284 0ZM0 5.22V16.2C0 17.28 0.65109 18 1.59813 18H16.9875C17.9346 18 19 17.22 19 16.2V5.22H0ZM5.26791 15.3H3.84735C3.61059 15.3 3.37383 15.12 3.37383 14.82V13.32C3.37383 13.08 3.5514 12.84 3.84735 12.84H5.3271C5.56386 12.84 5.80062 13.02 5.80062 13.32V14.82C5.74143 15.12 5.56386 15.3 5.26791 15.3ZM5.26791 9.9H3.84735C3.61059 9.9 3.37383 9.72 3.37383 9.42V7.92C3.37383 7.68 3.5514 7.44 3.84735 7.44H5.3271C5.56386 7.44 5.80062 7.62 5.80062 7.92V9.42C5.74143 9.72 5.56386 9.9 5.26791 9.9ZM10.0031 15.3H8.52337C8.2866 15.3 8.04984 15.12 8.04984 14.82V13.32C8.04984 13.08 8.22742 12.84 8.52337 12.84H10.0031C10.2399 12.84 10.4766 13.02 10.4766 13.32V14.82C10.4766 15.12 10.2991 15.3 10.0031 15.3ZM10.0031 9.9H8.52337C8.2866 9.9 8.04984 9.72 8.04984 9.42V7.92C8.04984 7.68 8.22742 7.44 8.52337 7.44H10.0031C10.2399 7.44 10.4766 7.62 10.4766 7.92V9.42C10.4766 9.72 10.2991 9.9 10.0031 9.9ZM14.7383 15.3H13.2586C13.0218 15.3 12.785 15.12 12.785 14.82V13.32C12.785 13.08 12.9626 12.84 13.2586 12.84H14.7383C14.9751 12.84 15.2118 13.02 15.2118 13.32V14.82C15.2118 15.12 15.0343 15.3 14.7383 15.3ZM14.7383 9.9H13.2586C13.0218 9.9 12.785 9.72 12.785 9.42V7.92C12.785 7.68 12.9626 7.44 13.2586 7.44H14.7383C14.9751 7.44 15.2118 7.62 15.2118 7.92V9.42C15.2118 9.72 15.0343 9.9 14.7383 9.9Z" fill="white"/>
</svg>
