<svg width="10" height="11" viewBox="0 0 10 11" fill="none" xmlns="http://www.w3.org/2000/svg">
<g clip-path="url(#clip0_93_1513)">
<path d="M8.52626 1.32983H7.69909V2.157C7.69909 2.32243 7.56123 2.43272 7.42337 2.43272C7.28551 2.43272 7.14765 2.32243 7.14765 2.157V1.32983H2.73611V2.157C2.73611 2.32243 2.59825 2.43272 2.46039 2.43272C2.32253 2.43272 2.18466 2.32243 2.18466 2.157V1.32983H1.3575C0.943919 1.32983 0.640625 1.68827 0.640625 2.157V3.1496H9.46371V2.157C9.46371 1.68827 8.96741 1.32983 8.52626 1.32983ZM0.640625 3.72861V8.77431C0.640625 9.27061 0.943919 9.60148 1.38507 9.60148H8.55383C8.99498 9.60148 9.49128 9.24304 9.49128 8.77431V3.72861H0.640625ZM3.09455 8.36073H2.43281C2.32253 8.36073 2.21224 8.27801 2.21224 8.14015V7.45085C2.21224 7.34056 2.29495 7.23027 2.43281 7.23027H3.12212C3.23241 7.23027 3.34269 7.31299 3.34269 7.45085V8.14015C3.31512 8.27801 3.23241 8.36073 3.09455 8.36073ZM3.09455 5.87924H2.43281C2.32253 5.87924 2.21224 5.79652 2.21224 5.65866V4.96936C2.21224 4.85907 2.29495 4.74878 2.43281 4.74878H3.12212C3.23241 4.74878 3.34269 4.8315 3.34269 4.96936V5.65866C3.31512 5.79652 3.23241 5.87924 3.09455 5.87924ZM5.30032 8.36073H4.61101C4.50072 8.36073 4.39044 8.27801 4.39044 8.14015V7.45085C4.39044 7.34056 4.47315 7.23027 4.61101 7.23027H5.30032C5.4106 7.23027 5.52089 7.31299 5.52089 7.45085V8.14015C5.52089 8.27801 5.43818 8.36073 5.30032 8.36073ZM5.30032 5.87924H4.61101C4.50072 5.87924 4.39044 5.79652 4.39044 5.65866V4.96936C4.39044 4.85907 4.47315 4.74878 4.61101 4.74878H5.30032C5.4106 4.74878 5.52089 4.8315 5.52089 4.96936V5.65866C5.52089 5.79652 5.43818 5.87924 5.30032 5.87924ZM7.50609 8.36073H6.81678C6.7065 8.36073 6.59621 8.27801 6.59621 8.14015V7.45085C6.59621 7.34056 6.67892 7.23027 6.81678 7.23027H7.50609C7.61638 7.23027 7.72667 7.31299 7.72667 7.45085V8.14015C7.72667 8.27801 7.64395 8.36073 7.50609 8.36073ZM7.50609 5.87924H6.81678C6.7065 5.87924 6.59621 5.79652 6.59621 5.65866V4.96936C6.59621 4.85907 6.67892 4.74878 6.81678 4.74878H7.50609C7.61638 4.74878 7.72667 4.8315 7.72667 4.96936V5.65866C7.72667 5.79652 7.64395 5.87924 7.50609 5.87924Z" fill="black"/>
</g>
<defs>
<clipPath id="clip0_93_1513">
<rect width="9.37453" height="9.37453" fill="white" transform="translate(0.365234 0.77832)"/>
</clipPath>
</defs>
</svg>
