<svg width="36" height="36" viewBox="0 0 36 36" fill="none" xmlns="http://www.w3.org/2000/svg">
<path d="M35.1399 13.5665L18.2649 4.56648C18.099 4.47817 17.9016 4.47817 17.7356 4.56648L0.860625 13.5665C0.676687 13.6644 0.5625 13.855 0.5625 14.0626C0.5625 14.2702 0.676688 14.4609 0.860063 14.5587L5.625 17.1001V24.1876H6.75V17.7003L8.4375 18.6003V22.0175C7.46944 22.2689 6.75 23.1419 6.75 24.1876C6.75 24.7017 6.93 25.1703 7.22137 25.55C6.91425 26.6002 6.75 27.683 6.75 28.7787V30.3751C6.75 30.5883 6.87038 30.7829 7.06106 30.8785L7.68262 31.1896C8.08988 31.3927 8.54494 31.5001 9 31.5001C9.45506 31.5001 9.91012 31.3927 10.3174 31.189L10.9389 30.878C11.1296 30.7829 11.25 30.5883 11.25 30.3751V28.7787C11.25 27.683 11.0858 26.6002 10.7786 25.55C11.07 25.1703 11.25 24.7017 11.25 24.1876C11.25 23.1419 10.5306 22.2689 9.5625 22.0175V19.2005L17.7351 23.5593C17.8183 23.6032 17.9089 23.6251 18 23.6251C18.0911 23.6251 18.1817 23.6032 18.2649 23.5593L29.25 17.7003V23.9097C26.1214 26.2672 22.257 27.5626 18.3369 27.5626H17.6636C15.7326 27.5626 13.8234 27.256 11.9886 26.6514L11.637 27.7201C13.5844 28.3619 15.6127 28.6876 17.6631 28.6876H18.3364C22.5968 28.6876 26.7947 27.247 30.1579 24.6314C30.2946 24.5251 30.375 24.3614 30.375 24.1876V17.1001L35.1399 14.5587C35.3233 14.4609 35.4375 14.2702 35.4375 14.0626C35.4375 13.855 35.3233 13.6644 35.1399 13.5665ZM10.125 30.0275L9.81394 30.1827C9.3105 30.4342 8.68894 30.4342 8.1855 30.1827L7.875 30.0275V28.7787C7.875 27.9333 7.97794 27.0957 8.181 26.2778C8.43525 26.378 8.71031 26.4376 9 26.4376C9.28969 26.4376 9.56475 26.378 9.819 26.2778C10.0221 27.0957 10.125 27.9333 10.125 28.7787V30.0275ZM10.125 24.1876C10.125 24.808 9.62044 25.3126 9 25.3126C8.37956 25.3126 7.875 24.808 7.875 24.1876C7.875 23.5672 8.37956 23.0626 9 23.0626C9.62044 23.0626 10.125 23.5672 10.125 24.1876ZM18 22.4247L9.9495 18.1312L16.9183 14.4147C17.2384 14.5452 17.6029 14.6251 18 14.6251C19.2617 14.6251 20.25 13.8837 20.25 12.9376C20.25 11.9915 19.2617 11.2501 18 11.2501C16.7383 11.2501 15.75 11.9915 15.75 12.9376C15.75 13.1947 15.8282 13.4343 15.9598 13.6509L8.75419 17.4939L2.32031 14.0626L18 5.69992L33.6797 14.0626L18 22.4247ZM16.875 12.9376C16.875 12.7081 17.3132 12.3751 18 12.3751C18.6868 12.3751 19.125 12.7081 19.125 12.9376C19.125 13.1671 18.6868 13.5001 18 13.5001C17.3132 13.5001 16.875 13.1671 16.875 12.9376Z" fill="#F7A600"/>
</svg>
