<svg width="33" height="27" viewBox="0 0 33 27" fill="none" xmlns="http://www.w3.org/2000/svg">
<path d="M32.1271 18.3883L24.0124 26.3614C23.901 26.4789 23.7666 26.5732 23.6173 26.6385C23.468 26.7039 23.3068 26.739 23.1433 26.7419C22.9799 26.7447 22.8176 26.7152 22.666 26.655C22.5144 26.5949 22.3768 26.5053 22.2612 26.3918C22.1456 26.2782 22.0545 26.1429 21.9933 25.994C21.932 25.8451 21.902 25.6856 21.9049 25.525C21.9077 25.3644 21.9435 25.206 22.01 25.0593C22.0766 24.9126 22.1725 24.7806 22.2921 24.6711L28.3278 18.7391H6.92284C6.60002 18.7391 6.29042 18.6131 6.06215 18.3888C5.83388 18.1645 5.70564 17.8603 5.70564 17.5431C5.70564 17.2259 5.83388 16.9217 6.06215 16.6975C6.29042 16.4732 6.60002 16.3472 6.92284 16.3472H31.2669C31.5075 16.3474 31.7426 16.4176 31.9426 16.5491C32.1426 16.6805 32.2984 16.8672 32.3905 17.0856C32.4825 17.304 32.5066 17.5443 32.4597 17.7762C32.4128 18.008 32.2971 18.221 32.1271 18.3883ZM27.6153 9.57002C27.6153 9.25283 27.4871 8.94863 27.2588 8.72434C27.0305 8.50005 26.7209 8.37405 26.3981 8.37405H4.99317L11.0289 2.44205C11.1485 2.33256 11.2444 2.20052 11.3109 2.05382C11.3774 1.90711 11.4132 1.74874 11.4161 1.58816C11.419 1.42758 11.3889 1.26807 11.3277 1.11915C11.2665 0.97023 11.1754 0.834952 11.0598 0.721385C10.9442 0.607818 10.8065 0.518288 10.6549 0.458137C10.5034 0.397986 10.341 0.368447 10.1776 0.37128C10.0142 0.374113 9.85299 0.409262 9.70368 0.474629C9.55437 0.539995 9.41999 0.634241 9.30856 0.751744L1.19387 8.72487C1.02385 8.89212 0.908099 9.10513 0.861221 9.33698C0.814343 9.56884 0.838446 9.80915 0.930485 10.0276C1.02252 10.246 1.17837 10.4327 1.37834 10.5641C1.57831 10.6955 1.81344 10.7658 2.05402 10.766H26.3981C26.7209 10.766 27.0305 10.64 27.2588 10.4157C27.4871 10.1914 27.6153 9.88721 27.6153 9.57002Z" fill="#272761"/>
</svg>
