<svg width="285" height="338" viewBox="0 0 285 338" fill="none" xmlns="http://www.w3.org/2000/svg">
<g clip-path="url(#clip0_93_2579)">
<path d="M126.74 338C196.737 338 253.48 281.256 253.48 211.26C253.48 141.263 196.737 84.5195 126.74 84.5195C56.7435 84.5195 0 141.263 0 211.26C0 281.256 56.7435 338 126.74 338Z" fill="#FECC01"/>
<path d="M175.922 218.766C175.922 221.111 175.922 223.535 175.922 225.881C175.922 227.523 175.218 231.197 176.626 232.526C178.033 233.856 181.551 233.074 183.193 233.074C185.617 233.074 187.963 233.074 190.308 233.074C192.81 233.074 192.81 229.164 190.308 229.164C186.164 229.164 182.021 229.164 177.955 229.164L179.362 229.712L179.284 229.634L179.831 231.041C179.831 226.975 179.831 222.831 179.831 218.766C179.831 216.264 175.922 216.264 175.922 218.766Z" fill="#1D1D1B"/>
<path d="M140.658 220.72C148.868 220.72 157.077 220.72 165.287 220.72C168.883 220.72 173.496 221.502 177.015 220.72C177.249 220.642 177.484 220.799 177.718 220.72C176.389 221.189 176.467 219.704 177.249 220.955C178.5 222.831 180.846 224.473 182.41 226.115L187.492 231.197C187.883 231.588 188.352 231.979 188.743 232.448C188.274 231.979 188.821 231.119 188.352 232.057C188.195 232.448 188.352 233.699 188.352 234.09V286.241C188.352 286.788 188.195 287.961 188.352 288.508C189.055 290.541 189.446 286.71 190.15 287.492C189.29 286.632 183.582 287.492 182.488 287.492H145.193C144.176 287.492 142.3 287.101 141.362 287.492C141.284 287.57 140.736 287.413 140.658 287.492C140.814 287.257 141.987 289.524 142.456 289.055C142.769 288.743 142.456 286.866 142.456 286.475V275.138C142.456 256.373 142.144 237.609 142.534 218.844C142.613 216.342 138.703 216.342 138.625 218.844C138.234 236.514 138.547 254.106 138.547 271.776C138.547 276.155 138.547 280.533 138.547 284.911C138.547 286.397 138 289.446 139.094 290.697C140.345 292.105 144.098 291.401 145.662 291.401H160.752C170.213 291.401 179.829 292.026 189.212 291.401C191.948 291.245 192.183 289.837 192.183 287.335C192.183 282.019 192.183 276.78 192.183 271.463C192.183 266.147 192.183 256.608 192.183 249.18C192.183 244.567 192.183 240.032 192.183 235.498C192.183 232.839 192.496 230.806 190.541 228.852C188.508 226.741 186.397 224.708 184.286 222.675C182.722 221.111 181.159 219 179.282 217.749C177.093 216.186 173.184 216.967 170.603 216.967H140.423C138.078 216.811 138.078 220.72 140.658 220.72Z" fill="#1D1D1B"/>
<path d="M246.758 218.766C246.758 221.111 246.758 223.535 246.758 225.881C246.758 227.523 246.054 231.197 247.462 232.526C248.869 233.856 252.387 233.074 254.029 233.074C256.375 233.074 258.799 233.074 261.144 233.074C263.646 233.074 263.646 229.164 261.144 229.164C257 229.164 252.935 229.164 248.791 229.164L250.198 229.712L250.12 229.634L250.667 231.041C250.667 226.975 250.667 222.831 250.667 218.766C250.667 216.264 246.758 216.264 246.758 218.766Z" fill="#1D1D1B"/>
<path d="M211.494 220.72C219.704 220.72 227.913 220.72 236.123 220.72C239.719 220.72 244.332 221.502 247.851 220.72C248.085 220.642 248.32 220.799 248.554 220.72C247.225 221.189 247.303 219.704 248.085 220.955C249.336 222.831 251.682 224.473 253.246 226.115L258.328 231.197C258.719 231.588 259.188 231.979 259.579 232.448C259.11 231.979 259.657 231.119 259.188 232.057C259.031 232.448 259.188 233.699 259.188 234.09V242.534C259.188 250.979 259.188 259.344 259.188 267.789C259.188 271.385 259.188 274.982 259.188 278.578V286.241C259.188 286.788 259.031 287.961 259.188 288.508C259.891 290.541 260.282 286.71 260.986 287.492C260.126 286.632 254.418 287.492 253.324 287.492H216.029C215.012 287.492 213.136 287.101 212.198 287.492C212.119 287.57 211.572 287.413 211.494 287.492C211.65 287.257 212.823 289.524 213.292 289.055C213.605 288.743 213.292 286.866 213.292 286.475V275.138C213.292 256.373 212.979 237.609 213.37 218.844C213.449 216.342 209.539 216.342 209.461 218.844C209.07 236.514 209.383 254.106 209.383 271.776V284.911C209.383 286.397 208.836 289.446 209.93 290.697C211.181 292.105 214.934 291.401 216.498 291.401H231.588C240.97 291.401 250.665 292.026 260.048 291.401C262.784 291.245 263.019 289.837 263.019 287.335V249.18C263.019 244.567 263.019 240.032 263.019 235.498C263.019 232.839 263.332 230.806 261.377 228.852C259.344 226.741 257.233 224.708 255.122 222.675C253.558 221.111 251.995 219 250.118 217.749C247.929 216.186 244.02 216.967 241.439 216.967H211.338C208.914 216.811 208.914 220.72 211.494 220.72Z" fill="#1D1D1B"/>
<path d="M108.285 218.766C108.285 221.111 108.285 223.535 108.285 225.881C108.285 227.523 107.582 231.197 108.989 232.526C110.396 233.856 113.915 233.074 115.557 233.074C117.98 233.074 120.326 233.074 122.672 233.074C125.174 233.074 125.174 229.164 122.672 229.164C118.528 229.164 114.384 229.164 110.318 229.164L111.725 229.712L111.647 229.634L112.195 231.041C112.195 226.975 112.195 222.831 112.195 218.766C112.195 216.264 108.285 216.264 108.285 218.766Z" fill="#1D1D1B"/>
<path d="M73.0251 220.72C81.2347 220.72 89.4443 220.72 97.6539 220.72C101.25 220.72 105.863 221.502 109.382 220.72C109.616 220.642 109.851 220.799 110.086 220.72C108.756 221.189 108.835 219.704 109.616 220.955C110.867 222.831 113.213 224.473 114.777 226.115L119.859 231.197C120.25 231.588 120.719 231.979 121.11 232.448C120.641 231.979 121.188 231.119 120.719 232.057C120.562 232.448 120.719 233.699 120.719 234.09V242.534C120.719 250.979 120.719 259.344 120.719 267.789V286.241C120.719 286.788 120.562 287.961 120.719 288.508C121.423 290.541 121.813 286.71 122.517 287.492C121.657 286.632 115.949 287.492 114.855 287.492H77.6381C76.6217 287.492 74.7452 287.101 73.807 287.492C73.6506 287.57 73.1815 287.413 73.1033 287.492C73.2597 287.257 74.4325 289.524 74.9016 289.055C75.1362 288.743 74.9016 286.866 74.9016 286.475C74.9016 282.722 74.9016 278.969 74.9016 275.138C74.9016 256.373 74.5889 237.609 74.9798 218.844C75.058 216.342 71.1487 216.342 71.0705 218.844C70.6795 236.514 70.9923 254.106 70.9923 271.776V284.911C70.9923 286.397 70.445 289.446 71.5396 290.697C72.7906 292.105 76.4653 291.401 78.1073 291.401H93.1972C102.658 291.401 112.275 292.026 121.657 291.401C124.394 291.245 124.628 289.837 124.628 287.335V271.463C124.628 264.036 124.628 256.608 124.628 249.18C124.628 244.567 124.628 240.032 124.628 235.498C124.628 230.963 124.941 230.806 122.986 228.852C120.953 226.741 118.842 224.708 116.731 222.675C115.168 221.111 113.604 219 111.727 217.749C109.538 216.186 105.629 216.967 103.049 216.967H73.0251C70.5232 216.811 70.5232 220.72 73.0251 220.72Z" fill="#1D1D1B"/>
<path d="M108.285 135.028C108.285 137.373 108.285 139.797 108.285 142.143C108.285 143.785 107.582 147.459 108.989 148.789C110.396 150.118 113.915 149.336 115.557 149.336C117.98 149.336 120.326 149.336 122.672 149.336C125.174 149.336 125.174 145.427 122.672 145.427C118.528 145.427 114.384 145.427 110.318 145.427L111.725 145.974L111.647 145.896L112.195 147.303C112.195 143.237 112.195 139.094 112.195 135.028C112.195 132.526 108.285 132.526 108.285 135.028Z" fill="#1D1D1B"/>
<path d="M73.0251 136.983C81.2347 136.983 89.4443 136.983 97.6539 136.983C101.25 136.983 105.863 137.765 109.382 136.983C109.616 136.905 109.851 137.061 110.086 136.983C108.756 137.452 108.835 135.966 109.616 137.217C110.867 139.094 113.213 140.736 114.777 142.378L119.859 147.46C120.25 147.851 120.719 148.242 121.11 148.711C120.641 148.242 121.188 147.382 120.719 148.398C120.562 148.789 120.719 150.04 120.719 150.431V158.875C120.719 167.319 120.719 175.685 120.719 184.129V202.503C120.719 203.05 120.562 204.223 120.719 204.77C121.423 206.803 121.813 202.972 122.517 203.754C121.657 202.894 115.949 203.754 114.855 203.754H77.6381C76.6217 203.754 74.7452 203.363 73.807 203.754C73.6506 203.832 73.1815 203.676 73.1033 203.754C73.2597 203.519 74.4325 205.787 74.9016 205.318C75.1362 205.005 74.9016 203.128 74.9016 202.738C74.9016 198.985 74.9016 195.232 74.9016 191.479C74.9016 172.714 74.5889 153.949 74.9798 135.184C75.058 132.682 71.1487 132.682 71.0705 135.184C70.6795 152.855 70.9923 170.447 70.9923 188.117V201.252C70.9923 202.738 70.445 205.787 71.5396 207.038C72.7906 208.445 76.4653 207.741 78.1073 207.741C83.1112 207.741 88.1933 207.741 93.1972 207.741C102.658 207.741 112.275 208.367 121.657 207.741C124.394 207.585 124.628 206.178 124.628 203.676V187.648C124.628 180.22 124.628 172.792 124.628 165.364C124.628 160.751 124.628 156.217 124.628 151.682C124.628 147.147 124.941 146.991 122.986 144.958C120.953 142.847 118.842 140.814 116.731 138.781C115.168 137.217 113.604 135.106 111.727 133.855C109.538 132.292 105.629 133.073 103.049 133.073H73.0251C70.5232 133.073 70.5232 136.983 73.0251 136.983Z" fill="#1D1D1B"/>
<path d="M222.754 45.3482C222.754 50.3521 222.754 55.4343 222.754 60.4382V69.8206C222.754 71.8534 222.442 73.8863 224.083 75.45C225.725 77.0137 227.915 76.6228 229.869 76.6228H239.33C244.256 76.6228 249.181 76.6228 254.107 76.6228C259.033 76.6228 259.189 68.8041 254.107 68.8041C245.037 68.8041 235.968 68.8041 226.82 68.8041L229.556 69.9769L229.322 69.7424L230.495 72.4789C230.495 63.4875 230.495 54.4178 230.495 45.4264C230.573 40.3443 222.754 40.3443 222.754 45.3482Z" fill="#1D1D1B"/>
<path d="M144.567 49.2576C162.081 49.2576 179.516 49.2576 197.03 49.2576C205.865 49.2576 214.7 49.2576 223.535 49.2576C224.317 49.2576 225.255 49.4139 226.037 49.2576C227.367 48.9448 223.535 47.0683 224.708 48.8666C227.054 52.2287 231.041 55.1215 233.934 58.0144L246.053 70.0552L250.041 74.0427C250.353 74.3554 250.744 74.9809 251.135 75.1373C251.917 75.6064 250.744 71.6971 250.353 73.6517C249.884 76.0755 250.353 78.8902 250.353 81.3922V91.4782C250.353 111.494 250.353 131.588 250.353 151.604C250.353 168.023 250.353 184.442 250.353 200.861L251.526 198.125L251.37 198.281L254.106 197.108C222.128 197.108 190.15 197.108 158.25 197.108C153.793 197.108 149.258 197.108 144.802 197.108L147.538 198.281L147.304 198.046L148.476 200.783V145.974C148.476 119.313 148.476 92.7292 148.476 66.0677C148.476 59.1872 148.555 52.3068 148.711 45.4264C148.789 40.4225 140.97 40.4225 140.892 45.4264C140.11 82.7214 140.658 120.094 140.658 157.468V187.569C140.658 191.87 140.189 196.483 140.658 200.783C141.361 206.881 150.978 205.005 155.2 205.005C165.834 205.005 176.467 205.005 187.1 205.005C208.367 205.005 229.556 205.005 250.822 205.005C252.464 205.005 254.654 205.318 256.139 204.458C259.11 202.816 258.25 197.968 258.25 195.153V160.83C258.25 144.801 258.25 128.695 258.25 112.667C258.25 102.659 258.25 92.651 258.25 82.6432C258.25 80.2976 258.25 77.952 258.25 75.6064C258.25 73.2608 258.407 71.6971 256.921 69.8988C256.139 68.8824 254.966 68.0223 254.106 67.0841C246.444 59.5 238.782 51.9159 231.198 44.2536C229.556 42.6117 227.992 41.6735 225.568 41.5953C222.519 41.5171 219.47 41.5953 216.42 41.5953C194.294 41.5953 172.089 41.5953 149.962 41.5953H144.88C139.563 41.4389 139.563 49.2576 144.567 49.2576Z" fill="#1D1D1B"/>
</g>
<defs>
<clipPath id="clip0_93_2579">
<rect width="285" height="338" fill="white"/>
</clipPath>
</defs>
</svg>
