<svg width="51" height="51" viewBox="0 0 51 51" fill="none" xmlns="http://www.w3.org/2000/svg">
<g clip-path="url(#clip0_93_211)">
<path d="M30.0273 25.2041C30.0273 27.8685 27.8675 30.0283 25.2031 30.0283C22.5387 30.0283 20.3789 27.8685 20.3789 25.2041C20.3789 22.5397 22.5387 20.3799 25.2031 20.3799C27.8675 20.3799 30.0273 22.5397 30.0273 25.2041Z" fill="white"/>
<path d="M25.2041 0C11.2864 0 0 11.2864 0 25.2041C0 39.1218 11.2864 50.4082 25.2041 50.4082C39.1218 50.4082 50.4082 39.1218 50.4082 25.2041C50.4082 11.2864 39.1218 0 25.2041 0ZM39.5894 31.1709C39.5194 32.7115 39.2745 33.7634 38.9168 34.6841C38.1649 36.6281 36.6281 38.1649 34.6841 38.9168C33.7638 39.2745 32.7115 39.5191 31.1713 39.5894C29.6279 39.6598 29.1349 39.6767 25.2045 39.6767C21.2736 39.6767 20.781 39.6598 19.2373 39.5894C17.697 39.5191 16.6448 39.2745 15.7245 38.9168C14.7584 38.5534 13.8839 37.9838 13.1608 37.2473C12.4247 36.5247 11.8552 35.6498 11.4917 34.6841C11.1341 33.7638 10.8891 32.7115 10.8191 31.1713C10.748 29.6276 10.7314 29.1345 10.7314 25.2041C10.7314 21.2736 10.748 20.7806 10.8187 19.2373C10.8887 17.6966 11.1333 16.6448 11.491 15.7241C11.8544 14.7584 12.4244 13.8835 13.1608 13.1608C13.8835 12.4244 14.7584 11.8548 15.7241 11.4914C16.6448 11.1337 17.6966 10.8891 19.2373 10.8187C20.7806 10.7483 21.2736 10.7314 25.2041 10.7314C29.1345 10.7314 29.6276 10.7483 31.1709 10.8191C32.7115 10.8891 33.7634 11.1337 34.6841 11.491C35.6498 11.8544 36.5247 12.4244 37.2477 13.1608C37.9838 13.8839 38.5538 14.7584 38.9168 15.7241C39.2748 16.6448 39.5194 17.6966 39.5898 19.2373C39.6602 20.7806 39.6767 21.2736 39.6767 25.2041C39.6767 29.1345 39.6602 29.6276 39.5894 31.1709Z" fill="white"/>
<path d="M28.956 15.8972H31.8363V10.8352C30.4418 10.6845 29.0405 10.6101 27.6384 10.6124C23.4711 10.6124 20.6215 13.2548 20.6215 18.094V22.2646H15.918V27.9315H20.6215V42.449H26.2595V27.9315H30.9477L31.6525 22.2646H26.2595V18.6511C26.2595 16.9797 26.6885 15.8972 28.956 15.8972Z" fill="black"/>
</g>
<defs>
<clipPath id="clip0_93_211">
<rect width="50.4082" height="50.4082" fill="white"/>
</clipPath>
</defs>
</svg>
