<svg width="52" height="51" viewBox="0 0 52 51" fill="none" xmlns="http://www.w3.org/2000/svg">
<g clip-path="url(#clip0_93_217)">
<circle cx="26.103" cy="25.2036" r="19.898" fill="black"/>
<path d="M30.9258 25.2041C30.9258 27.8685 28.766 30.0283 26.1016 30.0283C23.4372 30.0283 21.2773 27.8685 21.2773 25.2041C21.2773 22.5397 23.4372 20.3799 26.1016 20.3799C28.766 20.3799 30.9258 22.5397 30.9258 25.2041Z" fill="white"/>
<path d="M37.3837 16.6702C37.1518 16.0418 36.7818 15.473 36.3011 15.0061C35.8342 14.5253 35.2658 14.1554 34.637 13.9235C34.127 13.7254 33.3609 13.4897 31.9499 13.4254C30.4235 13.3558 29.9658 13.3408 26.1015 13.3408C22.2368 13.3408 21.7792 13.3554 20.2531 13.425C18.8421 13.4897 18.0756 13.7254 17.5661 13.9235C16.9373 14.1554 16.3685 14.5253 15.902 15.0061C15.4212 15.473 15.0513 16.0414 14.819 16.6702C14.6209 17.1801 14.3852 17.9466 14.3209 19.3576C14.2513 20.8837 14.2363 21.3413 14.2363 25.206C14.2363 29.0703 14.2513 29.528 14.3209 31.0544C14.3852 32.4654 14.6209 33.2315 14.819 33.7415C15.0513 34.3702 15.4208 34.9387 15.9016 35.4055C16.3685 35.8863 16.9369 36.2562 17.5657 36.4881C18.0756 36.6866 18.8421 36.9223 20.2531 36.9866C21.7792 37.0562 22.2364 37.0708 26.1011 37.0708C29.9662 37.0708 30.4238 37.0562 31.9495 36.9866C33.3605 36.9223 34.127 36.6866 34.637 36.4881C35.8992 36.0013 36.8968 35.0037 37.3837 33.7415C37.5817 33.2315 37.8175 32.4654 37.8821 31.0544C37.9517 29.528 37.9663 29.0703 37.9663 25.206C37.9663 21.3413 37.9517 20.8837 37.8821 19.3576C37.8179 17.9466 37.5821 17.1801 37.3837 16.6702ZM26.1015 32.6373C21.9968 32.6373 18.6694 29.3103 18.6694 25.2056C18.6694 21.101 21.9968 17.7739 26.1015 17.7739C30.2058 17.7739 33.5332 21.101 33.5332 25.2056C33.5332 29.3103 30.2058 32.6373 26.1015 32.6373ZM33.827 19.2169C32.8679 19.2169 32.0902 18.4392 32.0902 17.4801C32.0902 16.5209 32.8679 15.7433 33.827 15.7433C34.7862 15.7433 35.5638 16.5209 35.5638 17.4801C35.5634 18.4392 34.7862 19.2169 33.827 19.2169Z" fill="white"/>
<path d="M26.1025 0C12.1848 0 0.898438 11.2864 0.898438 25.2041C0.898438 39.1218 12.1848 50.4082 26.1025 50.4082C40.0202 50.4082 51.3066 39.1218 51.3066 25.2041C51.3066 11.2864 40.0202 0 26.1025 0ZM40.4879 31.1709C40.4179 32.7115 40.1729 33.7634 39.8152 34.6841C39.0634 36.6281 37.5266 38.1649 35.5825 38.9168C34.6622 39.2745 33.61 39.5191 32.0697 39.5894C30.5264 39.6598 30.0333 39.6767 26.1029 39.6767C22.1721 39.6767 21.6794 39.6598 20.1357 39.5894C18.5954 39.5191 17.5432 39.2745 16.6229 38.9168C15.6568 38.5534 14.7823 37.9838 14.0593 37.2473C13.3232 36.5247 12.7536 35.6498 12.3902 34.6841C12.0325 33.7638 11.7875 32.7115 11.7175 31.1713C11.6464 29.6276 11.6299 29.1345 11.6299 25.2041C11.6299 21.2736 11.6464 20.7806 11.7172 19.2373C11.7872 17.6966 12.0318 16.6448 12.3894 15.7241C12.7528 14.7584 13.3228 13.8835 14.0593 13.1608C14.7819 12.4244 15.6568 11.8548 16.6225 11.4914C17.5432 11.1337 18.5951 10.8891 20.1357 10.8187C21.679 10.7483 22.1721 10.7314 26.1025 10.7314C30.033 10.7314 30.526 10.7483 32.0693 10.8191C33.61 10.8891 34.6618 11.1337 35.5825 11.491C36.5482 11.8544 37.4231 12.4244 38.1461 13.1608C38.8822 13.8839 39.4522 14.7584 39.8152 15.7241C40.1733 16.6448 40.4179 17.6966 40.4883 19.2373C40.5586 20.7806 40.5752 21.2736 40.5752 25.2041C40.5752 29.1345 40.5586 29.6276 40.4879 31.1709Z" fill="white"/>
</g>
<defs>
<clipPath id="clip0_93_217">
<rect width="50.4082" height="50.4082" fill="white" transform="translate(0.898438)"/>
</clipPath>
</defs>
</svg>
