<svg width="184" height="16" viewBox="0 0 184 16" fill="none" xmlns="http://www.w3.org/2000/svg">
<path d="M0.292889 7.29289C-0.0976334 7.68342 -0.0976334 8.31658 0.292889 8.70711L6.65685 15.0711C7.04737 15.4616 7.68054 15.4616 8.07106 15.0711C8.46159 14.6805 8.46159 14.0474 8.07106 13.6569L2.41421 8L8.07106 2.34315C8.46159 1.95262 8.46159 1.31946 8.07106 0.928932C7.68054 0.538408 7.04737 0.538408 6.65685 0.928932L0.292889 7.29289ZM61 7L0.999996 7V9L61 9V7Z" fill="black"/>
<path d="M183.707 8.70711C184.098 8.31658 184.098 7.68342 183.707 7.29289L177.343 0.928932C176.953 0.538408 176.319 0.538408 175.929 0.928932C175.538 1.31946 175.538 1.95262 175.929 2.34315L181.586 8L175.929 13.6569C175.538 14.0474 175.538 14.6805 175.929 15.0711C176.319 15.4616 176.953 15.4616 177.343 15.0711L183.707 8.70711ZM123 9H183V7H123V9Z" fill="black"/>
</svg>
