<svg width="51" height="51" viewBox="0 0 51 51" fill="none" xmlns="http://www.w3.org/2000/svg">
<g clip-path="url(#clip0_93_1623)">
<path d="M30.0273 25.204C30.0273 27.8684 27.8675 30.0282 25.2031 30.0282C22.5387 30.0282 20.3789 27.8684 20.3789 25.204C20.3789 22.5396 22.5387 20.3798 25.2031 20.3798C27.8675 20.3798 30.0273 22.5396 30.0273 25.204Z" fill="white"/>
<path d="M25.2041 -0.000244141C11.2864 -0.000244141 0 11.2861 0 25.2038C0 39.1215 11.2864 50.4079 25.2041 50.4079C39.1218 50.4079 50.4082 39.1215 50.4082 25.2038C50.4082 11.2861 39.1218 -0.000244141 25.2041 -0.000244141ZM39.5894 31.1707C39.5194 32.7113 39.2745 33.7631 38.9168 34.6838C38.1649 36.6279 36.6281 38.1647 34.6841 38.9166C33.7638 39.2742 32.7115 39.5188 31.1713 39.5892C29.6279 39.6596 29.1349 39.6765 25.2045 39.6765C21.2736 39.6765 20.781 39.6596 19.2373 39.5892C17.697 39.5188 16.6448 39.2742 15.7245 38.9166C14.7584 38.5531 13.8839 37.9836 13.1608 37.2471C12.4247 36.5244 11.8552 35.6495 11.4917 34.6838C11.1341 33.7635 10.8891 32.7113 10.8191 31.171C10.748 29.6273 10.7314 29.1343 10.7314 25.2038C10.7314 21.2734 10.748 20.7804 10.8187 19.237C10.8887 17.6964 11.1333 16.6445 11.491 15.7238C11.8544 14.7582 12.4244 13.8832 13.1608 13.1606C13.8835 12.4241 14.7584 11.8546 15.7241 11.4911C16.6448 11.1335 17.6966 10.8889 19.2373 10.8185C20.7806 10.7481 21.2736 10.7312 25.2041 10.7312C29.1345 10.7312 29.6276 10.7481 31.1709 10.8189C32.7115 10.8889 33.7634 11.1335 34.6841 11.4907C35.6498 11.8542 36.5247 12.4241 37.2477 13.1606C37.9838 13.8836 38.5538 14.7582 38.9168 15.7238C39.2748 16.6445 39.5194 17.6964 39.5898 19.237C39.6602 20.7804 39.6767 21.2734 39.6767 25.2038C39.6767 29.1343 39.6602 29.6273 39.5894 31.1707Z" fill="white"/>
<path d="M28.956 15.8971H31.8363V10.8351C30.4418 10.6844 29.0405 10.61 27.6384 10.6122C23.4711 10.6122 20.6215 13.2547 20.6215 18.0939V22.2645H15.918V27.9314H20.6215V42.4489H26.2595V27.9314H30.9477L31.6525 22.2645H26.2595V18.651C26.2595 16.9796 26.6885 15.8971 28.956 15.8971Z" fill="black"/>
</g>
<defs>
<clipPath id="clip0_93_1623">
<rect width="50.4082" height="50.4082" fill="white"/>
</clipPath>
</defs>
</svg>
