<svg width="54" height="54" viewBox="0 0 54 54" fill="none" xmlns="http://www.w3.org/2000/svg">
<g clip-path="url(#clip0_93_1924)">
<path d="M31.6445 26.5613C31.6445 29.3691 29.3684 31.6453 26.5605 31.6453C23.7527 31.6453 21.4766 29.3691 21.4766 26.5613C21.4766 23.7534 23.7527 21.4773 26.5605 21.4773C29.3684 21.4773 31.6445 23.7534 31.6445 26.5613Z" fill="white"/>
<path d="M26.5612 0C11.8941 0 0 11.8941 0 26.5612C0 41.2283 11.8941 53.1224 26.5612 53.1224C41.2283 53.1224 53.1224 41.2283 53.1224 26.5612C53.1224 11.8941 41.2283 0 26.5612 0ZM41.7212 32.8493C41.6474 34.4729 41.3892 35.5814 41.0123 36.5517C40.22 38.6004 38.6004 40.22 36.5517 41.0123C35.5818 41.3892 34.4729 41.647 32.8497 41.7212C31.2233 41.7953 30.7037 41.8132 26.5616 41.8132C22.4191 41.8132 21.9 41.7953 20.2731 41.7212C18.6499 41.647 17.541 41.3892 16.5712 41.0123C15.5531 40.6293 14.6315 40.0291 13.8695 39.2529C13.0938 38.4914 12.4935 37.5694 12.1105 36.5517C11.7336 35.5818 11.4754 34.4729 11.4017 32.8497C11.3267 31.2229 11.3093 30.7033 11.3093 26.5612C11.3093 22.4191 11.3267 21.8996 11.4013 20.2731C11.475 18.6495 11.7328 17.541 12.1097 16.5708C12.4927 15.5531 13.0934 14.631 13.8695 13.8695C14.631 13.0934 15.5531 12.4931 16.5708 12.1101C17.541 11.7332 18.6495 11.4754 20.2731 11.4013C21.8996 11.3271 22.4191 11.3093 26.5612 11.3093C30.7033 11.3093 31.2229 11.3271 32.8493 11.4017C34.4729 11.4754 35.5814 11.7332 36.5517 12.1097C37.5694 12.4927 38.4914 13.0934 39.2534 13.8695C40.0291 14.6315 40.6297 15.5531 41.0123 16.5708C41.3896 17.541 41.6474 18.6495 41.7216 20.2731C41.7957 21.8996 41.8132 22.4191 41.8132 26.5612C41.8132 30.7033 41.7957 31.2229 41.7212 32.8493Z" fill="white"/>
<path d="M30.5155 16.7531H33.5509V11.4185C32.0812 11.2597 30.6045 11.1813 29.1269 11.1836C24.7353 11.1836 21.7322 13.9684 21.7322 19.0681V23.4633H16.7754V29.4354H21.7322V44.7346H27.6738V29.4354H32.6144L33.3571 23.4633H27.6738V19.6553C27.6738 17.8938 28.1259 16.7531 30.5155 16.7531Z" fill="black"/>
</g>
<defs>
<clipPath id="clip0_93_1924">
<rect width="53.1224" height="53.1224" fill="white"/>
</clipPath>
</defs>
</svg>
