<svg width="70" height="70" viewBox="0 0 70 70" fill="none" xmlns="http://www.w3.org/2000/svg">
<g clip-path="url(#clip0_93_1149)">
<path d="M41.5072 34.84C41.5072 38.5231 38.5216 41.5086 34.8385 41.5086C31.1555 41.5086 28.1699 38.5231 28.1699 34.84C28.1699 31.157 31.1555 28.1714 34.8385 28.1714C38.5216 28.1714 41.5072 31.157 41.5072 34.84Z" fill="white"/>
<path d="M34.8401 0C15.6014 0 0 15.6014 0 34.8401C0 54.0789 15.6014 69.6803 34.8401 69.6803C54.0789 69.6803 69.6803 54.0789 69.6803 34.8401C69.6803 15.6014 54.0789 0 34.8401 0ZM54.7253 43.0882C54.6286 45.2179 54.2899 46.6718 53.7955 47.9445C52.7562 50.6319 50.6319 52.7562 47.9445 53.7955C46.6724 54.2899 45.2179 54.6281 43.0887 54.7253C40.9554 54.8226 40.2738 54.846 34.8407 54.846C29.407 54.846 28.726 54.8226 26.5921 54.7253C24.463 54.6281 23.0084 54.2899 21.7363 53.7955C20.4009 53.2932 19.192 52.5058 18.1925 51.4878C17.175 50.4889 16.3877 49.2794 15.8853 47.9445C15.3909 46.6724 15.0522 45.2179 14.9555 43.0887C14.8571 40.9548 14.8343 40.2733 14.8343 34.8401C14.8343 29.407 14.8571 28.7255 14.955 26.5921C15.0517 24.4624 15.3898 23.0084 15.8842 21.7358C16.3866 20.4009 17.1745 19.1914 18.1925 18.1925C19.1914 17.1745 20.4009 16.3871 21.7358 15.8848C23.0084 15.3904 24.4624 15.0522 26.5921 14.955C28.7255 14.8577 29.407 14.8343 34.8401 14.8343C40.2733 14.8343 40.9548 14.8577 43.0882 14.9555C45.2179 15.0522 46.6718 15.3904 47.9445 15.8842C49.2794 16.3866 50.4889 17.1745 51.4883 18.1925C52.5058 19.192 53.2937 20.4009 53.7955 21.7358C54.2905 23.0084 54.6286 24.4624 54.7259 26.5921C54.8232 28.7255 54.846 29.407 54.846 34.8401C54.846 40.2733 54.8232 40.9548 54.7253 43.0882Z" fill="white"/>
<path d="M40.0267 21.9749H44.0082V14.9776C42.0805 14.7693 40.1435 14.6665 38.2053 14.6695C32.4448 14.6695 28.5057 18.3222 28.5057 25.0115V30.7766H22.0039V38.6101H28.5057V58.678H36.2993V38.6101H42.7799L43.7541 30.7766H36.2993V25.7817C36.2993 23.4712 36.8923 21.9749 40.0267 21.9749Z" fill="#272761"/>
</g>
<defs>
<clipPath id="clip0_93_1149">
<rect width="69.6803" height="69.6803" fill="white"/>
</clipPath>
</defs>
</svg>
