<svg width="41" height="41" viewBox="0 0 41 41" fill="none" xmlns="http://www.w3.org/2000/svg">
<g clip-path="url(#clip0_93_1963)">
<path d="M24.4238 20.5C24.4238 22.6671 22.6671 24.4238 20.5 24.4238C18.3329 24.4238 16.5762 22.6671 16.5762 20.5C16.5762 18.3329 18.3329 16.5762 20.5 16.5762C22.6671 16.5762 24.4238 18.3329 24.4238 20.5Z" fill="white"/>
<path d="M20.5 0C9.17989 0 0 9.17989 0 20.5C0 31.8201 9.17989 41 20.5 41C31.8201 41 41 31.8201 41 20.5C41 9.17989 31.8201 0 20.5 0ZM32.2005 25.3532C32.1435 26.6063 31.9443 27.4618 31.6534 28.2106C31.0418 29.7919 29.7919 31.0418 28.2106 31.6534C27.4621 31.9443 26.6063 32.1432 25.3535 32.2005C24.0982 32.2577 23.6972 32.2715 20.5003 32.2715C17.3031 32.2715 16.9024 32.2577 15.6468 32.2005C14.394 32.1432 13.5382 31.9443 12.7897 31.6534C12.0039 31.3578 11.2926 30.8945 10.7045 30.2955C10.1058 29.7077 9.64253 28.9961 9.34693 28.2106C9.05602 27.4621 8.85677 26.6063 8.79984 25.3535C8.74197 24.0979 8.72852 23.6969 8.72852 20.5C8.72852 17.3031 8.74197 16.9021 8.79952 15.6468C8.85645 14.3937 9.0554 13.5382 9.34631 12.7894C9.64191 12.0039 10.1055 11.2923 10.7045 10.7045C11.2923 10.1055 12.0039 9.64222 12.7894 9.34662C13.5382 9.05571 14.3937 8.85677 15.6468 8.79952C16.9021 8.74228 17.3031 8.72852 20.5 8.72852C23.6969 8.72852 24.0979 8.74228 25.3532 8.79984C26.6063 8.85677 27.4618 9.05571 28.2106 9.34631C28.9961 9.64191 29.7077 10.1055 30.2958 10.7045C30.8945 11.2926 31.3581 12.0039 31.6534 12.7894C31.9446 13.5382 32.1435 14.3937 32.2008 15.6468C32.258 16.9021 32.2715 17.3031 32.2715 20.5C32.2715 23.6969 32.258 24.0979 32.2005 25.3532Z" fill="white"/>
<path d="M23.5519 12.9302H25.8946V8.81289C24.7603 8.69034 23.6206 8.62984 22.4802 8.63163C19.0907 8.63163 16.7729 10.7809 16.7729 14.7169V18.1091H12.9473V22.7183H16.7729V34.5263H21.3587V22.7183H25.1719L25.7451 18.1091H21.3587V15.17C21.3587 13.8106 21.7076 12.9302 23.5519 12.9302Z" fill="black"/>
</g>
<defs>
<clipPath id="clip0_93_1963">
<rect width="41" height="41" fill="white"/>
</clipPath>
</defs>
</svg>
