<svg width="71" height="70" viewBox="0 0 71 70" fill="none" xmlns="http://www.w3.org/2000/svg">
<g clip-path="url(#clip0_93_1155)">
<circle cx="35.1948" cy="34.8403" r="27.5054" fill="#272761"/>
<path d="M41.8646 34.84C41.8646 38.5231 38.879 41.5086 35.196 41.5086C31.5129 41.5086 28.5273 38.5231 28.5273 34.84C28.5273 31.157 31.5129 28.1714 35.196 28.1714C38.879 28.1714 41.8646 31.157 41.8646 34.84Z" fill="white"/>
<path d="M50.7881 23.0417C50.4675 22.173 49.9561 21.3867 49.2916 20.7414C48.6462 20.0768 47.8604 19.5654 46.9912 19.2449C46.2863 18.9711 45.2273 18.6452 43.2768 18.5564C41.1668 18.4602 40.5342 18.4395 35.1925 18.4395C29.8503 18.4395 29.2176 18.4597 27.1082 18.5559C25.1577 18.6452 24.0982 18.9711 23.3938 19.2449C22.5246 19.5654 21.7383 20.0768 21.0935 20.7414C20.4289 21.3867 19.9175 22.1725 19.5964 23.0417C19.3226 23.7466 18.9968 24.8061 18.908 26.7566C18.8117 28.8661 18.791 29.4987 18.791 34.8409C18.791 40.1826 18.8117 40.8153 18.908 42.9253C18.9968 44.8758 19.3226 45.9348 19.5964 46.6397C19.9175 47.5089 20.4284 48.2946 21.0929 48.94C21.7383 49.6045 22.524 50.1159 23.3932 50.4365C24.0982 50.7108 25.1577 51.0367 27.1082 51.1255C29.2176 51.2217 29.8497 51.2419 35.192 51.2419C40.5347 51.2419 41.1674 51.2217 43.2763 51.1255C45.2268 51.0367 46.2863 50.7108 46.9912 50.4365C48.736 49.7635 50.115 48.3845 50.7881 46.6397C51.0619 45.9348 51.3877 44.8758 51.477 42.9253C51.5733 40.8153 51.5935 40.1826 51.5935 34.8409C51.5935 29.4987 51.5733 28.8661 51.477 26.7566C51.3883 24.8061 51.0624 23.7466 50.7881 23.0417ZM35.1925 45.1134C29.5185 45.1134 24.919 40.5144 24.919 34.8404C24.919 29.1665 29.5185 24.5674 35.1925 24.5674C40.8659 24.5674 45.4655 29.1665 45.4655 34.8404C45.4655 40.5144 40.8659 45.1134 35.1925 45.1134ZM45.8717 26.5621C44.5458 26.5621 43.4709 25.4871 43.4709 24.1613C43.4709 22.8354 44.5458 21.7605 45.8717 21.7605C47.1975 21.7605 48.2724 22.8354 48.2724 24.1613C48.2719 25.4871 47.1975 26.5621 45.8717 26.5621Z" fill="white"/>
<path d="M35.1956 0C15.9569 0 0.355469 15.6014 0.355469 34.8401C0.355469 54.0789 15.9569 69.6803 35.1956 69.6803C54.4344 69.6803 70.0358 54.0789 70.0358 34.8401C70.0358 15.6014 54.4344 0 35.1956 0ZM55.0808 43.0882C54.9841 45.2179 54.6454 46.6718 54.151 47.9445C53.1117 50.6319 50.9873 52.7562 48.3 53.7955C47.0279 54.2899 45.5733 54.6281 43.4442 54.7253C41.3108 54.8226 40.6293 54.846 35.1961 54.846C29.7625 54.846 29.0815 54.8226 26.9476 54.7253C24.8184 54.6281 23.3639 54.2899 22.0918 53.7955C20.7563 53.2932 19.5474 52.5058 18.548 51.4878C17.5305 50.4889 16.7431 49.2794 16.2408 47.9445C15.7464 46.6724 15.4077 45.2179 15.311 43.0887C15.2126 40.9548 15.1898 40.2733 15.1898 34.8401C15.1898 29.407 15.2126 28.7255 15.3104 26.5921C15.4072 24.4624 15.7453 23.0084 16.2397 21.7358C16.7421 20.4009 17.5299 19.1914 18.548 18.1925C19.5469 17.1745 20.7563 16.3871 22.0912 15.8848C23.3639 15.3904 24.8179 15.0522 26.9476 14.955C29.0809 14.8577 29.7625 14.8343 35.1956 14.8343C40.6288 14.8343 41.3103 14.8577 43.4437 14.9555C45.5733 15.0522 47.0273 15.3904 48.3 15.8842C49.6349 16.3866 50.8443 17.1745 51.8438 18.1925C52.8613 19.192 53.6492 20.4009 54.151 21.7358C54.6459 23.0084 54.9841 24.4624 55.0813 26.5921C55.1786 28.7255 55.2015 29.407 55.2015 34.8401C55.2015 40.2733 55.1786 40.9548 55.0808 43.0882Z" fill="white"/>
</g>
<defs>
<clipPath id="clip0_93_1155">
<rect width="69.6803" height="69.6803" fill="white" transform="translate(0.355469)"/>
</clipPath>
</defs>
</svg>
