<svg width="52" height="51" viewBox="0 0 52 51" fill="none" xmlns="http://www.w3.org/2000/svg">
<g clip-path="url(#clip0_93_1109)">
<circle cx="26.103" cy="25.2036" r="19.898" fill="black"/>
<path d="M30.9258 25.204C30.9258 27.8684 28.766 30.0283 26.1016 30.0283C23.4372 30.0283 21.2773 27.8684 21.2773 25.204C21.2773 22.5396 23.4372 20.3798 26.1016 20.3798C28.766 20.3798 30.9258 22.5396 30.9258 25.204Z" fill="white"/>
<path d="M37.3837 16.6701C37.1518 16.0417 36.7818 15.4729 36.3011 15.006C35.8342 14.5253 35.2658 14.1553 34.637 13.9234C34.127 13.7253 33.3609 13.4896 31.9499 13.4254C30.4235 13.3558 29.9658 13.3408 26.1015 13.3408C22.2368 13.3408 21.7792 13.3554 20.2531 13.425C18.8421 13.4896 18.0756 13.7253 17.5661 13.9234C16.9373 14.1553 16.3685 14.5253 15.902 15.006C15.4212 15.4729 15.0513 16.0413 14.819 16.6701C14.6209 17.1801 14.3852 17.9465 14.3209 19.3576C14.2513 20.8836 14.2363 21.3413 14.2363 25.2059C14.2363 29.0702 14.2513 29.5279 14.3209 31.0543C14.3852 32.4653 14.6209 33.2314 14.819 33.7414C15.0513 34.3702 15.4208 34.9386 15.9016 35.4055C16.3685 35.8862 16.9369 36.2562 17.5657 36.4881C18.0756 36.6865 18.8421 36.9223 20.2531 36.9865C21.7792 37.0561 22.2364 37.0707 26.1011 37.0707C29.9662 37.0707 30.4238 37.0561 31.9495 36.9865C33.3605 36.9223 34.127 36.6865 34.637 36.4881C35.8992 36.0012 36.8968 35.0036 37.3837 33.7414C37.5817 33.2314 37.8175 32.4653 37.8821 31.0543C37.9517 29.5279 37.9663 29.0702 37.9663 25.2059C37.9663 21.3413 37.9517 20.8836 37.8821 19.3576C37.8179 17.9465 37.5821 17.1801 37.3837 16.6701ZM26.1015 32.6373C21.9968 32.6373 18.6694 29.3102 18.6694 25.2056C18.6694 21.1009 21.9968 17.7739 26.1015 17.7739C30.2058 17.7739 33.5332 21.1009 33.5332 25.2056C33.5332 29.3102 30.2058 32.6373 26.1015 32.6373ZM33.827 19.2168C32.8679 19.2168 32.0902 18.4392 32.0902 17.48C32.0902 16.5209 32.8679 15.7433 33.827 15.7433C34.7862 15.7433 35.5638 16.5209 35.5638 17.48C35.5634 18.4392 34.7862 19.2168 33.827 19.2168Z" fill="white"/>
<path d="M26.1025 -0.000152588C12.1848 -0.000152588 0.898438 11.2862 0.898438 25.2039C0.898438 39.1216 12.1848 50.408 26.1025 50.408C40.0202 50.408 51.3066 39.1216 51.3066 25.2039C51.3066 11.2862 40.0202 -0.000152588 26.1025 -0.000152588ZM40.4879 31.1707C40.4179 32.7114 40.1729 33.7632 39.8152 34.6839C39.0634 36.628 37.5266 38.1648 35.5825 38.9166C34.6622 39.2743 33.61 39.5189 32.0697 39.5893C30.5264 39.6597 30.0333 39.6766 26.1029 39.6766C22.1721 39.6766 21.6794 39.6597 20.1357 39.5893C18.5954 39.5189 17.5432 39.2743 16.6229 38.9166C15.6568 38.5532 14.7823 37.9836 14.0593 37.2472C13.3232 36.5245 12.7536 35.6496 12.3902 34.6839C12.0325 33.7636 11.7875 32.7114 11.7175 31.1711C11.6464 29.6274 11.6299 29.1344 11.6299 25.2039C11.6299 21.2735 11.6464 20.7804 11.7172 19.2371C11.7872 17.6965 12.0318 16.6446 12.3894 15.7239C12.7528 14.7582 13.3228 13.8833 14.0593 13.1607C14.7819 12.4242 15.6568 11.8546 16.6225 11.4912C17.5432 11.1335 18.5951 10.889 20.1357 10.8186C21.679 10.7482 22.1721 10.7313 26.1025 10.7313C30.033 10.7313 30.526 10.7482 32.0693 10.819C33.61 10.889 34.6618 11.1335 35.5825 11.4908C36.5482 11.8543 37.4231 12.4242 38.1461 13.1607C38.8822 13.8837 39.4522 14.7582 39.8152 15.7239C40.1733 16.6446 40.4179 17.6965 40.4883 19.2371C40.5586 20.7804 40.5752 21.2735 40.5752 25.2039C40.5752 29.1344 40.5586 29.6274 40.4879 31.1707Z" fill="white"/>
</g>
<defs>
<clipPath id="clip0_93_1109">
<rect width="50.4082" height="50.4082" fill="white" transform="translate(0.898438 -6.10352e-05)"/>
</clipPath>
</defs>
</svg>
