<svg width="52" height="51" viewBox="0 0 52 51" fill="none" xmlns="http://www.w3.org/2000/svg">
<g clip-path="url(#clip0_39_91)">
<circle cx="26.1006" cy="25.2036" r="19.898" fill="black"/>
<path d="M30.9253 25.204C30.9253 27.8684 28.7655 30.0283 26.1011 30.0283C23.4367 30.0283 21.2769 27.8684 21.2769 25.204C21.2769 22.5396 23.4367 20.3798 26.1011 20.3798C28.7655 20.3798 30.9253 22.5396 30.9253 25.204Z" fill="white"/>
<path d="M37.3812 16.6701C37.1493 16.0417 36.7793 15.4729 36.2986 15.006C35.8317 14.5253 35.2633 14.1553 34.6345 13.9234C34.1246 13.7253 33.3585 13.4896 31.9474 13.4254C30.421 13.3558 29.9634 13.3408 26.0991 13.3408C22.2344 13.3408 21.7767 13.3554 20.2507 13.425C18.8397 13.4896 18.0732 13.7253 17.5636 13.9234C16.9348 14.1553 16.366 14.5253 15.8995 15.006C15.4188 15.4729 15.0488 16.0413 14.8165 16.6701C14.6185 17.1801 14.3827 17.9465 14.3185 19.3576C14.2489 20.8836 14.2339 21.3413 14.2339 25.2059C14.2339 29.0702 14.2489 29.5279 14.3185 31.0543C14.3827 32.4653 14.6185 33.2314 14.8165 33.7414C15.0488 34.3702 15.4184 34.9386 15.8991 35.4055C16.366 35.8862 16.9344 36.2562 17.5632 36.4881C18.0732 36.6865 18.8397 36.9223 20.2507 36.9865C21.7767 37.0561 22.234 37.0707 26.0987 37.0707C29.9637 37.0707 30.4214 37.0561 31.947 36.9865C33.3581 36.9223 34.1246 36.6865 34.6345 36.4881C35.8967 36.0012 36.8943 35.0036 37.3812 33.7414C37.5793 33.2314 37.815 32.4653 37.8796 31.0543C37.9492 29.5279 37.9639 29.0702 37.9639 25.2059C37.9639 21.3413 37.9492 20.8836 37.8796 19.3576C37.8154 17.9465 37.5797 17.1801 37.3812 16.6701ZM26.0991 32.6373C21.9944 32.6373 18.667 29.3102 18.667 25.2056C18.667 21.1009 21.9944 17.7739 26.0991 17.7739C30.2033 17.7739 33.5308 21.1009 33.5308 25.2056C33.5308 29.3102 30.2033 32.6373 26.0991 32.6373ZM33.8246 19.2168C32.8654 19.2168 32.0878 18.4392 32.0878 17.48C32.0878 16.5209 32.8654 15.7433 33.8246 15.7433C34.7837 15.7433 35.5614 16.5209 35.5614 17.48C35.561 18.4392 34.7837 19.2168 33.8246 19.2168Z" fill="white"/>
<path d="M26.102 -0.000152588C12.1843 -0.000152588 0.897949 11.2862 0.897949 25.2039C0.897949 39.1216 12.1843 50.408 26.102 50.408C40.0197 50.408 51.3061 39.1216 51.3061 25.2039C51.3061 11.2862 40.0197 -0.000152588 26.102 -0.000152588ZM40.4874 31.1707C40.4174 32.7114 40.1724 33.7632 39.8147 34.6839C39.0629 36.628 37.5261 38.1648 35.582 38.9166C34.6617 39.2743 33.6095 39.5189 32.0692 39.5893C30.5259 39.6597 30.0329 39.6766 26.1024 39.6766C22.1716 39.6766 21.6789 39.6597 20.1352 39.5893C18.595 39.5189 17.5427 39.2743 16.6224 38.9166C15.6564 38.5532 14.7818 37.9836 14.0588 37.2472C13.3227 36.5245 12.7531 35.6496 12.3897 34.6839C12.032 33.7636 11.7871 32.7114 11.7171 31.1711C11.6459 29.6274 11.6294 29.1344 11.6294 25.2039C11.6294 21.2735 11.6459 20.7804 11.7167 19.2371C11.7867 17.6965 12.0313 16.6446 12.3889 15.7239C12.7524 14.7582 13.3223 13.8833 14.0588 13.1607C14.7814 12.4242 15.6564 11.8546 16.622 11.4912C17.5427 11.1335 18.5946 10.889 20.1352 10.8186C21.6785 10.7482 22.1716 10.7313 26.102 10.7313C30.0325 10.7313 30.5255 10.7482 32.0688 10.819C33.6095 10.889 34.6613 11.1335 35.582 11.4908C36.5477 11.8543 37.4226 12.4242 38.1457 13.1607C38.8817 13.8837 39.4517 14.7582 39.8147 15.7239C40.1728 16.6446 40.4174 17.6965 40.4878 19.2371C40.5581 20.7804 40.5747 21.2735 40.5747 25.2039C40.5747 29.1344 40.5581 29.6274 40.4874 31.1707Z" fill="white"/>
</g>
<defs>
<clipPath id="clip0_39_91">
<rect width="50.4082" height="50.4082" fill="white" transform="translate(0.897949 -6.10352e-05)"/>
</clipPath>
</defs>
</svg>
