<svg width="157" height="23" viewBox="0 0 157 23" fill="none" xmlns="http://www.w3.org/2000/svg">
<path d="M23.3671 8.58171L14.8765 8.02413L11.6789 0L8.48129 8.02413L0 8.58171L6.50509 14.099L4.37047 22.4684L11.6789 17.8539L18.9874 22.4684L16.8527 14.099L23.3671 8.58171Z" fill="#F7A600"/>
<path d="M56.621 8.58159L48.1304 8.02401L44.9328 -0.00012207L41.7352 8.02401L33.2539 8.58159L39.759 14.0989L37.6244 22.4682L44.9328 17.8538L52.2413 22.4682L50.1066 14.0989L56.621 8.58159Z" fill="#F7A600"/>
<path d="M89.8729 8.58159L81.3823 8.02401L78.1847 -0.00012207L74.9872 8.02401L66.5059 8.58159L73.0109 14.0989L70.8763 22.4682L78.1847 17.8538L85.4932 22.4682L83.3586 14.0989L89.8729 8.58159Z" fill="#F7A600"/>
<path d="M123.127 8.58159L114.636 8.02401L111.439 -0.00012207L108.241 8.02401L99.7598 8.58159L106.265 14.0989L104.13 22.4682L111.439 17.8538L118.747 22.4682L116.613 14.0989L123.127 8.58159Z" fill="#F7A600"/>
<path d="M156.379 8.58159L147.888 8.02401L144.691 -0.00012207L141.493 8.02401L133.012 8.58159L139.517 14.0989L137.382 22.4682L144.691 17.8538L151.999 22.4682L149.864 14.0989L156.379 8.58159Z" fill="#F7A600"/>
</svg>
