<svg width="19" height="19" viewBox="0 0 19 19" fill="none" xmlns="http://www.w3.org/2000/svg">
<g clip-path="url(#clip0_39_29)">
<path d="M11.3164 9.5C11.3164 10.5043 10.5023 11.3184 9.49805 11.3184C8.49377 11.3184 7.67969 10.5043 7.67969 9.5C7.67969 8.49573 8.49377 7.68164 9.49805 7.68164C10.5023 7.68164 11.3164 8.49573 11.3164 9.5Z" fill="white"/>
<path d="M9.5 0C4.2541 0 0 4.2541 0 9.5C0 14.7459 4.2541 19 9.5 19C14.7459 19 19 14.7459 19 9.5C19 4.2541 14.7459 0 9.5 0ZM14.9222 11.749C14.8958 12.3297 14.8035 12.7262 14.6686 13.0732C14.3852 13.806 13.806 14.3852 13.0732 14.6686C12.7263 14.8035 12.3297 14.8956 11.7492 14.9222C11.1675 14.9487 10.9816 14.9551 9.50014 14.9551C8.01852 14.9551 7.83283 14.9487 7.25097 14.9222C6.67041 14.8956 6.2738 14.8035 5.92692 14.6686C5.56278 14.5317 5.23315 14.317 4.96062 14.0394C4.68317 13.767 4.46849 13.4372 4.3315 13.0732C4.19669 12.7263 4.10435 12.3297 4.07797 11.7492C4.05116 11.1673 4.04492 10.9815 4.04492 9.5C4.04492 8.01852 4.05116 7.83269 4.07783 7.25097C4.10421 6.67027 4.1964 6.2738 4.33121 5.92677C4.4682 5.56278 4.68303 5.233 4.96062 4.96062C5.233 4.68303 5.56278 4.46835 5.92677 4.33136C6.2738 4.19655 6.67027 4.10435 7.25097 4.07783C7.83269 4.0513 8.01852 4.04492 9.5 4.04492C10.9815 4.04492 11.1673 4.0513 11.749 4.07797C12.3297 4.10435 12.7262 4.19655 13.0732 4.33121C13.4372 4.4682 13.767 4.68303 14.0395 4.96062C14.317 5.23315 14.5318 5.56278 14.6686 5.92677C14.8036 6.2738 14.8958 6.67027 14.9223 7.25097C14.9488 7.83269 14.9551 8.01852 14.9551 9.5C14.9551 10.9815 14.9488 11.1673 14.9222 11.749Z" fill="white"/>
<path d="M10.9143 5.99201H12V4.08402C11.4744 4.02723 10.9462 3.99919 10.4177 4.00002C8.84697 4.00002 7.77286 4.99602 7.77286 6.82001V8.39201H6V10.528H7.77286V16H9.89798V10.528H11.6651L11.9307 8.39201H9.89798V7.03001C9.89798 6.40001 10.0597 5.99201 10.9143 5.99201Z" fill="black"/>
</g>
<defs>
<clipPath id="clip0_39_29">
<rect width="19" height="19" fill="white"/>
</clipPath>
</defs>
</svg>
