<svg width="52" height="51" viewBox="0 0 52 51" fill="none" xmlns="http://www.w3.org/2000/svg">
<g clip-path="url(#clip0_93_1629)">
<circle cx="26.103" cy="25.2035" r="19.898" fill="black"/>
<path d="M30.9258 25.204C30.9258 27.8684 28.766 30.0282 26.1016 30.0282C23.4372 30.0282 21.2773 27.8684 21.2773 25.204C21.2773 22.5396 23.4372 20.3798 26.1016 20.3798C28.766 20.3798 30.9258 22.5396 30.9258 25.204Z" fill="white"/>
<path d="M37.3837 16.67C37.1518 16.0416 36.7818 15.4728 36.3011 15.0059C35.8342 14.5252 35.2658 14.1552 34.637 13.9233C34.127 13.7253 33.3609 13.4895 31.9499 13.4253C30.4235 13.3557 29.9658 13.3407 26.1015 13.3407C22.2368 13.3407 21.7792 13.3553 20.2531 13.4249C18.8421 13.4895 18.0756 13.7253 17.5661 13.9233C16.9373 14.1552 16.3685 14.5252 15.902 15.0059C15.4212 15.4728 15.0513 16.0412 14.819 16.67C14.6209 17.18 14.3852 17.9465 14.3209 19.3575C14.2513 20.8835 14.2363 21.3412 14.2363 25.2059C14.2363 29.0702 14.2513 29.5278 14.3209 31.0542C14.3852 32.4653 14.6209 33.2314 14.819 33.7413C15.0513 34.3701 15.4208 34.9385 15.9016 35.4054C16.3685 35.8862 16.9369 36.2561 17.5657 36.488C18.0756 36.6865 18.8421 36.9222 20.2531 36.9864C21.7792 37.0561 22.2364 37.0707 26.1011 37.0707C29.9662 37.0707 30.4238 37.0561 31.9495 36.9864C33.3605 36.9222 34.127 36.6865 34.637 36.488C35.8992 36.0011 36.8968 35.0035 37.3837 33.7413C37.5817 33.2314 37.8175 32.4653 37.8821 31.0542C37.9517 29.5278 37.9663 29.0702 37.9663 25.2059C37.9663 21.3412 37.9517 20.8835 37.8821 19.3575C37.8179 17.9465 37.5821 17.18 37.3837 16.67ZM26.1015 32.6372C21.9968 32.6372 18.6694 29.3102 18.6694 25.2055C18.6694 21.1008 21.9968 17.7738 26.1015 17.7738C30.2058 17.7738 33.5332 21.1008 33.5332 25.2055C33.5332 29.3102 30.2058 32.6372 26.1015 32.6372ZM33.827 19.2168C32.8679 19.2168 32.0902 18.4391 32.0902 17.48C32.0902 16.5208 32.8679 15.7432 33.827 15.7432C34.7862 15.7432 35.5638 16.5208 35.5638 17.48C35.5634 18.4391 34.7862 19.2168 33.827 19.2168Z" fill="white"/>
<path d="M26.1025 -0.000244141C12.1848 -0.000244141 0.898438 11.2861 0.898438 25.2038C0.898438 39.1215 12.1848 50.4079 26.1025 50.4079C40.0202 50.4079 51.3066 39.1215 51.3066 25.2038C51.3066 11.2861 40.0202 -0.000244141 26.1025 -0.000244141ZM40.4879 31.1707C40.4179 32.7113 40.1729 33.7631 39.8152 34.6838C39.0634 36.6279 37.5266 38.1647 35.5825 38.9166C34.6622 39.2742 33.61 39.5188 32.0697 39.5892C30.5264 39.6596 30.0333 39.6765 26.1029 39.6765C22.1721 39.6765 21.6794 39.6596 20.1357 39.5892C18.5954 39.5188 17.5432 39.2742 16.6229 38.9166C15.6568 38.5531 14.7823 37.9836 14.0593 37.2471C13.3232 36.5244 12.7536 35.6495 12.3902 34.6838C12.0325 33.7635 11.7875 32.7113 11.7175 31.171C11.6464 29.6273 11.6299 29.1343 11.6299 25.2038C11.6299 21.2734 11.6464 20.7804 11.7172 19.237C11.7872 17.6964 12.0318 16.6445 12.3894 15.7238C12.7528 14.7582 13.3228 13.8832 14.0593 13.1606C14.7819 12.4241 15.6568 11.8546 16.6225 11.4911C17.5432 11.1335 18.5951 10.8889 20.1357 10.8185C21.679 10.7481 22.1721 10.7312 26.1025 10.7312C30.033 10.7312 30.526 10.7481 32.0693 10.8189C33.61 10.8889 34.6618 11.1335 35.5825 11.4907C36.5482 11.8542 37.4231 12.4241 38.1461 13.1606C38.8822 13.8836 39.4522 14.7582 39.8152 15.7238C40.1733 16.6445 40.4179 17.6964 40.4883 19.237C40.5586 20.7804 40.5752 21.2734 40.5752 25.2038C40.5752 29.1343 40.5586 29.6273 40.4879 31.1707Z" fill="white"/>
</g>
<defs>
<clipPath id="clip0_93_1629">
<rect width="50.4082" height="50.4082" fill="white" transform="translate(0.898438 -0.00012207)"/>
</clipPath>
</defs>
</svg>
