<svg width="52" height="51" viewBox="0 0 52 51" fill="none" xmlns="http://www.w3.org/2000/svg">
<g clip-path="url(#clip0_93_3033)">
<circle cx="26.1006" cy="25.2035" r="19.898" fill="black"/>
<path d="M30.9253 25.204C30.9253 27.8684 28.7655 30.0282 26.1011 30.0282C23.4367 30.0282 21.2769 27.8684 21.2769 25.204C21.2769 22.5396 23.4367 20.3798 26.1011 20.3798C28.7655 20.3798 30.9253 22.5396 30.9253 25.204Z" fill="white"/>
<path d="M37.3812 16.67C37.1493 16.0416 36.7793 15.4728 36.2986 15.0059C35.8317 14.5252 35.2633 14.1552 34.6345 13.9233C34.1246 13.7253 33.3585 13.4895 31.9474 13.4253C30.421 13.3557 29.9634 13.3407 26.0991 13.3407C22.2344 13.3407 21.7767 13.3553 20.2507 13.4249C18.8397 13.4895 18.0732 13.7253 17.5636 13.9233C16.9348 14.1552 16.366 14.5252 15.8995 15.0059C15.4188 15.4728 15.0488 16.0412 14.8165 16.67C14.6185 17.18 14.3827 17.9465 14.3185 19.3575C14.2489 20.8835 14.2339 21.3412 14.2339 25.2059C14.2339 29.0702 14.2489 29.5278 14.3185 31.0542C14.3827 32.4653 14.6185 33.2314 14.8165 33.7413C15.0488 34.3701 15.4184 34.9385 15.8991 35.4054C16.366 35.8862 16.9344 36.2561 17.5632 36.488C18.0732 36.6865 18.8397 36.9222 20.2507 36.9864C21.7767 37.0561 22.234 37.0707 26.0987 37.0707C29.9637 37.0707 30.4214 37.0561 31.947 36.9864C33.3581 36.9222 34.1246 36.6865 34.6345 36.488C35.8967 36.0011 36.8943 35.0035 37.3812 33.7413C37.5793 33.2314 37.815 32.4653 37.8796 31.0542C37.9492 29.5278 37.9639 29.0702 37.9639 25.2059C37.9639 21.3412 37.9492 20.8835 37.8796 19.3575C37.8154 17.9465 37.5797 17.18 37.3812 16.67ZM26.0991 32.6372C21.9944 32.6372 18.667 29.3102 18.667 25.2055C18.667 21.1008 21.9944 17.7738 26.0991 17.7738C30.2033 17.7738 33.5308 21.1008 33.5308 25.2055C33.5308 29.3102 30.2033 32.6372 26.0991 32.6372ZM33.8246 19.2168C32.8654 19.2168 32.0878 18.4391 32.0878 17.48C32.0878 16.5208 32.8654 15.7432 33.8246 15.7432C34.7837 15.7432 35.5614 16.5208 35.5614 17.48C35.561 18.4391 34.7837 19.2168 33.8246 19.2168Z" fill="white"/>
<path d="M26.102 -0.000244141C12.1843 -0.000244141 0.897949 11.2861 0.897949 25.2038C0.897949 39.1215 12.1843 50.4079 26.102 50.4079C40.0197 50.4079 51.3061 39.1215 51.3061 25.2038C51.3061 11.2861 40.0197 -0.000244141 26.102 -0.000244141ZM40.4874 31.1707C40.4174 32.7113 40.1724 33.7631 39.8147 34.6838C39.0629 36.6279 37.5261 38.1647 35.582 38.9166C34.6617 39.2742 33.6095 39.5188 32.0692 39.5892C30.5259 39.6596 30.0329 39.6765 26.1024 39.6765C22.1716 39.6765 21.6789 39.6596 20.1352 39.5892C18.595 39.5188 17.5427 39.2742 16.6224 38.9166C15.6564 38.5531 14.7818 37.9836 14.0588 37.2471C13.3227 36.5244 12.7531 35.6495 12.3897 34.6838C12.032 33.7635 11.7871 32.7113 11.7171 31.171C11.6459 29.6273 11.6294 29.1343 11.6294 25.2038C11.6294 21.2734 11.6459 20.7804 11.7167 19.237C11.7867 17.6964 12.0313 16.6445 12.3889 15.7238C12.7524 14.7582 13.3223 13.8832 14.0588 13.1606C14.7814 12.4241 15.6564 11.8546 16.622 11.4911C17.5427 11.1335 18.5946 10.8889 20.1352 10.8185C21.6785 10.7481 22.1716 10.7312 26.102 10.7312C30.0325 10.7312 30.5255 10.7481 32.0688 10.8189C33.6095 10.8889 34.6613 11.1335 35.582 11.4907C36.5477 11.8542 37.4226 12.4241 38.1457 13.1606C38.8817 13.8836 39.4517 14.7582 39.8147 15.7238C40.1728 16.6445 40.4174 17.6964 40.4878 19.237C40.5581 20.7804 40.5747 21.2734 40.5747 25.2038C40.5747 29.1343 40.5581 29.6273 40.4874 31.1707Z" fill="white"/>
</g>
<defs>
<clipPath id="clip0_93_3033">
<rect width="50.4082" height="50.4082" fill="white" transform="translate(0.897949 -0.00012207)"/>
</clipPath>
</defs>
</svg>
