<svg width="158" height="23" viewBox="0 0 158 23" fill="none" xmlns="http://www.w3.org/2000/svg">
<path d="M24.0136 8.58171L15.523 8.02413L12.3254 0L9.12778 8.02413L0.646484 8.58171L7.15157 14.099L5.01695 22.4684L12.3254 17.8539L19.6338 22.4684L17.4992 14.099L24.0136 8.58171Z" fill="#F7A600"/>
<path d="M57.2675 8.58159L48.7769 8.02401L45.5793 -0.00012207L42.3817 8.02401L33.9004 8.58159L40.4055 14.0989L38.2709 22.4682L45.5793 17.8538L52.8877 22.4682L50.7531 14.0989L57.2675 8.58159Z" fill="#F7A600"/>
<path d="M90.5194 8.58159L82.0288 8.02401L78.8312 -0.00012207L75.6336 8.02401L67.1523 8.58159L73.6574 14.0989L71.5228 22.4682L78.8312 17.8538L86.1397 22.4682L84.0051 14.0989L90.5194 8.58159Z" fill="#F7A600"/>
<path d="M123.773 8.58159L115.283 8.02401L112.085 -0.00012207L108.888 8.02401L100.406 8.58159L106.911 14.0989L104.777 22.4682L112.085 17.8538L119.394 22.4682L117.259 14.0989L123.773 8.58159Z" fill="#F7A600"/>
<path d="M157.027 8.58159L148.537 8.02401L145.339 -0.00012207L142.141 8.02401L133.66 8.58159L140.165 14.0989L138.031 22.4682L145.339 17.8538L152.648 22.4682L150.513 14.0989L157.027 8.58159Z" fill="#F7A600"/>
</svg>
