<svg width="103" height="103" viewBox="0 0 103 103" fill="none" xmlns="http://www.w3.org/2000/svg">
<rect width="102.243" height="102.243" rx="3.13629" fill="#F7A600"/>
<g clip-path="url(#clip0_39_153)">
<path d="M81.8176 49.5811C81.7544 49.5387 81.6891 49.4996 81.6218 49.4639L77.1705 47.0669L52.4856 60.1363C51.8299 60.4836 51.0446 60.4836 50.3889 60.1363L25.7041 47.0669L21.2527 49.4639C20.1709 50.0381 19.7592 51.3807 20.3335 52.4626C20.3692 52.5298 20.4083 52.5951 20.4507 52.6584L51.4373 69.0634L82.4238 52.6584C83.1062 51.6412 82.8349 50.2635 81.8176 49.5811Z" fill="white"/>
<path d="M82.5273 63.8123C82.3197 63.4279 82.0043 63.1124 81.62 62.905L77.1687 60.5081L52.4838 73.5774C51.8281 73.9248 51.0428 73.9248 50.3871 73.5774L25.7022 60.5081L21.2508 62.905C20.162 63.4927 19.7558 64.8517 20.3435 65.9405C20.551 66.3249 20.8665 66.6404 21.2508 66.8478L50.3735 82.5293C51.0364 82.8862 51.8344 82.8862 52.4972 82.5293L81.62 66.8478C82.7087 66.2601 83.1149 64.9011 82.5273 63.8123Z" fill="white"/>
<path d="M81.8176 36.1399C81.7544 36.0975 81.6891 36.0584 81.6218 36.0227L52.4992 20.3412C51.8363 19.9843 51.0383 19.9843 50.3755 20.3412L21.2527 36.0227C20.1709 36.5969 19.7592 37.9395 20.3335 39.0213C20.3692 39.0886 20.4083 39.1539 20.4507 39.2172L51.4373 55.6222L82.4238 39.2172C83.1062 38.2 82.8349 36.8223 81.8176 36.1399Z" fill="white"/>
</g>
<defs>
<clipPath id="clip0_39_153">
<rect width="62.7259" height="62.7259" fill="white" transform="translate(20.0742 20.0723)"/>
</clipPath>
</defs>
</svg>
