<svg width="42" height="41" viewBox="0 0 42 41" fill="none" xmlns="http://www.w3.org/2000/svg">
<g clip-path="url(#clip0_93_1969)">
<circle cx="20.5534" cy="20.5001" r="16.1842" fill="black"/>
<path d="M24.4766 20.5C24.4766 22.6671 22.7198 24.4238 20.5527 24.4238C18.3856 24.4238 16.6289 22.6671 16.6289 20.5C16.6289 18.3329 18.3856 16.5762 20.5527 16.5762C22.7198 16.5762 24.4766 18.3329 24.4766 20.5Z" fill="white"/>
<path d="M29.7275 13.5576C29.5389 13.0464 29.238 12.5838 28.847 12.2041C28.4672 11.813 28.0049 11.5121 27.4935 11.3235C27.0787 11.1624 26.4556 10.9707 25.3079 10.9184C24.0664 10.8618 23.6941 10.8496 20.5511 10.8496C17.4077 10.8496 17.0354 10.8615 15.7942 10.9181C14.6465 10.9707 14.0231 11.1624 13.6087 11.3235C13.0972 11.5121 12.6346 11.813 12.2551 12.2041C11.8641 12.5838 11.5632 13.0461 11.3743 13.5576C11.2132 13.9723 11.0214 14.5958 10.9692 15.7434C10.9126 16.9847 10.9004 17.3569 10.9004 20.5003C10.9004 23.6433 10.9126 24.0156 10.9692 25.2571C11.0214 26.4048 11.2132 27.0279 11.3743 27.4427C11.5632 27.9541 11.8638 28.4164 12.2548 28.7962C12.6346 29.1872 13.0969 29.4881 13.6083 29.6767C14.0231 29.8381 14.6465 30.0299 15.7942 30.0821C17.0354 30.1387 17.4074 30.1506 20.5507 30.1506C23.6944 30.1506 24.0667 30.1387 25.3076 30.0821C26.4553 30.0299 27.0787 29.8381 27.4935 29.6767C28.5201 29.2807 29.3315 28.4693 29.7275 27.4427C29.8886 27.0279 30.0804 26.4048 30.1329 25.2571C30.1895 24.0156 30.2014 23.6433 30.2014 20.5003C30.2014 17.3569 30.1895 16.9847 30.1329 15.7434C30.0807 14.5958 29.8889 13.9723 29.7275 13.5576ZM20.5511 26.5446C17.2125 26.5446 14.5061 23.8385 14.5061 20.5C14.5061 17.1614 17.2125 14.4553 20.5511 14.4553C23.8893 14.4553 26.5957 17.1614 26.5957 20.5C26.5957 23.8385 23.8893 26.5446 20.5511 26.5446ZM26.8347 15.629C26.0546 15.629 25.4221 14.9965 25.4221 14.2163C25.4221 13.4362 26.0546 12.8037 26.8347 12.8037C27.6148 12.8037 28.2473 13.4362 28.2473 14.2163C28.247 14.9965 27.6148 15.629 26.8347 15.629Z" fill="white"/>
<path d="M20.5527 0C9.23263 0 0.0527344 9.17989 0.0527344 20.5C0.0527344 31.8201 9.23263 41 20.5527 41C31.8728 41 41.0527 31.8201 41.0527 20.5C41.0527 9.17989 31.8728 0 20.5527 0ZM32.2532 25.3532C32.1963 26.6063 31.997 27.4618 31.7061 28.2106C31.0946 29.7919 29.8446 31.0418 28.2634 31.6534C27.5148 31.9443 26.659 32.1432 25.4062 32.2005C24.1509 32.2577 23.7499 32.2715 20.553 32.2715C17.3559 32.2715 16.9552 32.2577 15.6996 32.2005C14.4468 32.1432 13.5909 31.9443 12.8424 31.6534C12.0566 31.3578 11.3453 30.8945 10.7572 30.2955C10.1585 29.7077 9.69527 28.9961 9.39967 28.2106C9.10876 27.4621 8.9095 26.6063 8.85257 25.3535C8.7947 24.0979 8.78125 23.6969 8.78125 20.5C8.78125 17.3031 8.7947 16.9021 8.85226 15.6468C8.90919 14.3937 9.10813 13.5382 9.39904 12.7894C9.69464 12.0039 10.1582 11.2923 10.7572 10.7045C11.345 10.1055 12.0566 9.64222 12.8421 9.34662C13.5909 9.05571 14.4465 8.85677 15.6996 8.79952C16.9548 8.74228 17.3559 8.72852 20.5527 8.72852C23.7496 8.72852 24.1506 8.74228 25.4059 8.79984C26.659 8.85677 27.5145 9.05571 28.2634 9.34631C29.0488 9.64191 29.7605 10.1055 30.3485 10.7045C30.9473 11.2926 31.4108 12.0039 31.7061 12.7894C31.9973 13.5382 32.1963 14.3937 32.2535 15.6468C32.3108 16.9021 32.3242 17.3031 32.3242 20.5C32.3242 23.6969 32.3108 24.0979 32.2532 25.3532Z" fill="white"/>
</g>
<defs>
<clipPath id="clip0_93_1969">
<rect width="41" height="41" fill="white" transform="translate(0.0527344)"/>
</clipPath>
</defs>
</svg>
