<svg width="158" height="23" viewBox="0 0 158 23" fill="none" xmlns="http://www.w3.org/2000/svg">
<path d="M24.1913 8.58171L15.7007 8.02413L12.5031 0L9.30551 8.02413L0.824219 8.58171L7.32931 14.099L5.19469 22.4684L12.5031 17.8539L19.8116 22.4684L17.677 14.099L24.1913 8.58171Z" fill="#F7A600"/>
<path d="M57.4452 8.58159L48.9546 8.02401L45.757 -0.00012207L42.5594 8.02401L34.0781 8.58159L40.5832 14.0989L38.4486 22.4682L45.757 17.8538L53.0655 22.4682L50.9309 14.0989L57.4452 8.58159Z" fill="#F7A600"/>
<path d="M90.6972 8.58159L82.2066 8.02401L79.009 -0.00012207L75.8114 8.02401L67.3301 8.58159L73.8352 14.0989L71.7005 22.4682L79.009 17.8538L86.3174 22.4682L84.1828 14.0989L90.6972 8.58159Z" fill="#F7A600"/>
<path d="M123.951 8.58159L115.46 8.02401L112.263 -0.00012207L109.065 8.02401L100.584 8.58159L107.089 14.0989L104.954 22.4682L112.263 17.8538L119.571 22.4682L117.437 14.0989L123.951 8.58159Z" fill="#F7A600"/>
<path d="M157.203 8.58159L148.712 8.02401L145.515 -0.00012207L142.317 8.02401L133.836 8.58159L140.341 14.0989L138.206 22.4682L145.515 17.8538L152.823 22.4682L150.689 14.0989L157.203 8.58159Z" fill="#F7A600"/>
</svg>
