<svg width="157" height="23" viewBox="0 0 157 23" fill="none" xmlns="http://www.w3.org/2000/svg">
<path d="M23.5429 8.58171L15.0523 8.02413L11.8547 0L8.65708 8.02413L0.175781 8.58171L6.68087 14.099L4.54625 22.4684L11.8547 17.8539L19.1631 22.4684L17.0285 14.099L23.5429 8.58171Z" fill="#F7A600"/>
<path d="M56.7968 8.58159L48.3062 8.02401L45.1086 -0.00012207L41.911 8.02401L33.4297 8.58159L39.9348 14.0989L37.8002 22.4682L45.1086 17.8538L52.417 22.4682L50.2824 14.0989L56.7968 8.58159Z" fill="#F7A600"/>
<path d="M90.0487 8.58159L81.5581 8.02401L78.3605 -0.00012207L75.1629 8.02401L66.6816 8.58159L73.1867 14.0989L71.0521 22.4682L78.3605 17.8538L85.669 22.4682L83.5344 14.0989L90.0487 8.58159Z" fill="#F7A600"/>
<path d="M123.303 8.58159L114.812 8.02401L111.614 -0.00012207L108.417 8.02401L99.9355 8.58159L106.441 14.0989L104.306 22.4682L111.614 17.8538L118.923 22.4682L116.788 14.0989L123.303 8.58159Z" fill="#F7A600"/>
<path d="M156.555 8.58159L148.064 8.02401L144.866 -0.00012207L141.669 8.02401L133.188 8.58159L139.693 14.0989L137.558 22.4682L144.866 17.8538L152.175 22.4682L150.04 14.0989L156.555 8.58159Z" fill="#F7A600"/>
</svg>
