<svg width="1842" height="40" viewBox="0 0 1842 40" fill="none" xmlns="http://www.w3.org/2000/svg">
<rect x="1802" y="40" width="40" height="40" rx="20" transform="rotate(-90 1802 40)" fill="black"/>
<path d="M1802 20C1802 31.05 1810.95 40 1822 40C1833.05 40 1842 31.05 1842 20C1842 8.95 1833.05 0 1822 0C1810.95 0 1802 8.95 1802 20ZM1826 20L1818 28V12L1826 20Z" fill="white"/>
<rect x="40" width="40" height="40" rx="20" transform="rotate(90 40 0)" fill="black"/>
<path d="M40 20C40 8.95 31.05 0 20 0C8.95 0 0 8.95 0 20C0 31.05 8.95 40 20 40C31.05 40 40 31.05 40 20ZM16 20L24 12V28L16 20Z" fill="white"/>
</svg>
