<svg width="18" height="18" viewBox="0 0 18 18" fill="none" xmlns="http://www.w3.org/2000/svg">
<g clip-path="url(#clip0_93_1170)">
<path d="M9.32031 17.9896C10.6968 17.794 11.9034 16.3574 12.6627 14.2358C11.5651 13.9899 10.445 13.858 9.32031 13.8423V17.9896Z" fill="#272761"/>
<path d="M11.5201 17.6521C11.6014 17.6285 11.6825 17.6048 11.7629 17.5787C11.8308 17.5569 11.8977 17.5333 11.9646 17.5099C12.0438 17.4826 12.1226 17.4545 12.2012 17.4246C12.2681 17.3992 12.3344 17.3722 12.4008 17.3452C12.4775 17.313 12.554 17.2809 12.6297 17.2487C12.6958 17.2197 12.7615 17.1892 12.8271 17.1586C12.9014 17.1235 12.9754 17.0879 13.0487 17.0508C13.1131 17.018 13.1774 16.9845 13.2418 16.9501C13.3139 16.9115 13.3855 16.872 13.4567 16.8315C13.5211 16.7951 13.5831 16.7585 13.6458 16.7208C13.7155 16.6779 13.785 16.635 13.8539 16.5921C13.9157 16.5529 13.9772 16.513 14.038 16.4718C14.1059 16.4261 14.1728 16.3785 14.2394 16.3309C14.2992 16.288 14.3588 16.2453 14.4172 16.2023C14.4816 16.1526 14.5476 16.1013 14.6121 16.0498C14.6695 16.004 14.7266 15.9586 14.783 15.9117C14.8473 15.8583 14.9088 15.803 14.9712 15.7477C15.0259 15.6992 15.0808 15.6511 15.1343 15.6013C15.1957 15.544 15.2555 15.4846 15.3154 15.4257C15.3672 15.3745 15.4197 15.3241 15.4704 15.2716C15.4798 15.2619 15.4888 15.2513 15.4985 15.2413C14.7969 14.8789 14.0578 14.5944 13.2943 14.3931C12.8972 15.6594 12.1905 16.807 11.2383 17.7316C11.2644 17.7248 11.2904 17.7193 11.3165 17.7126C11.3853 17.6932 11.4528 17.672 11.5201 17.6521Z" fill="#272761"/>
<path d="M18.0008 9.3291H14.1437C14.129 10.8352 13.9106 12.3322 13.4941 13.7797C14.3433 14.0065 15.1628 14.3326 15.9356 14.7512C17.2044 13.2219 17.9308 11.3152 18.0008 9.3291Z" fill="#272761"/>
<path d="M9.32031 8.68583H13.4981C13.4817 7.23303 13.2686 5.78918 12.8647 4.39355C11.7014 4.65886 10.5133 4.80054 9.32031 4.81625V8.68583Z" fill="#272761"/>
<path d="M9.32031 0.0253906V4.17268C10.445 4.15682 11.5651 4.02503 12.6627 3.77921C11.9034 1.65757 10.6968 0.220951 9.32031 0.0253906Z" fill="#272761"/>
<path d="M9.32031 13.1987C10.5133 13.2145 11.7014 13.3562 12.8647 13.6215C13.2686 12.2259 13.4817 10.7819 13.4981 9.3291H9.32031V13.1987Z" fill="#272761"/>
<path d="M15.9356 3.26367C15.1628 3.68228 14.3433 4.00837 13.4941 4.23519C13.9106 5.68265 14.129 7.17975 14.1437 8.6858H18.0008C17.9306 6.69988 17.2043 4.79313 15.9356 3.26367Z" fill="#272761"/>
<path d="M15.501 2.77564C15.4916 2.76606 15.4826 2.75569 15.4734 2.74579C15.4225 2.69333 15.3697 2.64275 15.3179 2.5917C15.2582 2.5328 15.1987 2.47327 15.1371 2.41609C15.0838 2.36645 15.0287 2.31949 14.974 2.27001C14.9117 2.21472 14.8493 2.15896 14.7852 2.10555C14.7296 2.05858 14.6726 2.01366 14.6161 1.96858C14.5517 1.91643 14.4857 1.8646 14.4194 1.8148C14.3613 1.77098 14.3024 1.72857 14.2432 1.68616C14.1759 1.63778 14.1084 1.58955 14.0399 1.54353C13.9797 1.503 13.9186 1.46342 13.8575 1.42462C13.7879 1.37986 13.7185 1.33603 13.6477 1.29362C13.5856 1.25639 13.523 1.21964 13.4601 1.18398C13.3882 1.14283 13.3161 1.10293 13.2434 1.06398C13.179 1.03178 13.1147 0.996747 13.0503 0.964547C12.9763 0.927162 12.9017 0.891192 12.8252 0.85585C12.7608 0.82522 12.6955 0.795375 12.6292 0.766316C12.553 0.732544 12.476 0.702072 12.3992 0.669871C12.3329 0.642854 12.267 0.616151 12.2001 0.590704C12.122 0.56086 12.0428 0.5329 11.9637 0.505569C11.8967 0.482007 11.8298 0.458603 11.762 0.436612C11.6816 0.410537 11.6011 0.386819 11.5185 0.362943C11.4516 0.343309 11.3844 0.32336 11.3167 0.305453C11.2907 0.298385 11.2644 0.292887 11.2383 0.286133C12.1905 1.21069 12.897 2.35813 13.2943 3.62464C14.0586 3.42327 14.7987 3.13864 15.501 2.77564Z" fill="#272761"/>
<path d="M0 8.6858H3.85717C3.87178 7.17975 4.09027 5.68265 4.50653 4.23519C3.65753 4.00853 2.83806 3.68244 2.06524 3.26367C0.796378 4.79297 0.0700562 6.69988 0 8.6858Z" fill="#272761"/>
<path d="M8.67837 17.9896V13.8423C7.5537 13.8581 6.43359 13.9899 5.33594 14.2358C6.09509 16.3574 7.30191 17.794 8.67837 17.9896Z" fill="#272761"/>
<path d="M8.67777 9.3291H4.5C4.51634 10.7819 4.72933 12.2259 5.13333 13.6215C6.29664 13.3561 7.48461 13.2144 8.67777 13.1987V9.3291Z" fill="#272761"/>
<path d="M8.67837 0.0253906C7.30191 0.220951 6.09509 1.65757 5.33594 3.77921C6.43359 4.02519 7.5537 4.15698 8.67837 4.17268V0.0253906Z" fill="#272761"/>
<path d="M8.67777 4.81625C7.48477 4.80054 6.29664 4.65886 5.13333 4.39355C4.72933 5.78918 4.51634 7.23303 4.5 8.68583H8.67777V4.81625Z" fill="#272761"/>
<path d="M6.75929 0.285645C6.73321 0.292399 6.70714 0.297897 6.68106 0.304651C6.61289 0.322872 6.54566 0.343135 6.47781 0.362769C6.39707 0.386331 6.31696 0.410049 6.23591 0.43581C6.16758 0.457958 6.10035 0.481519 6.03312 0.504923C5.95443 0.532726 5.87558 0.560371 5.79767 0.589902C5.73044 0.615662 5.66415 0.642365 5.59755 0.669697C5.52105 0.701897 5.4444 0.734098 5.36885 0.766142C5.30256 0.795201 5.23706 0.825674 5.1714 0.856304C5.0971 0.891332 5.02312 0.926988 4.94977 0.964058C4.88536 0.996887 4.82096 1.0305 4.75672 1.06474C4.68462 1.10339 4.61315 1.14297 4.54215 1.18349C4.47775 1.21946 4.41445 1.25638 4.3524 1.29408C4.28251 1.33617 4.21339 1.37968 4.14459 1.42272C4.0827 1.46231 4.02129 1.5022 3.9605 1.54336C3.89264 1.58907 3.82573 1.63666 3.75913 1.68425C3.69928 1.72714 3.63975 1.76986 3.58116 1.81306C3.51534 1.86254 3.45251 1.91406 3.38623 1.96542C3.32905 2.01113 3.2714 2.05653 3.21548 2.10381C3.15108 2.1569 3.08998 2.21187 3.02793 2.26685C2.97296 2.31586 2.91751 2.36345 2.86379 2.41419C2.80269 2.47121 2.74315 2.53043 2.68347 2.58917C2.63163 2.64038 2.57885 2.69096 2.52796 2.74358C2.51869 2.75332 2.50974 2.764 2.5 2.77389C3.2015 3.13643 3.94071 3.42089 4.70426 3.62227C5.10135 2.35654 5.80756 1.20973 6.75929 0.285645Z" fill="#272761"/>
<path d="M2.68243 15.4229C2.74228 15.4818 2.80181 15.5414 2.86323 15.5987C2.91664 15.6482 2.97161 15.6951 3.02643 15.7446C3.08879 15.8001 3.15115 15.8557 3.21524 15.9091C3.27084 15.9557 3.32755 16.0008 3.38441 16.0461C3.44881 16.0982 3.51305 16.15 3.58123 16.2001C3.63919 16.2437 3.69809 16.2858 3.75699 16.3289C3.82422 16.3772 3.89208 16.4254 3.96057 16.4717C4.02073 16.5123 4.08183 16.5518 4.14293 16.5908C4.21252 16.6354 4.28194 16.6792 4.35279 16.7216C4.41483 16.759 4.4775 16.7956 4.54034 16.8314C4.61228 16.8726 4.68437 16.9125 4.7571 16.9513C4.82135 16.9835 4.88575 17.0185 4.95015 17.0507C5.02413 17.0881 5.09874 17.1241 5.17524 17.1596C5.23964 17.1899 5.30498 17.2197 5.37127 17.2489C5.44745 17.2827 5.52426 17.3132 5.60123 17.3454C5.66752 17.3724 5.73349 17.3991 5.8004 17.4246C5.87847 17.4546 5.95764 17.4825 6.0368 17.5099C6.10372 17.5333 6.17063 17.5568 6.23849 17.5787C6.31891 17.6047 6.39934 17.6286 6.48196 17.6523C6.54887 17.672 6.6161 17.6919 6.68365 17.71C6.70972 17.717 6.73611 17.7225 6.76218 17.7293C5.80999 16.8046 5.10346 15.6571 4.70621 14.3906C3.94266 14.5922 3.20346 14.8766 2.50195 15.2393C2.51138 15.2489 2.52033 15.2593 2.52976 15.2692C2.57798 15.3213 2.62997 15.3719 2.68243 15.4229Z" fill="#272761"/>
<path d="M2.06524 14.7512C2.83806 14.3326 3.65753 14.0065 4.50653 13.7797C4.09027 12.3322 3.87178 10.8352 3.85717 9.3291H0C0.0702132 11.315 0.796378 13.2218 2.06524 14.7512Z" fill="#272761"/>
</g>
<defs>
<clipPath id="clip0_93_1170">
<rect width="18" height="18" fill="white"/>
</clipPath>
</defs>
</svg>
