<svg width="27" height="8" viewBox="0 0 27 8" fill="none" xmlns="http://www.w3.org/2000/svg">
<path d="M25.014 7.61851H2.35065C1.54465 7.61851 0.885986 6.95985 0.885986 6.15385V2.10651C0.885986 1.30051 1.54465 0.641846 2.35065 0.641846H4.33532C4.56932 0.641846 4.75132 0.823845 4.75132 1.05784C4.75132 1.29184 4.56065 1.47385 4.33532 1.47385H2.35065C2.00399 1.47385 1.71799 1.75985 1.71799 2.10651V6.15385C1.71799 6.50051 2.00399 6.78651 2.35065 6.78651H25.014C25.3607 6.78651 25.6467 6.50051 25.6467 6.15385V2.10651C25.6467 1.75985 25.3607 1.47385 25.014 1.47385C24.7887 1.47385 24.598 1.29184 24.598 1.05784C24.598 0.823845 24.78 0.641846 25.014 0.641846C25.82 0.641846 26.4787 1.30051 26.4787 2.10651V6.15385C26.47 6.95985 25.82 7.61851 25.014 7.61851Z" fill="#F7A600"/>
</svg>
