<svg width="18" height="16" viewBox="0 0 18 16" fill="none" xmlns="http://www.w3.org/2000/svg">
<path d="M15.279 0H13.7026V1.57647C13.7026 1.89177 13.4398 2.10196 13.1771 2.10196C12.9143 2.10196 12.6516 1.89177 12.6516 1.57647V0H4.24373V1.57647C4.24373 1.89177 3.98098 2.10196 3.71824 2.10196C3.45549 2.10196 3.19275 1.89177 3.19275 1.57647V0H1.61627C0.828039 0 0.25 0.683137 0.25 1.57647V3.46824H17.0657V1.57647C17.0657 0.683137 16.1198 0 15.279 0ZM0.25 4.57177V14.1882C0.25 15.1341 0.828039 15.7647 1.66882 15.7647H15.3316C16.1724 15.7647 17.1182 15.0816 17.1182 14.1882V4.57177H0.25ZM4.92686 13.4H3.66569C3.45549 13.4 3.24529 13.2424 3.24529 12.9796V11.6659C3.24529 11.4557 3.40294 11.2455 3.66569 11.2455H4.97941C5.18961 11.2455 5.39981 11.4031 5.39981 11.6659V12.9796C5.34726 13.2424 5.18961 13.4 4.92686 13.4ZM4.92686 8.67059H3.66569C3.45549 8.67059 3.24529 8.51294 3.24529 8.2502V6.93647C3.24529 6.72628 3.40294 6.51608 3.66569 6.51608H4.97941C5.18961 6.51608 5.39981 6.67373 5.39981 6.93647V8.2502C5.34726 8.51294 5.18961 8.67059 4.92686 8.67059ZM9.13079 13.4H7.81706C7.60686 13.4 7.39667 13.2424 7.39667 12.9796V11.6659C7.39667 11.4557 7.55432 11.2455 7.81706 11.2455H9.13079C9.34098 11.2455 9.55118 11.4031 9.55118 11.6659V12.9796C9.55118 13.2424 9.39353 13.4 9.13079 13.4ZM9.13079 8.67059H7.81706C7.60686 8.67059 7.39667 8.51294 7.39667 8.2502V6.93647C7.39667 6.72628 7.55432 6.51608 7.81706 6.51608H9.13079C9.34098 6.51608 9.55118 6.67373 9.55118 6.93647V8.2502C9.55118 8.51294 9.39353 8.67059 9.13079 8.67059ZM13.3347 13.4H12.021C11.8108 13.4 11.6006 13.2424 11.6006 12.9796V11.6659C11.6006 11.4557 11.7582 11.2455 12.021 11.2455H13.3347C13.5449 11.2455 13.7551 11.4031 13.7551 11.6659V12.9796C13.7551 13.2424 13.5975 13.4 13.3347 13.4ZM13.3347 8.67059H12.021C11.8108 8.67059 11.6006 8.51294 11.6006 8.2502V6.93647C11.6006 6.72628 11.7582 6.51608 12.021 6.51608H13.3347C13.5449 6.51608 13.7551 6.67373 13.7551 6.93647V8.2502C13.7551 8.51294 13.5975 8.67059 13.3347 8.67059Z" fill="#272761"/>
</svg>
