<svg width="27" height="8" viewBox="0 0 27 8" fill="none" xmlns="http://www.w3.org/2000/svg">
<path d="M24.9987 7.47398H2.33539C1.52939 7.47398 0.870728 6.81531 0.870728 6.00931V1.96198C0.870728 1.15598 1.52939 0.497314 2.33539 0.497314H24.9987C25.8047 0.497314 26.4634 1.15598 26.4634 1.96198V6.00931C26.4634 6.82398 25.8047 7.47398 24.9987 7.47398ZM2.33539 1.33798C1.98873 1.33798 1.70273 1.62398 1.70273 1.97065V6.01798C1.70273 6.36465 1.98873 6.65065 2.33539 6.65065H24.9987C25.3454 6.65065 25.6314 6.36465 25.6314 6.01798V1.97065C25.6314 1.62398 25.3454 1.33798 24.9987 1.33798H2.33539Z" fill="#F7A600"/>
</svg>
