<svg width="26" height="8" viewBox="0 0 26 8" fill="none" xmlns="http://www.w3.org/2000/svg">
<path d="M24.4086 7.338H16.99C16.7646 7.338 16.574 7.156 16.574 6.922C16.574 6.688 16.756 6.50599 16.99 6.50599H24.4086C24.7553 6.50599 25.0413 6.22 25.0413 5.87333V1.826C25.0413 1.47933 24.7553 1.19333 24.4086 1.19333H1.75397C1.40731 1.19333 1.12131 1.47933 1.12131 1.826V5.87333C1.12131 6.22 1.40731 6.50599 1.75397 6.50599C1.97931 6.50599 2.16997 6.688 2.16997 6.922C2.16997 7.156 1.98797 7.338 1.75397 7.338C0.947973 7.338 0.289307 6.67933 0.289307 5.87333V1.826C0.289307 1.02 0.947973 0.361328 1.75397 0.361328H24.4173C25.2233 0.361328 25.882 1.02 25.882 1.826V5.87333C25.8733 6.67933 25.2233 7.338 24.4086 7.338Z" fill="#F7A600"/>
</svg>
