<svg width="18" height="23" viewBox="0 0 18 23" fill="none" xmlns="http://www.w3.org/2000/svg">
<path d="M7.3807 22.338C7.21603 22.338 7.0687 22.234 6.99936 22.0953C6.93003 22.2427 6.79136 22.338 6.61803 22.338C5.9247 22.338 5.36136 21.7747 5.36136 21.0813V8.038C5.36136 7.882 5.29203 7.752 5.15336 7.674C5.0147 7.596 4.86736 7.596 4.7287 7.674L4.19136 7.986C4.04403 8.07267 3.96603 8.22 3.98336 8.39333L4.42536 12.536C4.4687 12.978 4.29536 13.394 3.94003 13.6627L3.56736 13.9487C3.22936 14.2087 2.79603 14.278 2.3887 14.1307C1.98136 13.992 1.69536 13.6713 1.59136 13.2553L0.213364 7.726C0.083364 7.19733 0.300031 6.65133 0.768031 6.35667L5.36136 3.49667C5.56936 3.36667 5.78603 3.306 6.02003 3.306H13.5427C13.6987 3.306 13.8287 3.23667 13.9067 3.098L14.964 1.26933C15.3107 0.671334 16.0734 0.463335 16.68 0.810001L17.3387 1.19133C17.9367 1.538 18.1447 2.30067 17.798 2.90733L16.0387 5.958C15.8134 6.348 15.406 6.582 14.9554 6.582H11.4367C11.2027 6.582 11.012 6.77267 11.012 7.00667V7.69133C11.012 7.92533 11.2027 8.116 11.4367 8.116H14.6C15.2934 8.116 15.8567 8.67933 15.8567 9.37267V14.9713C15.8567 15.6647 15.2934 16.228 14.6 16.228C14.4354 16.228 14.288 16.124 14.2187 15.9853C14.1494 16.1327 14.0107 16.228 13.8374 16.228C13.144 16.228 12.5807 15.6647 12.5807 14.9713V11.808C12.5807 11.574 12.39 11.3833 12.156 11.3833H9.05336C8.81936 11.3833 8.6287 11.574 8.6287 11.808V21.116C8.6287 21.7747 8.06536 22.338 7.3807 22.338ZM4.94536 6.78133C5.16203 6.78133 5.3787 6.83333 5.56936 6.95467C5.95936 7.18 6.19336 7.58733 6.19336 8.038V21.0813C6.19336 21.3153 6.38403 21.506 6.61803 21.506C6.7827 21.506 6.93003 21.61 6.99936 21.7487C7.0687 21.6013 7.20736 21.506 7.3807 21.506C7.6147 21.506 7.80536 21.3153 7.80536 21.0813V11.7733C7.80536 11.08 8.3687 10.5167 9.06203 10.5167H12.1734C12.8667 10.5167 13.43 11.08 13.43 11.7733V14.9367C13.43 15.1707 13.6207 15.3613 13.8547 15.3613C14.0194 15.3613 14.1667 15.4653 14.236 15.604C14.3054 15.4567 14.444 15.3613 14.6174 15.3613C14.8514 15.3613 15.042 15.1707 15.042 14.9367V9.34667C15.042 9.11267 14.8514 8.922 14.6174 8.922H11.454C10.7607 8.922 10.1974 8.35867 10.1974 7.66533V6.98067C10.1974 6.28733 10.7607 5.724 11.454 5.724H14.9727C15.1287 5.724 15.2587 5.65467 15.3367 5.516L17.096 2.46533C17.2087 2.266 17.1394 2.006 16.94 1.89333L16.2814 1.512C16.082 1.39933 15.822 1.46867 15.7094 1.668L14.652 3.49667C14.4267 3.88667 14.0194 4.12067 13.5687 4.12067H6.02003C5.93336 4.12067 5.8727 4.138 5.7947 4.18133L1.20136 7.04133C1.04536 7.13667 0.967364 7.31867 1.01936 7.50067L2.40603 13.03C2.4407 13.1773 2.53603 13.2727 2.6747 13.3247C2.81336 13.3767 2.95203 13.3507 3.07336 13.264L3.44603 12.978C3.56736 12.8827 3.62803 12.7527 3.6107 12.5967L3.16003 8.48C3.10803 7.97733 3.34203 7.518 3.78403 7.26667L4.32136 6.95467C4.51203 6.842 4.7287 6.78133 4.94536 6.78133Z" fill="#F7A600"/>
</svg>
