<svg width="16" height="16" viewBox="0 0 16 16" fill="none" xmlns="http://www.w3.org/2000/svg">
<path d="M9.31937 15.42H6.1647C5.93937 15.42 5.7487 15.238 5.7487 15.004V13.262C5.6707 13.2273 5.5927 13.2013 5.5147 13.1667L4.28404 14.3973C4.11937 14.562 3.85937 14.562 3.6947 14.3973L1.46737 12.17C1.3027 12.0053 1.3027 11.7453 1.46737 11.5807L2.69804 10.35C2.66337 10.272 2.6287 10.194 2.6027 10.1247H0.860702C0.635369 10.1247 0.444702 9.94265 0.444702 9.70865V6.55398C0.444702 6.31998 0.626702 6.13798 0.860702 6.13798H2.6027C2.63737 6.05998 2.66337 5.98198 2.69804 5.90398L1.46737 4.67332C1.3027 4.50865 1.3027 4.24865 1.46737 4.08398L3.6947 1.85665C3.7727 1.77865 3.8767 1.73532 3.98937 1.73532C4.10203 1.73532 4.20604 1.77865 4.28404 1.85665L5.5147 3.08732C5.5927 3.05265 5.6707 3.01798 5.74004 2.99198V1.24998C5.74004 1.01598 5.92203 0.833984 6.15603 0.833984H9.3107C9.53604 0.833984 9.7267 1.02465 9.7267 1.24998V2.99198C9.8047 3.01798 9.8827 3.05265 9.95204 3.08732L11.1827 1.85665C11.3474 1.69198 11.6074 1.69198 11.772 1.85665L13.9994 4.08398C14.0774 4.16198 14.1207 4.26598 14.1207 4.37865C14.1207 4.49132 14.0774 4.59532 13.9994 4.67332L12.7687 5.90398C12.8034 5.98198 12.838 6.05998 12.864 6.13798H14.606C14.8314 6.13798 15.022 6.32865 15.022 6.55398V9.70865C15.022 9.93398 14.84 10.1247 14.606 10.1247H12.864C12.8294 10.2027 12.8034 10.2807 12.7687 10.35L13.9994 11.5807C14.164 11.7453 14.164 12.0053 13.9994 12.17L11.772 14.3973C11.694 14.4753 11.59 14.5187 11.4774 14.5187C11.3647 14.5187 11.2607 14.4753 11.1827 14.3973L9.9607 13.1667C9.8827 13.2013 9.8047 13.236 9.73537 13.262V15.004C9.73537 15.238 9.5447 15.42 9.31937 15.42ZM6.5807 14.588H8.90337V12.9673C8.90337 12.7853 9.01604 12.6293 9.18937 12.5687C9.4147 12.4907 9.6487 12.404 9.86537 12.2913C10.03 12.2133 10.2207 12.2393 10.3507 12.3693L11.4947 13.5133L13.1414 11.8753L11.9974 10.7313C11.8674 10.6013 11.8414 10.4107 11.9194 10.246C12.032 10.0293 12.1274 9.80398 12.1967 9.56998C12.2487 9.39665 12.4134 9.28398 12.5954 9.28398H14.216V6.96132H12.5867C12.4047 6.96132 12.2487 6.84865 12.188 6.67532C12.11 6.44998 12.0147 6.21598 11.9107 5.99932C11.8327 5.84332 11.8587 5.64398 11.9887 5.51398L13.1327 4.36998L11.486 2.73198L10.342 3.87598C10.212 4.00598 10.0214 4.03198 9.8567 3.95398C9.64004 3.84132 9.4147 3.74598 9.1807 3.67665C9.00737 3.62465 8.8947 3.45998 8.8947 3.27798V1.66598H6.57204V3.28665C6.57204 3.46865 6.45937 3.62465 6.28604 3.68532C6.0607 3.76332 5.8267 3.84998 5.61004 3.96265C5.44537 4.04065 5.2547 4.01465 5.1247 3.88465L3.9807 2.74065L2.33404 4.38732L3.47804 5.53132C3.60804 5.66132 3.63403 5.85198 3.55604 6.01665C3.44337 6.23332 3.34804 6.45865 3.2787 6.69265C3.2267 6.86598 3.06204 6.97865 2.88004 6.97865H1.25937V9.30132H2.88004C3.06204 9.30132 3.21804 9.41398 3.2787 9.58732C3.3567 9.81265 3.45203 10.0467 3.55604 10.2633C3.63403 10.428 3.60804 10.6187 3.47804 10.7487L2.33404 11.8927L3.9807 13.5307L5.1247 12.3867C5.2547 12.2567 5.44537 12.2307 5.61004 12.3087C5.8267 12.4213 6.05203 12.5167 6.28604 12.586C6.45937 12.638 6.57204 12.8027 6.57204 12.9847L6.5807 14.588Z" fill="#F7A600"/>
</svg>
