<svg width="338" height="338" viewBox="0 0 338 338" fill="none" xmlns="http://www.w3.org/2000/svg">
    <g clip-path="url(#clip0_93_2606)">
        <path
            d="M126.753 338C196.757 338 253.506 281.251 253.506 211.247C253.506 141.243 196.757 84.4941 126.753 84.4941C56.7492 84.4941 0 141.243 0 211.247C0 281.251 56.7492 338 126.753 338Z"
            fill="#FECC01" />
        <path
            d="M203.469 110.803H127.442C124.924 110.803 124.917 114.712 127.442 114.712H203.484C205.986 114.712 205.986 110.803 203.469 110.803Z"
            fill="#1D1D1B" />
        <path
            d="M203.469 136.151H127.442C124.924 136.151 124.917 140.06 127.442 140.06H203.484C205.986 140.06 205.986 136.151 203.469 136.151Z"
            fill="#1D1D1B" />
        <path
            d="M203.469 161.42H127.442C124.924 161.42 124.917 165.329 127.442 165.329H203.484C205.986 165.329 205.986 161.42 203.469 161.42Z"
            fill="#1D1D1B" />
        <path
            d="M203.469 186.861H127.442C124.924 186.861 124.917 190.771 127.442 190.771H203.484C205.986 190.771 205.986 186.861 203.469 186.861Z"
            fill="#1D1D1B" />
        <path
            d="M203.469 212.201H127.442C124.924 212.201 124.917 216.11 127.442 216.11H203.484C205.986 216.11 205.986 212.201 203.469 212.201Z"
            fill="#1D1D1B" />
        <path
            d="M270.862 262.067V51.8989C270.862 48.5839 270.737 45.2767 266.382 44.8154C263.255 44.487 259.909 44.8154 256.766 44.8154H124.634C121.545 44.8154 118.254 44.487 115.181 44.8154C111.522 45.2141 110.74 47.9428 110.74 51.0154V70.8587H106.221C101.53 70.8587 96.7373 70.671 92.0228 70.8587C86.6906 71.0776 85.3849 74.9634 85.3849 79.3964V248.033L55.6122 248.072C54.4924 248.009 53.37 248.009 52.2503 248.072C47.5592 248.588 47.4575 252.38 47.4575 256.039V272.278C47.4575 276.492 47.1292 280.753 49.0681 284.655C52.9305 292.473 60.8897 294.123 68.7159 294.123H203.647C208.838 294.123 214.038 294.201 219.237 294.248C223.717 294.287 228.807 294.881 233.162 293.56C240.456 291.339 244.975 285.35 245.413 277.845C245.601 274.717 245.663 271.52 245.671 268.337H264.318C267.5 268.337 270.424 267.829 270.862 263.951C270.897 263.324 270.897 262.695 270.862 262.067ZM118.652 49.6316C118.715 49.3814 118.77 49.3266 118.652 49.6316V49.6316ZM115.713 52.6573C115.095 52.8997 115.165 52.7198 115.713 52.6573V52.6573ZM55.3776 253.271L55.2526 253.396C55.2369 252.951 55.5653 252.818 55.3776 253.271ZM114.399 286.312H70.5064C66.5971 286.312 62.2814 286.812 58.9507 284.467C55.3855 281.965 55.276 278.525 55.276 274.67V255.906H56.9883H69.6151H87.9963C88.8977 256.219 89.8782 256.219 90.7797 255.906H110.052L193.319 255.804H211.301H212.247V274.475C212.247 278.04 212.247 281.465 213.858 284.772C214.157 285.369 214.494 285.946 214.867 286.5C211.708 286.463 208.549 286.437 205.391 286.422C175.047 286.226 144.719 286.312 114.399 286.312ZM214.859 255.82L214.749 255.718C215.211 255.601 215.328 256.008 214.859 255.812V255.82ZM212.247 253.217L212.13 253.091C211.974 252.716 212.263 252.732 212.247 253.209V253.217ZM237.681 275.757C237.595 280.096 236.469 283.81 232.106 285.671C231.391 285.972 230.643 286.189 229.878 286.32C223.256 286.078 220.081 281.738 220.081 275.656V260.355C220.081 257.048 221.223 250.816 217.9 248.666C216.282 247.626 214.194 247.884 212.372 247.884H204.413C193.467 247.884 182.542 247.897 171.638 247.923L93.2034 248.017V81.57C93.2034 81.1478 93.3676 79.889 93.4145 78.771C94.1963 78.771 94.9782 78.6771 95.6427 78.6771H214.882C222.458 78.6771 230.112 78.3644 237.696 78.6146C237.696 79.3964 237.696 80.2565 237.696 81.0774V253.482C237.696 256.354 237.709 259.221 237.736 262.083C237.287 262.783 237.048 263.597 237.048 264.428C237.048 265.26 237.287 266.074 237.736 266.774C237.751 269.792 237.743 272.778 237.681 275.757ZM253.654 260.527H245.617C245.57 257.118 245.507 253.709 245.507 250.316V79.0915C245.507 75.2996 245.609 71.3434 240.495 70.8821C236.344 70.5069 231.981 70.8821 227.822 70.8821H118.559V52.6338H263.044V260.527H253.662H253.654ZM263.036 263.334C263.032 263.375 263.032 263.417 263.036 263.459C263.169 264.069 262.7 264.139 263.036 263.334ZM265.976 260.464C266.335 260.386 266.406 260.308 265.976 260.464V260.464Z"
            fill="#1D1D1B" />
    </g>
    <defs>
        <clipPath id="clip0_93_2606">
            <rect width="338" height="338" fill="white" />
        </clipPath>
    </defs>
</svg>