<svg width="225" height="72" viewBox="0 0 225 72" fill="none" xmlns="http://www.w3.org/2000/svg">
<g clip-path="url(#clip0_674_458)">
<path d="M71.9225 0H0V72H71.9225V0Z" fill="#F7A70D"/>
<path d="M52.2503 31.7899C47.3953 30.5417 46.2015 29.9441 46.2015 28.0983V28.0186C46.2015 26.6907 47.4351 25.562 49.7963 25.562C52.4345 25.7361 54.9589 26.7034 57.0389 28.3373L60.2491 23.6763C57.2925 21.313 53.6058 20.0546 49.8228 20.1175C44.0924 20.1175 40.0068 23.4771 40.0068 28.5764V28.656C40.0068 34.2333 43.6546 35.8003 49.2922 37.2344C53.988 38.4428 54.9431 39.2396 54.9431 40.8065V40.8862C54.9431 42.5328 53.4176 43.5421 50.9636 43.5421C47.8443 43.4975 44.8561 42.2791 42.5934 40.1293L42.4608 40.0231C42.4608 40.0231 42.0761 39.6778 41.8108 39.4122C41.7036 39.3107 41.606 39.1995 41.519 39.0802C41.0057 41.0278 40.1476 42.8673 38.9854 44.5114C39.2109 44.7239 39.4496 44.9098 39.6884 45.109C42.8684 47.6233 46.8053 48.9853 50.8575 48.9733C56.9063 48.9733 61.1511 45.8526 61.1511 40.2754V40.1957C61.1378 35.3089 57.941 33.2639 52.2503 31.7899Z" fill="white"/>
<path d="M45.8832 53.4749L30.7744 41.1651C29.1159 42.6382 26.9628 43.4299 24.7461 43.3816C22.5294 43.3333 20.4128 42.4486 18.8199 40.9046C17.227 39.3607 16.2754 37.2714 16.1557 35.0551C16.0359 32.8387 16.7568 30.6589 18.174 28.9519C19.5913 27.245 21.6003 26.1369 23.7988 25.8495C25.9973 25.5621 28.2232 26.1166 30.0307 27.4021C31.8383 28.6875 33.0941 30.609 33.5468 32.7818C33.9996 34.9546 33.6158 37.2185 32.4723 39.1201L36.8763 42.7719C38.5406 40.365 39.4294 37.5059 39.4231 34.5786C39.4232 31.4097 38.3883 28.3277 36.4761 25.8024C34.5638 23.2771 31.8793 21.4469 28.8315 20.5909C25.7837 19.7349 22.5399 19.8999 19.5946 21.0609C16.6492 22.2219 14.1638 24.3151 12.5173 27.0215C10.8707 29.7279 10.1532 32.8991 10.4743 36.0516C10.7953 39.2041 12.1372 42.1651 14.2954 44.4832C16.4537 46.8014 19.3099 48.3495 22.4286 48.8916C25.5474 49.4337 28.7578 48.9401 31.5703 47.486L45.4454 54.0592L45.8832 53.4749Z" fill="white"/>
<path d="M83.9277 23.9961H89.2337V48.0049H83.9277V23.9961Z" fill="white"/>
<path d="M92.4697 34.8711H103.082V39.8375H92.4697V34.8711Z" fill="white"/>
<path d="M105.204 36.0667V36.0003C105.192 34.3516 105.509 32.7171 106.139 31.1936C106.769 29.6701 107.697 28.2885 108.87 27.1307C110.042 25.973 111.435 25.0626 112.966 24.4534C114.496 23.8442 116.133 23.5486 117.78 23.5842C121.229 23.4048 124.61 24.5873 127.198 26.8775L123.868 30.8612C122.184 29.2553 119.933 28.3817 117.607 28.4311C115.706 28.514 113.914 29.3468 112.624 30.7476C111.335 32.1485 110.651 34.0035 110.723 35.9073V35.9737C110.664 36.959 110.809 37.9458 111.149 38.8725C111.488 39.7992 112.015 40.6459 112.696 41.3599C113.376 42.0738 114.197 42.6397 115.106 43.0221C116.015 43.4046 116.993 43.5954 117.979 43.5827C119.746 43.6365 121.485 43.135 122.953 42.1486V38.7358H117.647V34.181H128.06V44.6052C125.215 47.076 121.572 48.4301 117.806 48.4164C110.351 48.4164 105.204 43.1711 105.204 36.0667Z" fill="white"/>
<path d="M140.065 23.8223H144.933L155.2 48.0038H149.695L147.507 42.6124H137.359L135.17 48.0038H129.798L140.065 23.8223ZM145.61 37.9514L142.426 30.1697L139.282 37.9514H145.61Z" fill="white"/>
<path d="M156.129 37.7135V23.9961H161.435V37.5807C161.435 41.4848 163.385 43.5033 166.608 43.5033C169.832 43.5033 171.782 41.5512 171.782 37.7534V23.9961H177.088V37.5409C177.088 44.8179 173.015 48.3768 166.582 48.3768C160.148 48.3768 156.129 44.7781 156.129 37.7135Z" fill="white"/>
<path d="M180.098 36.0655V35.9991C180.085 34.3516 180.403 32.7182 181.031 31.1956C181.66 29.673 182.588 28.292 183.759 27.1344C184.93 25.9769 186.321 25.0661 187.85 24.4562C189.379 23.8462 191.014 23.5493 192.66 23.5831C196.11 23.3993 199.493 24.5824 202.078 26.8763L198.762 30.8601C197.077 29.2541 194.826 28.3805 192.501 28.43C190.598 28.5094 188.805 29.3411 187.514 30.7428C186.223 32.1444 185.541 34.0014 185.616 35.9062V35.9726C185.558 36.9579 185.703 37.9447 186.042 38.8714C186.382 39.7981 186.908 40.6448 187.589 41.3587C188.27 42.0727 189.09 42.6385 189.999 43.021C190.908 43.4034 191.886 43.5943 192.872 43.5816C194.635 43.6371 196.371 43.1353 197.833 42.1474V38.7347H192.527V34.1799H202.954V44.6041C200.114 47.075 196.475 48.4293 192.713 48.4152C185.232 48.4152 180.098 43.1699 180.098 36.0655Z" fill="white"/>
<path d="M206.747 23.9961H224.827V28.6969H211.987V33.5704H223.288V38.258H211.987V43.3041H225V48.0049H206.747V23.9961Z" fill="white"/>
</g>
<defs>
<clipPath id="clip0_674_458">
<rect width="225" height="72" fill="white"/>
</clipPath>
</defs>
</svg>
