<svg width="225" height="72" viewBox="0 0 225 72" fill="none" xmlns="http://www.w3.org/2000/svg">
<g clip-path="url(#clip0_93_1089)">
<path d="M71.9225 0H0V72H71.9225V0Z" fill="#F7A70D"/>
<path d="M52.2493 31.7909C47.3944 30.5427 46.2005 29.9451 46.2005 28.0993V28.0196C46.2005 26.6917 47.4341 25.5629 49.7953 25.5629C52.4336 25.7371 54.9579 26.7044 57.038 28.3383L60.2481 23.6773C57.2915 21.3139 53.6048 20.0555 49.8218 20.1185C44.0914 20.1185 40.0058 23.4781 40.0058 28.5773V28.657C40.0058 34.2343 43.6536 35.8012 49.2912 37.2354C53.987 38.4438 54.9421 39.2406 54.9421 40.8075V40.8872C54.9421 42.5338 53.4166 43.543 50.9626 43.543C47.8434 43.4985 44.8552 42.2801 42.5924 40.1303L42.4598 40.024C42.4598 40.024 42.0751 39.6788 41.8098 39.4132C41.7027 39.3116 41.605 39.2005 41.518 39.0812C41.0047 41.0287 40.1466 42.8683 38.9844 44.5124C39.2099 44.7249 39.4486 44.9108 39.6874 45.11C42.8674 47.6243 46.8043 48.9863 50.8565 48.9742C56.9053 48.9742 61.1501 45.8536 61.1501 40.2763V40.1967C61.1368 35.3099 57.94 33.2649 52.2493 31.7909Z" fill="white"/>
<path d="M45.8822 53.4759L30.7734 41.1661C29.1149 42.6392 26.9618 43.4308 24.7451 43.3825C22.5285 43.3342 20.4118 42.4496 18.8189 40.9056C17.226 39.3617 16.2744 37.2724 16.1547 35.056C16.0349 32.8397 16.7558 30.6598 18.1731 28.9529C19.5903 27.2459 21.5993 26.1379 23.7978 25.8505C25.9964 25.5631 28.2222 26.1176 30.0298 27.4031C31.8373 28.6885 33.0931 30.6099 33.5459 32.7828C33.9986 34.9556 33.6148 37.2194 32.4713 39.1211L36.8753 42.7729C38.5396 40.366 39.4284 37.5069 39.4222 34.5796C39.4222 31.4107 38.3873 28.3287 36.4751 25.8034C34.5629 23.2781 31.8783 21.4479 28.8305 20.5919C25.7827 19.7358 22.539 19.9009 19.5936 21.0619C16.6482 22.2228 14.1629 24.3161 12.5163 27.0225C10.8697 29.7289 10.1522 32.9 10.4733 36.0526C10.7943 39.2051 12.1362 42.1661 14.2944 44.4842C16.4527 46.8023 19.3089 48.3504 22.4277 48.8926C25.5465 49.4347 28.7568 48.9411 31.5693 47.487L45.4444 54.0602L45.8822 53.4759Z" fill="white"/>
<path d="M83.9277 23.9951H89.2337V48.004H83.9277V23.9951Z" fill="black"/>
<path d="M92.4688 34.8711H103.081V39.8375H92.4688V34.8711Z" fill="black"/>
<path d="M105.203 36.0667V36.0003C105.191 34.3516 105.509 32.7171 106.138 31.1936C106.768 29.6701 107.696 28.2885 108.869 27.1307C110.042 25.973 111.434 25.0626 112.965 24.4534C114.495 23.8442 116.132 23.5486 117.779 23.5842C121.228 23.4048 124.609 24.5873 127.197 26.8775L123.867 30.8612C122.183 29.2553 119.932 28.3817 117.606 28.4311C115.705 28.514 113.913 29.3468 112.624 30.7476C111.334 32.1485 110.65 34.0035 110.722 35.9073V35.9737C110.663 36.959 110.808 37.9458 111.148 38.8725C111.487 39.7992 112.014 40.6459 112.695 41.3599C113.375 42.0738 114.196 42.6397 115.105 43.0221C116.014 43.4046 116.992 43.5954 117.978 43.5827C119.745 43.6365 121.484 43.135 122.952 42.1486V38.7358H117.646V34.181H128.059V44.6052C125.214 47.076 121.571 48.4301 117.805 48.4164C110.35 48.4164 105.203 43.1711 105.203 36.0667Z" fill="black"/>
<path d="M140.064 23.8232H144.932L155.199 48.0047H149.694L147.506 42.6134H137.358L135.169 48.0047H129.797L140.064 23.8232ZM145.609 37.9523L142.425 30.1707L139.281 37.9523H145.609Z" fill="black"/>
<path d="M156.129 37.7126V23.9951H161.435V37.5798C161.435 41.4839 163.385 43.5023 166.608 43.5023C169.832 43.5023 171.782 41.5503 171.782 37.7524V23.9951H177.088V37.5399C177.088 44.817 173.015 48.3758 166.582 48.3758C160.148 48.3758 156.129 44.7771 156.129 37.7126Z" fill="black"/>
<path d="M180.098 36.0664V36C180.085 34.3524 180.403 32.719 181.031 31.1964C181.66 29.6738 182.588 28.2928 183.759 27.1353C184.93 25.9777 186.321 25.067 187.85 24.457C189.379 23.847 191.014 23.5501 192.66 23.5839C196.11 23.4001 199.493 24.5832 202.078 26.8771L198.762 30.8609C197.077 29.255 194.826 28.3814 192.501 28.4308C190.598 28.5102 188.805 29.342 187.514 30.7436C186.223 32.1452 185.541 34.0022 185.616 35.907V35.9734C185.558 36.9587 185.703 37.9455 186.042 38.8722C186.382 39.7989 186.908 40.6456 187.589 41.3596C188.27 42.0735 189.09 42.6394 189.999 43.0218C190.908 43.4042 191.886 43.5951 192.872 43.5824C194.635 43.6379 196.371 43.1361 197.833 42.1482V38.7355H192.527V34.1807H202.954V44.6049C200.114 47.0758 196.475 48.4302 192.713 48.416C185.232 48.416 180.098 43.1707 180.098 36.0664Z" fill="black"/>
<path d="M206.746 23.9951H224.826V28.696H211.986V33.5694H223.287V38.257H211.986V43.3031H224.999V48.004H206.746V23.9951Z" fill="black"/>
</g>
<defs>
<clipPath id="clip0_93_1089">
<rect width="225" height="72" fill="white"/>
</clipPath>
</defs>
</svg>
