<svg width="225" height="72" viewBox="0 0 225 72" fill="none" xmlns="http://www.w3.org/2000/svg">
<g clip-path="url(#clip0_93_1068)">
<path d="M71.9225 0H0V72H71.9225V0Z" fill="#F7A70D"/>
<path d="M52.2493 31.7904C47.3944 30.5422 46.2005 29.9446 46.2005 28.0988V28.0191C46.2005 26.6912 47.4341 25.5625 49.7953 25.5625C52.4336 25.7366 54.9579 26.7039 57.038 28.3378L60.2481 23.6768C57.2915 21.3135 53.6048 20.0551 49.8218 20.118C44.0914 20.118 40.0058 23.4776 40.0058 28.5768V28.6565C40.0058 34.2338 43.6536 35.8007 49.2912 37.2349C53.987 38.4433 54.9421 39.2401 54.9421 40.807V40.8867C54.9421 42.5333 53.4166 43.5425 50.9626 43.5425C47.8434 43.498 44.8552 42.2796 42.5924 40.1298L42.4598 40.0235C42.4598 40.0235 42.0751 39.6783 41.8098 39.4127C41.7027 39.3111 41.605 39.2 41.518 39.0807C41.0047 41.0282 40.1466 42.8678 38.9844 44.5119C39.2099 44.7244 39.4486 44.9103 39.6874 45.1095C42.8674 47.6238 46.8043 48.9858 50.8565 48.9737C56.9053 48.9737 61.1501 45.8531 61.1501 40.2758V40.1962C61.1368 35.3094 57.94 33.2644 52.2493 31.7904Z" fill="white"/>
<path d="M45.8822 53.4754L30.7734 41.1656C29.1149 42.6387 26.9618 43.4303 24.7451 43.3821C22.5285 43.3338 20.4118 42.4491 18.8189 40.9051C17.226 39.3612 16.2744 37.2719 16.1547 35.0555C16.0349 32.8392 16.7558 30.6593 18.1731 28.9524C19.5903 27.2454 21.5993 26.1374 23.7978 25.85C25.9964 25.5626 28.2222 26.1171 30.0298 27.4026C31.8373 28.688 33.0931 30.6095 33.5459 32.7823C33.9986 34.9551 33.6148 37.2189 32.4713 39.1206L36.8753 42.7724C38.5396 40.3655 39.4284 37.5064 39.4222 34.5791C39.4222 31.4102 38.3873 28.3282 36.4751 25.8029C34.5629 23.2776 31.8783 21.4474 28.8305 20.5914C25.7827 19.7353 22.539 19.9004 19.5936 21.0614C16.6482 22.2224 14.1629 24.3156 12.5163 27.022C10.8697 29.7284 10.1522 32.8996 10.4733 36.0521C10.7943 39.2046 12.1362 42.1656 14.2944 44.4837C16.4527 46.8018 19.3089 48.3499 22.4277 48.8921C25.5465 49.4342 28.7568 48.9406 31.5693 47.4865L45.4444 54.0597L45.8822 53.4754Z" fill="white"/>
<path d="M83.9277 23.9956H89.2337V48.0045H83.9277V23.9956Z" fill="black"/>
<path d="M92.4688 34.8711H103.081V39.8375H92.4688V34.8711Z" fill="black"/>
<path d="M105.203 36.0662V35.9998C105.191 34.3511 105.509 32.7166 106.138 31.1931C106.768 29.6696 107.696 28.288 108.869 27.1303C110.042 25.9725 111.434 25.0621 112.965 24.4529C114.495 23.8437 116.132 23.5481 117.779 23.5837C121.228 23.4043 124.609 24.5868 127.197 26.877L123.867 30.8607C122.183 29.2548 119.932 28.3812 117.606 28.4306C115.705 28.5135 113.913 29.3463 112.624 30.7471C111.334 32.148 110.65 34.003 110.722 35.9068V35.9732C110.663 36.9585 110.808 37.9453 111.148 38.872C111.487 39.7987 112.014 40.6455 112.695 41.3594C113.375 42.0734 114.196 42.6392 115.105 43.0216C116.014 43.4041 116.992 43.5949 117.978 43.5822C119.745 43.636 121.484 43.1345 122.952 42.1481V38.7353H117.646V34.1805H128.059V44.6047C125.214 47.0755 121.571 48.4296 117.805 48.4159C110.35 48.4159 105.203 43.1706 105.203 36.0662Z" fill="black"/>
<path d="M140.064 23.8228H144.932L155.199 48.0042H149.694L147.506 42.6129H137.358L135.169 48.0042H129.797L140.064 23.8228ZM145.609 37.9519L142.425 30.1702L139.281 37.9519H145.609Z" fill="black"/>
<path d="M156.129 37.7131V23.9956H161.435V37.5803C161.435 41.4844 163.385 43.5028 166.608 43.5028C169.832 43.5028 171.782 41.5508 171.782 37.7529V23.9956H177.088V37.5404C177.088 44.8174 173.015 48.3763 166.582 48.3763C160.148 48.3763 156.129 44.7776 156.129 37.7131Z" fill="black"/>
<path d="M180.098 36.0665V36.0001C180.085 34.3526 180.403 32.7192 181.031 31.1966C181.66 29.6739 182.588 28.293 183.759 27.1354C184.93 25.9778 186.321 25.0671 187.85 24.4571C189.379 23.8471 191.014 23.5502 192.66 23.584C196.11 23.4003 199.493 24.5833 202.078 26.8773L198.762 30.8611C197.077 29.2551 194.826 28.3815 192.501 28.431C190.598 28.5104 188.805 29.3421 187.514 30.7437C186.223 32.1454 185.541 34.0023 185.616 35.9072V35.9736C185.558 36.9589 185.703 37.9456 186.042 38.8723C186.382 39.799 186.908 40.6458 187.589 41.3597C188.27 42.0737 189.09 42.6395 189.999 43.022C190.908 43.4044 191.886 43.5952 192.872 43.5826C194.635 43.6381 196.371 43.1363 197.833 42.1484V38.7356H192.527V34.1809H202.954V44.6051C200.114 47.076 196.475 48.4303 192.713 48.4162C185.232 48.4162 180.098 43.1709 180.098 36.0665Z" fill="black"/>
<path d="M206.746 23.9956H224.826V28.6965H211.986V33.5699H223.287V38.2575H211.986V43.3036H224.999V48.0045H206.746V23.9956Z" fill="black"/>
</g>
<defs>
<clipPath id="clip0_93_1068">
<rect width="225" height="72" fill="white"/>
</clipPath>
</defs>
</svg>
