<svg width="225" height="72" viewBox="0 0 225 72" fill="none" xmlns="http://www.w3.org/2000/svg">
<g clip-path="url(#clip0_93_197)">
<path d="M71.9225 0H0V72H71.9225V0Z" fill="#F7A70D"/>
<path d="M52.2513 31.7909C47.3963 30.5427 46.2025 29.9451 46.2025 28.0993V28.0196C46.2025 26.6917 47.4361 25.5629 49.7973 25.5629C52.4355 25.7371 54.9598 26.7044 57.0399 28.3383L60.25 23.6773C57.2934 21.3139 53.6068 20.0555 49.8238 20.1185C44.0933 20.1185 40.0077 23.4781 40.0077 28.5773V28.657C40.0077 34.2343 43.6556 35.8012 49.2932 37.2354C53.989 38.4438 54.9441 39.2406 54.9441 40.8075V40.8872C54.9441 42.5338 53.4186 43.543 50.9646 43.543C47.8453 43.4985 44.8571 42.2801 42.5944 40.1303L42.4617 40.024C42.4617 40.024 42.0771 39.6788 41.8118 39.4132C41.7046 39.3116 41.6069 39.2005 41.5199 39.0812C41.0067 41.0287 40.1486 42.8683 38.9863 44.5124C39.2118 44.7249 39.4506 44.9108 39.6894 45.11C42.8694 47.6243 46.8062 48.9863 50.8585 48.9742C56.9073 48.9742 61.1521 45.8536 61.1521 40.2763V40.1967C61.1388 35.3099 57.9419 33.2649 52.2513 31.7909Z" fill="white"/>
<path d="M45.8841 53.4759L30.7754 41.1661C29.1169 42.6392 26.9638 43.4308 24.7471 43.3825C22.5304 43.3342 20.4138 42.4496 18.8209 40.9056C17.228 39.3617 16.2764 37.2724 16.1566 35.056C16.0369 32.8397 16.7578 30.6598 18.175 28.9529C19.5923 27.2459 21.6012 26.1379 23.7998 25.8505C25.9983 25.5631 28.2242 26.1176 30.0317 27.4031C31.8392 28.6885 33.0951 30.6099 33.5478 32.7828C34.0006 34.9556 33.6168 37.2194 32.4733 39.1211L36.8772 42.7729C38.5416 40.366 39.4303 37.5069 39.4241 34.5796C39.4242 31.4107 38.3892 28.3287 36.477 25.8034C34.5648 23.2781 31.8802 21.4479 28.8325 20.5919C25.7847 19.7358 22.5409 19.9009 19.5955 21.0619C16.6502 22.2228 14.1648 24.3161 12.5182 27.0225C10.8717 29.7289 10.1542 32.9 10.4752 36.0526C10.7963 39.2051 12.1382 42.1661 14.2964 44.4842C16.4546 46.8023 19.3108 48.3504 22.4296 48.8926C25.5484 49.4347 28.7587 48.9411 31.5713 47.487L45.4464 54.0602L45.8841 53.4759Z" fill="white"/>
<path d="M83.9277 23.9951H89.2337V48.004H83.9277V23.9951Z" fill="black"/>
<path d="M92.4707 34.8711H103.083V39.8375H92.4707V34.8711Z" fill="black"/>
<path d="M105.203 36.0667V36.0003C105.191 34.3516 105.509 32.7171 106.138 31.1936C106.768 29.6701 107.696 28.2885 108.869 27.1307C110.042 25.973 111.434 25.0626 112.965 24.4534C114.495 23.8442 116.132 23.5486 117.779 23.5842C121.228 23.4048 124.609 24.5873 127.197 26.8775L123.867 30.8612C122.183 29.2553 119.932 28.3817 117.606 28.4311C115.705 28.514 113.913 29.3468 112.624 30.7476C111.334 32.1485 110.65 34.0035 110.722 35.9073V35.9737C110.663 36.959 110.808 37.9458 111.148 38.8725C111.487 39.7992 112.014 40.6459 112.695 41.3599C113.375 42.0738 114.196 42.6397 115.105 43.0221C116.014 43.4046 116.992 43.5954 117.978 43.5827C119.745 43.6365 121.484 43.135 122.952 42.1486V38.7358H117.646V34.181H128.059V44.6052C125.214 47.076 121.571 48.4301 117.805 48.4164C110.35 48.4164 105.203 43.1711 105.203 36.0667Z" fill="black"/>
<path d="M140.064 23.8232H144.932L155.199 48.0047H149.694L147.506 42.6134H137.358L135.169 48.0047H129.797L140.064 23.8232ZM145.609 37.9523L142.425 30.1707L139.281 37.9523H145.609Z" fill="black"/>
<path d="M156.129 37.7126V23.9951H161.435V37.5798C161.435 41.4839 163.385 43.5023 166.608 43.5023C169.832 43.5023 171.782 41.5503 171.782 37.7524V23.9951H177.088V37.5399C177.088 44.817 173.015 48.3758 166.582 48.3758C160.148 48.3758 156.129 44.7771 156.129 37.7126Z" fill="black"/>
<path d="M180.098 36.0665V36.0001C180.085 34.3526 180.403 32.7192 181.031 31.1966C181.66 29.6739 182.588 28.293 183.759 27.1354C184.93 25.9778 186.321 25.0671 187.85 24.4571C189.379 23.8471 191.014 23.5502 192.66 23.584C196.11 23.4003 199.493 24.5833 202.078 26.8773L198.762 30.8611C197.077 29.2551 194.826 28.3815 192.501 28.431C190.598 28.5104 188.805 29.3421 187.514 30.7437C186.223 32.1454 185.541 34.0023 185.616 35.9072V35.9736C185.558 36.9589 185.703 37.9456 186.042 38.8723C186.382 39.799 186.908 40.6458 187.589 41.3597C188.27 42.0737 189.09 42.6395 189.999 43.022C190.908 43.4044 191.886 43.5952 192.872 43.5826C194.635 43.6381 196.371 43.1363 197.833 42.1484V38.7356H192.527V34.1809H202.954V44.6051C200.114 47.076 196.475 48.4303 192.713 48.4162C185.232 48.4162 180.098 43.1709 180.098 36.0665Z" fill="black"/>
<path d="M206.748 23.9951H224.828V28.696H211.988V33.5694H223.289V38.257H211.988V43.3031H225.001V48.004H206.748V23.9951Z" fill="black"/>
</g>
<defs>
<clipPath id="clip0_93_197">
<rect width="225" height="72" fill="white"/>
</clipPath>
</defs>
</svg>
