<svg width="42" height="42" viewBox="0 0 42 42" fill="none" xmlns="http://www.w3.org/2000/svg">
<g clip-path="url(#clip0_93_3232)">
<path d="M2.1 42H5.6C6.49598 41.9959 7.2907 41.4238 7.5789 40.5755L23.1 39.9C23.947 39.9 26.6133 39.6578 27.5968 39.1125C30.7552 37.3625 40.586 32.5759 40.7428 32.4968C41.8868 31.7996 42.3207 30.3518 41.7486 29.1404C41.1764 27.929 39.7826 27.3444 38.5175 27.7851L25.76 32.7684C25.546 32.8395 25.3219 32.8757 25.0964 32.8755H24.6911C24.649 32.4063 24.5039 31.9522 24.2662 31.5455L24.2039 31.4419C23.4434 30.1772 22.0767 29.4027 20.601 29.4H16.94C15.6487 29.3964 14.3964 28.9568 13.3861 28.1526C12.1277 27.1513 10.5681 26.6043 8.96 26.6H7.5712C7.27562 25.7639 6.48675 25.2036 5.6 25.2H2.1C0.940202 25.2 0 26.1402 0 27.3V39.9C0 41.0598 0.940202 42 2.1 42ZM12.5139 29.2474C13.7723 30.2486 15.3319 30.7956 16.94 30.8H20.601C21.585 30.801 22.4966 31.3173 23.0034 32.1608L23.0657 32.2637C23.1774 32.4523 23.254 32.6595 23.2918 32.8755H18.8755C17.4931 32.8742 16.1414 33.2835 14.9919 34.0515L14.4795 34.3931C14.2711 34.5325 14.1528 34.7725 14.1693 35.0227C14.1859 35.273 14.3346 35.4954 14.5596 35.6062C14.7846 35.717 15.0516 35.6994 15.26 35.56L15.7724 35.2184C16.6919 34.6041 17.7732 34.2766 18.879 34.2776H25.1013C25.4892 34.277 25.8742 34.2122 26.2409 34.0858L38.9977 29.1032C39.4966 28.9371 40.0458 29.1098 40.3599 29.5316C40.5678 29.8057 40.6484 30.1559 40.5811 30.4934C40.5249 30.8102 40.3429 31.0907 40.0764 31.2711C39.6704 31.4685 30.1126 36.12 26.922 37.8896C25.6761 38.2833 24.3786 38.4899 23.072 38.5028L7.7 39.1692V28H8.96C10.2513 28.0035 11.5036 28.4431 12.5139 29.2474ZM1.4 27.3C1.4 26.9134 1.7134 26.6 2.1 26.6H5.6C5.9866 26.6 6.3 26.9134 6.3 27.3V39.9C6.3 40.2866 5.9866 40.6 5.6 40.6H2.1C1.7134 40.6 1.4 40.2866 1.4 39.9V27.3Z" fill="#F7A600"/>
<path d="M25.9 15.3998C27.4464 15.3998 28.7 14.1462 28.7 12.5998C28.7 11.0534 27.4464 9.7998 25.9 9.7998C24.3536 9.7998 23.1 11.0534 23.1 12.5998C23.1 14.1462 24.3536 15.3998 25.9 15.3998ZM25.9 11.1998C26.6732 11.1998 27.3 11.8266 27.3 12.5998C27.3 13.373 26.6732 13.9998 25.9 13.9998C25.1268 13.9998 24.5 13.373 24.5 12.5998C24.5 11.8266 25.1268 11.1998 25.9 11.1998Z" fill="#F7A600"/>
<path d="M16.5305 24.6749C16.6185 25.1919 16.9872 25.6168 17.4867 25.7767C17.6269 25.8223 17.7733 25.8459 17.9207 25.8467C18.291 25.8464 18.6463 25.7003 18.9098 25.44L20.4659 23.9C20.5651 23.8016 20.6909 23.7345 20.8278 23.7068L22.1578 23.4443C22.2313 23.5843 22.2978 23.7054 22.3573 23.8055C22.6091 24.2379 23.0714 24.5044 23.5718 24.5055H23.8V25.2055C23.8 25.9787 24.4268 26.6055 25.2 26.6055H26.6C27.3732 26.6055 28 25.9787 28 25.2055V24.4999H28.231C28.7319 24.4991 29.1947 24.2327 29.4469 23.7999C29.5043 23.6998 29.5715 23.5773 29.645 23.4415L30.9673 23.7026C31.1071 23.7305 31.2355 23.7992 31.3362 23.9L32.8923 25.44C33.1553 25.6995 33.5099 25.8448 33.8793 25.8446C34.0267 25.8438 34.1731 25.8202 34.3133 25.7746C34.8138 25.614 35.1829 25.1876 35.2702 24.6693L35.6622 22.3243C35.7368 21.8736 35.6989 21.4114 35.5516 20.9789L34.51 17.859C34.3354 17.3505 34.0198 16.9021 33.6 16.5661L32.06 15.3488C32.2519 13.5906 32.25 11.8167 32.0544 10.0589C31.6015 6.00101 28.952 2.45341 27.4141 0.699915C27.0256 0.274701 26.4763 0.0324707 25.9003 0.0324707C25.3244 0.0324707 24.775 0.274701 24.3866 0.699915C22.8466 2.45341 20.1985 6.00102 19.7512 10.0582C19.5554 11.8162 19.5538 13.5904 19.7463 15.3488L18.2063 16.5682C17.7862 16.9056 17.4706 17.3554 17.2963 17.8653L16.2547 20.9768C16.1065 21.4105 16.068 21.8742 16.1427 22.3264L16.5305 24.6749ZM25.2 25.1999V18.8999C25.2 18.5133 25.5134 18.1999 25.9 18.1999C26.2866 18.1999 26.6 18.5133 26.6 18.8999V25.1999H25.2ZM32.7215 17.6616C32.9327 17.8302 33.092 18.0548 33.1814 18.3098L34.2258 21.429C34.2996 21.643 34.3189 21.8721 34.2818 22.0954L33.8758 24.4432L32.3239 22.9032C32.0286 22.6086 31.6528 22.408 31.2438 22.3264L30.2736 22.1346C30.9924 20.4733 31.5135 18.7333 31.8262 16.9504L32.7215 17.6616ZM25.4401 1.62251C25.5539 1.4857 25.7227 1.40657 25.9007 1.40657C26.0787 1.40657 26.2475 1.4857 26.3613 1.62251C27.4044 2.80662 28.3147 4.1014 29.0759 5.48372C28.1118 6.04103 27.0133 6.32333 25.9 6.29991C24.7868 6.32376 23.6883 6.04194 22.7241 5.48512C23.4857 4.10227 24.3964 2.80701 25.4401 1.62251ZM21.14 10.2122C21.2865 9.01495 21.6119 7.84646 22.1053 6.74582C23.2629 7.39547 24.5728 7.72481 25.9 7.69991C27.2263 7.72431 28.5351 7.39499 29.6919 6.74582C30.1863 7.84679 30.5126 9.01575 30.66 10.2136C31.1986 14.6568 30.3502 19.1578 28.231 23.0999H28V18.8999C28 17.7401 27.0598 16.7999 25.9 16.7999C24.7402 16.7999 23.8 17.7401 23.8 18.8999V23.0999H23.5669C21.45 19.1565 20.6024 14.6555 21.14 10.2122ZM17.57 21.4248L18.6109 18.3168C18.6993 18.0603 18.8582 17.834 19.0694 17.6637L19.9682 16.9532C20.2808 18.7362 20.8019 20.4762 21.5208 22.1374L20.5457 22.3299C20.1394 22.4118 19.7662 22.6114 19.4726 22.9039L17.9046 24.4439L17.5126 22.0989C17.4767 21.8725 17.4983 21.6407 17.5756 21.4248H17.57Z" fill="#F7A600"/>
<path d="M26.6 27.9998C26.6 27.6132 26.2866 27.2998 25.9 27.2998C25.5134 27.2998 25.2 27.6132 25.2 27.9998V28.6998C25.2 29.0864 25.5134 29.3998 25.9 29.3998C26.2866 29.3998 26.6 29.0864 26.6 28.6998V27.9998Z" fill="#F7A600"/>
<path d="M25.9 31.4999C26.2866 31.4999 26.6 31.1865 26.6 30.7999C26.6 30.4133 26.2866 30.0999 25.9 30.0999C25.5134 30.0999 25.2 30.4133 25.2 30.7999C25.2 31.1865 25.5134 31.4999 25.9 31.4999Z" fill="#F7A600"/>
<path d="M21.7 24.5C21.3134 24.5 21 24.8134 21 25.2V27.3C21 27.6866 21.3134 28 21.7 28C22.0866 28 22.4 27.6866 22.4 27.3V25.2C22.4 24.8134 22.0866 24.5 21.7 24.5Z" fill="#F7A600"/>
<path d="M29.4 25.2V27.3C29.4 27.6866 29.7134 28 30.1 28C30.4866 28 30.8 27.6866 30.8 27.3V25.2C30.8 24.8134 30.4866 24.5 30.1 24.5C29.7134 24.5 29.4 24.8134 29.4 25.2Z" fill="#F7A600"/>
</g>
<defs>
<clipPath id="clip0_93_3232">
<rect width="42" height="42" fill="white"/>
</clipPath>
</defs>
</svg>
