<svg width="28" height="28" viewBox="0 0 28 28" fill="none" xmlns="http://www.w3.org/2000/svg">
<g clip-path="url(#clip0_93_3163)">
<path d="M28 13.9995C28 13.3338 27.647 12.7273 27.0542 12.3755L25.495 11.4583C26.0957 11.1016 26.6309 10.7835 27.0554 10.5309C27.6471 10.1779 28 9.57138 28 8.90827C28 8.24516 27.647 7.6386 27.0554 7.28494C25.1065 6.12588 18.498 2.1987 15.2404 0.331193C14.486 -0.101992 13.5687 -0.119353 12.7533 0.334951C12.7533 0.334951 3.89395 5.53866 0.945776 7.28441C0.353003 7.6361 0 8.24265 0 8.90827C0 9.57138 0.353003 10.1779 0.944583 10.5316C1.36906 10.784 1.9042 11.1021 2.50467 11.4585L0.945836 12.3755C0.353003 12.7273 0 13.3338 0 13.9995C0 14.6626 0.353003 15.2691 0.944583 15.6228C1.36906 15.8752 1.9042 16.1932 2.50467 16.5497L0.945836 17.4667C0.353003 17.8185 0 18.425 0 19.0906C0 19.7538 0.353003 20.3603 0.944583 20.714C3.46643 22.2136 9.66478 25.8934 12.7596 27.6677C13.1387 27.8852 13.5688 28.0002 14 28.0002C14.4313 28.0002 14.8614 27.8852 15.2417 27.6671C18.3353 25.8933 24.5336 22.2136 27.0555 20.7133C27.6471 20.3603 28.0001 19.7538 28.0001 19.0906C28.0001 18.425 27.6471 17.8185 27.0542 17.4667L25.4951 16.5495C26.0957 16.1928 26.6309 15.8747 27.0555 15.6221C27.6471 15.2691 28 14.6626 28 13.9995ZM1.59588 9.43941C1.49894 9.38101 1.27271 9.21318 1.27271 8.90934C1.27271 8.60418 1.49768 8.43768 1.59463 8.38046C4.53905 6.63669 13.386 1.44073 13.3848 1.44133C13.79 1.21325 14.2324 1.22196 14.6078 1.43697C17.8567 3.29947 24.459 7.22206 26.4041 8.37921C26.5011 8.43762 26.7273 8.60544 26.7273 8.90928C26.7273 9.21312 26.5011 9.38095 26.4041 9.43876C23.886 10.9364 17.6951 14.6123 14.609 16.381C14.2262 16.5998 13.7726 16.5991 13.3922 16.3816C10.3049 14.6123 4.11398 10.9365 1.59588 9.43941ZM26.4054 18.5622C26.5023 18.6194 26.7273 18.786 26.7273 19.0911C26.7273 19.395 26.5011 19.5628 26.4041 19.6206C23.886 21.1183 17.6951 24.7942 14.609 26.5628C14.2262 26.7816 13.7726 26.7809 13.3922 26.5634C10.3049 24.7942 4.11398 21.1183 1.59588 19.6212C1.49894 19.5628 1.27271 19.395 1.27271 19.0911C1.27271 18.786 1.49768 18.6195 1.59463 18.5622L3.75423 17.2914C6.67323 19.0216 10.5238 21.295 12.7596 22.5768C13.1387 22.7943 13.5688 22.9093 14 22.9093C14.4313 22.9093 14.8614 22.7943 15.2417 22.5762C17.4766 21.2948 21.3268 19.0218 24.2457 17.2914L26.4054 18.5622ZM26.4041 14.5297C23.886 16.0274 17.6951 19.7033 14.609 21.4719C14.2262 21.6907 13.7726 21.6901 13.3922 21.4725C10.3049 19.7032 4.11398 16.0274 1.59588 14.5303C1.49894 14.4719 1.27271 14.3041 1.27271 14.0002C1.27271 13.6951 1.49768 13.5286 1.59463 13.4714L3.75423 12.2006C6.67323 13.9307 10.5238 16.2041 12.7596 17.4859C13.1387 17.7034 13.5688 17.8184 14 17.8184C14.4313 17.8184 14.8614 17.7034 15.2417 17.4853C17.4766 16.2039 21.3268 13.9309 24.2457 12.2005L26.4054 13.4714C26.5024 13.5285 26.7274 13.6951 26.7274 14.0002C26.7273 14.3041 26.5011 14.4719 26.4041 14.5297Z" fill="#F7A600"/>
</g>
<defs>
<clipPath id="clip0_93_3163">
<rect width="28" height="28" fill="white"/>
</clipPath>
</defs>
</svg>
