<svg width="2500" height="2389" viewBox="0 0 2500 2389" fill="none" xmlns="http://www.w3.org/2000/svg">
<path d="M0 277.51C0 197.07 28.154 130.709 84.4595 78.4266C140.765 26.1414 213.965 0 304.054 0C392.536 0 464.124 25.7384 518.822 77.2201C575.128 130.309 603.282 199.484 603.282 284.749C603.282 361.969 575.934 426.318 521.236 477.799C464.93 530.888 390.927 557.432 299.228 557.432H296.815C208.333 557.432 136.745 530.888 82.0463 477.799C27.348 424.71 0 357.946 0 277.51ZM31.3707 2389V777.027H567.085V2389H31.3707ZM863.9 2389H1399.61V1488.9C1399.61 1432.59 1406.05 1389.16 1418.92 1358.59C1441.44 1303.89 1475.63 1257.64 1521.48 1219.84C1567.33 1182.03 1624.84 1163.13 1694.02 1163.13C1874.2 1163.13 1964.29 1284.59 1964.29 1527.51V2389H2500V1464.77C2500 1226.67 2443.69 1046.09 2331.08 923.021C2218.47 799.952 2069.66 738.417 1884.65 738.417C1677.12 738.417 1515.44 827.703 1399.61 1006.27V1011.1H1397.2L1399.61 1006.27V777.027H863.9C867.116 828.506 868.726 988.576 868.726 1257.24C868.726 1525.9 867.116 1903.15 863.9 2389Z" fill="black"/>
</svg>
