<svg width="52" height="51" viewBox="0 0 52 51" fill="none" xmlns="http://www.w3.org/2000/svg">
<g clip-path="url(#clip0_93_1119)">
<rect x="0.693359" y="3.05176e-05" width="50.4082" height="50.4082" rx="25.2041" fill="black"/>
<path d="M25.8974 -6.10352e-05C11.9797 -6.10352e-05 0.693359 11.2863 0.693359 25.204C0.693359 39.1217 11.9797 50.4081 25.8974 50.4081C39.8151 50.4081 51.1015 39.1217 51.1015 25.204C51.1015 11.2863 39.8151 -6.10352e-05 25.8974 -6.10352e-05ZM18.5734 38.1014H12.4351V19.6341H18.5734V38.1014ZM15.5044 17.1124H15.4645C13.4046 17.1124 12.0724 15.6944 12.0724 13.9223C12.0724 12.1101 13.4454 10.7314 15.5452 10.7314C17.645 10.7314 18.9372 12.1101 18.9772 13.9223C18.9772 15.6944 17.645 17.1124 15.5044 17.1124ZM40.707 38.1014H34.5694V28.2218C34.5694 25.739 33.6806 24.0457 31.4597 24.0457C29.764 24.0457 28.7541 25.1879 28.3103 26.2905C28.148 26.6851 28.1084 27.2365 28.1084 27.7884V38.1014H21.9705C21.9705 38.1014 22.0508 21.3666 21.9705 19.6341H28.1084V22.2489C28.9241 20.9905 30.3836 19.2007 33.6403 19.2007C37.6788 19.2007 40.707 21.8401 40.707 27.5123V38.1014Z" fill="white"/>
</g>
<defs>
<clipPath id="clip0_93_1119">
<rect x="0.693359" y="3.05176e-05" width="50.4082" height="50.4082" rx="25.2041" fill="white"/>
</clipPath>
</defs>
</svg>
