<svg width="52" height="51" viewBox="0 0 52 51" fill="none" xmlns="http://www.w3.org/2000/svg">
<g clip-path="url(#clip0_93_1814)">
<rect x="0.694336" y="4.19617e-05" width="50.4082" height="50.4082" rx="25.2041" fill="black"/>
<path d="M25.8984 -3.43323e-05C11.9807 -3.43323e-05 0.694336 11.2863 0.694336 25.204C0.694336 39.1217 11.9807 50.4081 25.8984 50.4081C39.8161 50.4081 51.1025 39.1217 51.1025 25.204C51.1025 11.2863 39.8161 -3.43323e-05 25.8984 -3.43323e-05ZM18.5744 38.1014H12.4361V19.6341H18.5744V38.1014ZM15.5054 17.1124H15.4654C13.4056 17.1124 12.0734 15.6944 12.0734 13.9223C12.0734 12.1101 13.4464 10.7314 15.5462 10.7314C17.646 10.7314 18.9382 12.1101 18.9782 13.9223C18.9782 15.6944 17.646 17.1124 15.5054 17.1124ZM40.708 38.1014H34.5704V28.2219C34.5704 25.739 33.6816 24.0457 31.4607 24.0457C29.765 24.0457 28.7551 25.1879 28.3113 26.2905C28.149 26.6851 28.1094 27.2366 28.1094 27.7884V38.1014H21.9714C21.9714 38.1014 22.0518 21.3667 21.9714 19.6341H28.1094V22.2489C28.9251 20.9905 30.3846 19.2007 33.6412 19.2007C37.6798 19.2007 40.708 21.8401 40.708 27.5123V38.1014Z" fill="white"/>
</g>
<defs>
<clipPath id="clip0_93_1814">
<rect x="0.694336" y="4.19617e-05" width="50.4082" height="50.4082" rx="25.2041" fill="white"/>
</clipPath>
</defs>
</svg>
