<svg width="52" height="51" viewBox="0 0 52 51" fill="none" xmlns="http://www.w3.org/2000/svg">
<g clip-path="url(#clip0_39_101)">
<rect x="0.693848" y="3.05176e-05" width="50.4082" height="50.4082" rx="25.2041" fill="black"/>
<path d="M25.8979 -6.10352e-05C11.9802 -6.10352e-05 0.693848 11.2863 0.693848 25.204C0.693848 39.1217 11.9802 50.4081 25.8979 50.4081C39.8156 50.4081 51.102 39.1217 51.102 25.204C51.102 11.2863 39.8156 -6.10352e-05 25.8979 -6.10352e-05ZM18.5739 38.1014H12.4356V19.6341H18.5739V38.1014ZM15.5049 17.1124H15.4649C13.4051 17.1124 12.0729 15.6944 12.0729 13.9223C12.0729 12.1101 13.4459 10.7314 15.5457 10.7314C17.6455 10.7314 18.9377 12.1101 18.9777 13.9223C18.9777 15.6944 17.6455 17.1124 15.5049 17.1124ZM40.7075 38.1014H34.5699V28.2218C34.5699 25.739 33.6811 24.0457 31.4602 24.0457C29.7645 24.0457 28.7546 25.1879 28.3108 26.2905C28.1485 26.6851 28.1089 27.2365 28.1089 27.7884V38.1014H21.9709C21.9709 38.1014 22.0513 21.3666 21.9709 19.6341H28.1089V22.2489C28.9246 20.9905 30.3841 19.2007 33.6408 19.2007C37.6793 19.2007 40.7075 21.8401 40.7075 27.5123V38.1014Z" fill="white"/>
</g>
<defs>
<clipPath id="clip0_39_101">
<rect x="0.693848" y="3.05176e-05" width="50.4082" height="50.4082" rx="25.2041" fill="white"/>
</clipPath>
</defs>
</svg>
