<svg width="52" height="51" viewBox="0 0 52 51" fill="none" xmlns="http://www.w3.org/2000/svg">
<g clip-path="url(#clip0_93_3043)">
<rect x="0.693848" width="50.4082" height="50.4082" rx="25.2041" fill="black"/>
<path d="M25.8979 -0.00012207C11.9802 -0.00012207 0.693787 11.2863 0.693787 25.204C0.693787 39.1217 11.9802 50.408 25.8979 50.408C39.8156 50.408 51.1019 39.1217 51.1019 25.204C51.1019 11.2863 39.8156 -0.00012207 25.8979 -0.00012207ZM18.5739 38.1014H12.4355V19.634H18.5739V38.1014ZM15.5049 17.1123H15.4649C13.405 17.1123 12.0729 15.6944 12.0729 13.9222C12.0729 12.11 13.4458 10.7313 15.5456 10.7313C17.6455 10.7313 18.9377 12.11 18.9777 13.9222C18.9777 15.6944 17.6455 17.1123 15.5049 17.1123ZM40.7074 38.1014H34.5698V28.2218C34.5698 25.7389 33.6811 24.0456 31.4601 24.0456C29.7645 24.0456 28.7546 25.1878 28.3107 26.2904C28.1485 26.685 28.1088 27.2365 28.1088 27.7884V38.1014H21.9709C21.9709 38.1014 22.0513 21.3666 21.9709 19.634H28.1088V22.2488C28.9245 20.9905 30.384 19.2006 33.6407 19.2006C37.6792 19.2006 40.7074 21.84 40.7074 27.5122V38.1014Z" fill="white"/>
</g>
<defs>
<clipPath id="clip0_93_3043">
<rect x="0.693848" width="50.4082" height="50.4082" rx="25.2041" fill="white"/>
</clipPath>
</defs>
</svg>
