<svg width="18" height="18" viewBox="0 0 18 18" fill="none" xmlns="http://www.w3.org/2000/svg">
<path d="M9.05074 0.265625C4.28696 0.265625 0.423828 4.12875 0.423828 8.89254C0.423828 13.6563 4.28696 17.5194 9.05074 17.5194C13.8145 17.5194 17.6776 13.6563 17.6776 8.89254C17.6776 4.12875 13.8145 0.265625 9.05074 0.265625ZM6.54386 13.3071H4.44281V6.98605H6.54386V13.3071ZM5.4934 6.12291H5.47971C4.77467 6.12291 4.31868 5.63757 4.31868 5.03099C4.31868 4.41072 4.78862 3.9388 5.50736 3.9388C6.22609 3.9388 6.66839 4.41072 6.68208 5.03099C6.68208 5.63757 6.22609 6.12291 5.4934 6.12291ZM14.1198 13.3071H12.019V9.92548C12.019 9.07564 11.7148 8.49605 10.9546 8.49605C10.3742 8.49605 10.0285 8.88701 9.87662 9.26441C9.82107 9.39947 9.80752 9.58823 9.80752 9.77713V13.3071H7.7066C7.7066 13.3071 7.73411 7.57907 7.7066 6.98605H9.80752V7.88104C10.0867 7.45033 10.5863 6.83769 11.701 6.83769C13.0833 6.83769 14.1198 7.74111 14.1198 9.68262V13.3071Z" fill="white"/>
</svg>
