<svg width="52" height="51" viewBox="0 0 52 51" fill="none" xmlns="http://www.w3.org/2000/svg">
<path d="M25.8974 0C11.9797 0 0.693359 11.2864 0.693359 25.2041C0.693359 39.1218 11.9797 50.4082 25.8974 50.4082C39.8151 50.4082 51.1015 39.1218 51.1015 25.2041C51.1015 11.2864 39.8151 0 25.8974 0ZM18.5734 38.1015H12.4351V19.6342H18.5734V38.1015ZM15.5044 17.1124H15.4645C13.4046 17.1124 12.0724 15.6945 12.0724 13.9223C12.0724 12.1102 13.4454 10.7314 15.5452 10.7314C17.645 10.7314 18.9372 12.1102 18.9772 13.9223C18.9772 15.6945 17.645 17.1124 15.5044 17.1124ZM40.707 38.1015H34.5694V28.2219C34.5694 25.739 33.6806 24.0457 31.4597 24.0457C29.764 24.0457 28.7541 25.1879 28.3103 26.2905C28.148 26.6851 28.1084 27.2366 28.1084 27.7885V38.1015H21.9705C21.9705 38.1015 22.0508 21.3667 21.9705 19.6342H28.1084V22.2489C28.9241 20.9906 30.3836 19.2007 33.6403 19.2007C37.6788 19.2007 40.707 21.8401 40.707 27.5124V38.1015Z" fill="white"/>
</svg>
