<svg width="54" height="54" viewBox="0 0 54 54" fill="none" xmlns="http://www.w3.org/2000/svg">
<g clip-path="url(#clip0_93_1936)">
<rect x="0.286133" width="53.1224" height="53.1224" rx="26.5612" fill="black"/>
<path d="M26.8474 0C12.1802 0 0.286133 11.8941 0.286133 26.5612C0.286133 41.2283 12.1802 53.1224 26.8474 53.1224C41.5145 53.1224 53.4086 41.2283 53.4086 26.5612C53.4086 11.8941 41.5145 0 26.8474 0ZM19.129 40.1531H12.6601V20.6914H19.129V40.1531ZM15.8947 18.0339H15.8526C13.6818 18.0339 12.2779 16.5396 12.2779 14.672C12.2779 12.7622 13.7248 11.3093 15.9377 11.3093C18.1506 11.3093 19.5124 12.7622 19.5545 14.672C19.5545 16.5396 18.1506 18.0339 15.8947 18.0339ZM42.4543 40.1531H35.9863V29.7416C35.9863 27.125 35.0497 25.3405 32.7091 25.3405C30.9222 25.3405 29.8579 26.5442 29.3902 27.7062C29.2191 28.122 29.1774 28.7032 29.1774 29.2848V40.1531H22.7089C22.7089 40.1531 22.7936 22.5172 22.7089 20.6914H29.1774V23.447C30.037 22.1208 31.5751 20.2346 35.0071 20.2346C39.2631 20.2346 42.4543 23.0161 42.4543 28.9938V40.1531Z" fill="white"/>
</g>
<defs>
<clipPath id="clip0_93_1936">
<rect x="0.286133" width="53.1224" height="53.1224" rx="26.5612" fill="white"/>
</clipPath>
</defs>
</svg>
