<svg width="52" height="51" viewBox="0 0 52 51" fill="none" xmlns="http://www.w3.org/2000/svg">
<g clip-path="url(#clip0_93_1639)">
<rect x="0.694336" width="50.4082" height="50.4082" rx="25.2041" fill="black"/>
<path d="M25.8984 -0.00012207C11.9807 -0.00012207 0.694336 11.2863 0.694336 25.204C0.694336 39.1217 11.9807 50.408 25.8984 50.408C39.8161 50.408 51.1025 39.1217 51.1025 25.204C51.1025 11.2863 39.8161 -0.00012207 25.8984 -0.00012207ZM18.5744 38.1014H12.4361V19.634H18.5744V38.1014ZM15.5054 17.1123H15.4654C13.4056 17.1123 12.0734 15.6944 12.0734 13.9222C12.0734 12.11 13.4464 10.7313 15.5462 10.7313C17.646 10.7313 18.9382 12.11 18.9782 13.9222C18.9782 15.6944 17.646 17.1123 15.5054 17.1123ZM40.708 38.1014H34.5704V28.2218C34.5704 25.7389 33.6816 24.0456 31.4607 24.0456C29.765 24.0456 28.7551 25.1878 28.3113 26.2904C28.149 26.685 28.1094 27.2365 28.1094 27.7884V38.1014H21.9714C21.9714 38.1014 22.0518 21.3666 21.9714 19.634H28.1094V22.2488C28.9251 20.9905 30.3846 19.2006 33.6412 19.2006C37.6798 19.2006 40.708 21.84 40.708 27.5122V38.1014Z" fill="white"/>
</g>
<defs>
<clipPath id="clip0_93_1639">
<rect x="0.694336" width="50.4082" height="50.4082" rx="25.2041" fill="white"/>
</clipPath>
</defs>
</svg>
