<svg width="36" height="36" viewBox="0 0 36 36" fill="none" xmlns="http://www.w3.org/2000/svg">
<g clip-path="url(#clip0_93_3738)">
<path d="M7.63745 4.63627C10.4738 2.39991 14.0738 1.09082 18.0011 1.09082C21.9284 1.09082 25.5284 2.39991 28.3647 4.63627" stroke="#F7A600" stroke-width="1.09091" stroke-miterlimit="10" stroke-linecap="round" stroke-linejoin="round"/>
<path d="M7.63745 31.3635C10.5284 33.5999 14.1284 34.909 18.0011 34.909C21.8738 34.909 25.5284 33.5999 28.3647 31.3635" stroke="#F7A600" stroke-width="1.09091" stroke-miterlimit="10" stroke-linecap="round" stroke-linejoin="round"/>
<path d="M4.6375 28.3635C2.40113 25.5271 1.09204 21.9271 1.09204 17.9999C1.09204 14.0726 2.40113 10.4726 4.6375 7.63623" stroke="#F7A600" stroke-width="1.09091" stroke-miterlimit="10" stroke-linecap="round" stroke-linejoin="round"/>
<path d="M31.3649 7.63623C33.6012 10.5271 34.9103 14.1271 34.9103 17.9999C34.9103 21.8726 33.6012 25.5271 31.3649 28.3635" stroke="#F7A600" stroke-width="1.09091" stroke-miterlimit="10" stroke-linecap="round" stroke-linejoin="round"/>
<path d="M18.0005 29.5636C24.3869 29.5636 29.5642 24.3863 29.5642 17.9999C29.5642 11.6135 24.3869 6.43628 18.0005 6.43628C11.6141 6.43628 6.43689 11.6135 6.43689 17.9999C6.43689 24.3863 11.6141 29.5636 18.0005 29.5636Z" stroke="#F7A600" stroke-width="1.09091" stroke-miterlimit="10" stroke-linecap="round" stroke-linejoin="round"/>
<path d="M18.0003 29.5636C21.4044 29.5636 24.1639 24.3863 24.1639 17.9999C24.1639 11.6135 21.4044 6.43628 18.0003 6.43628C14.5962 6.43628 11.8367 11.6135 11.8367 17.9999C11.8367 24.3863 14.5962 29.5636 18.0003 29.5636Z" stroke="#F7A600" stroke-width="1.09091" stroke-miterlimit="10" stroke-linecap="round" stroke-linejoin="round"/>
<path d="M18.0005 24.1635C24.3869 24.1635 29.5642 21.4039 29.5642 17.9998C29.5642 14.5957 24.3869 11.8362 18.0005 11.8362C11.6141 11.8362 6.43689 14.5957 6.43689 17.9998C6.43689 21.4039 11.6141 24.1635 18.0005 24.1635Z" stroke="#F7A600" stroke-width="1.09091" stroke-miterlimit="10" stroke-linecap="round" stroke-linejoin="round"/>
<path d="M18.0005 6.43628V29.6181" stroke="#F7A600" stroke-width="1.09091" stroke-miterlimit="10" stroke-linecap="round" stroke-linejoin="round"/>
<path d="M29.564 18C6.3822 18 6.3822 18 6.3822 18" stroke="#F7A600" stroke-width="1.09091" stroke-miterlimit="10" stroke-linecap="round" stroke-linejoin="round"/>
<path d="M30.9266 9.81805L31.3085 7.63623L33.4903 7.9635" stroke="#F7A600" stroke-width="1.09091" stroke-miterlimit="10" stroke-linecap="round" stroke-linejoin="round"/>
<path d="M27.763 33.4908L28.363 31.309L26.2357 30.709" stroke="#F7A600" stroke-width="1.09091" stroke-miterlimit="10" stroke-linecap="round" stroke-linejoin="round"/>
<path d="M4.85569 26.1272L4.69205 28.3636L2.45569 28.1999" stroke="#F7A600" stroke-width="1.09091" stroke-miterlimit="10" stroke-linecap="round" stroke-linejoin="round"/>
<path d="M7.96483 2.50903L7.58301 4.69085L9.76483 5.12721" stroke="#F7A600" stroke-width="1.09091" stroke-miterlimit="10" stroke-linecap="round" stroke-linejoin="round"/>
</g>
<defs>
<clipPath id="clip0_93_3738">
<rect width="36" height="36" fill="white"/>
</clipPath>
</defs>
</svg>
