<svg width="70" height="70" viewBox="0 0 70 70" fill="none" xmlns="http://www.w3.org/2000/svg">
<g clip-path="url(#clip0_93_1165)">
<rect x="0.0683594" width="69.6803" height="69.6803" rx="34.8401" fill="#272761"/>
<path d="M34.9085 0C15.6698 0 0.0683594 15.6014 0.0683594 34.8401C0.0683594 54.0789 15.6698 69.6803 34.9085 69.6803C54.1473 69.6803 69.7487 54.0789 69.7487 34.8401C69.7487 15.6014 54.1473 0 34.9085 0ZM24.7844 52.6685H16.2992V27.1407H24.7844V52.6685ZM20.5421 23.6549H20.4868C17.6394 23.6549 15.7979 21.6948 15.7979 19.2451C15.7979 16.7401 17.6958 14.8343 20.5984 14.8343C23.501 14.8343 25.2873 16.7401 25.3426 19.2451C25.3426 21.6948 23.501 23.6549 20.5421 23.6549ZM55.3801 52.6685H46.896V39.0118C46.896 35.5796 45.6674 33.2389 42.5973 33.2389C40.2534 33.2389 38.8574 34.8178 38.2439 36.342C38.0195 36.8874 37.9648 37.6498 37.9648 38.4126V52.6685H29.4802C29.4802 52.6685 29.5913 29.5357 29.4802 27.1407H37.9648V30.7552C39.0923 29.0157 41.1098 26.5416 45.6116 26.5416C51.1941 26.5416 55.3801 30.1901 55.3801 38.0309V52.6685Z" fill="white"/>
</g>
<defs>
<clipPath id="clip0_93_1165">
<rect x="0.0683594" width="69.6803" height="69.6803" rx="34.8401" fill="white"/>
</clipPath>
</defs>
</svg>
