<svg width="42" height="41" viewBox="0 0 42 41" fill="none" xmlns="http://www.w3.org/2000/svg">
<g clip-path="url(#clip0_93_1979)">
<rect x="0.158203" width="41" height="41" rx="20.5" fill="black"/>
<path d="M20.6582 0C9.3381 0 0.158203 9.17989 0.158203 20.5C0.158203 31.8201 9.3381 41 20.6582 41C31.9783 41 41.1582 31.8201 41.1582 20.5C41.1582 9.17989 31.9783 0 20.6582 0ZM14.7011 30.9902H9.70846V15.9696H14.7011V30.9902ZM12.205 13.9186H12.1724C10.497 13.9186 9.41348 12.7653 9.41348 11.3239C9.41348 9.84992 10.5302 8.72852 12.2381 8.72852C13.946 8.72852 14.9971 9.84992 15.0296 11.3239C15.0296 12.7653 13.946 13.9186 12.205 13.9186ZM32.7037 30.9902H27.7116V22.9546C27.7116 20.9351 26.9888 19.5578 25.1823 19.5578C23.8031 19.5578 22.9817 20.4869 22.6207 21.3837C22.4887 21.7046 22.4565 22.1532 22.4565 22.6021V30.9902H17.4641C17.4641 30.9902 17.5295 17.3788 17.4641 15.9696H22.4565V18.0964C23.12 17.0729 24.3071 15.6171 26.9559 15.6171C30.2407 15.6171 32.7037 17.7639 32.7037 22.3775V30.9902Z" fill="white"/>
</g>
<defs>
<clipPath id="clip0_93_1979">
<rect x="0.158203" width="41" height="41" rx="20.5" fill="white"/>
</clipPath>
</defs>
</svg>
