<svg xmlns="http://www.w3.org/2000/svg" width="16" height="20" viewBox="0 0 16 20" fill="none">
    <path
        d="M8 0C12.4226 0 16 3.5422 16 7.94113C16 9.93135 15.2563 11.736 14.0436 13.1331L13.7258 13.5395L9.67834 18.102L9.35614 18.5117L8.02317 20L6.71117 18.5139L6.39228 18.102L2.464 13.6822C2.4534 13.6712 2.44236 13.6606 2.4309 13.6504C2.41103 13.6317 2.38566 13.6032 2.34924 13.5669C1.60453 12.8298 1.01359 11.9534 0.610418 10.9881C0.207245 10.0227 -0.000206105 8.98763 1.53654e-07 7.94223C1.53654e-07 3.5422 3.57738 0 8 0ZM8.00221 4.07491C6.97123 4.07694 5.98307 4.4855 5.25406 5.21115C4.52505 5.9368 4.11459 6.9204 4.11255 7.94662C4.11459 8.97304 4.52498 9.95687 5.25392 10.6829C5.98287 11.4089 6.97103 11.8179 8.00221 11.8205C9.03359 11.8179 10.022 11.4089 10.7513 10.683C11.4806 9.95707 11.8914 8.97324 11.8941 7.94662C11.8917 6.92001 11.4809 5.93613 10.7515 5.21031C10.0221 4.48448 9.03358 4.07584 8.00221 4.07381V4.07491ZM8.00221 5.17327C8.36853 5.17211 8.73147 5.24304 9.07015 5.38197C9.40884 5.52091 9.7166 5.72511 9.97573 5.98284C10.2349 6.24058 10.4403 6.54675 10.5801 6.88377C10.72 7.22078 10.7915 7.58199 10.7906 7.94662C10.7916 8.31139 10.7202 8.67277 10.5804 9.00998C10.4407 9.34718 10.2353 9.65356 9.97619 9.91149C9.71705 10.1694 9.40926 10.3738 9.07049 10.513C8.73172 10.6521 8.36867 10.7232 8.00221 10.7222C7.63589 10.723 7.273 10.6518 6.93443 10.5126C6.59585 10.3734 6.28826 10.169 6.02933 9.91104C5.7704 9.6531 5.56525 9.34676 5.42567 9.00964C5.28609 8.67251 5.21484 8.31125 5.216 7.94662C5.21469 7.582 5.28585 7.22072 5.42539 6.88359C5.56494 6.54646 5.7701 6.24014 6.02907 5.98226C6.28804 5.72439 6.5957 5.52005 6.93434 5.38102C7.27297 5.24198 7.6359 5.17101 8.00221 5.17217V5.17327Z"
        fill="#DC6A6A" />
</svg>