<svg width="30" height="30" viewBox="0 0 30 30" fill="none" xmlns="http://www.w3.org/2000/svg">
<g clip-path="url(#clip0_93_3708)">
<path d="M18.125 26.25H13.125C11.4025 26.25 10 24.8475 10 23.125V20.625C10 20.28 10.28 20 10.625 20C10.97 20 11.25 20.28 11.25 20.625V23.125C11.25 24.1588 12.0913 25 13.125 25H18.125C18.47 25 18.75 25.28 18.75 25.625C18.75 25.97 18.47 26.25 18.125 26.25Z" fill="#F7A600"/>
<path d="M13.125 13.75H0.625C0.28 13.75 0 13.47 0 13.125C0 12.78 0.28 12.5 0.625 12.5H13.125C13.47 12.5 13.75 12.78 13.75 13.125C13.75 13.47 13.47 13.75 13.125 13.75Z" fill="#F7A600"/>
<path d="M20 30C18.6213 30 17.5 28.8787 17.5 27.5V5C17.5 3.925 18.19 2.97375 19.2163 2.63125L26.7162 0.13125C26.9537 0.04625 27.2225 0 27.5 0C28.8788 0 30 1.12125 30 2.5V25C30 26.0737 29.3113 27.0262 28.285 27.3675L20.785 29.8675C20.5438 29.9537 20.275 30 20 30ZM27.5 1.25C27.37 1.25 27.24 1.2725 27.125 1.3125L19.6113 3.8175C19.095 3.98875 18.75 4.46375 18.75 5V27.5C18.75 28.1887 19.3113 28.75 20 28.75C20.13 28.75 20.26 28.7275 20.3775 28.6862L27.89 26.1825C28.4038 26.01 28.75 25.535 28.75 25V2.5C28.75 1.81125 28.1888 1.25 27.5 1.25Z" fill="#F7A600"/>
<path d="M10.625 6.25C10.28 6.25 10 5.97 10 5.625V3.125C10 1.4025 11.4025 0 13.125 0H27.5C27.845 0 28.125 0.28 28.125 0.625C28.125 0.97 27.845 1.25 27.5 1.25H13.125C12.0913 1.25 11.25 2.09125 11.25 3.125V5.625C11.25 5.97 10.97 6.25 10.625 6.25Z" fill="#F7A600"/>
<path d="M8.12495 18.75C7.96495 18.75 7.80495 18.6888 7.68245 18.5675C7.4387 18.3238 7.4387 17.9275 7.68245 17.6838L12.2412 13.125L7.68245 8.56754C7.4387 8.32379 7.4387 7.92754 7.68245 7.68379C7.9262 7.44004 8.32245 7.44004 8.5662 7.68379L13.5662 12.6838C13.8099 12.9275 13.8099 13.3238 13.5662 13.5675L8.5662 18.5675C8.44495 18.6888 8.28495 18.75 8.12495 18.75Z" fill="#F7A600"/>
</g>
<defs>
<clipPath id="clip0_93_3708">
<rect width="30" height="30" fill="white"/>
</clipPath>
</defs>
</svg>
