<svg width="40" height="40" viewBox="0 0 40 40" fill="none" xmlns="http://www.w3.org/2000/svg">
<path d="M16.5664 23.4337C16.2544 23.1217 15.7472 23.1217 15.4352 23.4337L10.4 28.4689V24.0001C10.4 23.5585 10.0416 23.2001 9.60005 23.2001C9.15845 23.2001 8.80005 23.5585 8.80005 24.0001V30.4001C8.80005 30.5041 8.82085 30.6081 8.86245 30.7057C8.94245 30.9009 9.09925 31.0577 9.29605 31.1393C9.39205 31.1777 9.49605 31.2001 9.60005 31.2001H16C16.4416 31.2001 16.8 30.8417 16.8 30.4001C16.8 29.9585 16.4416 29.6001 16 29.6001H11.5312L16.5648 24.5665C16.8784 24.2529 16.8784 23.7473 16.5664 23.4337Z" fill="#F7A600"/>
<path d="M30.7056 8.86085C30.608 8.82245 30.504 8.80005 30.4 8.80005H24C23.5584 8.80005 23.2 9.15845 23.2 9.60005C23.2 10.0416 23.5584 10.4 24 10.4H28.4688L23.4352 15.4336C23.1232 15.7456 23.1232 16.2528 23.4352 16.5648C23.5904 16.7216 23.7952 16.8 24 16.8C24.2048 16.8 24.4096 16.7216 24.5664 16.5664L29.6 11.5312V16C29.6 16.4416 29.9584 16.8 30.4 16.8C30.8416 16.8 31.2 16.4416 31.2 16V9.60005C31.2 9.49605 31.1792 9.39205 31.1376 9.29445C31.0576 9.09925 30.9008 8.94245 30.7056 8.86085Z" fill="#F7A600"/>
<path d="M32 4H8C5.7952 4 4 5.7936 4 8V32C4 34.2064 5.7952 36 8 36H32C34.2048 36 36 34.2064 36 32V8C36 5.7936 34.2048 4 32 4ZM34.4 32C34.4 33.3232 33.3232 34.4 32 34.4H8C6.6768 34.4 5.6 33.3232 5.6 32V8C5.6 6.6768 6.6768 5.6 8 5.6H32C33.3232 5.6 34.4 6.6768 34.4 8V32Z" fill="#F7A600"/>
</svg>
