<svg width="24" height="16" viewBox="0 0 24 16" fill="none" xmlns="http://www.w3.org/2000/svg">
<g clip-path="url(#clip0_182_33)">
<path d="M6 1.7781C6 1.16447 6.53728 0.666992 7.2 0.666992H22.8C23.4627 0.666992 24 1.16447 24 1.7781C24 2.39173 23.4627 2.88921 22.8 2.88921H7.2C6.53728 2.88921 6 2.39169 6 1.7781ZM22.8 7.33366H1.2C0.537281 7.33366 0 7.83118 0 8.44477C0 9.0584 0.537281 9.55588 1.2 9.55588H22.8C23.4627 9.55588 24 9.0584 24 8.44477C24 7.83118 23.4627 7.33366 22.8 7.33366ZM22.8 14.0003H12C11.3373 14.0003 10.8 14.4978 10.8 15.1114C10.8 15.725 11.3373 16.2225 12 16.2225H22.8C23.4627 16.2225 24 15.725 24 15.1114C24 14.4978 23.4627 14.0003 22.8 14.0003Z" fill="black"/>
</g>
<defs>
<clipPath id="clip0_182_33">
<rect width="24" height="16" fill="white"/>
</clipPath>
</defs>
</svg>
