<svg width="736" height="621" viewBox="0 0 736 621" fill="none" xmlns="http://www.w3.org/2000/svg">
<circle cx="54.7619" cy="54.7619" r="54.7619" fill="white"/>
<circle cx="571.715" cy="347.191" r="54.7619" fill="white"/>
<circle cx="54.7619" cy="164.285" r="54.7619" fill="#FFE0A2"/>
<circle cx="571.715" cy="456.714" r="54.7619" fill="#FFE0A2"/>
<circle cx="164.285" cy="164.285" r="54.7619" fill="white"/>
<circle cx="681.238" cy="456.714" r="54.7619" fill="white"/>
<circle cx="164.285" cy="273.81" r="54.7619" fill="#FFE0A2"/>
<circle cx="681.238" cy="566.238" r="54.7619" fill="#FFE0A2"/>
<path d="M219.047 442.477C247.932 443.024 248.477 444.667 259.376 448.5C262.101 450.691 332.952 472.596 332.952 557.477C302.852 557.477 264.827 557.477 219.047 557.477C219.047 527.232 219.047 462.738 219.047 442.477Z" fill="#F7A600"/>
<path d="M219.047 442.477C247.932 443.024 248.477 444.667 259.376 448.5C262.101 450.691 332.952 472.596 332.952 557.477C302.852 557.477 264.827 557.477 219.047 557.477C219.047 527.232 219.047 462.738 219.047 442.477Z" fill="#F7A600"/>
<path d="M219.047 557.477C191.273 556.381 204.374 557.477 180.269 551.453C177.648 549.262 109.523 527.358 109.523 442.477C138.465 442.477 175.028 442.477 219.047 442.477C219.047 472.721 219.047 537.215 219.047 557.477Z" fill="#FFE0A2"/>
<path d="M401.953 146.762C403.048 118.988 401.953 132.089 407.977 107.983C410.167 105.363 432.072 37.2379 516.953 37.2379C516.953 66.1797 516.953 102.743 516.953 146.762C486.709 146.762 422.215 146.762 401.953 146.762Z" fill="#FFE0A2"/>
<path d="M626.477 146.762C625.381 174.535 626.477 161.435 620.453 185.54C618.262 188.16 596.358 256.286 511.477 256.286C511.477 227.344 511.477 190.781 511.477 146.762C541.721 146.762 606.215 146.762 626.477 146.762Z" fill="#FFE0A2"/>
<path d="M516.953 37.2379C544.727 38.281 531.626 37.2379 555.731 42.9749C558.352 45.061 626.477 65.9227 626.477 146.762C597.535 146.762 560.972 146.762 516.953 146.762C516.953 117.958 516.953 56.535 516.953 37.2379Z" fill="#F7A600"/>
<path d="M511.477 256.286C483.703 255.243 496.804 256.286 472.698 250.549C470.078 248.463 401.953 227.601 401.953 146.762C430.895 146.762 467.457 146.762 511.477 146.762C511.477 175.566 511.477 236.989 511.477 256.286Z" fill="url(#paint0_linear_93_911)"/>
<mask id="mask0_93_911" style="mask-type:luminance" maskUnits="userSpaceOnUse" x="219" y="147" width="296" height="297">
<path d="M514.761 147.29H219.047V443.005H514.761V147.29Z" fill="white"/>
</mask>
<g mask="url(#mask0_93_911)">
<path d="M514.761 147.29H219.047V443.005H514.761V147.29Z" fill="#F7A600"/>
<mask id="mask1_93_911" style="mask-type:luminance" maskUnits="userSpaceOnUse" x="219" y="147" width="296" height="297">
<path d="M514.761 147.29H219.047V443.005H514.761V147.29Z" fill="white"/>
</mask>
<g mask="url(#mask1_93_911)">
<path d="M433.848 277.879C413.862 272.834 409.011 270.311 409.011 262.744V262.356C409.011 256.729 414.056 252.266 423.758 252.266C433.46 252.266 443.55 256.535 453.834 263.714L467.028 244.698C455.386 235.384 441.027 229.951 424.146 229.951C400.667 229.951 383.786 243.728 383.786 264.684V265.072C383.786 287.969 398.727 294.372 422.011 300.387C441.221 305.432 445.296 308.537 445.296 315.134V315.522C445.296 322.314 439.087 326.388 428.609 326.388C415.414 326.388 404.354 321.149 394.07 312.418C393.876 312.224 393.682 312.03 393.488 312.03C393.294 311.836 391.935 310.671 390.771 309.507V309.313C390.189 308.731 389.801 308.149 389.607 307.955C387.473 316.104 383.786 323.672 379.129 330.269C380.099 331.045 381.069 331.822 382.039 332.598L382.234 332.792C395.622 343.464 411.921 348.703 428.221 348.703C453.057 348.703 470.521 335.896 470.521 313V312.612C470.327 292.432 457.326 283.894 433.848 277.879Z" fill="white"/>
<path d="M407.652 366.942L345.56 316.492C339.157 322.119 330.813 325.612 321.499 325.612C301.513 325.612 285.214 309.313 285.214 289.327C285.214 269.341 301.513 253.042 321.499 253.042C341.485 253.042 357.785 269.341 357.785 289.327C357.785 296.118 355.844 302.521 352.546 307.954L370.591 322.895C377.188 313.388 381.069 301.745 381.069 289.327C381.069 256.34 354.292 229.757 321.499 229.757C288.707 229.757 261.93 256.534 261.93 289.327C261.93 322.119 288.707 348.897 321.499 348.897C331.395 348.897 340.709 346.568 348.859 342.299L405.906 369.271L407.652 366.942Z" fill="white"/>
</g>
</g>
<defs>
<linearGradient id="paint0_linear_93_911" x1="456.715" y1="146.762" x2="456.715" y2="256.286" gradientUnits="userSpaceOnUse">
<stop stop-color="#272761"/>
<stop offset="1" stop-color="#321489"/>
</linearGradient>
</defs>
</svg>
