<svg width="159" height="33" viewBox="0 0 159 33" fill="none" xmlns="http://www.w3.org/2000/svg">
<path d="M1.52583 3.12795C1.27256 2.50772 1.7288 1.82863 2.39874 1.82863H156.921C157.611 1.82863 158.067 2.54514 157.775 3.17023L158.63 3.56897L157.775 3.17024L152.259 14.9918C151.919 15.7184 151.905 16.5546 152.218 17.2927L153.086 16.9245L152.218 17.2927L157.901 30.6898C158.165 31.3115 157.709 32.0009 157.033 32.0009H2.30332C1.64632 32.0009 1.19073 31.3458 1.41937 30.7299L6.45353 17.1685C6.70021 16.5039 6.6884 15.771 6.42044 15.1147L1.52583 3.12795Z" fill="url(#paint0_linear_93_1312)" stroke="white" stroke-width="1.88577"/>
<defs>
<linearGradient id="paint0_linear_93_1312" x1="-0.408203" y1="16.9147" x2="159.882" y2="16.9147" gradientUnits="userSpaceOnUse">
<stop stop-color="#E4E4E4"/>
<stop offset="1" stop-color="#D7D7D7"/>
</linearGradient>
</defs>
</svg>
