<svg width="160" height="33" viewBox="0 0 160 33" fill="none" xmlns="http://www.w3.org/2000/svg">
<path d="M1.81489 3.12795C1.56163 2.50772 2.01786 1.82863 2.6878 1.82863H157.21C157.9 1.82863 158.356 2.54514 158.064 3.17023L158.919 3.56897L158.064 3.17024L152.548 14.9918C152.209 15.7184 152.194 16.5546 152.507 17.2927L153.375 16.9245L152.507 17.2927L158.19 30.6898C158.454 31.3115 157.998 32.0009 157.322 32.0009H2.59238C1.93538 32.0009 1.4798 31.3458 1.70844 30.7299L6.74259 17.1685C6.98927 16.5039 6.97746 15.771 6.7095 15.1147L1.81489 3.12795Z" fill="url(#paint0_linear_93_1299)" stroke="white" stroke-width="1.88577"/>
<defs>
<linearGradient id="paint0_linear_93_1299" x1="8.05274" y1="16.9999" x2="151.053" y2="16.9999" gradientUnits="userSpaceOnUse">
<stop stop-color="#6DE4FF"/>
<stop offset="1" stop-color="#00ABD2"/>
</linearGradient>
</defs>
</svg>
