<svg width="160" height="33" viewBox="0 0 160 33" fill="none" xmlns="http://www.w3.org/2000/svg">
<path d="M1.76215 3.12795C1.50889 2.50772 1.96512 1.82863 2.63507 1.82863H157.157C157.847 1.82863 158.303 2.54514 158.012 3.17023L158.866 3.56897L158.012 3.17024L152.495 14.9918C152.156 15.7184 152.141 16.5546 152.454 17.2927L153.322 16.9245L152.454 17.2927L158.138 30.6898C158.402 31.3115 157.945 32.0009 157.27 32.0009H2.53965C1.88265 32.0009 1.42706 31.3458 1.6557 30.7299L6.68986 17.1685C6.93654 16.5039 6.92473 15.771 6.65676 15.1147L1.76215 3.12795Z" fill="url(#paint0_linear_93_1287)" stroke="white" stroke-width="1.88577"/>
<defs>
<linearGradient id="paint0_linear_93_1287" x1="-0.171875" y1="16.9147" x2="160.118" y2="16.9147" gradientUnits="userSpaceOnUse">
<stop stop-color="#E4E4E4"/>
<stop offset="1" stop-color="#D7D7D7"/>
</linearGradient>
</defs>
</svg>
