<svg width="42" height="42" viewBox="0 0 42 42" fill="none" xmlns="http://www.w3.org/2000/svg">
<g clip-path="url(#clip0_93_3719)">
<path d="M2.625 14.4375C2.45095 14.4375 2.28403 14.5066 2.16096 14.6297C2.03789 14.7528 1.96875 14.9197 1.96875 15.0938V17.7188C1.96875 17.8928 2.03789 18.0597 2.16096 18.1828C2.28403 18.3059 2.45095 18.375 2.625 18.375H4.05587C4.26167 19.2669 4.60294 20.1219 5.06781 20.9103L3.47345 22.5047C3.41251 22.5656 3.36417 22.638 3.33118 22.7176C3.2982 22.7972 3.28123 22.8826 3.28123 22.9688C3.28123 23.0549 3.2982 23.1403 3.33118 23.2199C3.36417 23.2995 3.41251 23.3719 3.47345 23.4328L5.4422 25.4016C5.50314 25.4625 5.57548 25.5108 5.65511 25.5438C5.73473 25.5768 5.82007 25.5938 5.90625 25.5938C5.99243 25.5938 6.07777 25.5768 6.15739 25.5438C6.23702 25.5108 6.30936 25.4625 6.3703 25.4016L7.96466 23.8072C8.75311 24.2721 9.60815 24.6133 10.5 24.8191V26.9062C10.5 27.0803 10.5691 27.2472 10.6922 27.3703C10.8153 27.4934 10.9822 27.5625 11.1562 27.5625H13.4572C13.8776 29.1928 14.6839 30.6981 15.8083 31.9512C16.9327 33.2044 18.342 34.1686 19.9174 34.7626C21.4927 35.3566 23.1879 35.5628 24.8597 35.364C26.5315 35.1651 28.131 34.5669 29.523 33.6199L36.0141 40.1109C36.1969 40.2937 36.414 40.4387 36.6528 40.5377C36.8917 40.6366 37.1477 40.6875 37.4062 40.6875C37.6648 40.6875 37.9208 40.6366 38.1597 40.5377C38.3985 40.4387 38.6156 40.2937 38.7984 40.1109C38.9812 39.9281 39.1262 39.711 39.2252 39.4722C39.3241 39.2333 39.375 38.9773 39.375 38.7188C39.375 38.4602 39.3241 38.2042 39.2252 37.9653C39.1262 37.7265 38.9812 37.5094 38.7984 37.3266L32.3074 30.8355C33.7464 28.722 34.3633 26.1553 34.0418 23.6186C33.7203 21.082 32.4827 18.7503 30.562 17.0625H31.5C31.674 17.0625 31.841 16.9934 31.964 16.8703C32.0871 16.7472 32.1562 16.5803 32.1562 16.4062V13.901C32.2856 13.5581 34.125 8.67267 34.125 8.53125C34.125 7.08816 33.718 5.94956 32.9155 5.14697C32.113 4.34437 30.9743 3.9375 29.5312 3.9375C28.0882 3.9375 26.9496 4.34446 26.147 5.14697C25.3444 5.94948 24.9375 7.08816 24.9375 8.53125C24.9375 8.60992 26.9062 13.9002 26.9062 13.9002V14.9631C25.8475 14.6141 24.7398 14.4367 23.625 14.4375H20.8816C20.6758 13.5456 20.3346 12.6906 19.8697 11.9022L21.4641 10.3078C21.525 10.2469 21.5733 10.1745 21.6063 10.0949C21.6393 10.0153 21.6563 9.92993 21.6563 9.84375C21.6563 9.75757 21.6393 9.67223 21.6063 9.59261C21.5733 9.51298 21.525 9.44064 21.4641 9.3797L19.4953 7.41095C19.4344 7.35001 19.362 7.30167 19.2824 7.26868C19.2028 7.2357 19.1174 7.21873 19.0312 7.21873C18.9451 7.21873 18.8597 7.2357 18.7801 7.26868C18.7005 7.30167 18.6281 7.35001 18.5672 7.41095L16.9728 9.00531C16.1844 8.54044 15.3294 8.19917 14.4375 7.99337V5.90625C14.4375 5.7322 14.3684 5.56528 14.2453 5.44221C14.1222 5.31914 13.9553 5.25 13.7812 5.25H11.1562C10.9822 5.25 10.8153 5.31914 10.6922 5.44221C10.5691 5.56528 10.5 5.7322 10.5 5.90625V7.99337C9.60815 8.19917 8.75311 8.54044 7.96466 9.00531L6.3703 7.41095C6.30936 7.35001 6.23702 7.30167 6.15739 7.26868C6.07777 7.2357 5.99243 7.21873 5.90625 7.21873C5.82007 7.21873 5.73473 7.2357 5.65511 7.26868C5.57548 7.30167 5.50314 7.35001 5.4422 7.41095L3.47345 9.3797C3.41251 9.44064 3.36417 9.51298 3.33118 9.59261C3.2982 9.67223 3.28123 9.75757 3.28123 9.84375C3.28123 9.92993 3.2982 10.0153 3.33118 10.0949C3.36417 10.1745 3.41251 10.2469 3.47345 10.3078L5.06781 11.9022C4.60294 12.6906 4.26167 13.5456 4.05587 14.4375H2.625ZM37.8703 38.2548C37.9327 38.3154 37.9824 38.3878 38.0166 38.4678C38.0508 38.5478 38.0687 38.6338 38.0693 38.7208C38.0699 38.8078 38.0533 38.894 38.0203 38.9745C37.9873 39.055 37.9386 39.1281 37.8771 39.1896C37.8156 39.2511 37.7425 39.2998 37.662 39.3328C37.5815 39.3657 37.4952 39.3824 37.4082 39.3818C37.3213 39.3811 37.2353 39.3632 37.1553 39.329C37.0753 39.2949 37.0029 39.2451 36.9423 39.1827L30.5671 32.8077C30.8954 32.5179 31.2053 32.2079 31.4952 31.8797L37.8703 38.2548ZM26.2511 8.41509C26.2899 6.31468 27.3931 5.25 29.5312 5.25C31.6723 5.25 32.7753 6.31723 32.8115 8.42272C32.627 8.92943 31.7302 11.3124 31.0463 13.125H28.0172L26.2511 8.41509ZM28.2188 14.4375H30.8438V15.75H28.7034C28.5444 15.6617 28.3828 15.5774 28.2188 15.4971V14.4375ZM32.8125 24.9375C32.8125 26.7543 32.2738 28.5304 31.2646 30.0411C30.2553 31.5519 28.8208 32.7295 27.1424 33.425C25.4639 34.1206 23.617 34.3029 21.8349 33.9489C20.0529 33.5949 18.4158 32.7205 17.1307 31.4363C15.8455 30.152 14.97 28.5155 14.6148 26.7338C14.2596 24.952 14.4406 23.1049 15.135 21.426C15.8295 19.7471 17.0061 18.3117 18.5161 17.3014C20.0261 16.2911 21.8018 15.7512 23.6187 15.75H23.625C26.0608 15.7528 28.3961 16.7216 30.1185 18.444C31.8409 20.1664 32.8097 22.5017 32.8125 24.9375ZM12.4688 19.6875C11.8198 19.6875 11.1854 19.4951 10.6458 19.1345C10.1062 18.774 9.68562 18.2615 9.43727 17.6619C9.18892 17.0624 9.12394 16.4026 9.25055 15.7661C9.37716 15.1296 9.68966 14.5449 10.1486 14.0861C10.6074 13.6272 11.1921 13.3147 11.8286 13.188C12.4651 13.0614 13.1249 13.1264 13.7244 13.3748C14.324 13.6231 14.8365 14.0437 15.197 14.5833C15.5576 15.1229 15.75 15.7573 15.75 16.4062C15.749 17.2762 15.403 18.1102 14.7879 18.7254C14.1727 19.3405 13.3387 19.6865 12.4688 19.6875ZM5.24106 15.2018C5.42139 14.1227 5.83172 13.0949 6.44421 12.1884C6.53253 12.062 6.57353 11.9086 6.56003 11.755C6.54653 11.6014 6.47939 11.4575 6.37038 11.3484L4.86552 9.84375L5.90625 8.80302L7.41095 10.3078C7.51998 10.4168 7.6639 10.4839 7.81748 10.4974C7.97106 10.5109 8.1245 10.4699 8.25087 10.3816C9.15744 9.76914 10.1852 9.3588 11.2643 9.17848C11.4175 9.15291 11.5566 9.07384 11.657 8.95533C11.7574 8.83682 11.8125 8.68656 11.8125 8.53125V6.5625H13.125V8.53125C13.125 8.68657 13.1801 8.83686 13.2805 8.95538C13.3808 9.07391 13.52 9.15299 13.6732 9.17856C14.7523 9.35889 15.7801 9.76922 16.6866 10.3817C16.813 10.47 16.9664 10.511 17.12 10.4975C17.2736 10.484 17.4175 10.4169 17.5266 10.3079L19.0312 8.80302L20.072 9.84375L18.5672 11.3484C18.4582 11.4575 18.3911 11.6014 18.3776 11.755C18.3641 11.9086 18.4051 12.062 18.4934 12.1884C19.1056 13.0946 19.5158 14.1218 19.6963 15.2004C18.7418 15.5873 17.8493 16.1125 17.0476 16.759C17.0565 16.6423 17.0625 16.5248 17.0625 16.4058C17.0629 15.43 16.7527 14.4793 16.1767 13.6915C15.6008 12.9037 14.789 12.3197 13.859 12.0241C12.929 11.7285 11.929 11.7366 11.0039 12.0472C10.0788 12.3578 9.27661 12.9549 8.71347 13.7518C8.15033 14.5488 7.85551 15.5044 7.8717 16.4801C7.88789 17.4559 8.21425 18.4011 8.80352 19.179C9.39279 19.9568 10.2144 20.5269 11.1493 20.8067C12.0842 21.0865 13.0839 21.0614 14.0036 20.735C13.4227 22.0599 13.1235 23.4909 13.125 24.9375C13.1251 25.3763 13.1525 25.8146 13.207 26.25H11.8125V24.2812C11.8125 24.1259 11.7574 23.9756 11.657 23.8571C11.5567 23.7386 11.4175 23.6595 11.2643 23.6339C10.1852 23.4536 9.15744 23.0433 8.25087 22.4308C8.1245 22.3425 7.97106 22.3015 7.81748 22.315C7.6639 22.3285 7.51998 22.3956 7.41095 22.5046L5.90625 24.0095L4.86552 22.9688L6.3703 21.4641C6.47931 21.355 6.54645 21.2111 6.55995 21.0575C6.57345 20.9039 6.53244 20.7505 6.44413 20.6241C5.83164 19.7176 5.4213 18.6898 5.24098 17.6107C5.21541 17.4575 5.13634 17.3184 5.01783 17.218C4.89932 17.1176 4.74906 17.0625 4.59375 17.0625H3.28125V15.75H4.59375C4.74907 15.75 4.89936 15.6949 5.01788 15.5945C5.13641 15.4942 5.21549 15.355 5.24106 15.2018Z" fill="#F7A600"/>
<path d="M22.3818 3.64397C22.304 3.79963 22.2911 3.97984 22.3462 4.14495C22.4012 4.31007 22.5196 4.44656 22.6752 4.52441L23.9877 5.18066C24.0649 5.22 24.1491 5.24368 24.2354 5.25033C24.3218 5.25698 24.4086 5.24647 24.4909 5.2194C24.5731 5.19234 24.6492 5.14926 24.7148 5.09264C24.7803 5.03602 24.834 4.96699 24.8728 4.88953C24.9115 4.81206 24.9345 4.7277 24.9405 4.64129C24.9465 4.55489 24.9353 4.46816 24.9076 4.3861C24.8799 4.30404 24.8362 4.22827 24.7791 4.16317C24.7219 4.09807 24.6525 4.04492 24.5747 4.00679L23.2622 3.35054C23.1066 3.2727 22.9264 3.25989 22.7612 3.31492C22.5961 3.36994 22.4596 3.48831 22.3818 3.64397Z" fill="#F7A600"/>
<path d="M28.875 0.65625V1.96875C28.875 2.1428 28.9441 2.30972 29.0672 2.43279C29.1903 2.55586 29.3572 2.625 29.5312 2.625C29.7053 2.625 29.8722 2.55586 29.9953 2.43279C30.1184 2.30972 30.1875 2.1428 30.1875 1.96875V0.65625C30.1875 0.482202 30.1184 0.315282 29.9953 0.192211C29.8722 0.0691404 29.7053 0 29.5312 0C29.3572 0 29.1903 0.0691404 29.0672 0.192211C28.9441 0.315282 28.875 0.482202 28.875 0.65625Z" fill="#F7A600"/>
<path d="M25.3002 0.72554C25.1446 0.803387 25.0262 0.93988 24.9712 1.10499C24.9161 1.27011 24.929 1.45032 25.0068 1.60598L25.663 2.91848C25.7012 2.99625 25.7543 3.06569 25.8194 3.12282C25.8845 3.17994 25.9603 3.22362 26.0423 3.25132C26.1244 3.27903 26.2111 3.29021 26.2975 3.28424C26.3839 3.27826 26.4683 3.25524 26.5458 3.2165C26.6232 3.17776 26.6923 3.12408 26.7489 3.05853C26.8055 2.99299 26.8486 2.91688 26.8757 2.83461C26.9027 2.75234 26.9132 2.66552 26.9066 2.57917C26.8999 2.49281 26.8762 2.40863 26.8369 2.33147L26.1807 1.01897C26.1028 0.863305 25.9663 0.744943 25.8012 0.689916C25.6361 0.634888 25.4559 0.647703 25.3002 0.72554Z" fill="#F7A600"/>
<path d="M32.8818 1.01893L32.2255 2.33143C32.1862 2.40859 32.1625 2.49277 32.1559 2.57913C32.1492 2.66548 32.1597 2.7523 32.1868 2.83458C32.2139 2.91685 32.2569 2.99295 32.3136 3.0585C32.3702 3.12404 32.4392 3.17773 32.5167 3.21647C32.5941 3.2552 32.6785 3.27822 32.7649 3.2842C32.8513 3.29018 32.938 3.27899 33.0201 3.25129C33.1022 3.22358 33.1779 3.17991 33.243 3.12278C33.3081 3.06566 33.3613 2.99621 33.3994 2.91845L34.0557 1.60595C34.095 1.52879 34.1187 1.4446 34.1253 1.35825C34.132 1.27189 34.1215 1.18507 34.0944 1.1028C34.0673 1.02053 34.0243 0.944424 33.9676 0.87888C33.911 0.813336 33.842 0.759648 33.7645 0.72091C33.6871 0.682172 33.6027 0.659152 33.5163 0.653175C33.4299 0.647199 33.3432 0.658386 33.2611 0.68609C33.179 0.713794 33.1033 0.757468 33.0382 0.814594C32.9731 0.871719 32.9199 0.941166 32.8818 1.01893Z" fill="#F7A600"/>
<path d="M35.8003 3.35066L34.4878 4.00691C34.41 4.04504 34.3406 4.09819 34.2835 4.16329C34.2263 4.22839 34.1827 4.30415 34.155 4.38621C34.1273 4.46827 34.1161 4.55501 34.122 4.64141C34.128 4.72782 34.151 4.81218 34.1898 4.88965C34.2285 4.96711 34.2822 5.03614 34.3478 5.09276C34.4133 5.14937 34.4894 5.19246 34.5717 5.21952C34.6539 5.24658 34.7408 5.25709 34.8271 5.25044C34.9135 5.24379 34.9977 5.22012 35.0748 5.18077L36.3873 4.52452C36.4651 4.48639 36.5345 4.43324 36.5917 4.36814C36.6488 4.30304 36.6925 4.22728 36.7202 4.14522C36.7479 4.06316 36.759 3.97643 36.7531 3.89002C36.7471 3.80362 36.7241 3.71925 36.6853 3.64179C36.6466 3.56432 36.5929 3.49529 36.5274 3.43867C36.4618 3.38206 36.3857 3.33898 36.3034 3.31191C36.2212 3.28485 36.1344 3.27434 36.048 3.28099C35.9616 3.28764 35.8775 3.31132 35.8003 3.35066Z" fill="#F7A600"/>
<path d="M15.75 24.9375C15.75 26.495 16.2119 28.0176 17.0772 29.3126C17.9425 30.6077 19.1724 31.617 20.6114 32.2131C22.0503 32.8091 23.6337 32.965 25.1613 32.6612C26.6889 32.3573 28.0921 31.6073 29.1935 30.506C30.2948 29.4046 31.0448 28.0014 31.3487 26.4738C31.6525 24.9462 31.4966 23.3628 30.9006 21.9239C30.3045 20.4849 29.2952 19.255 28.0001 18.3897C26.7051 17.5244 25.1825 17.0625 23.625 17.0625C21.5371 17.0648 19.5355 17.8953 18.0591 19.3716C16.5828 20.848 15.7523 22.8496 15.75 24.9375ZM30.1875 24.9375C30.1875 26.2354 29.8026 27.5042 29.0815 28.5834C28.3604 29.6626 27.3355 30.5038 26.1364 31.0005C24.9372 31.4972 23.6177 31.6271 22.3447 31.3739C21.0717 31.1207 19.9024 30.4957 18.9846 29.5779C18.0668 28.6601 17.4418 27.4908 17.1886 26.2178C16.9354 24.9448 17.0653 23.6253 17.562 22.4261C18.0587 21.227 18.8999 20.2021 19.9791 19.481C21.0583 18.7599 22.3271 18.375 23.625 18.375C25.3649 18.377 27.0329 19.069 28.2632 20.2993C29.4935 21.5296 30.1855 23.1976 30.1875 24.9375Z" fill="#F7A600"/>
<path d="M19.6875 24.9375C19.6875 24.7635 19.6184 24.5965 19.4953 24.4735C19.3722 24.3504 19.2053 24.2812 19.0312 24.2812C18.8572 24.2812 18.6903 24.3504 18.5672 24.4735C18.4441 24.5965 18.375 24.7635 18.375 24.9375C18.3766 26.3294 18.9302 27.6639 19.9144 28.6481C20.8986 29.6323 22.2331 30.1859 23.625 30.1875C23.799 30.1875 23.966 30.1184 24.089 29.9953C24.2121 29.8722 24.2812 29.7053 24.2812 29.5312C24.2812 29.3572 24.2121 29.1903 24.089 29.0672C23.966 28.9441 23.799 28.875 23.625 28.875C22.5811 28.8738 21.5802 28.4586 20.842 27.7205C20.1039 26.9823 19.6887 25.9814 19.6875 24.9375Z" fill="#F7A600"/>
</g>
<defs>
<clipPath id="clip0_93_3719">
<rect width="42" height="42" fill="white"/>
</clipPath>
</defs>
</svg>
