<svg width="30" height="30" viewBox="0 0 30 30" fill="none" xmlns="http://www.w3.org/2000/svg">
<g clip-path="url(#clip0_93_3182)">
<path d="M15 0C6.71602 0 0 6.71602 0 15C0 23.284 6.71602 30 15 30C23.284 30 30 23.284 30 15C30 6.71602 23.284 0 15 0ZM24.1564 24.1564C22.9552 25.3644 21.5274 26.3234 19.9549 26.9785C18.3824 27.6337 16.6961 27.9722 14.9926 27.9746C13.289 27.9769 11.6018 27.6431 10.0275 26.9923C8.45318 26.3415 7.02275 25.3864 5.81817 24.1818C4.6136 22.9772 3.65853 21.5468 3.00771 19.9725C2.35689 18.3982 2.02309 16.711 2.02545 15.0074C2.02781 13.3039 2.36627 11.6176 3.02145 10.0451C3.67663 8.47257 4.63565 7.0448 5.84355 5.84355C7.0448 4.63565 8.47257 3.67663 10.0451 3.02145C11.6176 2.36627 13.3039 2.02781 15.0074 2.02545C16.711 2.02309 18.3982 2.35689 19.9725 3.00771C21.5468 3.65853 22.9772 4.6136 24.1818 5.81817C25.3864 7.02275 26.3415 8.45318 26.9923 10.0275C27.6431 11.6018 27.9769 13.289 27.9746 14.9926C27.9722 16.6961 27.6337 18.3824 26.9785 19.9549C26.3234 21.5274 25.3644 22.9552 24.1564 24.1564Z" fill="#F7A600"/>
<path d="M19.0658 19.4491L17.4873 21.0129C17.3195 21.1798 17.0926 21.2734 16.856 21.2734C16.6194 21.2734 16.3924 21.1798 16.2246 21.0129C16.1413 20.9296 16.0753 20.8306 16.0303 20.7216C15.9854 20.6127 15.9624 20.4959 15.9626 20.378C15.9629 20.2602 15.9865 20.1435 16.0319 20.0348C16.0774 19.9261 16.1439 19.8274 16.2275 19.7444L17.799 18.187L16.2305 16.6272C16.1468 16.5443 16.0803 16.4456 16.0349 16.3369C15.9894 16.2282 15.9659 16.1116 15.9656 15.9938C15.9654 15.876 15.9883 15.7593 16.0333 15.6504C16.0782 15.5415 16.1443 15.4425 16.2275 15.3592C16.3948 15.1918 16.6216 15.0976 16.8583 15.097C17.0949 15.0965 17.3222 15.1897 17.4902 15.3563L19.0688 16.9202L20.625 15.361C20.7928 15.1933 21.0203 15.0991 21.2575 15.0991C21.4947 15.0991 21.7223 15.1933 21.89 15.361C21.9732 15.444 22.0392 15.5426 22.0842 15.6511C22.1293 15.7596 22.1524 15.876 22.1524 15.9935C22.1524 16.111 22.1293 16.2274 22.0842 16.3359C22.0392 16.4444 21.9732 16.543 21.89 16.626L20.332 18.1846L21.89 19.7461C21.9732 19.8291 22.0392 19.9277 22.0842 20.0363C22.1293 20.1448 22.1524 20.2612 22.1524 20.3787C22.1524 20.4962 22.1293 20.6125 22.0842 20.721C22.0392 20.8296 21.9732 20.9282 21.89 21.0112C21.807 21.0944 21.7084 21.1603 21.5999 21.2054C21.4914 21.2504 21.375 21.2736 21.2575 21.2736C21.14 21.2736 21.0237 21.2504 20.9151 21.2054C20.8066 21.1603 20.708 21.0944 20.625 21.0112L19.0658 19.4491ZM6.91406 18.1905V18.1788C6.91437 17.9417 7.00878 17.7144 7.17654 17.5468C7.3443 17.3793 7.5717 17.2852 7.80879 17.2852H13.7426C13.8601 17.2852 13.9764 17.3083 14.085 17.3533C14.1935 17.3983 14.2922 17.4642 14.3752 17.5473C14.4583 17.6303 14.5242 17.729 14.5692 17.8375C14.6142 17.9461 14.6373 18.0624 14.6373 18.1799V18.1916C14.6373 18.3091 14.6142 18.4255 14.5692 18.534C14.5242 18.6426 14.4583 18.7412 14.3752 18.8243C14.2922 18.9074 14.1935 18.9733 14.085 19.0183C13.9764 19.0632 13.8601 19.0864 13.7426 19.0864H7.80879C7.69119 19.0864 7.57475 19.0632 7.46612 19.0182C7.35749 18.9731 7.25881 18.9071 7.17571 18.8239C7.09261 18.7407 7.02673 18.6419 6.98183 18.5332C6.93694 18.4245 6.91391 18.3081 6.91406 18.1905ZM16.2229 10.643C16.3907 10.4753 16.6183 10.381 16.8557 10.381C17.093 10.381 17.3206 10.4753 17.4885 10.643L18.6914 11.8459L21.5479 8.9895C21.6316 8.90581 21.7311 8.83956 21.8406 8.7946C21.9501 8.74963 22.0674 8.72685 22.1858 8.72756C22.3041 8.72826 22.4212 8.75245 22.5302 8.79872C22.6391 8.845 22.7378 8.91243 22.8205 8.99711L22.8311 9.00825C22.9954 9.17635 23.087 9.40245 23.0859 9.63757C23.0848 9.8727 22.9911 10.0979 22.8252 10.2645L19.1104 13.9963C19.058 14.0488 18.9958 14.0904 18.9273 14.1188C18.8589 14.1473 18.7855 14.1619 18.7113 14.1619C18.6372 14.1619 18.5638 14.1473 18.4953 14.1188C18.4269 14.0904 18.3647 14.0488 18.3123 13.9963L16.2229 11.9069C16.0555 11.7391 15.9615 11.5119 15.9615 11.2749C15.9615 11.038 16.0555 10.8107 16.2229 10.643ZM6.91406 11.8741V11.8618C6.91406 11.6245 7.00833 11.3969 7.17612 11.2291C7.34392 11.0613 7.57149 10.967 7.80879 10.967H13.7426C13.8601 10.967 13.9764 10.9902 14.085 11.0351C14.1935 11.0801 14.2922 11.146 14.3752 11.2291C14.4583 11.3122 14.5242 11.4108 14.5692 11.5194C14.6142 11.6279 14.6373 11.7443 14.6373 11.8618V11.8741C14.6371 12.1113 14.5428 12.3387 14.375 12.5064C14.2073 12.674 13.9798 12.7682 13.7426 12.7682H7.80879C7.5716 12.7682 7.34411 12.674 7.17633 12.5064C7.00855 12.3387 6.91422 12.1113 6.91406 11.8741Z" fill="#F7A600"/>
</g>
<defs>
<clipPath id="clip0_93_3182">
<rect width="30" height="30" fill="white"/>
</clipPath>
</defs>
</svg>
