<svg width="33" height="33" viewBox="0 0 33 33" fill="none" xmlns="http://www.w3.org/2000/svg">
<g clip-path="url(#clip0_93_3380)">
<path d="M23.375 30.25C19.5841 30.25 16.5 27.1659 16.5 23.375C16.5 19.5841 19.5841 16.5 23.375 16.5C27.1659 16.5 30.25 19.5841 30.25 23.375C30.25 27.1659 27.1659 30.25 23.375 30.25ZM23.375 17.875C20.3418 17.875 17.875 20.3418 17.875 23.375C17.875 26.4083 20.3418 28.875 23.375 28.875C26.4083 28.875 28.875 26.4083 28.875 23.375C28.875 20.3418 26.4083 17.875 23.375 17.875Z" fill="#F7A600"/>
<path d="M32.3125 32.9999C32.1365 32.9999 31.9605 32.9326 31.8257 32.7992L27.6072 28.5807C27.3391 28.3126 27.3391 27.8767 27.6072 27.6086C27.8753 27.3404 28.3112 27.3404 28.5793 27.6086L32.7978 31.8271C33.066 32.0952 33.066 32.5311 32.7978 32.7992C32.6645 32.9326 32.4885 32.9999 32.3125 32.9999Z" fill="#F7A600"/>
<path d="M4.8125 33H2.0625C0.925375 33 0 32.0746 0 30.9375V22.6875C0 21.5504 0.925375 20.625 2.0625 20.625H4.8125C5.94963 20.625 6.875 21.5504 6.875 22.6875V30.9375C6.875 32.0746 5.94963 33 4.8125 33ZM2.0625 22C1.68438 22 1.375 22.308 1.375 22.6875V30.9375C1.375 31.317 1.68438 31.625 2.0625 31.625H4.8125C5.19063 31.625 5.5 31.317 5.5 30.9375V22.6875C5.5 22.308 5.19063 22 4.8125 22H2.0625Z" fill="#F7A600"/>
<path d="M13.0625 33H10.3125C9.17538 33 8.25 32.0746 8.25 30.9375V17.1875C8.25 16.0504 9.17538 15.125 10.3125 15.125H13.0625C14.1996 15.125 15.125 16.0504 15.125 17.1875V30.9375C15.125 32.0746 14.1996 33 13.0625 33ZM10.3125 16.5C9.93438 16.5 9.625 16.808 9.625 17.1875V30.9375C9.625 31.317 9.93438 31.625 10.3125 31.625H13.0625C13.4406 31.625 13.75 31.317 13.75 30.9375V17.1875C13.75 16.808 13.4406 16.5 13.0625 16.5H10.3125Z" fill="#F7A600"/>
<path d="M17.1875 15.125C16.808 15.125 16.5 14.817 16.5 14.4375V8.9375C16.5 7.80037 17.4254 6.875 18.5625 6.875H21.3125C22.4496 6.875 23.375 7.80037 23.375 8.9375V13.0625C23.375 13.442 23.067 13.75 22.6875 13.75C22.308 13.75 22 13.442 22 13.0625V8.9375C22 8.558 21.6906 8.25 21.3125 8.25H18.5625C18.1844 8.25 17.875 8.558 17.875 8.9375V14.4375C17.875 14.817 17.567 15.125 17.1875 15.125Z" fill="#F7A600"/>
<path d="M30.9375 16.5C30.558 16.5 30.25 16.192 30.25 15.8125V2.0625C30.25 1.683 29.9406 1.375 29.5625 1.375H26.8125C26.4344 1.375 26.125 1.683 26.125 2.0625V13.0625C26.125 13.442 25.817 13.75 25.4375 13.75C25.058 13.75 24.75 13.442 24.75 13.0625V2.0625C24.75 0.925375 25.6754 0 26.8125 0H29.5625C30.6996 0 31.625 0.925375 31.625 2.0625V15.8125C31.625 16.192 31.317 16.5 30.9375 16.5Z" fill="#F7A600"/>
</g>
<defs>
<clipPath id="clip0_93_3380">
<rect width="33" height="33" fill="white"/>
</clipPath>
</defs>
</svg>
