<svg width="34" height="34" viewBox="0 0 34 34" fill="none" xmlns="http://www.w3.org/2000/svg">
<path d="M11.5362 13.1173C11.3832 13.4512 11.3161 13.8181 11.341 14.1845C11.366 14.551 11.4822 14.9054 11.6792 15.2155C11.8761 15.5255 12.1475 15.7814 12.4686 15.9598C12.7896 16.1382 13.1503 16.2334 13.5176 16.2368L20.4824 16.2368C20.8524 16.2377 21.2166 16.1444 21.5407 15.9657C21.8648 15.787 22.138 15.5287 22.3348 15.2153C23.5941 13.0553 20.8801 10.6762 19.027 10.0167C19.5654 9.59493 19.9589 9.01566 20.1525 8.35965C20.3462 7.70364 20.3303 7.00355 20.1073 6.35697C19.8842 5.71038 19.4649 5.14949 18.9079 4.75247C18.3509 4.35545 17.684 4.14208 17 4.14209C16.316 4.1421 15.649 4.35549 15.0921 4.75252C14.5351 5.14955 14.1158 5.71044 13.8928 6.35704C13.6697 7.00363 13.6539 7.70372 13.8475 8.35972C14.0412 9.01573 14.4347 9.59499 14.9731 10.0168C13.4631 10.556 12.2276 11.6705 11.5362 13.1173ZM16.9999 5.20457C17.587 5.20994 18.1483 5.44693 18.5615 5.86399C18.9748 6.28104 19.2066 6.84441 19.2066 7.43154C19.2066 8.01866 18.9748 8.58203 18.5615 8.99907C18.1482 9.41612 17.587 9.6531 16.9999 9.65846C16.4128 9.65309 15.8516 9.41609 15.4383 8.99904C15.0251 8.58198 14.7932 8.01861 14.7932 7.43149C14.7932 6.84437 15.0251 6.281 15.4384 5.86395C15.8516 5.44691 16.4128 5.20993 16.9999 5.20457ZM16.9999 10.7235C17.9427 10.7264 18.8656 10.9953 19.6624 11.4994C20.4591 12.0034 21.0974 12.7221 21.5039 13.5728C21.5861 13.7425 21.6231 13.9306 21.6114 14.1188C21.5997 14.307 21.5396 14.489 21.4369 14.6472C21.3356 14.8088 21.1948 14.942 21.0278 15.0342C20.8608 15.1264 20.6731 15.1746 20.4824 15.1743H13.5175C13.3268 15.1746 13.139 15.1264 12.9721 15.0342C12.8051 14.942 12.6643 14.8088 12.5629 14.6472C12.4603 14.489 12.4002 14.307 12.3885 14.1188C12.3767 13.9306 12.4138 13.7425 12.496 13.5728C12.9024 12.7221 13.5408 12.0034 14.3375 11.4994C15.1343 10.9953 16.0571 10.7264 16.9999 10.7235Z" fill="#F7A600"/>
<path d="M28.3852 14.0714H24.3088C24.1693 14.0735 24.0361 14.1304 23.9382 14.2298C23.8403 14.3292 23.7854 14.4631 23.7854 14.6027C23.7854 14.7422 23.8403 14.8762 23.9382 14.9756C24.0362 15.075 24.1693 15.1319 24.3088 15.1339H28.3852C28.7525 15.1305 29.1131 15.0352 29.4341 14.8568C29.7552 14.6784 30.0265 14.4225 30.2233 14.1124C30.4202 13.8023 30.5363 13.4479 30.5612 13.0815C30.5861 12.715 30.5189 12.3482 30.3657 12.0144C29.6751 10.5668 28.4388 9.45215 26.9276 8.9147C27.321 8.60796 27.6392 8.21561 27.8582 7.76746C28.0772 7.31932 28.1912 6.82715 28.1915 6.32836C28.0386 1.97772 21.7673 1.97393 21.6129 6.32841C21.6132 6.82923 21.7282 7.32333 21.949 7.77287C22.1697 8.2224 22.4904 8.61546 22.8865 8.92193C22.3778 9.15241 21.2305 9.39484 21.6045 10.1628C21.6781 10.2828 21.7961 10.3689 21.9329 10.4021C22.0697 10.4354 22.2141 10.4131 22.3345 10.3402C23.1092 9.86986 23.9984 9.62181 24.9046 9.62325C25.8467 9.62528 26.7689 9.89344 27.5652 10.3968C28.3615 10.9002 28.9993 11.6183 29.4052 12.4683C29.4839 12.6401 29.5184 12.8288 29.5055 13.0172C29.4926 13.2057 29.4327 13.3879 29.3313 13.5473C29.2299 13.7067 29.0902 13.8382 28.9249 13.9297C28.7597 14.0213 28.5741 14.07 28.3852 14.0714ZM24.9023 4.10167C25.4894 4.10697 26.0506 4.3439 26.4639 4.76091C26.8771 5.17793 27.109 5.74128 27.109 6.32838C27.109 6.91549 26.8771 7.47883 26.4638 7.89584C26.0506 8.31284 25.4893 8.54976 24.9022 8.55504C24.3152 8.54975 23.7539 8.31282 23.3407 7.8958C22.9274 7.47879 22.6955 6.91544 22.6955 6.32833C22.6956 5.74123 22.9274 5.17789 23.3407 4.76088C23.754 4.34387 24.3152 4.10695 24.9023 4.10167Z" fill="#F7A600"/>
<path d="M3.76468 14.1154C3.96148 14.428 4.23451 14.6855 4.55812 14.8636C4.88173 15.0417 5.24531 15.1347 5.61471 15.1338H9.69118C9.83033 15.1311 9.96288 15.074 10.0604 14.9747C10.1578 14.8753 10.2124 14.7417 10.2124 14.6025C10.2124 14.4633 10.1578 14.3297 10.0603 14.2304C9.96286 14.1311 9.8303 14.0739 9.69114 14.0713H5.61471C5.42586 14.0698 5.24038 14.0211 5.07518 13.9296C4.90997 13.8381 4.7703 13.7067 4.66888 13.5474C4.56746 13.3881 4.50753 13.2059 4.49454 13.0175C4.48155 12.8291 4.51592 12.6404 4.59452 12.4687C4.8966 11.8436 5.32527 11.2881 5.85335 10.8374C6.38143 10.3866 6.9974 10.0506 7.66221 9.85043C8.32701 9.65031 9.02615 9.5905 9.71529 9.6748C10.4044 9.75911 11.0685 9.98568 11.6655 10.3402C11.7859 10.4129 11.9303 10.4351 12.067 10.4019C12.2038 10.3686 12.3218 10.2826 12.3954 10.1627C12.7707 9.39369 11.6204 9.15372 11.1135 8.92177C11.6542 8.50186 12.0503 7.92358 12.2465 7.26766C12.4427 6.61175 12.4291 5.91095 12.2078 5.2631C11.9864 4.61525 11.5683 4.05269 11.0117 3.65398C10.4552 3.25526 9.78804 3.04029 9.10342 3.03907C8.4188 3.03785 7.75088 3.25045 7.19292 3.64718C6.63497 4.04391 6.21483 4.60497 5.99116 5.25203C5.76749 5.89909 5.75146 6.59984 5.94531 7.25645C6.13915 7.91306 6.5332 8.49274 7.07243 8.91458C5.21374 9.57268 2.50392 11.954 3.76468 14.1154ZM9.09767 4.10152C9.68485 4.10666 10.2462 4.34352 10.6596 4.76056C11.073 5.17759 11.305 5.74103 11.305 6.32823C11.305 6.91544 11.073 7.47888 10.6596 7.8959C10.2462 8.31292 9.6848 8.54977 9.09762 8.5549C8.51044 8.54976 7.94905 8.3129 7.53566 7.89587C7.12226 7.47883 6.89032 6.91539 6.89033 6.32819C6.89034 5.74098 7.12228 5.17755 7.53569 4.76052C7.94909 4.3435 8.51048 4.10665 9.09767 4.10152Z" fill="#F7A600"/>
<path d="M28.9973 20.9744L21.7546 23.115C21.6921 22.6675 21.5155 22.2436 21.2417 21.8841C20.968 21.5247 20.6063 21.2418 20.1914 21.0626C20.0843 21.0457 14.1254 18.4434 14.0152 18.4241C13.2584 18.1937 12.4625 18.121 11.6765 18.2104C10.8905 18.2998 10.1313 18.5494 9.44557 18.9439L2.39068 23.0169C2.26865 23.0874 2.1796 23.2035 2.14312 23.3396C2.10664 23.4757 2.12571 23.6207 2.19613 23.7427L5.19946 28.9447C5.23925 29.0138 5.29411 29.073 5.35995 29.1179C5.4258 29.1628 5.50092 29.1923 5.57974 29.2041L16.6063 30.8794C18.1117 31.1115 19.6519 30.8555 21.0013 30.1489L30.6686 25.1124C31.157 24.8514 31.5317 24.4191 31.7206 23.8986C31.9095 23.378 31.8992 22.806 31.6919 22.2926C31.4845 21.7791 31.0946 21.3605 30.5972 21.1172C30.0997 20.8738 29.5299 20.823 28.9973 20.9744ZM30.1778 24.1702L20.5105 29.2067C19.3605 29.808 18.0485 30.0262 16.7658 29.8293L5.99192 28.1925L3.38211 23.6717L9.97682 19.8642C10.532 19.5446 11.1465 19.3414 11.7827 19.2671C12.419 19.1928 13.0638 19.2489 13.6777 19.432L19.7738 22.0395C20.1118 22.1895 20.3856 22.4545 20.5466 22.7874C20.7076 23.1203 20.7453 23.4995 20.653 23.8575C20.5608 24.2156 20.3445 24.5293 20.0427 24.743C19.7408 24.9566 19.373 25.0562 19.0046 25.0242L14.8037 24.6013C14.7343 24.5944 14.6642 24.6011 14.5974 24.6212C14.5306 24.6414 14.4684 24.6744 14.4143 24.7186C14.3603 24.7627 14.3155 24.8171 14.2825 24.8786C14.2495 24.94 14.2289 25.0074 14.2219 25.0768C14.2149 25.1463 14.2217 25.2164 14.2418 25.2832C14.2619 25.35 14.295 25.4122 14.3391 25.4662C14.3833 25.5203 14.4376 25.5651 14.4991 25.5981C14.5606 25.6311 14.6279 25.6517 14.6974 25.6587L18.8986 26.0815C19.5001 26.1434 20.1044 25.9947 20.6085 25.6607C21.1125 25.3267 21.485 24.8282 21.6625 24.2501L29.2987 21.9934C29.5786 21.915 29.8775 21.9425 30.1384 22.0707C30.3992 22.199 30.6036 22.4189 30.7125 22.6884C30.8213 22.9579 30.8269 23.2581 30.7283 23.5315C30.6296 23.8049 30.4336 24.0323 30.1778 24.1702Z" fill="#F7A600"/>
</svg>
