<svg width="8" height="8" viewBox="0 0 8 8" fill="none" xmlns="http://www.w3.org/2000/svg">
<path d="M3.95089 7.38524C3.85452 7.38585 3.76017 7.35537 3.67986 7.29769C3.59956 7.24002 3.53693 7.15776 3.49998 7.0614C3.46303 6.96505 3.45341 6.85896 3.47237 6.75666C3.49132 6.65437 3.53799 6.5605 3.60641 6.48704L6.17783 3.70838L3.60641 0.929732C3.52693 0.829248 3.48539 0.699993 3.49011 0.567797C3.49483 0.4356 3.54545 0.310199 3.63185 0.216652C3.71826 0.123105 3.83409 0.0683031 3.9562 0.0631969C4.0783 0.0580907 4.19769 0.103057 4.29051 0.189109L7.20155 3.3407C7.29191 3.43911 7.34263 3.57224 7.34263 3.71101C7.34263 3.84978 7.29191 3.98291 7.20155 4.08132L4.29051 7.23291C4.20014 7.32995 4.07817 7.38466 3.95089 7.38524Z" fill="black"/>
<path d="M1.03878 7.38607C0.942409 7.38668 0.848058 7.3562 0.767752 7.29853C0.687446 7.24085 0.624824 7.15859 0.58787 7.06224C0.550916 6.96588 0.541304 6.85979 0.56026 6.7575C0.579215 6.6552 0.62588 6.56134 0.694303 6.48787L3.26572 3.70922L0.694303 0.930565C0.602943 0.831655 0.551618 0.697506 0.551618 0.557627C0.551618 0.417748 0.602943 0.283598 0.694303 0.184688C0.785663 0.0857791 0.909574 0.0302124 1.03878 0.0302124C1.16798 0.0302124 1.29189 0.0857791 1.38325 0.184688L4.29429 3.33628C4.38465 3.43469 4.43537 3.56782 4.43537 3.70659C4.43537 3.84536 4.38465 3.97849 4.29429 4.0769L1.38325 7.22849C1.33832 7.27812 1.28473 7.31761 1.2256 7.34466C1.16647 7.37171 1.10297 7.38578 1.03878 7.38607Z" fill="black"/>
</svg>
