<svg width="52" height="51" viewBox="0 0 52 51" fill="none" xmlns="http://www.w3.org/2000/svg">
<g clip-path="url(#clip0_93_1635)">
<path d="M26 -0.00012207C12.0806 -0.00012207 0.795898 11.2846 0.795898 25.204C0.795898 39.1233 12.0806 50.408 26 50.408C39.9193 50.408 51.2041 39.1233 51.2041 25.204C51.2041 11.2846 39.9193 -0.00012207 26 -0.00012207Z" fill="white"/>
<path d="M28.7576 22.9234L39.5471 10.3815H36.9904L27.6218 21.2715L20.1391 10.3815H11.5088L22.824 26.8491L11.5088 40.0013H14.0657L23.9592 28.5011L31.8614 40.0013H40.4918L28.7569 22.9234H28.7576ZM14.987 12.3063H18.9143L36.9915 38.164H33.0643L14.987 12.3063Z" fill="black"/>
</g>
<defs>
<clipPath id="clip0_93_1635">
<rect width="50.4082" height="50.4082" fill="white" transform="translate(0.795898)"/>
</clipPath>
</defs>
</svg>
