<svg width="52" height="51" viewBox="0 0 52 51" fill="none" xmlns="http://www.w3.org/2000/svg">
<g clip-path="url(#clip0_93_1810)">
<path d="M26 -3.43323e-05C12.0806 -3.43323e-05 0.795898 11.2847 0.795898 25.204C0.795898 39.1234 12.0806 50.4081 26 50.4081C39.9193 50.4081 51.2041 39.1234 51.2041 25.204C51.2041 11.2847 39.9193 -3.43323e-05 26 -3.43323e-05Z" fill="white"/>
<path d="M28.7576 22.9235L39.5471 10.3816H36.9904L27.6218 21.2716L20.1391 10.3816H11.5088L22.824 26.8492L11.5088 40.0014H14.0657L23.9592 28.5012L31.8614 40.0014H40.4918L28.7569 22.9235H28.7576ZM14.987 12.3064H18.9143L36.9915 38.1642H33.0643L14.987 12.3064Z" fill="black"/>
</g>
<defs>
<clipPath id="clip0_93_1810">
<rect width="50.4082" height="50.4082" fill="white" transform="translate(0.795898 4.19617e-05)"/>
</clipPath>
</defs>
</svg>
