<svg width="71" height="70" viewBox="0 0 71 70" fill="none" xmlns="http://www.w3.org/2000/svg">
<g clip-path="url(#clip0_93_1161)">
<path d="M35.5569 0C16.3159 0 0.716797 15.5991 0.716797 34.8401C0.716797 54.0812 16.3159 69.6803 35.5569 69.6803C54.798 69.6803 70.3971 54.0812 70.3971 34.8401C70.3971 15.5991 54.798 0 35.5569 0Z" fill="white"/>
<path d="M39.3688 31.6871L54.2834 14.3501H50.7492L37.7987 29.4037L27.4553 14.3501H15.5254L31.1667 37.1137L15.5254 55.2943H19.0599L32.7359 39.3972L43.6593 55.2943H55.5892L39.3679 31.6871H39.3688ZM20.3334 17.0108H25.7621L50.7507 52.7546H45.322L20.3334 17.0108Z" fill="#272761"/>
</g>
<defs>
<clipPath id="clip0_93_1161">
<rect width="69.6803" height="69.6803" fill="white" transform="translate(0.712891)"/>
</clipPath>
</defs>
</svg>
