<svg width="52" height="51" viewBox="0 0 52 51" fill="none" xmlns="http://www.w3.org/2000/svg">
<g clip-path="url(#clip0_93_1115)">
<path d="M26.001 -6.10352e-05C12.0816 -6.10352e-05 0.796875 11.2847 0.796875 25.204C0.796875 39.1234 12.0816 50.4081 26.001 50.4081C39.9203 50.4081 51.205 39.1234 51.205 25.204C51.205 11.2847 39.9203 -6.10352e-05 26.001 -6.10352e-05Z" fill="white"/>
<path d="M28.7586 22.9235L39.5481 10.3815H36.9914L27.6228 21.2716L20.1401 10.3815H11.5098L22.825 26.8492L11.5098 40.0014H14.0667L23.9602 28.5011L31.8624 40.0014H40.4927L28.7579 22.9235H28.7586ZM14.988 12.3064H18.9152L36.9925 38.1641H33.0652L14.988 12.3064Z" fill="black"/>
</g>
<defs>
<clipPath id="clip0_93_1115">
<rect width="50.4082" height="50.4082" fill="white" transform="translate(0.796875 3.05176e-05)"/>
</clipPath>
</defs>
</svg>
