<svg width="42" height="41" viewBox="0 0 42 41" fill="none" xmlns="http://www.w3.org/2000/svg">
<g clip-path="url(#clip0_93_1975)">
<path d="M20.6055 0C9.28402 0 0.105469 9.17855 0.105469 20.5C0.105469 31.8214 9.28402 41 20.6055 41C31.9269 41 41.1055 31.8214 41.1055 20.5C41.1055 9.17855 31.9269 0 20.6055 0Z" fill="white"/>
<path d="M22.8498 18.6448L31.6256 8.4436H29.546L21.926 17.3011L15.8399 8.4436H8.82031L18.0237 21.8377L8.82031 32.5352H10.9L18.947 23.1814L25.3743 32.5352H32.3939L22.8493 18.6448H22.8498ZM11.6493 10.0092H14.8436L29.547 31.0409H26.3527L11.6493 10.0092Z" fill="black"/>
</g>
<defs>
<clipPath id="clip0_93_1975">
<rect width="41" height="41" fill="white" transform="translate(0.105469)"/>
</clipPath>
</defs>
</svg>
