<svg width="54" height="54" viewBox="0 0 54 54" fill="none" xmlns="http://www.w3.org/2000/svg">
<g clip-path="url(#clip0_93_1930)">
<path d="M27.031 0C12.3621 0 0.469727 11.8924 0.469727 26.5612C0.469727 41.2301 12.3621 53.1224 27.031 53.1224C41.6998 53.1224 53.5922 41.2301 53.5922 26.5612C53.5922 11.8924 41.6998 0 27.031 0Z" fill="white"/>
<path d="M29.9403 24.1575L41.3108 10.9402H38.6164L28.7433 22.4166L20.8578 10.9402H11.7627L23.6872 28.2946L11.7627 42.155H14.4573L24.8835 30.0355L33.2112 42.155H42.3063L29.9396 24.1575H29.9403ZM15.4282 12.9687H19.5669L38.6176 40.2188H34.4788L15.4282 12.9687Z" fill="black"/>
</g>
<defs>
<clipPath id="clip0_93_1930">
<rect width="53.1224" height="53.1224" fill="white" transform="translate(0.469727)"/>
</clipPath>
</defs>
</svg>
