<svg width="19" height="19" viewBox="0 0 19 19" fill="none" xmlns="http://www.w3.org/2000/svg">
<g clip-path="url(#clip0_93_423)">
<path d="M9.5 0C4.25348 0 0 4.25348 0 9.5C0 14.7465 4.25348 19 9.5 19C14.7465 19 19 14.7465 19 9.5C19 4.25348 14.7465 0 9.5 0Z" fill="white"/>
<path d="M10.5386 8.64045L14.6054 3.91309H13.6417L10.1105 8.0178L7.29009 3.91309H4.03711L8.30207 10.1201L4.03711 15.0775H5.00088L8.72995 10.7428L11.7085 15.0775H14.9615L10.5383 8.64045H10.5386ZM5.34812 4.6386H6.82841L13.6421 14.385H12.1619L5.34812 4.6386Z" fill="black"/>
</g>
<defs>
<clipPath id="clip0_93_423">
<rect width="19" height="19" fill="white"/>
</clipPath>
</defs>
</svg>
