<svg width="52" height="51" viewBox="0 0 52 51" fill="none" xmlns="http://www.w3.org/2000/svg">
<g clip-path="url(#clip0_39_97)">
<path d="M26 -6.10352e-05C12.0806 -6.10352e-05 0.795898 11.2847 0.795898 25.204C0.795898 39.1234 12.0806 50.4081 26 50.4081C39.9193 50.4081 51.2041 39.1234 51.2041 25.204C51.2041 11.2847 39.9193 -6.10352e-05 26 -6.10352e-05Z" fill="white"/>
<path d="M28.7556 22.9238L39.5452 10.3818H36.9884L27.6198 21.2718L20.1372 10.3818H11.5068L22.822 26.8494L11.5068 40.0016H14.0638L23.9572 28.5014L31.8594 40.0016H40.4898L28.755 22.9238H28.7556ZM14.985 12.3066H18.9123L36.9896 38.1644H33.0623L14.985 12.3066Z" fill="black"/>
</g>
<defs>
<clipPath id="clip0_39_97">
<rect width="50.4082" height="50.4082" fill="white" transform="translate(0.795898 3.05176e-05)"/>
</clipPath>
</defs>
</svg>
