<svg width="52" height="51" viewBox="0 0 52 51" fill="none" xmlns="http://www.w3.org/2000/svg">
<g clip-path="url(#clip0_93_223)">
<path d="M26.001 0C12.0816 0 0.796875 11.2847 0.796875 25.2041C0.796875 39.1234 12.0816 50.4082 26.001 50.4082C39.9203 50.4082 51.205 39.1234 51.205 25.2041C51.205 11.2847 39.9203 0 26.001 0Z" fill="white"/>
<path d="M28.7586 22.9238L39.5481 10.3818H36.9914L27.6228 21.2719L20.1401 10.3818H11.5098L22.825 26.8495L11.5098 40.0017H14.0667L23.9602 28.5015L31.8624 40.0017H40.4927L28.7579 22.9238H28.7586ZM14.988 12.3067H18.9152L36.9925 38.1644H33.0652L14.988 12.3067Z" fill="black"/>
</g>
<defs>
<clipPath id="clip0_93_223">
<rect width="50.4082" height="50.4082" fill="white" transform="translate(0.796875)"/>
</clipPath>
</defs>
</svg>
