<svg width="19" height="19" viewBox="0 0 19 19" fill="none" xmlns="http://www.w3.org/2000/svg">
<g clip-path="url(#clip0_93_1754)">
<path d="M9.5 0C4.25348 0 0 4.25348 0 9.5C0 14.7465 4.25348 19 9.5 19C14.7465 19 19 14.7465 19 9.5C19 4.25348 14.7465 0 9.5 0Z" fill="white"/>
<path d="M10.5405 8.64045L14.6074 3.91309H13.6437L10.1124 8.0178L7.29204 3.91309H4.03906L8.30403 10.1201L4.03906 15.0775H5.00283L8.73191 10.7428L11.7104 15.0775H14.9634L10.5403 8.64045H10.5405ZM5.35008 4.6386H6.83036L13.6441 14.385H12.1638L5.35008 4.6386Z" fill="black"/>
</g>
<defs>
<clipPath id="clip0_93_1754">
<rect width="19" height="19" fill="white"/>
</clipPath>
</defs>
</svg>
