<svg width="27" height="43" viewBox="0 0 27 43" fill="none" xmlns="http://www.w3.org/2000/svg">
    <path
        d="M21.3085 0H5.41354C2.49188 0 0.115234 2.37664 0.115234 5.29831V21.1932C0.115234 24.1149 2.49188 26.4915 5.41354 26.4915H12.5435L9.86158 40.2832C9.75981 40.8014 9.89606 41.337 10.2324 41.744C10.567 42.151 11.0671 42.3864 11.5949 42.3864H17.3175C18.8542 42.3864 20.2184 41.3818 20.6824 39.9261L25.8237 27.7316C25.853 27.6617 25.8772 27.5902 25.8979 27.5177C26.3687 25.8241 26.6068 24.0744 26.6068 22.3177V5.29831C26.6068 2.37664 24.2301 0 21.3085 0Z"
        fill="#F7A600" />
</svg>