<svg width="18" height="14" viewBox="0 0 18 14" fill="none" xmlns="http://www.w3.org/2000/svg">
<path d="M16.6402 7.08301C16.6436 8.12882 16.4475 9.16508 16.0632 10.1326C15.6789 11.1001 15.1138 11.98 14.4003 12.7219C14.3355 12.7895 14.2994 12.881 14.2998 12.9761C14.3003 13.0713 14.3374 13.1623 14.4029 13.2293C14.4683 13.2962 14.5569 13.3335 14.649 13.333C14.7411 13.3325 14.8292 13.2942 14.894 13.2266C16.4578 11.5898 17.3346 9.38269 17.3346 7.08301C17.3346 4.78333 16.4578 2.57618 14.894 0.939436C14.8292 0.871799 14.7411 0.833517 14.649 0.833013C14.5569 0.832508 14.4683 0.869822 14.4029 0.936746C14.3374 1.00367 14.3003 1.09472 14.2998 1.18987C14.2994 1.28502 14.3355 1.37647 14.4003 1.44411C15.1138 2.18602 15.6789 3.06587 16.0632 4.0334C16.4475 5.00093 16.6436 6.03719 16.6402 7.08301ZM3.10859 13.2266C3.17337 13.2942 3.26151 13.3325 3.35362 13.333C3.44573 13.3335 3.53426 13.2962 3.59973 13.2293C3.66521 13.1623 3.70227 13.0713 3.70275 12.9761C3.70324 12.881 3.66712 12.7895 3.60234 12.7219C2.16708 11.2196 1.36234 9.19375 1.36234 7.08301C1.36234 4.97226 2.16708 2.94644 3.60234 1.44411C3.66712 1.37647 3.70324 1.28502 3.70275 1.18987C3.70227 1.09472 3.66521 1.00367 3.59973 0.936746C3.53426 0.869822 3.44573 0.832508 3.35362 0.833013C3.26151 0.833517 3.17337 0.871799 3.10859 0.939436C1.54479 2.57618 0.667969 4.78333 0.667969 7.08301C0.667969 9.38269 1.54479 11.5898 3.10859 13.2266Z" fill="#272761"/>
</svg>
