<svg width="22" height="21" viewBox="0 0 22 21" fill="none" xmlns="http://www.w3.org/2000/svg">
<path d="M11 0C4.9225 0 0 4.69875 0 10.5C0 16.3012 4.9225 21 11 21C17.0775 21 22 16.3012 22 10.5C22 4.69875 17.0775 0 11 0ZM11 3.15C12.8205 3.15 14.3 4.56225 14.3 6.3C14.3 8.043 12.8205 9.45 11 9.45C9.1795 9.45 7.7 8.043 7.7 6.3C7.7 4.56225 9.1795 3.15 11 3.15ZM11 18.06C8.2445 18.06 5.8245 16.716 4.4 14.679C4.4275 12.5947 8.8055 11.445 11 11.445C13.1945 11.445 17.567 12.5947 17.6 14.679C16.1755 16.716 13.7555 18.06 11 18.06Z" fill="black"/>
</svg>
