<svg width="15" height="19" viewBox="0 0 15 19" fill="none" xmlns="http://www.w3.org/2000/svg">
<path d="M7.5 0C11.6462 0 15 3.36509 15 7.54407C15 9.43479 14.3028 11.1492 13.1659 12.4764L12.8679 12.8625L9.07345 17.1969L8.77138 17.5861L7.52172 19L6.29172 17.5882L5.99276 17.1969L2.31 12.9981C2.30007 12.9876 2.28971 12.9775 2.27897 12.9679C2.26035 12.9501 2.23655 12.923 2.20241 12.8886C1.50425 12.1883 0.950242 11.3557 0.572267 10.4386C0.194292 9.52161 -0.000193224 8.53825 1.44051e-07 7.54512C1.44051e-07 3.36509 3.35379 0 7.5 0ZM7.50207 3.87116C6.53553 3.87309 5.60913 4.26123 4.92568 4.95059C4.24223 5.63996 3.85743 6.57438 3.85552 7.54929C3.85743 8.52439 4.24217 9.45903 4.92555 10.1487C5.60894 10.8384 6.53534 11.227 7.50207 11.2295C8.46899 11.227 9.3956 10.8385 10.0793 10.1489C10.763 9.45922 11.1482 8.52458 11.1507 7.54929C11.1485 6.57401 10.7634 5.63932 10.0796 4.94979C9.39575 4.26026 8.46898 3.87205 7.50207 3.87012V3.87116ZM7.50207 4.9146C7.8455 4.9135 8.18575 4.98088 8.50327 5.11287C8.82079 5.24486 9.10931 5.43886 9.35225 5.6837C9.59518 5.92855 9.78774 6.21941 9.91885 6.53958C10.05 6.85974 10.117 7.20289 10.1162 7.54929C10.1172 7.89583 10.0502 8.23913 9.91917 8.55948C9.78813 8.87982 9.59561 9.17088 9.35267 9.41592C9.10974 9.66096 8.82118 9.85515 8.50359 9.98732C8.18599 10.1195 7.84563 10.187 7.50207 10.1861C7.15864 10.1869 6.81844 10.1192 6.50103 9.98699C6.18361 9.85475 5.89524 9.66053 5.6525 9.41549C5.40975 9.17045 5.21742 8.87943 5.08657 8.55916C4.95571 8.23889 4.88891 7.89569 4.89 7.54929C4.88877 7.2029 4.95549 6.85969 5.08631 6.53942C5.21713 6.21914 5.40947 5.92813 5.65225 5.68315C5.89504 5.43817 6.18347 5.24405 6.50094 5.11197C6.81841 4.97989 7.15865 4.91246 7.50207 4.91356V4.9146Z" fill="#DC6A6A"/>
</svg>
