<svg width="18" height="18" viewBox="0 0 18 18" fill="none" xmlns="http://www.w3.org/2000/svg">
<path d="M13.0001 18H3.00001C2.19862 18 1.44526 17.6879 0.878658 17.1213C0.312052 16.5546 0 15.8013 0 15V4.99999C0 4.19865 0.312087 3.4453 0.878693 2.8787C1.4453 2.3121 2.19865 2.00001 3.00004 2.00001H7.00006C7.55238 2.00001 8.00007 2.4477 8.00007 3.00002C8.00007 3.55233 7.55238 4.00002 7.00006 4.00002H3.00001C2.73288 4.00002 2.48178 4.10405 2.29294 4.2929C2.10409 4.48174 2.00003 4.73287 2.00003 4.99999V15C2.00003 15.2671 2.10406 15.5182 2.29294 15.7071C2.48178 15.8959 2.73288 16 3.00001 16H13C13.2672 16 13.5183 15.896 13.7071 15.707C13.896 15.5182 14 15.2671 14 14.9999V11C14 10.4477 14.4477 10 15.0001 10C15.5524 10 16.0001 10.4477 16.0001 11V15C16.0001 15.8013 15.688 16.5546 15.1214 17.1213C14.5547 17.6879 13.8014 18 13.0001 18ZM7.00006 12C6.74411 12 6.48819 11.9024 6.29295 11.7071C5.90244 11.3166 5.90244 10.6834 6.29295 10.2929L14.5858 2.00001H11.0001C10.4478 2.00001 10.0001 1.55232 10.0001 1.00001C10.0001 0.447692 10.4478 0 11.0001 0H17.0001C17.1384 0 17.2702 0.0280855 17.39 0.0788421C17.5018 0.12614 17.6068 0.194677 17.6987 0.284488L17.6987 0.284558C17.6994 0.285222 17.7001 0.285851 17.7007 0.286514C17.7009 0.286689 17.7011 0.286899 17.7013 0.287073C17.7018 0.287562 17.7023 0.288086 17.7028 0.28861C17.7032 0.28896 17.7035 0.289274 17.7038 0.289623C17.7042 0.290008 17.7046 0.290427 17.705 0.290741C17.7057 0.29144 17.7064 0.292173 17.7071 0.292907C17.7078 0.293606 17.7086 0.294374 17.7093 0.295073C17.7097 0.295422 17.7101 0.295876 17.7104 0.296191C17.7108 0.29654 17.711 0.296854 17.7114 0.297204C17.7119 0.297728 17.7124 0.298217 17.7129 0.298776C17.7131 0.298915 17.7133 0.29916 17.7135 0.299335C17.7141 0.299998 17.7148 0.300662 17.7154 0.301326L17.7155 0.301396C17.8053 0.393337 17.8739 0.498344 17.9211 0.610127C17.9719 0.729944 18 0.861639 18 0.999971V6.99997C18 7.55228 17.5523 7.99998 17 7.99998C16.4476 7.99998 16 7.55228 16 6.99997V3.41424L7.70699 11.7071C7.51189 11.9024 7.25598 12 7.00006 12Z" fill="black"/>
</svg>
