<svg width="31" height="25" viewBox="0 0 31 25" fill="none" xmlns="http://www.w3.org/2000/svg">
<path d="M25.6976 14.1113L15.4797 23.6787L5.23701 14.0716L5.19523 14.0325L5.15002 13.9973C5.10194 13.9599 4.99362 13.8643 4.80894 13.6796C4.66219 13.5328 4.38883 13.2224 3.96816 12.7112C3.58152 12.2413 3.23815 11.7622 2.93687 11.274C2.6649 10.8333 2.40514 10.2713 2.16721 9.57244C1.94572 8.92184 1.84319 8.31432 1.84319 7.74442C1.84319 5.63617 2.45945 4.14079 3.56553 3.09083C4.68171 2.03129 6.28568 1.42986 8.53961 1.42986C9.08454 1.42986 9.65572 1.52144 10.2577 1.71652C10.874 1.91625 11.4417 2.18369 11.9644 2.51786L12.6322 1.47344L11.9644 2.51787C12.5555 2.89583 13.0513 3.24241 13.4567 3.55767C13.8638 3.8743 14.2499 4.21026 14.6154 4.56559L15.4796 5.40574L16.3437 4.56559C16.7092 4.21026 17.0953 3.8743 17.5024 3.55767L16.7414 2.57913L17.5024 3.55767C17.9078 3.24241 18.4036 2.89583 18.9947 2.51786C19.5174 2.18369 20.0851 1.91625 20.7014 1.71652C21.3034 1.52144 21.8746 1.42986 22.4195 1.42986C24.6734 1.42986 26.2774 2.03129 27.3936 3.09083C28.4997 4.14079 29.1159 5.63617 29.1159 7.74442C29.1159 9.65222 28.1027 11.7705 25.6976 14.1113Z" stroke="#DC6A6A" stroke-width="2.47934"/>
</svg>
