<svg width="35" height="27" viewBox="0 0 35 27" fill="none" xmlns="http://www.w3.org/2000/svg">
<path d="M34.5774 9.06623L17.7024 0.0662344C17.5365 -0.0220781 17.3391 -0.0220781 17.1731 0.0662344L0.298125 9.06623C0.114187 9.16411 0 9.3548 0 9.56236C0 9.76992 0.114188 9.96061 0.297563 10.0585L5.0625 12.5999V19.6874H6.1875V13.2L7.875 14.1V17.5172C6.90694 17.7687 6.1875 18.6417 6.1875 19.6874C6.1875 20.2015 6.3675 20.67 6.65887 21.0497C6.35175 22.0999 6.1875 23.1827 6.1875 24.2785V25.8749C6.1875 26.088 6.30788 26.2827 6.49856 26.3783L7.12012 26.6894C7.52738 26.8924 7.98244 26.9999 8.4375 26.9999C8.89256 26.9999 9.34762 26.8924 9.75487 26.6888L10.3764 26.3777C10.5671 26.2827 10.6875 26.088 10.6875 25.8749V24.2785C10.6875 23.1827 10.5233 22.0999 10.2161 21.0497C10.5075 20.67 10.6875 20.2015 10.6875 19.6874C10.6875 18.6417 9.96806 17.7687 9 17.5172V14.7002L17.1726 19.059C17.2558 19.1029 17.3464 19.1249 17.4375 19.1249C17.5286 19.1249 17.6192 19.1029 17.7024 19.059L28.6875 13.2V19.4095C25.5589 21.7669 21.6945 23.0624 17.7744 23.0624H17.1011C15.1701 23.0624 13.2609 22.7558 11.4261 22.1511L11.0745 23.2199C13.0219 23.8617 15.0502 24.1874 17.1006 24.1874H17.7739C22.0343 24.1874 26.2322 22.7468 29.5954 20.1312C29.7321 20.0249 29.8125 19.8612 29.8125 19.6874V12.5999L34.5774 10.0585C34.7608 9.96061 34.875 9.76992 34.875 9.56236C34.875 9.3548 34.7608 9.16411 34.5774 9.06623ZM9.5625 25.5272L9.25144 25.6825C8.748 25.9339 8.12644 25.9339 7.623 25.6825L7.3125 25.5272V24.2785C7.3125 23.433 7.41544 22.5955 7.6185 21.7776C7.87275 21.8777 8.14781 21.9374 8.4375 21.9374C8.72719 21.9374 9.00225 21.8777 9.2565 21.7776C9.45956 22.5955 9.5625 23.433 9.5625 24.2785V25.5272ZM9.5625 19.6874C9.5625 20.3078 9.05794 20.8124 8.4375 20.8124C7.81706 20.8124 7.3125 20.3078 7.3125 19.6874C7.3125 19.0669 7.81706 18.5624 8.4375 18.5624C9.05794 18.5624 9.5625 19.0669 9.5625 19.6874ZM17.4375 17.9245L9.387 13.6309L16.3558 9.91448C16.6759 10.045 17.0404 10.1249 17.4375 10.1249C18.6992 10.1249 19.6875 9.38348 19.6875 8.43736C19.6875 7.49123 18.6992 6.74986 17.4375 6.74986C16.1758 6.74986 15.1875 7.49123 15.1875 8.43736C15.1875 8.69442 15.2657 8.93405 15.3973 9.15061L8.19169 12.9936L1.75781 9.56236L17.4375 1.19967L33.1172 9.56236L17.4375 17.9245ZM16.3125 8.43736C16.3125 8.20786 16.7507 7.87486 17.4375 7.87486C18.1243 7.87486 18.5625 8.20786 18.5625 8.43736C18.5625 8.66686 18.1243 8.99986 17.4375 8.99986C16.7507 8.99986 16.3125 8.66686 16.3125 8.43736Z" fill="#F7A600"/>
</svg>
