<svg width="24" height="21" viewBox="0 0 24 21" fill="none" xmlns="http://www.w3.org/2000/svg">
    <path
        d="M12.0001 19.6627L3.73769 11.913L3.70399 11.8814L3.66751 11.8531C3.62873 11.8229 3.54135 11.7457 3.39237 11.5968C3.274 11.4784 3.05349 11.228 2.71415 10.8156C2.40226 10.4366 2.12527 10.0501 1.88224 9.65629C1.66285 9.3008 1.45331 8.84746 1.26138 8.28368C1.08271 7.75886 1 7.2688 1 6.80908C1 5.10843 1.49712 3.90215 2.38936 3.05518C3.28974 2.20049 4.58361 1.71533 6.40179 1.71533C6.84136 1.71533 7.30211 1.78921 7.78769 1.94657C8.28485 2.10769 8.74283 2.32342 9.16444 2.59299C9.64129 2.89789 10.0412 3.17746 10.3682 3.43177C10.6966 3.68718 11.0081 3.95819 11.3029 4.24483L12 4.92254L12.6971 4.24483C12.9919 3.95819 13.3034 3.68718 13.6318 3.43177L13.058 2.69406L13.6318 3.43177C13.9588 3.17746 14.3587 2.89789 14.8356 2.59299C15.2572 2.32342 15.7152 2.10769 16.2123 1.94657C16.6979 1.78921 17.1586 1.71533 17.5982 1.71533C19.4164 1.71533 20.7103 2.20049 21.6106 3.05518C22.5029 3.90215 23 5.10843 23 6.80908C23 8.34803 22.1827 10.0567 20.2426 11.945L12.0001 19.6627Z"
        stroke="#DC6A6A" stroke-width="2" />
</svg>