<svg width="30" height="25" viewBox="0 0 30 25" fill="none" xmlns="http://www.w3.org/2000/svg">
<path d="M25.2015 14.1113L14.9836 23.6787L4.74092 14.0716L4.69914 14.0325L4.65393 13.9973C4.60585 13.9599 4.49753 13.8643 4.31284 13.6796C4.1661 13.5328 3.89274 13.2224 3.47207 12.7112C3.08543 12.2413 2.74205 11.7622 2.44078 11.274C2.16881 10.8333 1.90905 10.2713 1.67111 9.57244C1.44962 8.92184 1.34709 8.31432 1.34709 7.74442C1.34709 5.63617 1.96335 4.14079 3.06944 3.09083C4.18561 2.03129 5.78958 1.42986 8.04352 1.42986C8.58845 1.42986 9.15962 1.52144 9.76159 1.71652C10.3779 1.91625 10.9456 2.18369 11.4683 2.51786L12.1361 1.47344L11.4683 2.51787C12.0594 2.89583 12.5552 3.24241 12.9606 3.55767C13.3677 3.8743 13.7538 4.21026 14.1193 4.56559L14.9835 5.40574L15.8476 4.56559C16.2131 4.21026 16.5993 3.8743 17.0063 3.55767L16.2453 2.57913L17.0063 3.55767C17.4117 3.24241 17.9075 2.89583 18.4986 2.51786C19.0213 2.18369 19.589 1.91625 20.2053 1.71652C20.8073 1.52144 21.3785 1.42986 21.9234 1.42986C24.1773 1.42986 25.7813 2.03129 26.8975 3.09083C28.0036 4.14079 28.6198 5.63617 28.6198 7.74442C28.6198 9.65222 27.6066 11.7705 25.2015 14.1113Z" stroke="#DC6A6A" stroke-width="2.47934"/>
</svg>
