<svg width="23" height="22" viewBox="0 0 23 22" fill="none" xmlns="http://www.w3.org/2000/svg">
    <path
        d="M11.4612 21.5386C17.3989 21.5386 22.2305 16.707 22.2305 10.7693C22.2305 4.83173 17.3989 0.000110626 11.4612 0.000110626C5.52362 0.000110626 0.692005 4.83173 0.692005 10.7693C0.692005 16.707 5.52362 21.5386 11.4612 21.5386ZM6.72493 9.97404L9.59601 6.59303C9.83831 6.30711 10.1851 6.15957 10.5324 6.15957C10.8129 6.15957 11.0962 6.25596 11.3277 6.45196C11.8446 6.88973 11.9082 7.66565 11.4693 8.18311L10.3159 9.54057L15.2622 9.54057C15.9407 9.54057 16.4905 10.0903 16.4905 10.7688C16.4905 11.4473 15.9407 11.997 15.2622 11.997L10.3159 11.997L11.4693 13.3545C11.9082 13.872 11.8446 14.6468 11.3277 15.0867C10.8108 15.5256 10.0354 15.462 9.59601 14.9446L6.72493 11.5636C6.33508 11.1059 6.33508 10.4328 6.72493 9.97404Z"
        fill="#F7A600" />
</svg>