<svg width="16" height="20" viewBox="0 0 16 20" fill="none" xmlns="http://www.w3.org/2000/svg">
<path d="M7.58441 0.520508C11.7773 0.520508 15.1688 3.92348 15.1688 8.14949C15.1688 10.0615 14.4637 11.7951 13.314 13.1373L13.0128 13.5278L9.17557 17.911L8.8701 18.3046L7.60638 19.7344L6.36254 18.3067L6.06021 17.911L2.336 13.6649C2.32595 13.6543 2.31549 13.6441 2.30462 13.6343C2.28579 13.6164 2.26172 13.589 2.2272 13.5541C1.52118 12.846 0.960937 12.004 0.578708 11.0766C0.196479 10.1493 -0.000195398 9.15485 1.45672e-07 8.15054C1.45672e-07 3.92348 3.39154 0.520508 7.58441 0.520508ZM7.58651 4.43524C6.60909 4.43719 5.67226 4.8297 4.98112 5.52682C4.28998 6.22394 3.90085 7.16888 3.89891 8.15476C3.90085 9.14084 4.28991 10.086 4.98099 10.7835C5.67207 11.4809 6.6089 11.8739 7.58651 11.8764C8.56431 11.8739 9.50135 11.481 10.1928 10.7836C10.8842 10.0862 11.2737 9.14103 11.2762 8.15476C11.274 7.16851 10.8845 6.2233 10.193 5.52601C9.5015 4.82872 8.5643 4.43614 7.58651 4.43418V4.43524ZM7.58651 5.49042C7.9338 5.48931 8.27788 5.55745 8.59897 5.69093C8.92007 5.8244 9.21184 6.02058 9.45751 6.26818C9.70318 6.51578 9.8979 6.80992 10.0305 7.13369C10.1631 7.45746 10.2309 7.80447 10.2301 8.15476C10.231 8.5052 10.1633 8.85237 10.0308 9.17632C9.8983 9.50027 9.70361 9.79461 9.45794 10.0424C9.21227 10.2902 8.92046 10.4866 8.59929 10.6202C8.27813 10.7539 7.93394 10.8222 7.58651 10.8212C7.23922 10.822 6.89518 10.7536 6.5742 10.6199C6.25321 10.4862 5.96159 10.2898 5.71612 10.042C5.47064 9.79417 5.27615 9.49987 5.14382 9.176C5.01149 8.85212 4.94393 8.50506 4.94504 8.15476C4.94379 7.80448 5.01126 7.4574 5.14355 7.13352C5.27585 6.80965 5.47035 6.51536 5.71587 6.26762C5.96139 6.01988 6.25307 5.82358 6.57411 5.69001C6.89516 5.55644 7.23923 5.48825 7.58651 5.48937V5.49042Z" fill="#DC6A6A"/>
</svg>
