<svg width="20" height="15" viewBox="0 0 20 15" fill="none" xmlns="http://www.w3.org/2000/svg">
<path d="M17.0728 0.117103C17.0074 0.0603776 16.9224 0.0300414 16.8349 0.0322358C16.7475 0.0344303 16.6642 0.0689915 16.6019 0.128922C16.5396 0.188853 16.5029 0.269675 16.4993 0.355026C16.4957 0.440376 16.5254 0.523878 16.5824 0.588625C18.3304 2.32099 19.3103 4.6556 19.3103 7.08788C19.3103 9.52017 18.3304 11.8548 16.5824 13.5871C16.5497 13.6184 16.5237 13.6557 16.5059 13.6969C16.4881 13.7381 16.4789 13.7823 16.4788 13.827C16.4787 13.8717 16.4877 13.9159 16.5052 13.9572C16.5228 13.9985 16.5486 14.0359 16.5812 14.0673C16.6137 14.0988 16.6523 14.1236 16.6948 14.1403C16.7372 14.157 16.7826 14.1652 16.8284 14.1646C16.8742 14.164 16.9193 14.1545 16.9613 14.1366C17.0032 14.1188 17.0411 14.093 17.0728 14.0607C18.9485 12.2023 20 9.69749 20 7.08788C20 4.47827 18.9485 1.9735 17.0728 0.115082V0.117103ZM0.689625 7.08889C0.681682 4.65478 1.66276 2.31701 3.41757 0.588625C3.45288 0.557993 3.48137 0.520604 3.50128 0.478774C3.52119 0.436945 3.53208 0.391567 3.5333 0.345454C3.53451 0.299341 3.52601 0.253476 3.50833 0.210703C3.49065 0.167929 3.46416 0.12916 3.43051 0.0967975C3.39685 0.0644352 3.35675 0.0391701 3.31269 0.0225686C3.26862 0.00596714 3.22154 -0.0016168 3.17435 0.000286985C3.12716 0.00219077 3.08088 0.0135417 3.03837 0.033636C2.99586 0.0537304 2.95803 0.0821397 2.92722 0.117103C1.05152 1.97552 0 4.48029 0 7.0899C0 9.69951 1.05152 12.2043 2.92722 14.0627C2.95885 14.095 2.99675 14.1208 3.03871 14.1387C3.08066 14.1565 3.12584 14.166 3.17159 14.1666C3.21735 14.1673 3.26277 14.159 3.30522 14.1423C3.34766 14.1256 3.38628 14.1008 3.41882 14.0694C3.45136 14.0379 3.47717 14.0005 3.49475 13.9592C3.51233 13.918 3.52132 13.8737 3.5212 13.829C3.52109 13.7843 3.51186 13.7401 3.49407 13.6989C3.47628 13.6577 3.45027 13.6204 3.41757 13.5892C1.66276 11.8608 0.681682 9.523 0.689625 7.08889Z" fill="#272761"/>
</svg>
