<svg width="18" height="14" viewBox="0 0 18 14" fill="none" xmlns="http://www.w3.org/2000/svg">
<path d="M16.6402 7.08325C16.6436 8.12907 16.4475 9.16533 16.0632 10.1329C15.6789 11.1004 15.1138 11.9802 14.4003 12.7222C14.3355 12.7898 14.2994 12.8812 14.2998 12.9764C14.3003 13.0715 14.3374 13.1626 14.4029 13.2295C14.4683 13.2964 14.5569 13.3338 14.649 13.3332C14.7411 13.3327 14.8292 13.2945 14.894 13.2268C16.4578 11.5901 17.3346 9.38293 17.3346 7.08325C17.3346 4.78357 16.4578 2.57642 14.894 0.93968C14.8292 0.872043 14.7411 0.833762 14.649 0.833257C14.5569 0.832753 14.4683 0.870066 14.4029 0.93699C14.3374 1.00391 14.3003 1.09496 14.2998 1.19011C14.2994 1.28526 14.3355 1.37671 14.4003 1.44435C15.1138 2.18627 15.6789 3.06611 16.0632 4.03364C16.4475 5.00117 16.6436 6.03744 16.6402 7.08325ZM3.10859 13.2268C3.17337 13.2945 3.26151 13.3327 3.35362 13.3332C3.44573 13.3338 3.53426 13.2964 3.59973 13.2295C3.66521 13.1626 3.70227 13.0715 3.70275 12.9764C3.70324 12.8812 3.66712 12.7898 3.60234 12.7222C2.16708 11.2198 1.36234 9.194 1.36234 7.08325C1.36234 4.97251 2.16708 2.94669 3.60234 1.44435C3.66712 1.37671 3.70324 1.28526 3.70275 1.19011C3.70227 1.09496 3.66521 1.00391 3.59973 0.93699C3.53426 0.870066 3.44573 0.832753 3.35362 0.833257C3.26151 0.833762 3.17337 0.872043 3.10859 0.93968C1.54479 2.57642 0.667969 4.78357 0.667969 7.08325C0.667969 9.38293 1.54479 11.5901 3.10859 13.2268Z" fill="#272761"/>
</svg>
