<svg width="31" height="25" viewBox="0 0 31 25" fill="none" xmlns="http://www.w3.org/2000/svg">
<path d="M25.9867 14.1113L15.7687 23.6787L5.52607 14.0716L5.48429 14.0325L5.43908 13.9973C5.391 13.9599 5.28268 13.8643 5.098 13.6796C4.95125 13.5328 4.6779 13.2224 4.25723 12.7112C3.87058 12.2413 3.52721 11.7622 3.22593 11.274C2.95396 10.8333 2.69421 10.2713 2.45627 9.57244C2.23478 8.92184 2.13225 8.31432 2.13225 7.74442C2.13225 5.63617 2.74851 4.14079 3.85459 3.09083C4.97077 2.03129 6.57474 1.42986 8.82868 1.42986C9.3736 1.42986 9.94478 1.52144 10.5467 1.71652C11.1631 1.91625 11.7308 2.18369 12.2534 2.51786L12.9212 1.47344L12.2535 2.51787C12.8446 2.89583 13.3404 3.24241 13.7457 3.55767C14.1528 3.8743 14.539 4.21026 14.9045 4.56559L15.7686 5.40574L16.6328 4.56559C16.9982 4.21026 17.3844 3.8743 17.7915 3.55767L17.0304 2.57913L17.7915 3.55767C18.1968 3.24241 18.6926 2.89583 19.2838 2.51786C19.8064 2.18369 20.3742 1.91625 20.9905 1.71652C21.5924 1.52144 22.1636 1.42986 22.7085 1.42986C24.9625 1.42986 26.5665 2.03129 27.6826 3.09083C28.7887 4.14079 29.405 5.63617 29.405 7.74442C29.405 9.65222 28.3917 11.7705 25.9867 14.1113Z" stroke="#DC6A6A" stroke-width="2.47934"/>
</svg>
