<svg width="17" height="18" viewBox="0 0 17 18" fill="none" xmlns="http://www.w3.org/2000/svg">
<path d="M8.25 0.75C6.61831 0.75 5.02326 1.23385 3.66655 2.14038C2.30984 3.0469 1.25242 4.33537 0.627998 5.84286C0.00357462 7.35035 -0.159803 9.00915 0.158525 10.6095C0.476853 12.2098 1.26259 13.6798 2.41637 14.8336C3.57016 15.9874 5.04017 16.7732 6.64051 17.0915C8.24085 17.4098 9.89965 17.2464 11.4071 16.622C12.9146 15.9976 14.2031 14.9402 15.1096 13.5835C16.0162 12.2268 16.5 10.6317 16.5 9C16.4974 6.81276 15.6274 4.71584 14.0808 3.16922C12.5342 1.6226 10.4372 0.75258 8.25 0.75ZM11.0303 11.7803C10.8896 11.9209 10.6989 11.9998 10.5 11.9998C10.3011 11.9998 10.1104 11.9209 9.96975 11.7803L7.71975 9.53025C7.57909 9.38963 7.50005 9.1989 7.5 9V4.5C7.5 4.30109 7.57902 4.11032 7.71967 3.96967C7.86033 3.82902 8.05109 3.75 8.25 3.75C8.44892 3.75 8.63968 3.82902 8.78033 3.96967C8.92099 4.11032 9 4.30109 9 4.5V8.6895L11.0303 10.7198C11.1709 10.8604 11.2498 11.0511 11.2498 11.25C11.2498 11.4489 11.1709 11.6396 11.0303 11.7803Z" fill="#272761"/>
</svg>
