<svg width="7" height="10" viewBox="0 0 7 10" fill="none" xmlns="http://www.w3.org/2000/svg">
<path d="M1.59639 9.99968C1.45664 10.0005 1.3198 9.95967 1.20334 9.88241C1.08687 9.80515 0.996054 9.69496 0.942461 9.56588C0.888868 9.43681 0.874928 9.29469 0.902418 9.15767C0.929909 9.02064 0.997584 8.8949 1.09682 8.79648L4.82605 5.07428L1.09682 1.35208C0.96432 1.21959 0.889885 1.03988 0.889885 0.852504C0.889885 0.665127 0.96432 0.485424 1.09682 0.352928C1.22931 0.220432 1.40902 0.145996 1.59639 0.145996C1.78377 0.145996 1.96347 0.220432 2.09597 0.352928L6.31775 4.5747C6.4488 4.70654 6.52236 4.88487 6.52236 5.07076C6.52236 5.25665 6.4488 5.43499 6.31775 5.56682L2.09597 9.7886C2.0308 9.85508 1.95309 9.90797 1.86734 9.94421C1.78158 9.98044 1.68949 9.9993 1.59639 9.99968Z" fill="#272761"/>
</svg>
