<svg width="27" height="43" viewBox="0 0 27 43" fill="none" xmlns="http://www.w3.org/2000/svg">
    <path
        d="M21.285 0H5.3901C2.46844 0 0.0917969 2.37664 0.0917969 5.29831V21.1932C0.0917969 24.1149 2.46844 26.4915 5.3901 26.4915H12.5192L9.83812 40.2832C9.73722 40.8014 9.87348 41.337 10.2089 41.744C10.5444 42.151 11.0437 42.3864 11.5715 42.3864H17.2932C18.829 42.3864 20.1942 41.3818 20.659 39.927L25.8003 27.7316C25.8296 27.6617 25.8546 27.5902 25.8745 27.5177C26.3453 25.8258 26.5833 24.0761 26.5833 22.3177V5.29831C26.5833 2.37664 24.2067 0 21.285 0Z"
        fill="#F7A600" />
</svg>