<svg width="31" height="25" viewBox="0 0 31 25" fill="none" xmlns="http://www.w3.org/2000/svg">
<path d="M25.7308 14.1113L15.5129 23.6787L5.27021 14.0716L5.22844 14.0325L5.18322 13.9973C5.13514 13.9599 5.02682 13.8643 4.84214 13.6796C4.69539 13.5328 4.42204 13.2224 4.00137 12.7112C3.61472 12.2413 3.27135 11.7622 2.97007 11.274C2.6981 10.8333 2.43835 10.2713 2.20041 9.57244C1.97892 8.92184 1.87639 8.31432 1.87639 7.74442C1.87639 5.63617 2.49265 4.14079 3.59873 3.09083C4.71491 2.03129 6.31888 1.42986 8.57282 1.42986C9.11774 1.42986 9.68892 1.52144 10.2909 1.71652C10.9072 1.91625 11.4749 2.18369 11.9976 2.51786L12.6654 1.47344L11.9976 2.51787C12.5887 2.89583 13.0845 3.24241 13.4899 3.55767C13.897 3.8743 14.2831 4.21026 14.6486 4.56559L15.5128 5.40574L16.3769 4.56559C16.7424 4.21026 17.1285 3.8743 17.5356 3.55767L16.7746 2.57913L17.5356 3.55767C17.941 3.24241 18.4368 2.89583 19.0279 2.51786C19.5506 2.18369 20.1183 1.91625 20.7346 1.71652C21.3366 1.52144 21.9078 1.42986 22.4527 1.42986C24.7066 1.42986 26.3106 2.03129 27.4268 3.09083C28.5329 4.14079 29.1491 5.63617 29.1491 7.74442C29.1491 9.65222 28.1359 11.7705 25.7308 14.1113Z" stroke="#DC6A6A" stroke-width="2.47934"/>
</svg>
