<svg width="19" height="24" viewBox="0 0 19 24" fill="none" xmlns="http://www.w3.org/2000/svg">
<path d="M0 11.875C0 12.1899 0.125111 12.492 0.347811 12.7147C0.57051 12.9374 0.872555 13.0625 1.1875 13.0625H10.2006L7.46938 15.7819C7.35807 15.8923 7.26973 16.0236 7.20944 16.1683C7.14915 16.313 7.11811 16.4682 7.11811 16.625C7.11811 16.7818 7.14915 16.937 7.20944 17.0817C7.26973 17.2264 7.35807 17.3577 7.46938 17.4681C7.57977 17.5794 7.71111 17.6678 7.85581 17.7281C8.00052 17.7883 8.15574 17.8194 8.3125 17.8194C8.46926 17.8194 8.62448 17.7883 8.76919 17.7281C8.91389 17.6678 9.04523 17.5794 9.15563 17.4681L13.9056 12.7181C14.0137 12.6052 14.0985 12.472 14.155 12.3263C14.2738 12.0371 14.2738 11.7129 14.155 11.4238C14.0985 11.278 14.0137 11.1448 13.9056 11.0319L9.15563 6.28188C9.0449 6.17115 8.91346 6.08333 8.7688 6.02341C8.62413 5.96348 8.46908 5.93264 8.3125 5.93264C8.15592 5.93264 8.00087 5.96348 7.8562 6.02341C7.71154 6.08333 7.5801 6.17115 7.46938 6.28188C7.35865 6.3926 7.27083 6.52404 7.2109 6.6687C7.15098 6.81337 7.12014 6.96842 7.12014 7.125C7.12014 7.28158 7.15098 7.43663 7.2109 7.5813C7.27083 7.72596 7.35865 7.85741 7.46938 7.96813L10.2006 10.6875H1.1875C0.872555 10.6875 0.57051 10.8126 0.347811 11.0353C0.125111 11.258 0 11.5601 0 11.875ZM15.4375 0H3.5625C2.61767 0 1.71153 0.375334 1.04343 1.04343C0.375334 1.71153 0 2.61767 0 3.5625V7.125C0 7.43995 0.125111 7.74199 0.347811 7.96469C0.57051 8.18739 0.872555 8.3125 1.1875 8.3125C1.50244 8.3125 1.80449 8.18739 2.02719 7.96469C2.24989 7.74199 2.375 7.43995 2.375 7.125V3.5625C2.375 3.24756 2.50011 2.94551 2.72281 2.72281C2.94551 2.50011 3.24756 2.375 3.5625 2.375H15.4375C15.7524 2.375 16.0545 2.50011 16.2772 2.72281C16.4999 2.94551 16.625 3.24756 16.625 3.5625V20.1875C16.625 20.5024 16.4999 20.8045 16.2772 21.0272C16.0545 21.2499 15.7524 21.375 15.4375 21.375H3.5625C3.24756 21.375 2.94551 21.2499 2.72281 21.0272C2.50011 20.8045 2.375 20.5024 2.375 20.1875V16.625C2.375 16.3101 2.24989 16.008 2.02719 15.7853C1.80449 15.5626 1.50244 15.4375 1.1875 15.4375C0.872555 15.4375 0.57051 15.5626 0.347811 15.7853C0.125111 16.008 0 16.3101 0 16.625V20.1875C0 21.1323 0.375334 22.0385 1.04343 22.7066C1.71153 23.3747 2.61767 23.75 3.5625 23.75H15.4375C16.3823 23.75 17.2885 23.3747 17.9566 22.7066C18.6247 22.0385 19 21.1323 19 20.1875V3.5625C19 2.61767 18.6247 1.71153 17.9566 1.04343C17.2885 0.375334 16.3823 0 15.4375 0Z" fill="#DC6A6A"/>
</svg>
