<svg width="32" height="28" viewBox="0 0 32 28" fill="none" xmlns="http://www.w3.org/2000/svg">
<path d="M15.8155 27.147L15.8156 27.1469L15.8061 27.1378L4.78683 16.4578L4.76238 16.4341L4.73584 16.4127C4.65488 16.3477 4.51867 16.2207 4.31781 16.0131C4.13903 15.8284 3.83189 15.4662 3.38444 14.9043C2.95664 14.3671 2.57523 13.8174 2.23956 13.2554C1.9205 12.7211 1.62602 12.0575 1.36173 11.2553C1.10668 10.4812 0.983581 9.7426 0.983581 9.03662C0.983581 6.58094 1.68439 4.75422 3.0064 3.45745C4.33111 2.15805 6.19377 1.46747 8.69106 1.46747C9.33448 1.46747 10.0005 1.57936 10.692 1.81093C11.3922 2.0454 12.0407 2.36063 12.6397 2.75634C13.2793 3.17894 13.8221 3.57058 14.2709 3.93133C14.7209 4.29294 15.1481 4.67696 15.5527 5.08344L16.0726 5.60576L16.5925 5.08344C16.9971 4.67696 17.4243 4.29294 17.8742 3.93133C18.3231 3.57058 18.8659 3.17894 19.5055 2.75634C20.1044 2.36063 20.753 2.0454 21.4532 1.81093C22.1447 1.57936 22.8107 1.46747 23.4541 1.46747C25.9514 1.46747 27.8141 2.15805 29.1388 3.45745C30.4608 4.75422 31.1616 6.58094 31.1616 9.03662C31.1616 11.3809 29.955 13.8651 27.3361 16.4976L16.3395 27.1373L16.3394 27.1373L16.3297 27.147C16.2583 27.2187 16.1877 27.2503 16.0726 27.2503C15.9575 27.2503 15.8868 27.2187 15.8155 27.147Z" stroke="#DC6A6A" stroke-width="1.46716"/>
</svg>
