<svg width="22" height="22" viewBox="0 0 22 22" fill="none" xmlns="http://www.w3.org/2000/svg">
<path d="M11.2302 0C5.29255 0 0.460938 4.83162 0.460938 10.7692C0.460938 16.7068 5.29255 21.5385 11.2302 21.5385C17.1678 21.5385 21.9994 16.7068 21.9994 10.7692C21.9994 4.83162 17.1678 0 11.2302 0ZM15.9665 11.5645L13.0954 14.9455C12.8531 15.2315 12.5063 15.379 12.159 15.379C11.8785 15.379 11.5952 15.2826 11.3637 15.0866C10.8468 14.6488 10.7832 13.8729 11.2221 13.3555L12.3755 11.998H7.42917C6.75071 11.998 6.20094 11.4482 6.20094 10.7698C6.20094 10.0913 6.75071 9.54154 7.42917 9.54154H12.3755L11.2221 8.18408C10.7832 7.66662 10.8468 6.89177 11.3637 6.45185C11.8806 6.013 12.656 6.07654 13.0954 6.594L15.9665 9.975C16.3563 10.4327 16.3563 11.1058 15.9665 11.5645Z" fill="#F7A600"/>
</svg>
