<svg width="15" height="18" viewBox="0 0 15 18" fill="none" xmlns="http://www.w3.org/2000/svg">
<path d="M12.5243 0H11.2106V1.8C11.2106 2.16 10.9916 2.4 10.7727 2.4C10.5537 2.4 10.3348 2.16 10.3348 1.8V0H3.32814V1.8C3.32814 2.16 3.10918 2.4 2.89023 2.4C2.67127 2.4 2.45231 2.16 2.45231 1.8V0H1.13857C0.481704 0 0 0.78 0 1.8V3.96H14.0132V1.8C14.0132 0.78 13.225 0 12.5243 0ZM0 5.22V16.2C0 17.28 0.481704 18 1.18237 18H12.5681C13.2688 18 14.057 17.22 14.057 16.2V5.22H0ZM3.89743 15.3H2.84644C2.67127 15.3 2.4961 15.12 2.4961 14.82V13.32C2.4961 13.08 2.62748 12.84 2.84644 12.84H3.94122C4.11638 12.84 4.29155 13.02 4.29155 13.32V14.82C4.24776 15.12 4.11638 15.3 3.89743 15.3ZM3.89743 9.9H2.84644C2.67127 9.9 2.4961 9.72 2.4961 9.42V7.92C2.4961 7.68 2.62748 7.44 2.84644 7.44H3.94122C4.11638 7.44 4.29155 7.62 4.29155 7.92V9.42C4.24776 9.72 4.11638 9.9 3.89743 9.9ZM7.40073 15.3H6.30595C6.13078 15.3 5.95562 15.12 5.95562 14.82V13.32C5.95562 13.08 6.08699 12.84 6.30595 12.84H7.40073C7.5759 12.84 7.75106 13.02 7.75106 13.32V14.82C7.75106 15.12 7.61969 15.3 7.40073 15.3ZM7.40073 9.9H6.30595C6.13078 9.9 5.95562 9.72 5.95562 9.42V7.92C5.95562 7.68 6.08699 7.44 6.30595 7.44H7.40073C7.5759 7.44 7.75106 7.62 7.75106 7.92V9.42C7.75106 9.72 7.61969 9.9 7.40073 9.9ZM10.904 15.3H9.80925C9.63409 15.3 9.45892 15.12 9.45892 14.82V13.32C9.45892 13.08 9.5903 12.84 9.80925 12.84H10.904C11.0792 12.84 11.2544 13.02 11.2544 13.32V14.82C11.2544 15.12 11.123 15.3 10.904 15.3ZM10.904 9.9H9.80925C9.63409 9.9 9.45892 9.72 9.45892 9.42V7.92C9.45892 7.68 9.5903 7.44 9.80925 7.44H10.904C11.0792 7.44 11.2544 7.62 11.2544 7.92V9.42C11.2544 9.72 11.123 9.9 10.904 9.9Z" fill="black"/>
</svg>
