<svg width="44" height="69" viewBox="0 0 44 69" fill="none" xmlns="http://www.w3.org/2000/svg">
<path d="M34.5 0H8.625C3.86889 0 0 3.86889 0 8.625V34.5C0 39.2561 3.86889 43.125 8.625 43.125H20.2303L15.8658 65.5761C15.7016 66.4198 15.9234 67.2916 16.4695 67.9542C17.0155 68.6168 17.8284 69 18.6875 69H28.0018C30.502 69 32.7242 67.3646 33.4808 64.9963L41.8503 45.1437C41.8981 45.03 41.9388 44.9135 41.9711 44.7955C42.7375 42.0413 43.125 39.1929 43.125 36.3306V8.625C43.125 3.86889 39.2561 0 34.5 0Z" fill="#F7A600"/>
</svg>
