<svg width="44" height="69" viewBox="0 0 44 69" fill="none" xmlns="http://www.w3.org/2000/svg">
<path d="M35.375 0H9.5C4.74389 0 0.875 3.86889 0.875 8.625V34.5C0.875 39.2561 4.74389 43.125 9.5 43.125H21.1067L16.7409 65.5761C16.5752 66.4198 16.797 67.2916 17.3445 67.9542C17.8892 68.6168 18.7034 69 19.5625 69H28.8782C31.3798 69 33.6006 67.3646 34.3558 64.9949L42.7253 45.1437C42.773 45.0299 42.8123 44.9134 42.846 44.7955C43.6125 42.0385 44 39.1901 44 36.3306V8.625C44 3.86889 40.1311 0 35.375 0Z" fill="#F7A600"/>
</svg>
