<svg width="6" height="10" viewBox="0 0 6 10" fill="none" xmlns="http://www.w3.org/2000/svg">
<path d="M0.819049 9.99934C0.679291 10.0002 0.542458 9.95933 0.425993 9.88207C0.309529 9.80481 0.21871 9.69462 0.165117 9.56554C0.111524 9.43647 0.0975839 9.29435 0.125074 9.15732C0.152565 9.02029 0.22024 8.89456 0.319473 8.79614L4.04871 5.07394L0.319473 1.35174C0.2042 1.21713 0.143965 1.04399 0.150805 0.866901C0.157645 0.689815 0.231056 0.521831 0.356369 0.396518C0.481681 0.271206 0.649665 0.197795 0.826752 0.190954C1.00384 0.184114 1.17698 0.244349 1.31159 0.359622L5.53337 4.5814C5.66442 4.71323 5.73798 4.89157 5.73798 5.07746C5.73798 5.26335 5.66442 5.44168 5.53337 5.57351L1.31159 9.79529C1.18053 9.92528 1.00364 9.99857 0.819049 9.99934Z" fill="#272761"/>
</svg>
