<svg width="14" height="10" viewBox="0 0 14 10" fill="none" xmlns="http://www.w3.org/2000/svg">
<path d="M11.2191 9.56734C11.2853 9.62901 11.3748 9.66335 11.4678 9.66279C11.5608 9.66223 11.6498 9.62683 11.7152 9.56436C12.9649 8.36747 13.6654 6.75476 13.6654 5.0746C13.6654 3.39444 12.9649 1.78173 11.7152 0.584837C11.6488 0.528494 11.5621 0.498183 11.4727 0.500084C11.3834 0.501986 11.2983 0.535957 11.2346 0.595071C11.1709 0.654186 11.1335 0.733992 11.1301 0.818218C11.1266 0.902444 11.1573 0.984747 11.2159 1.04835C12.3358 2.12136 12.9636 3.56694 12.9636 5.07294C12.9636 6.57895 12.3358 8.02453 11.2159 9.09754C11.1833 9.12851 11.1575 9.16526 11.14 9.20568C11.1224 9.2461 11.1136 9.28939 11.1139 9.33306C11.1142 9.37673 11.1236 9.41991 11.1417 9.46012C11.1597 9.50032 11.186 9.53677 11.2191 9.56734ZM2.28219 9.56436C2.31435 9.59612 2.3529 9.62151 2.39557 9.63907C2.43825 9.65663 2.4842 9.666 2.53075 9.66663C2.5773 9.66727 2.62352 9.65915 2.66672 9.64277C2.70991 9.62638 2.74922 9.60205 2.78235 9.57118C2.81548 9.54032 2.84176 9.50354 2.85968 9.463C2.87759 9.42245 2.88678 9.37895 2.8867 9.33502C2.88662 9.29109 2.87728 9.24762 2.85921 9.20713C2.84115 9.16664 2.81473 9.12995 2.78149 9.09919C1.66155 8.02619 1.0338 6.5806 1.0338 5.0746C1.0338 3.56859 1.66155 2.12301 2.78149 1.05C2.84011 0.986403 2.87081 0.904099 2.86734 0.819873C2.86387 0.735647 2.82649 0.655841 2.76281 0.596727C2.69913 0.537613 2.61395 0.503641 2.52465 0.50174C2.43534 0.499838 2.34863 0.530149 2.28219 0.586493C1.03252 1.78338 0.332031 3.3961 0.332031 5.07625C0.332031 6.75641 1.03252 8.36913 2.28219 9.56602V9.56436Z" fill="#272761"/>
</svg>
