<svg width="43" height="38" viewBox="0 0 43 38" fill="none" xmlns="http://www.w3.org/2000/svg">
<g clip-path="url(#clip0_93_1934)">
<path d="M18.8805 0.0612793H18.8715C8.98122 0.0612793 0.9385 7.9726 0.9385 17.7008C0.932359 21.4161 2.12831 25.0371 4.35335 28.0398L2.11789 34.5928L9.01261 32.4254C11.9373 34.3335 15.3707 35.3477 18.8805 35.3403C28.7708 35.3403 36.8135 27.4268 36.8135 17.7008C36.8135 7.97481 28.7708 0.0612793 18.8805 0.0612793ZM29.3178 24.9705C28.8851 26.1722 27.1676 27.1688 25.7976 27.4599C24.8604 27.6561 23.6361 27.8126 19.515 26.1325C14.2436 23.9849 10.849 18.7173 10.5844 18.3755C10.331 18.0337 8.45431 15.5863 8.45431 13.055C8.45431 10.5237 9.7615 9.29115 10.2884 8.76197C10.7212 8.3276 11.4364 8.12915 12.1225 8.12915C12.3445 8.12915 12.5441 8.14018 12.7234 8.149C13.2503 8.17105 13.5149 8.20191 13.8625 9.01995C14.2952 10.0452 15.349 12.5765 15.4746 12.8367C15.6024 13.0969 15.7302 13.4497 15.5508 13.7914C15.3827 14.1442 15.2347 14.3008 14.9701 14.6006C14.7055 14.9005 14.4544 15.1298 14.1898 15.4518C13.9477 15.7318 13.6741 16.0317 13.9791 16.5498C14.284 17.0569 15.3378 18.7481 16.8894 20.1064C18.8917 21.8593 20.515 22.4194 21.0958 22.6575C21.5285 22.8339 22.0442 22.792 22.3603 22.4613C22.7617 22.0357 23.2572 21.3301 23.7617 20.6356C24.1205 20.1373 24.5734 20.0755 25.0487 20.2519C25.533 20.4173 28.0959 21.6631 28.6228 21.921C29.1497 22.1812 29.4972 22.3047 29.625 22.523C29.7506 22.7413 29.7506 23.7666 29.3178 24.9705Z" fill="black"/>
</g>
<defs>
<clipPath id="clip0_93_1934">
<rect width="42" height="37" fill="white" transform="translate(0.938477 0.0612793)"/>
</clipPath>
</defs>
</svg>
