<svg width="51" height="51" viewBox="0 0 51 51" fill="none" xmlns="http://www.w3.org/2000/svg">
<g clip-path="url(#clip0_93_3045)">
<rect x="0.591827" width="50.4082" height="50.4082" rx="25.2041" fill="black"/>
<path d="M22.6543 29.9253L30.8529 25.2034L22.6543 20.4814V29.9253Z" fill="white"/>
<path d="M25.7958 -0.00012207C11.8781 -0.00012207 0.591736 11.2863 0.591736 25.204C0.591736 39.1217 11.8781 50.408 25.7958 50.408C39.7135 50.408 50.9999 39.1217 50.9999 25.204C50.9999 11.2863 39.7135 -0.00012207 25.7958 -0.00012207ZM41.5445 25.2297C41.5445 25.2297 41.5445 30.3412 40.8961 32.806C40.5327 34.1551 39.4689 35.2189 38.1198 35.582C35.655 36.2307 25.7958 36.2307 25.7958 36.2307C25.7958 36.2307 15.9624 36.2307 13.4718 35.5562C12.1227 35.1931 11.059 34.129 10.6955 32.7799C10.0467 30.3412 10.0467 25.204 10.0467 25.204C10.0467 25.204 10.0467 20.0928 10.6955 17.628C11.0586 16.2789 12.1485 15.189 13.4718 14.826C15.9366 14.1772 25.7958 14.1772 25.7958 14.1772C25.7958 14.1772 35.655 14.1772 38.1198 14.8517C39.4689 15.2148 40.5327 16.2789 40.8961 17.628C41.5707 20.0928 41.5445 25.2297 41.5445 25.2297Z" fill="white"/>
</g>
<defs>
<clipPath id="clip0_93_3045">
<rect x="0.591827" width="50.4082" height="50.4082" rx="25.2041" fill="white"/>
</clipPath>
</defs>
</svg>
