<svg width="51" height="51" viewBox="0 0 51 51" fill="none" xmlns="http://www.w3.org/2000/svg">
<g clip-path="url(#clip0_93_229)">
<rect x="0.591797" width="50.4082" height="50.4082" rx="25.2041" fill="black"/>
<path d="M22.6562 29.9253L30.8548 25.2034L22.6562 20.4814V29.9253Z" fill="white"/>
<path d="M25.7959 0C11.8782 0 0.591797 11.2864 0.591797 25.2041C0.591797 39.1218 11.8782 50.4082 25.7959 50.4082C39.7136 50.4082 51 39.1218 51 25.2041C51 11.2864 39.7136 0 25.7959 0ZM41.5446 25.2298C41.5446 25.2298 41.5446 30.3414 40.8962 32.8061C40.5327 34.1553 39.469 35.219 38.1199 35.5821C35.6551 36.2309 25.7959 36.2309 25.7959 36.2309C25.7959 36.2309 15.9625 36.2309 13.4719 35.5563C12.1228 35.1933 11.059 34.1291 10.6956 32.78C10.0468 30.3414 10.0468 25.2041 10.0468 25.2041C10.0468 25.2041 10.0468 20.093 10.6956 17.6282C11.0586 16.279 12.1485 15.1891 13.4719 14.8261C15.9367 14.1773 25.7959 14.1773 25.7959 14.1773C25.7959 14.1773 35.6551 14.1773 38.1199 14.8519C39.469 15.2149 40.5327 16.279 40.8962 17.6282C41.5707 20.093 41.5446 25.2298 41.5446 25.2298Z" fill="white"/>
</g>
<defs>
<clipPath id="clip0_93_229">
<rect x="0.591797" width="50.4082" height="50.4082" rx="25.2041" fill="white"/>
</clipPath>
</defs>
</svg>
