<svg width="51" height="51" viewBox="0 0 51 51" fill="none" xmlns="http://www.w3.org/2000/svg">
<g clip-path="url(#clip0_39_103)">
<rect x="0.591797" y="3.05176e-05" width="50.4082" height="50.4082" rx="25.2041" fill="black"/>
<path d="M22.6543 29.9253L30.8529 25.2034L22.6543 20.4814V29.9253Z" fill="white"/>
<path d="M25.7959 -6.10352e-05C11.8782 -6.10352e-05 0.591797 11.2863 0.591797 25.204C0.591797 39.1217 11.8782 50.4081 25.7959 50.4081C39.7136 50.4081 51 39.1217 51 25.204C51 11.2863 39.7136 -6.10352e-05 25.7959 -6.10352e-05ZM41.5446 25.2298C41.5446 25.2298 41.5446 30.3413 40.8962 32.8061C40.5327 34.1552 39.469 35.219 38.1199 35.582C35.6551 36.2308 25.7959 36.2308 25.7959 36.2308C25.7959 36.2308 15.9625 36.2308 13.4719 35.5562C12.1228 35.1932 11.059 34.1291 10.6956 32.7799C10.0468 30.3413 10.0468 25.204 10.0468 25.204C10.0468 25.204 10.0468 20.0929 10.6956 17.6281C11.0586 16.279 12.1485 15.1891 13.4719 14.826C15.9367 14.1772 25.7959 14.1772 25.7959 14.1772C25.7959 14.1772 35.6551 14.1772 38.1199 14.8518C39.469 15.2148 40.5327 16.279 40.8962 17.6281C41.5707 20.0929 41.5446 25.2298 41.5446 25.2298Z" fill="white"/>
</g>
<defs>
<clipPath id="clip0_39_103">
<rect x="0.591797" y="3.05176e-05" width="50.4082" height="50.4082" rx="25.2041" fill="white"/>
</clipPath>
</defs>
</svg>
