<svg width="19" height="19" viewBox="0 0 19 19" fill="none" xmlns="http://www.w3.org/2000/svg">
<g clip-path="url(#clip0_93_1065)">
<rect width="19" height="19" rx="9.5" fill="black"/>
<path d="M8.31641 11.2798L11.4066 9.50002L8.31641 7.72021V11.2798Z" fill="white"/>
<path d="M9.5 0C4.2541 0 0 4.2541 0 9.5C0 14.7459 4.2541 19 9.5 19C14.7459 19 19 14.7459 19 9.5C19 4.2541 14.7459 0 9.5 0ZM15.4361 9.50971C15.4361 9.50971 15.4361 11.4364 15.1917 12.3654C15.0547 12.8739 14.6537 13.2749 14.1452 13.4117C13.2162 13.6562 9.5 13.6562 9.5 13.6562C9.5 13.6562 5.79356 13.6562 4.8548 13.402C4.34629 13.2652 3.94534 12.8641 3.80835 12.3555C3.5638 11.4364 3.5638 9.5 3.5638 9.5C3.5638 9.5 3.5638 7.5735 3.80835 6.64446C3.94519 6.13595 4.356 5.72514 4.8548 5.58829C5.78384 5.34375 9.5 5.34375 9.5 5.34375C9.5 5.34375 13.2162 5.34375 14.1452 5.59801C14.6537 5.73485 15.0547 6.13595 15.1917 6.64446C15.4459 7.5735 15.4361 9.50971 15.4361 9.50971Z" fill="white"/>
</g>
<defs>
<clipPath id="clip0_93_1065">
<rect width="19" height="19" rx="9.5" fill="white"/>
</clipPath>
</defs>
</svg>
