<svg width="541" height="380" viewBox="0 0 541 380" fill="none" xmlns="http://www.w3.org/2000/svg">
<path d="M540.875 133.924C542.091 98.762 534.398 63.8632 518.512 32.468C507.733 19.5857 492.774 10.8922 476.242 7.90235C407.862 1.70015 339.198 -0.841927 270.546 0.287007C202.144 -0.893166 133.728 1.56688 65.5872 7.65669C52.1155 10.1063 39.6483 16.4227 29.7071 25.8352C7.58927 46.2247 5.13173 81.1079 2.67419 110.587C-0.891398 163.588 -0.891398 216.77 2.67419 269.772C3.38516 286.364 5.85656 302.833 10.0468 318.903C13.01 331.31 19.0051 342.789 27.4953 352.312C37.5041 362.223 50.2616 368.899 64.1127 371.473C117.095 378.011 170.48 380.72 223.853 379.58C309.867 380.808 385.313 379.58 474.522 372.702C488.713 370.286 501.83 363.601 512.122 353.54C519.002 346.66 524.142 338.239 527.113 328.975C535.902 302.017 540.219 273.803 539.892 245.452C540.875 231.695 540.875 148.663 540.875 133.924ZM215.006 260.191V108.13L360.492 184.529C319.697 207.129 265.877 232.678 215.006 260.191Z" fill="black"/>
</svg>
