<svg width="71" height="70" viewBox="0 0 71 70" fill="none" xmlns="http://www.w3.org/2000/svg">
<g clip-path="url(#clip0_93_1167)">
<rect x="0.425781" width="69.6803" height="69.6803" rx="34.8401" fill="#272761"/>
<path d="M30.9258 41.3674L42.2588 34.8402L30.9258 28.313V41.3674Z" fill="white"/>
<path d="M35.2659 0C16.0272 0 0.425781 15.6014 0.425781 34.8401C0.425781 54.0789 16.0272 69.6803 35.2659 69.6803C54.5047 69.6803 70.1061 54.0789 70.1061 34.8401C70.1061 15.6014 54.5047 0 35.2659 0ZM57.0357 34.8758C57.0357 34.8758 57.0357 41.9415 56.1394 45.3487C55.637 47.2136 54.1666 48.684 52.3016 49.1859C48.8945 50.0827 35.2659 50.0827 35.2659 50.0827C35.2659 50.0827 21.673 50.0827 18.2302 49.1503C16.3653 48.6484 14.8948 47.1774 14.3925 45.3125C13.4956 41.9415 13.4956 34.8401 13.4956 34.8401C13.4956 34.8401 13.4956 27.7749 14.3925 24.3678C14.8943 22.5029 16.4009 20.9963 18.2302 20.4944C21.6374 19.5976 35.2659 19.5976 35.2659 19.5976C35.2659 19.5976 48.8945 19.5976 52.3016 20.53C54.1666 21.0319 55.637 22.5029 56.1394 24.3678C57.0719 27.7749 57.0357 34.8758 57.0357 34.8758Z" fill="white"/>
</g>
<defs>
<clipPath id="clip0_93_1167">
<rect x="0.425781" width="69.6803" height="69.6803" rx="34.8401" fill="white"/>
</clipPath>
</defs>
</svg>
