<svg width="51" height="51" viewBox="0 0 51 51" fill="none" xmlns="http://www.w3.org/2000/svg">
<g clip-path="url(#clip0_93_1641)">
<rect x="0.591797" width="50.4082" height="50.4082" rx="25.2041" fill="black"/>
<path d="M22.6562 29.9253L30.8548 25.2034L22.6562 20.4814V29.9253Z" fill="white"/>
<path d="M25.7959 -0.00012207C11.8782 -0.00012207 0.591797 11.2863 0.591797 25.204C0.591797 39.1217 11.8782 50.408 25.7959 50.408C39.7136 50.408 51 39.1217 51 25.204C51 11.2863 39.7136 -0.00012207 25.7959 -0.00012207ZM41.5446 25.2297C41.5446 25.2297 41.5446 30.3412 40.8962 32.806C40.5327 34.1551 39.469 35.2189 38.1199 35.582C35.6551 36.2307 25.7959 36.2307 25.7959 36.2307C25.7959 36.2307 15.9625 36.2307 13.4719 35.5562C12.1228 35.1931 11.059 34.129 10.6956 32.7799C10.0468 30.3412 10.0468 25.204 10.0468 25.204C10.0468 25.204 10.0468 20.0928 10.6956 17.628C11.0586 16.2789 12.1485 15.189 13.4719 14.826C15.9367 14.1772 25.7959 14.1772 25.7959 14.1772C25.7959 14.1772 35.6551 14.1772 38.1199 14.8517C39.469 15.2148 40.5327 16.2789 40.8962 17.628C41.5707 20.0928 41.5446 25.2297 41.5446 25.2297Z" fill="white"/>
</g>
<defs>
<clipPath id="clip0_93_1641">
<rect x="0.591797" width="50.4082" height="50.4082" rx="25.2041" fill="white"/>
</clipPath>
</defs>
</svg>
